<svg width="40" height="40" viewBox="0 0 40 40" fill="none" xmlns="http://www.w3.org/2000/svg">
<path d="M35.6461 32.877C35.4809 32.8319 35.2807 32.857 35.0505 32.9421C31.967 34.3536 28.9686 35.3598 26.0553 35.9555C19.7633 37.2369 13.6314 36.5661 7.66467 33.9482C6.0078 33.2174 3.70521 31.986 0.756898 30.244C0.680928 30.1841 0.58825 30.1491 0.491599 30.1439C0.391487 30.1389 0.306391 30.1489 0.226301 30.189C0.146211 30.229 0.0861433 30.2791 0.0410926 30.3441C-0.00395806 30.4092 -0.013969 30.4993 0.0210704 30.6144C0.0511042 30.7246 0.126189 30.8497 0.251329 30.9849C0.771915 31.5955 1.41764 32.2463 2.1835 32.9371C2.94936 33.6278 3.96551 34.4087 5.23193 35.2797C6.49835 36.1507 7.82485 36.9265 9.20139 37.6023C10.5829 38.2781 12.1847 38.8487 14.0118 39.3092C15.8389 39.7697 17.6659 40 19.488 40C21.3 40 23.062 39.8148 24.7689 39.4544C26.4808 39.089 27.9224 38.6585 29.0988 38.1579C30.2701 37.6624 31.3513 37.1067 32.3424 36.5061C33.3335 35.9054 34.0644 35.3948 34.5399 34.9894C35.0154 34.5789 35.3558 34.2585 35.551 34.0183C35.7813 33.733 35.8964 33.4877 35.8964 33.2724C35.9014 33.0472 35.8113 32.917 35.6461 32.877V32.877ZM20.7494 11.8133C19.9885 11.8784 19.0725 12.0185 17.9963 12.2288C16.9201 12.434 15.924 12.6943 15.0029 12.9996C14.0819 13.305 13.1408 13.7304 12.1847 14.2711C11.2237 14.8117 10.4078 15.4324 9.73199 16.1231C9.05623 16.8139 8.50561 17.6799 8.07513 18.7261C7.64464 19.7672 7.4294 20.9135 7.4294 22.1649C7.4294 23.5215 7.66467 24.7278 8.14521 25.794C8.62074 26.8602 9.25646 27.6962 10.0574 28.3169C10.8533 28.9376 11.7593 29.4231 12.7604 29.7785C13.7615 30.1339 14.8227 30.2941 15.924 30.249C17.0252 30.204 18.1014 30.0338 19.1476 29.7334C20.1888 29.4381 21.1699 28.9626 22.0809 28.3169C22.9919 27.6711 23.7377 26.9053 24.3234 26.0293C24.5386 26.3597 24.7289 26.6049 24.899 26.7651L25.3345 27.2106C25.6249 27.5059 26.0704 27.9414 26.671 28.5171C27.2667 29.0927 27.8774 29.6534 28.4881 30.204L33.714 25.2034L33.4136 24.9581C33.1984 24.7929 32.9431 24.5576 32.6528 24.2423C32.3624 23.9319 32.0721 23.5865 31.7918 23.2161C31.5065 22.8457 31.2612 22.4102 31.056 21.9197C30.8507 21.4291 30.7456 20.9536 30.7456 20.4931V7.33826C30.7456 6.83269 30.6505 6.28707 30.4603 5.69641C30.2651 5.11075 29.9247 4.47003 29.4241 3.77925C28.9236 3.08847 28.3029 2.46778 27.562 1.92717C26.8162 1.38656 25.8251 0.926042 24.5787 0.555625C23.3373 0.185208 21.9457 0 20.414 0C18.8472 0 17.3906 0.185208 16.0291 0.545614C14.6725 0.911025 13.5112 1.39657 12.5401 2.00726C11.5741 2.61795 10.7431 3.32374 10.0524 4.12965C9.36157 4.93555 8.84599 5.7765 8.51062 6.65248C8.17524 7.52847 8.00505 8.41447 8.00505 9.31047L14.7727 9.90614C15.048 9.08522 15.4184 8.37442 15.8739 7.76373C16.3344 7.15305 16.7699 6.71255 17.1654 6.43724C17.5658 6.16193 17.9963 5.94168 18.4518 5.7765C18.9123 5.61131 19.2227 5.52622 19.3828 5.50619C19.543 5.49118 19.6682 5.48617 19.7633 5.48617C21.0998 5.48617 22.0258 5.88162 22.5464 6.6675C22.8718 7.14304 23.0319 7.86385 23.0319 8.83494V11.6681C22.2711 11.6982 21.5102 11.7482 20.7494 11.8133V11.8133ZM23.037 19.4168C23.037 20.2478 22.9268 21.0036 22.7116 21.6694C22.2511 23.126 21.3751 24.042 20.0886 24.4125C18.9674 24.7428 17.9012 24.5776 16.89 23.9219C15.8138 23.2211 15.2782 22.23 15.2782 20.9536C15.2782 19.9575 15.5285 19.1065 16.0291 18.3957C16.5296 17.6899 17.1954 17.1593 18.0313 16.8089C18.8673 16.4585 19.6832 16.2082 20.4841 16.0631C21.28 15.9129 22.1359 15.8228 23.037 15.7928V19.4168V19.4168ZM39.8158 30.3742C39.6006 30.1039 39.0199 29.9287 38.0689 29.8386C37.1178 29.7485 36.2919 29.7535 35.5811 29.8586C34.8152 29.9487 34.0243 30.1689 33.2134 30.5293C32.3975 30.8847 32.0421 31.1851 32.1322 31.4203L32.1672 31.4854L32.2123 31.5205L32.2823 31.5305H32.5126C32.5527 31.5305 32.6027 31.5255 32.6728 31.5205C32.7429 31.5155 32.8079 31.5054 32.868 31.5004C32.9281 31.4954 33.0132 31.4854 33.1233 31.4804C33.2284 31.4754 33.3285 31.4604 33.4236 31.4454C33.4386 31.4454 33.6088 31.4304 33.9392 31.4003C34.2696 31.3703 34.5099 31.3503 34.655 31.3353C34.8002 31.3202 35.0455 31.3052 35.3808 31.2902C35.7162 31.2752 35.9865 31.2752 36.1867 31.2902C36.387 31.3052 36.6122 31.3252 36.8675 31.3453C37.1228 31.3653 37.328 31.4103 37.4882 31.4804C37.6484 31.5455 37.7685 31.6306 37.8436 31.7357C38.1039 32.0661 38.0538 32.7969 37.6934 33.9332C37.333 35.0695 36.9926 35.9755 36.6723 36.6462C36.5321 36.9315 36.5321 37.1067 36.6723 37.1818C36.8124 37.2569 37.0077 37.1868 37.268 36.9816C38.0488 36.3709 38.6996 35.4499 39.2252 34.2135C39.5305 33.4827 39.7507 32.7218 39.8809 31.9259C40.001 31.13 39.981 30.6144 39.8158 30.3742V30.3742Z" fill="#424242"/>
</svg>
