<svg width="16" height="12" viewBox="0 0 16 12" fill="none" xmlns="http://www.w3.org/2000/svg">
<path d="M13.5446 0.995235C12.5246 0.535265 11.4313 0.195287 10.288 0.00196665C10.2778 1.20538e-05 10.2673 0.00127167 10.2579 0.0055713C10.2484 0.00987094 10.2406 0.0169979 10.2354 0.0259651C10.0954 0.271949 9.93937 0.592595 9.83004 0.845911C8.61747 0.664748 7.38471 0.664748 6.17214 0.845911C6.05037 0.56517 5.91305 0.29143 5.76082 0.0259651C5.75566 0.0168875 5.74785 0.00959932 5.73844 0.0050732C5.72903 0.000547074 5.71847 -0.00100181 5.70816 0.00063334C4.56552 0.193954 3.47222 0.533932 2.45158 0.994568C2.4428 0.998251 2.43536 1.00453 2.43025 1.01257C0.355643 4.06237 -0.213007 7.03684 0.0663185 9.97398C0.0670958 9.98117 0.0693288 9.98813 0.0728816 9.99444C0.0764344 10.0007 0.0812327 10.0063 0.0869846 10.0106C1.29788 10.8922 2.64847 11.5638 4.0822 11.9972C4.0922 12.0003 4.10289 12.0002 4.11288 11.9972C4.12287 11.9941 4.13169 11.988 4.1382 11.9798C4.44672 11.5673 4.72012 11.1295 4.95551 10.6713C4.95878 10.665 4.96066 10.6581 4.96103 10.651C4.9614 10.644 4.96025 10.6369 4.95766 10.6304C4.95507 10.6238 4.9511 10.6179 4.94601 10.6129C4.94092 10.608 4.93484 10.6043 4.92818 10.6019C4.49753 10.4398 4.08026 10.2441 3.68021 10.0166C3.67303 10.0125 3.66697 10.0067 3.66259 9.99969C3.6582 9.99267 3.65563 9.98467 3.6551 9.97641C3.65457 9.96815 3.65611 9.95989 3.65956 9.95237C3.66301 9.94485 3.66827 9.9383 3.67488 9.93331C3.75888 9.87132 3.84288 9.80666 3.92287 9.74199C3.93007 9.73618 3.93875 9.73248 3.94793 9.7313C3.95711 9.73012 3.96644 9.73152 3.97487 9.73533C6.5928 10.9113 9.42805 10.9113 12.0153 9.73533C12.0238 9.73129 12.0332 9.72971 12.0425 9.73077C12.0518 9.73184 12.0606 9.73549 12.068 9.74133C12.148 9.80665 12.2313 9.87132 12.316 9.93331C12.3226 9.9382 12.328 9.94466 12.3315 9.95211C12.3351 9.95957 12.3368 9.9678 12.3364 9.97605C12.336 9.98431 12.3335 9.99234 12.3293 9.99942C12.325 10.0065 12.3191 10.0124 12.312 10.0166C11.9133 10.246 11.4987 10.4399 11.0633 10.6013C11.0566 10.6037 11.0506 10.6075 11.0455 10.6125C11.0404 10.6175 11.0364 10.6235 11.0338 10.6301C11.0312 10.6367 11.0301 10.6438 11.0305 10.6509C11.0308 10.658 11.0327 10.665 11.036 10.6713C11.276 11.1292 11.5507 11.5652 11.8526 11.9792C11.8589 11.9877 11.8677 11.994 11.8777 11.9974C11.8877 12.0007 11.8985 12.0009 11.9086 11.9978C13.3448 11.5656 14.6976 10.8938 15.9099 10.0106C15.9158 10.0065 15.9207 10.0012 15.9244 9.99495C15.9281 9.98874 15.9304 9.98182 15.9312 9.97464C16.2645 6.57887 15.3725 3.6284 13.5653 1.0139C13.5608 1.0054 13.5535 0.99878 13.5446 0.995235ZM5.34683 8.18543C4.55886 8.18543 3.90887 7.47281 3.90887 6.59887C3.90887 5.72426 4.54619 5.0123 5.34683 5.0123C6.15348 5.0123 6.79746 5.73026 6.78479 6.59887C6.78479 7.47348 6.14748 8.18543 5.34683 8.18543ZM10.6633 8.18543C9.8747 8.18543 9.22539 7.47281 9.22539 6.59887C9.22539 5.72426 9.86203 5.0123 10.6633 5.0123C11.47 5.0123 12.114 5.73026 12.1013 6.59887C12.1013 7.47348 11.4707 8.18543 10.6633 8.18543Z" fill="#666666"/>
</svg>
