<svg width="40" height="40" viewBox="0 0 40 40" fill="none" xmlns="http://www.w3.org/2000/svg">
<g clip-path="url(#clip0_2_59)">
<path d="M5.89875 0C3.6075 0 2.7675 0.84625 2.7675 3.13125V30.735C2.7675 30.9962 2.78125 31.2362 2.80125 31.4587C2.86 31.96 2.86 32.4487 3.3275 32.995C3.3725 33.06 3.8425 33.405 3.8425 33.405C4.09625 33.5288 4.27125 33.62 4.5575 33.7363L18.4513 39.5563C19.1675 39.8825 19.475 40.02 19.995 40H20.0012C20.5275 40.02 20.835 39.8838 21.5512 39.5563L35.4375 33.7363C35.7312 33.62 35.8987 33.5275 36.1587 33.405C36.1587 33.405 36.6287 33.0462 36.6737 32.995C37.1425 32.4487 37.1425 31.96 37.2 31.4587C37.22 31.2375 37.2337 30.9975 37.2337 30.7425V3.1325C37.2337 0.8475 36.3875 0.00125 34.1025 0.00125L5.89875 0ZM28.1587 5.18125H29.29C31.1787 5.18125 32.1037 6.1 32.1037 8.015V11.1462H29.8125V8.1375C29.8125 7.52625 29.5325 7.24625 28.9387 7.24625H28.5487C27.9375 7.24625 27.6575 7.52625 27.6575 8.1375V17.8237C27.6575 18.435 27.9375 18.715 28.5487 18.715H28.985C29.57 18.715 29.85 18.435 29.85 17.8237V14.36H32.1412V17.935C32.1412 19.8412 31.205 20.78 29.31 20.78H28.1587C26.2575 20.78 25.325 19.835 25.325 17.935V8.03125C25.325 6.125 26.2562 5.18 28.1587 5.18V5.18125ZM7.845 5.31375H13.0338V7.4425H10.175V11.7775H12.93V13.9013H10.175V18.5225H13.0738V20.6525H7.845V5.31375ZM14.205 5.31375H17.865C19.7588 5.31375 20.6962 6.2575 20.6962 8.16375V12.24C20.6962 14.1462 19.7575 15.085 17.865 15.085H16.5438V20.6512H14.205V5.31375ZM21.7512 5.31375H24.0812V20.6525H21.7512V5.31375ZM16.5363 7.37625V13.0262H17.5C18.0863 13.0262 18.3663 12.7412 18.3663 12.1275V8.27375C18.3663 7.6625 18.0863 7.375 17.5 7.375L16.5363 7.37625ZM10.11 24.2963H10.455L10.5338 24.31H10.6588L10.7238 24.33H10.7888L10.8475 24.3488L10.9125 24.3625L10.9638 24.3762L11.08 24.4025L11.1463 24.4213L11.1913 24.435L11.2425 24.455L11.3075 24.475L11.3525 24.4937L11.4188 24.52L11.4775 24.5462L11.5288 24.5775L11.5875 24.6038L11.6325 24.635L11.6988 24.6688L11.75 24.7L11.8013 24.7263L11.8525 24.765L11.9063 24.7988L11.9513 24.8375L12.1075 24.9563L12.0675 25.0075L12.0225 25.0525L11.9825 25.0988L11.9375 25.15L11.9063 25.195L11.8663 25.2413L11.8213 25.2863L11.7813 25.3375L11.75 25.3825L11.7038 25.4363L11.665 25.4813L11.62 25.5325L11.58 25.5787L11.5488 25.63L11.5025 25.675L11.4638 25.7288L11.4188 25.7737L11.3788 25.8188L11.3338 25.7875L11.2825 25.7413L11.2288 25.71L11.1325 25.645L11.0738 25.6113L11.02 25.58L10.9613 25.5463L10.9163 25.52L10.865 25.495L10.76 25.455L10.695 25.4437L10.6438 25.43L10.585 25.4163L10.5188 25.4025L10.4538 25.3962H10.3888L10.3125 25.3825H10.1875L10.1225 25.3888H10.0575L9.9925 25.4087L9.94125 25.4225L9.8825 25.4425L9.82375 25.4538L9.77 25.48L9.705 25.5063L9.615 25.5713L9.56125 25.6025L9.51625 25.6425L9.47125 25.6737L9.425 25.7137L9.39375 25.7588L9.34 25.8037L9.275 25.895L9.24375 25.9462L9.2175 26.005L9.18625 26.0512L9.1525 26.11L9.1325 26.1687L9.1075 26.22L9.0875 26.285L9.08125 26.35L9.0625 26.41L9.04875 26.475V26.54L9.0425 26.605V26.755L9.04875 26.82V26.8712L9.055 26.9362L9.06625 26.995L9.08625 27.0462L9.0925 27.1125L9.1125 27.1638L9.13125 27.2088L9.1575 27.2738L9.19125 27.3388L9.21625 27.385L9.28125 27.4887L9.32125 27.54L9.3525 27.5863L9.40625 27.625L9.4375 27.67L9.4825 27.71L9.5875 27.7888L9.6325 27.8137L9.68375 27.8475L9.74375 27.8737L9.80875 27.8988L9.85375 27.925L9.98375 27.9638L10.0425 27.97L10.1075 27.99L10.1725 27.9962H10.4525L10.5313 27.99H10.59L10.6563 27.9638L10.7213 27.9575L10.7863 27.9387L10.8375 27.925L10.8963 27.8988L10.9475 27.8737L11.0063 27.8475L11.0463 27.8212L11.0975 27.79V27.21H10.1788V26.28H12.255V28.3637L12.21 28.395L12.165 28.4337L12.1188 28.4675L12.0675 28.5063L12.0163 28.5325L11.9713 28.5725L11.8663 28.6375L11.8013 28.6687L11.6975 28.7337L11.6313 28.76L11.58 28.785L11.5213 28.8112L11.3913 28.8625L11.34 28.8888L11.2213 28.9275L11.1625 28.9412L11.1038 28.9613L11.0388 28.9812L10.9875 28.9925L10.7925 29.0325L10.7325 29.0388L10.6025 29.0525L10.5313 29.0587L10.4663 29.0637L10.395 29.07H10.07L10.005 29.0587H9.94L9.875 29.045H9.81625L9.75125 29.025L9.56125 28.9862L9.51 28.9663L9.45125 28.96L9.38625 28.9337L9.2675 28.895L9.15125 28.8438L9.08625 28.8175L9.04125 28.7913L8.97625 28.7663L8.93 28.7263L8.865 28.7013L8.82625 28.6675L8.775 28.6363L8.67 28.5575L8.61875 28.5238L8.57875 28.485L8.5275 28.445L8.4425 28.3612L8.3975 28.3212L8.35875 28.2763L8.3125 28.23L8.28125 28.1787L8.24125 28.14L8.21 28.0862L8.17 28.035L8.13875 27.99L8.105 27.9387L8.07375 27.8787L8.0475 27.8275L8.02125 27.7688L7.99625 27.7175L7.945 27.5988L7.925 27.5537L7.89875 27.495L7.885 27.4362L7.87375 27.385L7.86 27.32L7.84 27.26L7.82625 27.195L7.82 27.1438L7.80875 27.0788L7.795 26.9625L7.78125 26.8325V26.4875L7.795 26.4212V26.3562L7.815 26.2913V26.2263L7.83375 26.1675L7.85375 26.1025L7.88 25.9862L7.89875 25.9212L7.91875 25.8625L7.9975 25.6862L8.0225 25.635L8.04875 25.5763L8.0825 25.5163L8.1075 25.465L8.14125 25.42L8.20625 25.315L8.245 25.2638L8.285 25.2187L8.31625 25.1675L8.40125 25.0825L8.44 25.0362L8.48625 24.9913L8.525 24.9463L8.57875 24.9062L8.66875 24.8275L8.72 24.7887L8.77375 24.755L8.81875 24.7163L8.87 24.6825L8.92375 24.6575L8.9825 24.6237L9.0475 24.5925L9.0925 24.5587L9.1575 24.5338L9.21625 24.5075L9.275 24.4762L9.32875 24.4625L9.39375 24.4425L9.445 24.4163L9.50375 24.405L9.5625 24.385L9.6275 24.3712L9.68125 24.3513L9.74625 24.3375H9.81125L9.87 24.3187H9.935L10 24.305H10.0588L10.11 24.2963ZM30.0912 24.31H30.4362L30.515 24.3237H30.6387L30.7037 24.3425H30.775L30.84 24.3625L30.9562 24.3887L31.0212 24.4025L31.08 24.4138L31.1462 24.4338L31.205 24.4537L31.2562 24.4675L31.315 24.4863L31.38 24.5062L31.4312 24.5325L31.4962 24.5575L31.5562 24.5837L31.615 24.6175L31.66 24.6425L31.7187 24.6762L31.7775 24.7012L31.8312 24.735L31.89 24.7738L31.935 24.8075L32.04 24.8863L32.0912 24.9175L32.0512 24.9688L32.02 25.0225L31.9812 25.0675L31.9412 25.1187L31.91 25.1775L31.8762 25.2312L31.8375 25.2763L31.7975 25.3275L31.7662 25.3813L31.7262 25.4325L31.695 25.4775L31.655 25.5288L31.6237 25.5888L31.5837 25.64L31.545 25.685L31.505 25.7363L31.4737 25.79L31.4225 25.75L31.3625 25.7188L31.3175 25.685L31.2662 25.6538L31.2075 25.6275L31.1537 25.5938L31.095 25.5687L31.05 25.5425L30.985 25.5175L30.9387 25.4912L30.8875 25.4713L30.7712 25.4325L30.6412 25.3925L30.4462 25.3538L30.3812 25.3475L30.2625 25.3338H30.1262L30.055 25.3475L29.99 25.3612L29.9312 25.375L29.88 25.4L29.8337 25.4262L29.7825 25.4713L29.7437 25.53L29.7175 25.59V25.745L29.7512 25.8162L29.7762 25.8562L29.8162 25.895L29.8812 25.9288L29.9325 25.96L29.9912 25.9862L30.0562 26.0113L30.1412 26.0313L30.1862 26.0512L30.24 26.065L30.305 26.0788L30.3562 26.0975L30.415 26.1112L30.4862 26.1313L30.5512 26.1512L30.6225 26.17L30.6937 26.1838L30.7525 26.2037L30.8237 26.2225L30.8887 26.2363L30.9475 26.25L31.1437 26.3088L31.195 26.3287L31.26 26.3488L31.3187 26.3738L31.3837 26.4075L31.5137 26.4587L31.5725 26.4925L31.6775 26.5575L31.7737 26.6287L31.8337 26.6675L31.8787 26.7125L31.9237 26.7663L31.97 26.8112L32.0012 26.8563L32.0475 26.9213L32.0787 26.9675L32.105 27.0325L32.13 27.0712L32.15 27.1362L32.17 27.19L32.1837 27.2487L32.2087 27.3787L32.215 27.4437L32.2212 27.5025V27.6588L32.215 27.73L32.2012 27.86L32.1875 27.925L32.1687 27.9837L32.155 28.0487L32.135 28.1137L32.1162 28.1725L32.09 28.2188L32.0637 28.2775L32.0325 28.3288L31.9925 28.375L31.9275 28.4788L31.8487 28.57L31.8037 28.6013L31.7525 28.6475L31.7125 28.6862L31.6612 28.725L31.61 28.7512L31.5587 28.7913L31.4987 28.8225L31.3825 28.8812L31.3175 28.9075L31.2587 28.9325L31.1937 28.9525L31.135 28.9725L31.0812 28.9862L30.9512 29.0112L30.9062 29.025L30.8412 29.0388H30.7762L30.7175 29.0525H30.6525L30.5875 29.0663H30.1237L29.9287 29.0462L29.8637 29.0325L29.805 29.0263L29.675 29.0013L29.6037 28.9875L29.545 28.9738L29.48 28.9538L29.4137 28.94L29.355 28.9212L29.29 28.9013L29.225 28.875L29.1737 28.8562L29.1087 28.8363L29.0437 28.81L28.9975 28.785L28.9325 28.765L28.8812 28.7313L28.8162 28.7063L28.765 28.6725L28.7187 28.6413L28.6537 28.6075L28.6087 28.5825L28.5575 28.5425L28.5062 28.5113L28.4525 28.4713L28.4075 28.4325L28.3562 28.3925L28.31 28.3612L28.2587 28.315L28.2987 28.2638L28.3437 28.2188L28.3825 28.1725L28.4287 28.1212L28.46 28.0763L28.5 28.025L28.545 27.9787L28.5837 27.9338L28.63 27.8825L28.6612 27.8362L28.7075 27.7912L28.7462 27.74L28.7862 27.6938L28.8312 27.6425L28.8625 27.5975L28.9087 27.5513L28.9537 27.5L28.9987 27.54L29.0587 27.5787L29.1037 27.6175L29.1687 27.6513L29.2137 27.685L29.2725 27.7238L29.3262 27.7575L29.385 27.7825L29.43 27.8163L29.4887 27.835L29.5537 27.8612L29.6075 27.8875L29.6662 27.9063L29.7175 27.9325L29.7825 27.9525L29.8412 27.9713L29.9062 27.9912L29.9712 27.9975L30.0312 28.0175L30.0962 28.0238H30.1675L30.2262 28.0425H30.5775L30.6362 28.0312L30.7012 28.0175L30.7462 28.0113L30.8 27.9912L30.845 27.9662L30.9037 27.9262L30.9375 27.8813L30.9625 27.83L30.9825 27.77V27.62L30.9562 27.5612L30.925 27.51L30.885 27.4712L30.8262 27.4312L30.7812 27.4125L30.7225 27.3863L30.6575 27.36L30.5862 27.3288L30.54 27.315L30.4887 27.3012L30.4237 27.2813L30.3787 27.27L30.3137 27.25L30.2487 27.2438L30.1825 27.2175L30.1175 27.2112L30.0462 27.1925L29.9875 27.1788L29.9225 27.1587L29.8575 27.145L29.7925 27.1263L29.7337 27.1062L29.6687 27.0925L29.6175 27.0725L29.4987 27.0338L29.4337 27.0075L29.3687 26.9887L29.2387 26.935L29.18 26.9038L29.115 26.87L29.07 26.8388L29.01 26.805L28.965 26.7738L28.9062 26.74L28.8212 26.655L28.7762 26.6162L28.6975 26.525L28.6637 26.48L28.6387 26.435L28.5987 26.375L28.58 26.33L28.52 26.1737L28.5087 26.1087L28.495 26.05V25.9912L28.4812 25.9262V25.66L28.495 25.53L28.5087 25.4763L28.52 25.4175L28.54 25.3662L28.5537 25.3012L28.58 25.2562L28.605 25.19L28.6312 25.1388L28.6562 25.0738L28.69 25.0288L28.735 24.9775L28.7687 24.9237L28.82 24.8787L28.8587 24.8338L28.8987 24.78L28.9575 24.735L28.9975 24.7012L29.0487 24.6625L29.1525 24.5975L29.2112 24.5637L29.33 24.505L29.3812 24.4863L29.44 24.4662L29.505 24.44L29.57 24.4213L29.6162 24.4075L29.675 24.3937L29.7262 24.38L29.785 24.3663L29.85 24.3525L29.98 24.3412L30.04 24.335L30.0912 24.31ZM14.6938 24.355H15.8725L15.9263 24.4738L15.9513 24.525L15.9713 24.59L15.9975 24.6487L16.0163 24.7L16.05 24.7587L16.0888 24.8775L16.1225 24.9362L16.1738 25.0525L16.1875 25.1038L16.2913 25.3387L16.3113 25.3975L16.3375 25.4513L16.3688 25.51L16.3825 25.5687L16.4163 25.6337L16.4275 25.6925L16.4875 25.8087L16.5125 25.855L16.5388 25.92L16.5588 25.985L16.5775 26.03L16.6113 26.095L16.6313 26.1488L16.6563 26.2138L16.6763 26.2587L16.7025 26.3238L16.7613 26.44L16.78 26.4987L16.7938 26.5587L16.82 26.6175L16.8513 26.6687L16.8775 26.7337L16.9038 26.7925L16.9225 26.8438L16.9763 26.9625L16.995 27.0213L17.0213 27.08L17.0413 27.1388L17.0663 27.19L17.1 27.25L17.125 27.3088L17.1513 27.36L17.165 27.425L17.2163 27.5413L17.2425 27.595L17.2613 27.6537L17.315 27.77L17.3463 27.835L17.36 27.8863L17.3938 27.9525L17.405 27.9975L17.4313 28.0625L17.465 28.1275L17.49 28.1725L17.51 28.2375L17.5363 28.2912L17.555 28.3562L17.5888 28.4013L17.6275 28.5313L17.6538 28.5775L17.6788 28.6425L17.7125 28.6937L17.7388 28.7587L17.75 28.8175L17.77 28.8687L17.7963 28.9275L17.8275 28.9812H16.5263L16.495 28.9275L16.475 28.8687L16.4488 28.81L16.4238 28.745L16.41 28.6937L16.3563 28.5775L16.3375 28.5238L16.2863 28.4075L16.2663 28.3562L16.24 28.2912L16.2013 28.1725L16.175 28.1212H14.365L14.34 28.18L14.32 28.2337L14.2938 28.2987L14.2688 28.3575L14.255 28.4087L14.2288 28.4737L14.2038 28.525L14.1838 28.5838L14.1575 28.6375L14.1325 28.7025L14.1125 28.7475L14.0863 28.8125L14.0675 28.8775L14.0413 28.9237L14.0213 28.9887H12.7325L12.7513 28.9287L12.805 28.8125L12.8238 28.7475L12.8438 28.6963L12.8775 28.6375L12.9025 28.5788L12.9288 28.525L12.9425 28.4663L12.9675 28.4013L13.0013 28.35L13.0263 28.2912L13.0663 28.1725L13.125 28.0562L13.145 27.9975L13.17 27.9463L13.19 27.8863L13.2688 27.7113L13.295 27.6463L13.3138 27.595L13.3338 27.5362L13.3675 27.4825L13.3925 27.4175L13.4125 27.3587L13.4325 27.3075L13.4575 27.2425L13.4913 27.1962L13.5113 27.1312L13.5363 27.08L13.5563 27.0213L13.5825 26.9563L13.6138 26.905L13.6338 26.84L13.6588 26.7937L13.6788 26.7287L13.705 26.6637L13.73 26.6188L13.7563 26.5538L13.7763 26.5L13.8013 26.435L13.8213 26.39L13.855 26.325L13.88 26.26L13.9063 26.2087L13.92 26.15L13.945 26.09L13.9788 26.0313L14.0038 25.98L14.0175 25.915L14.0438 25.8562L14.07 25.8025L14.1213 25.6862L14.14 25.635L14.1938 25.505L14.2188 25.4588L14.245 25.3938L14.265 25.3425L14.2838 25.2775L14.31 25.2187L14.3438 25.1675L14.3688 25.1025L14.3888 25.0563L14.4088 24.9913L14.4338 24.94L14.4675 24.8813L14.4875 24.8163L14.5063 24.7625L14.5325 24.6975L14.5575 24.6525L14.5913 24.5875L14.6113 24.5225L14.63 24.4775L14.6563 24.4125L14.6938 24.355ZM18.3538 24.3887H19.6425L19.6825 24.44L19.7475 24.545L19.7788 24.6038L19.8125 24.6487L19.8438 24.7075L19.8775 24.7587L19.9088 24.8187L19.9425 24.87L19.9738 24.915L20.0075 24.9738L20.0388 25.0275L20.085 25.0787L20.1038 25.13L20.1438 25.1887L20.175 25.2425L20.215 25.2875L20.2413 25.3463L20.2725 25.3975L20.3125 25.4513L20.3312 25.5025L20.3775 25.5612L20.4738 25.7175L20.5 25.7687L20.5388 25.82L20.5725 25.8713L20.6038 25.9313L20.7025 26.0862L20.7338 26.1462L20.7675 26.1975L20.8063 26.1462L20.8325 26.08L20.8713 26.035L20.905 25.9763L20.9363 25.9313L20.9625 25.8663L21.0075 25.82L21.0413 25.7612L21.0675 25.7162L21.0988 25.6625L21.1387 25.6037L21.17 25.5588L21.2037 25.4938L21.235 25.4487L21.275 25.3888L21.3 25.3437L21.3337 25.2787L21.365 25.24L21.3987 25.1863L21.4375 25.1213L21.4713 25.0763L21.4963 25.0175L21.5363 24.9712L21.5675 24.9062L21.6013 24.8675L21.64 24.8163L21.6738 24.7513L21.705 24.705L21.7388 24.6462L21.77 24.6012L21.8038 24.5362L21.8425 24.49L21.8688 24.4313L21.9025 24.3863H23.2112V29.035H21.9863V26.3L21.955 26.3462L21.915 26.4112L21.8838 26.45L21.8438 26.5013L21.8188 26.5663L21.7788 26.6125L21.7475 26.6575L21.7075 26.7225L21.6425 26.8138L21.6038 26.865L21.57 26.93L21.5313 26.9762L21.4975 27.0213L21.4725 27.0863L21.4325 27.1312L21.4013 27.1775L21.3613 27.2425L21.33 27.2875L21.29 27.3388L21.2588 27.3975L21.2325 27.4437L21.1938 27.495L21.16 27.5537L21.1212 27.5988L21.0813 27.6525L21.0562 27.7038L21.0225 27.7625L20.9838 27.8087L20.9437 27.86L20.9188 27.925L20.8725 27.9638L20.8475 28.015L20.8075 28.0813L20.7763 28.1262H20.75L20.7113 28.0675L20.6775 28.0137L20.6463 27.955L20.6125 27.91L20.5737 27.8513L20.54 27.8L20.5012 27.7463L20.4675 27.695L20.4363 27.6362L20.4025 27.5912L20.3575 27.5312L20.3312 27.48L20.2925 27.4213L20.2588 27.3762L20.2275 27.3175L20.1875 27.2638L20.1563 27.1988L20.1163 27.1537L20.085 27.095L20.0513 27.0412L20.02 26.9825L19.98 26.9375L19.9488 26.8788L19.9088 26.8275L19.8837 26.7738L19.8438 26.7225L19.8125 26.6637L19.7725 26.6188L19.7413 26.5587L19.7013 26.5075L19.6763 26.4488L19.63 26.4037L19.605 26.3438L19.565 26.2925V29.0337H18.3613V24.43L18.3538 24.3887ZM24.1337 24.3887H27.8V25.4375H25.3512V26.1862H27.5512V27.1762H25.3512V27.97H27.8312V29.025H24.14V24.4287L24.1337 24.3887ZM15.2663 25.8137L15.2463 25.8725L15.2275 25.9262L15.2013 25.9912L15.175 26.05L15.1563 26.1087L15.1025 26.225L15.0775 26.29L15.0575 26.3438L15.0375 26.4088L15.0125 26.4538L14.9925 26.5188L14.9663 26.5838L14.9413 26.63L14.9213 26.695L14.8963 26.7462L14.8763 26.8112L14.8425 26.87L14.8288 26.9213L14.8038 26.9863L14.7775 27.0462L14.7575 27.0975L14.7325 27.1625H15.8063L15.7813 27.0975L15.7613 27.0388L15.71 26.92L15.69 26.8613L15.6638 26.81L15.645 26.745L15.6188 26.6863L15.5988 26.6275L15.5738 26.5738L15.5538 26.515L15.5275 26.45L15.5088 26.3987L15.455 26.2825L15.4438 26.2225L15.4175 26.1637L15.3913 26.0987L15.3725 26.0538L15.3188 25.9238L15.3 25.865L15.2663 25.8137ZM13.3538 34.5187H26.705L19.89 36.765L13.3538 34.5187Z" fill="#424242"/>
</g>
<defs>
<clipPath id="clip0_2_59">
<rect width="40" height="40" fill="white"/>
</clipPath>
</defs>
</svg>
