<svg width="320" height="155" viewBox="0 0 320 155" fill="none" xmlns="http://www.w3.org/2000/svg">
<g clip-path="url(#clip0_2_325)">
<path d="M199.019 62.8012V46.4124H207.593V106.106H199.135C199.019 104.79 199.019 103.474 198.903 101.799C192.878 106.585 186.273 108.259 179.09 106.704C174.107 105.628 169.704 102.876 166.576 98.6892C159.392 89.3583 159.392 74.7638 166.808 65.6722C174.455 56.3413 185.578 55.2647 199.019 62.8012ZM199.135 82.4199C199.135 73.2087 192.646 66.39 184.188 66.5096C176.077 66.6292 170.052 73.448 170.052 82.5396C170.052 91.6312 176.193 98.6892 184.42 98.6892C192.878 98.4499 199.251 91.5116 199.135 82.4199Z" fill="#404040"/>
<path d="M254.408 62.6335L254.641 58.5616H263.246V106.107H254.757L254.408 101.676C248.129 106.586 241.268 108.382 233.71 106.586C228.593 105.388 224.058 102.274 220.918 97.9631C214.174 88.8612 214.523 74.3701 221.848 65.7473C229.756 56.1664 240.919 54.9687 254.408 62.6335ZM225.104 82.5139C225.104 91.7355 231.5 98.4421 239.756 98.3224C248.012 98.2026 254.524 91.1367 254.408 81.9151C254.408 72.9329 247.896 65.9868 239.524 66.1065C231.151 66.2263 225.104 73.1725 225.104 82.5139Z" fill="#404040"/>
<path d="M106.338 82.5038C106.338 68.0987 116.898 57.6223 131.096 57.6223C144.355 57.6223 155.15 68.5749 155.032 82.0276C155.032 82.1467 155.032 82.2657 155.032 82.3848C155.032 96.6708 144.355 107.385 130.274 107.266C117.132 107.385 106.455 96.5517 106.338 83.2181C106.338 82.98 106.338 82.7419 106.338 82.5038ZM145.997 82.6229C145.997 73.3369 139.544 66.5511 130.744 66.5511C122.295 66.432 115.372 73.2179 115.255 81.7895C115.255 82.0276 115.255 82.2657 115.255 82.3848C115.255 91.4326 121.943 98.5756 130.626 98.4565C139.426 98.5756 145.997 91.7897 145.997 82.6229Z" fill="#404040"/>
<path d="M101.585 75.0434L93.7792 78.0218C91.9424 72.7799 88.9578 68.6102 83.7921 67.4189C80.5778 66.585 77.2488 66.7041 74.0346 67.538C67.3765 69.4442 63.8179 75.8774 64.1623 84.0976C64.3919 90.8882 68.9836 96.6066 75.4121 98.1553C83.1033 100.181 88.7282 96.8449 94.3531 86.8376C96.4194 87.7907 98.4857 88.7438 100.552 89.6968C100.896 89.9351 101.356 90.1734 101.7 90.4116C99.0597 101.134 87.6951 108.52 75.9861 107.09C63.8179 105.542 55.3231 95.6535 55.3231 82.7871C55.3231 69.9207 63.7031 59.6752 76.2156 57.8882C87.5803 56.1012 98.4857 63.4875 101.585 75.0434Z" fill="#404040"/>
<path d="M48.3661 106.466H39.8636V59.2231H48.3661V106.466Z" fill="#404040"/>
<path d="M277.159 107.267V99.2593H284.888V107.267H277.159Z" fill="#404040"/>
</g>
<defs>
<clipPath id="clip0_2_325">
<rect width="248.889" height="61.8357" fill="white" transform="translate(35.9998 47)"/>
</clipPath>
</defs>
</svg>
