<svg width="320" height="155" viewBox="0 0 320 155" fill="none" xmlns="http://www.w3.org/2000/svg">
<g clip-path="url(#clip0_2_288)">
<path fill-rule="evenodd" clip-rule="evenodd" d="M41.9337 54.784H40.3393C32.8958 54.784 26.8616 60.7995 26.8616 68.2199C26.8616 70.777 27.5782 73.1673 28.8221 75.202C22.1595 76.0155 16.9999 81.6758 16.9999 88.5375C16.9999 95.2784 21.979 100.859 28.4707 101.825L28.5174 101.973L38.0382 132.122H93.264L102.784 101.973L102.87 101.703C109.018 100.455 113.645 95.0352 113.645 88.5375C113.645 81.6758 108.485 76.0155 101.823 75.202C103.067 73.1673 103.783 70.777 103.783 68.2199C103.783 60.7995 97.7491 54.784 90.3054 54.784H89.3462C89.1227 52.0264 88.3903 48.9189 86.794 46.0978C84.1885 41.4951 79.3977 37.893 71.6187 37.7439C68.509 37.6843 66.4873 37.0677 65.1891 36.2998C63.9313 35.5559 63.2198 34.5947 62.8223 33.5331C61.9657 31.2457 62.4962 28.2192 63.4604 26.0083L59.3056 23C45.8284 34.8936 42.0394 47.1286 41.9337 54.784ZM47.197 54.784H84.0649C83.8559 52.7764 83.299 50.5929 82.2131 48.6744C80.512 45.6689 77.4135 43.0993 71.5176 42.9862C67.7898 42.9148 64.804 42.1687 62.5053 40.8092C60.1663 39.4257 58.6917 37.4949 57.8949 35.3669C57.5427 34.4266 57.3268 33.4625 57.218 32.5011C49.3388 41.5178 47.2891 49.8345 47.197 54.784ZM90.3054 81.6557H40.3393H30.4776C26.665 81.6557 23.5744 84.7369 23.5744 88.5375C23.5744 92.3382 26.665 95.4193 30.4776 95.4193H100.167C103.98 95.4193 107.07 92.3382 107.07 88.5375C107.07 84.7369 103.98 81.6557 100.167 81.6557H90.3054ZM90.3054 75.1016C94.118 75.1016 97.2087 72.0206 97.2087 68.2199C97.2087 64.4192 94.118 61.3381 90.3054 61.3381H40.3393C36.5268 61.3381 33.4361 64.4192 33.4361 68.2199C33.4361 72.0206 36.5268 75.1016 40.3393 75.1016H90.3054ZM86.4627 101.973H97.2705L89.4054 126.879H84.2773L86.4627 101.973ZM68.2809 101.973H81.1831L78.9974 126.879H68.2809V101.973ZM49.9984 101.973H63.0213V126.879H52.1841L49.9984 101.973ZM34.0315 101.973H44.7187L46.9044 126.879H41.8966L34.0315 101.973ZM150.918 80.6726H142.104V55.8863H150.991C153.492 55.8863 155.645 56.3825 157.449 57.375C159.254 58.3593 160.642 59.7753 161.614 61.623C162.593 63.4706 163.082 65.6814 163.082 68.2553C163.082 70.8372 162.593 73.056 161.614 74.9118C160.642 76.7675 159.246 78.1916 157.425 79.184C155.612 80.1764 153.443 80.6726 150.918 80.6726ZM147.361 76.1825H150.699C152.253 76.1825 153.561 75.9082 154.62 75.3595C155.689 74.8028 156.49 73.9435 157.025 72.7817C157.566 71.6117 157.838 70.103 157.838 68.2553C157.838 66.4237 157.566 64.927 157.025 63.7652C156.49 62.6033 155.693 61.748 154.633 61.1994C153.572 60.6507 152.265 60.3764 150.711 60.3764H147.361V76.1825ZM168.173 80.6726V55.8863H184.927V60.207H173.43V66.1131H184.065V70.4338H173.43V76.352H184.975V80.6726H168.173ZM203.79 63.0148C203.694 62.0385 203.277 61.2801 202.54 60.7395C201.804 60.1989 200.804 59.9286 199.541 59.9286C198.683 59.9286 197.959 60.0496 197.368 60.2917C196.777 60.5257 196.324 60.8524 196.009 61.272C195.701 61.6915 195.547 62.1676 195.547 62.7001C195.531 63.1439 195.624 63.5312 195.827 63.862C196.037 64.1928 196.324 64.4792 196.689 64.7213C197.053 64.9553 197.474 65.161 197.951 65.3385C198.429 65.508 198.938 65.6532 199.481 65.7742L201.715 66.3067C202.799 66.5488 203.795 66.8716 204.701 67.275C205.608 67.6784 206.393 68.1746 207.057 68.7636C207.72 69.3526 208.234 70.0465 208.598 70.8452C208.97 71.644 209.161 72.5598 209.169 73.5926C209.161 75.1094 208.773 76.4246 208.003 77.5381C207.243 78.6434 206.142 79.5027 204.701 80.1159C203.268 80.721 201.541 81.0236 199.517 81.0236C197.51 81.0236 195.762 80.717 194.272 80.1038C192.791 79.4906 191.634 78.5829 190.8 77.3807C189.975 76.1704 189.542 74.6737 189.501 72.8906H194.588C194.645 73.7217 194.884 74.4156 195.305 74.9723C195.733 75.5209 196.304 75.9364 197.016 76.2188C197.737 76.4932 198.55 76.6303 199.456 76.6303C200.347 76.6303 201.12 76.5013 201.775 76.243C202.439 75.9849 202.953 75.6258 203.317 75.1659C203.681 74.706 203.863 74.1775 203.863 73.5804C203.863 73.0237 203.698 72.5558 203.366 72.1766C203.042 71.7973 202.564 71.4746 201.933 71.2083C201.31 70.9421 200.545 70.7 199.639 70.4822L196.931 69.8044C194.835 69.2961 193.18 68.5014 191.966 67.4202C190.752 66.339 190.149 64.8827 190.157 63.0511C190.149 61.5504 190.549 60.2392 191.359 59.1178C192.177 57.9962 193.297 57.1208 194.722 56.4915C196.146 55.8621 197.765 55.5474 199.578 55.5474C201.424 55.5474 203.034 55.8621 204.41 56.4915C205.794 57.1208 206.871 57.9962 207.639 59.1178C208.408 60.2392 208.805 61.5382 208.829 63.0148H203.79ZM227.389 63.0148C227.292 62.0385 226.875 61.2801 226.139 60.7395C225.402 60.1989 224.403 59.9286 223.14 59.9286C222.282 59.9286 221.558 60.0496 220.967 60.2917C220.376 60.5257 219.923 60.8524 219.607 61.272C219.3 61.6915 219.146 62.1676 219.146 62.7001C219.13 63.1439 219.223 63.5312 219.425 63.862C219.636 64.1928 219.923 64.4792 220.287 64.7213C220.651 64.9553 221.072 65.161 221.55 65.3385C222.027 65.508 222.537 65.6532 223.079 65.7742L225.313 66.3067C226.398 66.5488 227.393 66.8716 228.3 67.275C229.206 67.6784 229.992 68.1746 230.655 68.7636C231.318 69.3526 231.833 70.0465 232.197 70.8452C232.569 71.644 232.76 72.5598 232.767 73.5926C232.76 75.1094 232.371 76.4246 231.602 77.5381C230.841 78.6434 229.741 79.5027 228.3 80.1159C226.867 80.721 225.139 81.0236 223.116 81.0236C221.109 81.0236 219.361 80.717 217.871 80.1038C216.39 79.4906 215.233 78.5829 214.399 77.3807C213.573 76.1704 213.141 74.6737 213.1 72.8906H218.187C218.244 73.7217 218.482 74.4156 218.903 74.9723C219.332 75.5209 219.902 75.9364 220.615 76.2188C221.335 76.4932 222.149 76.6303 223.055 76.6303C223.945 76.6303 224.718 76.5013 225.374 76.243C226.038 75.9849 226.551 75.6258 226.915 75.1659C227.28 74.706 227.462 74.1775 227.462 73.5804C227.462 73.0237 227.296 72.5558 226.964 72.1766C226.641 71.7973 226.163 71.4746 225.532 71.2083C224.908 70.9421 224.144 70.7 223.237 70.4822L220.53 69.8044C218.434 69.2961 216.778 68.5014 215.565 67.4202C214.35 66.339 213.747 64.8827 213.755 63.0511C213.747 61.5504 214.148 60.2392 214.958 59.1178C215.775 57.9962 216.896 57.1208 218.321 56.4915C219.745 55.8621 221.363 55.5474 223.177 55.5474C225.022 55.5474 226.633 55.8621 228.008 56.4915C229.393 57.1208 230.469 57.9962 231.238 59.1178C232.007 60.2392 232.403 61.5382 232.428 63.0148H227.389ZM237.5 80.6726V55.8863H254.254V60.207H242.757V66.1131H253.392V70.4338H242.757V76.352H254.302V80.6726H237.5ZM259.629 80.6726V55.8863H269.439C271.317 55.8863 272.919 56.2212 274.247 56.8908C275.582 57.5524 276.598 58.4924 277.294 59.7108C277.998 60.921 278.35 62.3451 278.35 63.983C278.35 65.629 277.994 67.045 277.282 68.2311C276.569 69.409 275.538 70.3127 274.186 70.9421C274.112 70.9768 274.037 71.0105 273.961 71.0434L279.237 80.6726H273.433L268.723 71.8861H264.886V80.6726H259.629ZM268.456 67.6744H264.886V60.1707H268.431C269.443 60.1707 270.281 60.3199 270.944 60.6184C271.616 60.9089 272.114 61.3366 272.438 61.9013C272.769 62.4662 272.936 63.16 272.936 63.983C272.936 64.7979 272.769 65.4797 272.438 66.0284C272.114 66.577 271.62 66.9885 270.957 67.2628C270.293 67.5372 269.459 67.6744 268.456 67.6744ZM282.315 60.207V55.8863H302.734V60.207H295.123V80.6726H289.927V60.207H282.315ZM146.121 91.2784V105.578H148.285V99.3432H154.378V97.4923H148.285V93.1358H155.016V91.2784H146.121ZM171.281 105.578V91.2784H169.117V105.578H171.281ZM197.451 105.578V91.2784H195.307V101.78H195.174L187.876 91.2784H185.873V105.578H188.037V95.0909H188.17L195.462 105.578H197.451ZM210.962 105.578H213.259L214.573 101.794H220.177L221.489 105.578H223.786L218.624 91.2784H216.123L210.962 105.578ZM219.548 99.9783L217.434 93.8758H217.321L215.203 99.9783H219.548ZM248.875 105.578V91.2784H246.732V101.78H246.599L239.301 91.2784H237.297V105.578H239.462V95.0909H239.594L246.886 105.578H248.875ZM273.201 95.9285H275.386C275.264 95.1604 275.031 94.4788 274.685 93.883C274.34 93.282 273.903 92.7747 273.375 92.3605C272.848 91.9417 272.253 91.6251 271.589 91.4108C270.931 91.1919 270.222 91.0831 269.46 91.0831C268.223 91.0831 267.118 91.3787 266.147 91.9699C265.176 92.5558 264.41 93.3987 263.85 94.4971C263.29 95.591 263.009 96.9012 263.009 98.4283C263.009 99.9501 263.288 101.261 263.843 102.359C264.403 103.458 265.169 104.303 266.14 104.894C267.111 105.48 268.218 105.773 269.46 105.773C270.249 105.773 270.978 105.657 271.646 105.425C272.313 105.192 272.906 104.864 273.425 104.44C273.947 104.012 274.375 103.504 274.706 102.918C275.043 102.327 275.269 101.68 275.386 100.976L273.201 100.97C273.112 101.426 272.951 101.831 272.717 102.184C272.489 102.534 272.208 102.829 271.876 103.071C271.545 103.314 271.174 103.497 270.763 103.623C270.356 103.744 269.927 103.805 269.474 103.805C268.657 103.805 267.922 103.6 267.268 103.19C266.614 102.781 266.098 102.175 265.72 101.375C265.347 100.574 265.16 99.5923 265.16 98.4283C265.16 97.2741 265.347 96.2962 265.72 95.496C266.098 94.6951 266.612 94.0875 267.261 93.6733C267.915 93.2591 268.655 93.0519 269.481 93.0519C269.939 93.0519 270.371 93.1149 270.777 93.24C271.188 93.3659 271.559 93.552 271.891 93.7991C272.222 94.0455 272.502 94.3457 272.731 94.6996C272.96 95.0536 273.116 95.4632 273.201 95.9285ZM298.408 91.2784H289.415V105.578H298.493V103.721H291.58V99.3432H297.939V97.4923H291.58V93.1358H298.408V91.2784Z" fill="#404040"/>
</g>
<defs>
<clipPath id="clip0_2_288">
<rect width="285.99" height="109.453" fill="white" transform="translate(16.9999 23)"/>
</clipPath>
</defs>
</svg>
