<svg width="60" height="31" viewBox="0 0 60 31" fill="none" xmlns="http://www.w3.org/2000/svg">
<path d="M0.2 30V1.2H4.38V30H0.2ZM22.1659 30.6C20.2326 30.6 18.4526 30.2667 16.8259 29.6C15.1993 28.92 13.7859 27.9333 12.5859 26.64C11.3859 25.3467 10.4526 23.7733 9.78594 21.92C9.11927 20.0667 8.78594 17.96 8.78594 15.6C8.78594 12.4933 9.3526 9.82667 10.4859 7.6C11.6193 5.36 13.1926 3.64 15.2059 2.44C17.2193 1.22667 19.5393 0.619998 22.1659 0.619998C25.5526 0.619998 28.2526 1.40666 30.2659 2.98C32.2926 4.55333 33.6726 6.72667 34.4059 9.5L30.1659 10.26C29.5793 8.54 28.6326 7.16667 27.3259 6.14C26.0193 5.11333 24.3793 4.59333 22.4059 4.58C20.3659 4.56667 18.6659 5.02 17.3059 5.94C15.9593 6.86 14.9459 8.15333 14.2659 9.82C13.5859 11.4733 13.2393 13.4 13.2259 15.6C13.2126 17.8 13.5459 19.7267 14.2259 21.38C14.9059 23.02 15.9259 24.3 17.2859 25.22C18.6593 26.14 20.3659 26.6067 22.4059 26.62C24.0459 26.6467 25.4526 26.3467 26.6259 25.72C27.8126 25.08 28.7526 24.1467 29.4459 22.92C30.1393 21.6933 30.5859 20.1867 30.7859 18.4H25.1859V15.04H35.2259C35.2526 15.28 35.2726 15.6 35.2859 16C35.2993 16.3867 35.3059 16.6333 35.3059 16.74C35.3059 19.4067 34.7926 21.7867 33.7659 23.88C32.7393 25.9733 31.2459 27.62 29.2859 28.82C27.3259 30.0067 24.9526 30.6 22.1659 30.6ZM45.6909 30V5.14H36.1109V1.2H59.4509V5.14H49.8709V30H45.6909Z" fill="#FBFAFF"/>
</svg>
