<svg fill="none" height="44" viewBox="0 0 44 44" width="44" xmlns="http://www.w3.org/2000/svg" xmlns:xlink="http://www.w3.org/1999/xlink"><linearGradient id="a" gradientUnits="userSpaceOnUse" x1="0" x2="46.9687" y1="44" y2="40.5625"><stop offset="0" stop-color="#0055d8"/><stop offset="1" stop-color="#2b7eff"/></linearGradient><circle cx="22" cy="22" fill="url(#a)" r="22"/><path clip-rule="evenodd" d="m20.4574 19.1814h2.2284v1.11c.321-.6384 1.1442-1.212 2.3808-1.212 2.3706 0 2.9334 1.2708 2.9334 3.6024v4.3182h-2.4v-3.7872c0-1.3278-.321-2.0766-1.1382-2.0766-1.1334 0-1.6044.807-1.6044 2.076v3.7878h-2.4zm-4.1154 7.7166h2.4v-7.8186h-2.4zm2.7438-10.368c.0001.2012-.0398.4003-.1174.586-.0775.1856-.1912.3539-.3344.4952-.2902.2884-.6829.4498-1.092.4488-.4084-.0003-.8002-.1613-1.0908-.4482-.1427-.1418-.256-.3103-.3334-.4959-.0774-.1857-.1175-.3848-.1178-.5859 0-.4062.162-.795.4518-1.0818.2903-.2873.6823-.4484 1.0908-.4482.4092 0 .8016.1614 1.0914.4482.2892.2868.4518.6756.4518 1.0818z" fill="#fbfaff" fill-rule="evenodd"/></svg>