<svg fill="none" height="46" viewBox="0 0 129 46" width="129" xmlns="http://www.w3.org/2000/svg"><g fill="#fbfaff"><path d="m7.4455 14.6323-7.013859-5.8367c.861349-1.14197 1.722699-2.03017 2.461009-2.53771l2.09185 1.39574-1.4766-2.03017c2.58405-2.66459 6.27556-3.80655 7.9983-4.18721l.9844 2.28394v-2.53771c3.7407-1.015081 8.6135.16918 10.5823.8882l-.4922 2.28393 1.3535-1.90328c7.9737 3.45128 10.9515 10.65837 11.4437 13.83047l-2.338.6345 2.4611.2537c.3937 3.4513-.4102 6.4289-.8614 7.4862l-7.0139-2.157c.0411-3.0875-1.452-9.7194-7.7521-11.5466-6.3002-1.8271-10.91048 1.6918-12.4281 3.6797z"/><path d="m17.0438 12.0946c-4.8235-.5075-8.08028 2.8338-9.1057 4.5679l3.4454 1.6495-4.55285-.6344-3.1993 12.5616h1.59965l1.59965-6.2174h8.36745l-.8614 1.5226-7.01385 1.3958-2.9532 11.4196 10.45925-1.7763 4.0607-7.9938-.3692 4.9485c2.9532-2.0302 7.8752-1.5226 9.9671-1.0151-1.2305-1.3957-2.0919-3.0452-2.338-3.6796-.1968-.5076-.082-1.8187 0-2.4109l.6153-3.6796-4.1837-1.9033 3.4454.6344c0-3.4259-2.9532-8.7551-8.9827-9.3895z"/><path d="m34.8861 39.8824c-13.2894-4.5679-25.96361 1.6495-30.63952 5.3291 1.96881-3.2482 5.74235-5.2445 7.38302-5.8367.5742-.1692 2.1657-.8374 3.9376-2.157 3.6915-2.9184 7.1369-3.8066 11.8128-3.299 3.7407.406 6.5627 4.1449 7.5061 5.9636z"/><path d="m46.0333 31.504h2.7637v-13.3776h-2.7637z"/><path d="m50.064 31.504h4.3717c2.7638 0 4.1205-1.5484 4.1205-4.3915v-8.9861c0-2.8431-1.3567-4.3916-4.1205-4.3916h-4.3717zm4.3215-15.2307c.8793 0 1.407.4569 1.407 1.7261v9.24c0 1.2693-.5277 1.7262-1.407 1.7262h-1.5578v-12.6923z"/><path d="m62.1039 17.8217c0-1.2692.5527-1.7515 1.4321-1.7515s1.4321.4823 1.4321 1.7515v9.5954c0 1.2693-.5527 1.7516-1.4321 1.7516s-1.4321-.4823-1.4321-1.7516zm-2.7637 9.4177c0 2.8431 1.4823 4.4677 4.1958 4.4677s4.1958-1.6246 4.1958-4.4677v-9.24c0-2.843-1.4823-4.4677-4.1958-4.4677s-4.1958 1.6247-4.1958 4.4677z"/><path d="m68.4224 17.9994c0 5.077 5.4018 5.7623 5.4018 9.4177 0 1.2693-.5527 1.7262-1.4321 1.7262s-1.4321-.4569-1.4321-1.7262v-1.2692h-2.613v1.0915c0 2.8431 1.407 4.4677 4.1205 4.4677s4.1204-1.6246 4.1204-4.4677c0-5.0769-5.4018-5.7623-5.4018-9.4177 0-1.2692.5025-1.7515 1.3819-1.7515.8793 0 1.3818.4823 1.3818 1.7515v.7362h2.613v-.5585c0-2.843-1.3818-4.4677-4.0702-4.4677-2.6883 0-4.0702 1.6247-4.0702 4.4677z"/><path d="m84.7107 24.1425h1.2562v3.2746c0 1.2693-.5527 1.7262-1.4321 1.7262-.8793 0-1.4321-.4569-1.4321-1.7262v-9.5954c0-1.2692.5528-1.7515 1.4321-1.7515.8794 0 1.4321.4823 1.4321 1.7515v1.9039h2.613v-1.7262c0-2.843-1.407-4.4677-4.1204-4.4677-2.7135 0-4.1205 1.6247-4.1205 4.4677v9.24c0 2.8431 1.407 4.4677 4.1205 4.4677 2.7134 0 4.1204-1.6246 4.1204-4.4677v-5.6354h-3.8692z"/><path d="m95.7071 13.7348h-4.0451l-2.8139 17.7692h2.5376l.4773-3.2238h3.3919l.4773 3.2238h2.7889zm-2.1607 3.1477 1.3316 8.9862h-2.6632z"/><path d="m102.873 13.7348h-3.8437v17.7692h2.4117v-12.5653l2.06 12.5653h2.613l1.91-12.743v12.743h2.613v-17.7692h-3.844l-1.885 12.6162z"/><path d="m114.657 16.2733h4.774v-2.5385h-7.537v17.7692h7.537v-2.5384h-4.774v-5.2039h3.794v-2.5384h-3.794z"/><path d="m120.038 17.9994c0 5.077 5.402 5.7623 5.402 9.4177 0 1.2693-.553 1.7262-1.432 1.7262-.88 0-1.432-.4569-1.432-1.7262v-1.2692h-2.613v1.0915c0 2.8431 1.407 4.4677 4.12 4.4677 2.714 0 4.121-1.6246 4.121-4.4677 0-5.0769-5.402-5.7623-5.402-9.4177 0-1.2692.502-1.7515 1.382-1.7515.879 0 1.382.4823 1.382 1.7515v.7362h2.613v-.5585c0-2.843-1.382-4.4677-4.071-4.4677-2.688 0-4.07 1.6247-4.07 4.4677z"/><path d="m46.0332 16.7348h2.7637v-3.0001h-2.7637z"/></g></svg>