<svg width="151" height="66" viewBox="0 0 151 66" fill="none" xmlns="http://www.w3.org/2000/svg">
<path d="M18.4455 24.6323L11.4316 18.7956C12.293 17.6536 13.1543 16.7654 13.8926 16.2579L15.9845 17.6536L14.5079 15.6235C17.092 12.9589 20.7835 11.8169 22.5062 11.4363L23.4906 13.7202V11.1825C27.2313 10.1674 32.1041 11.3517 34.0729 12.0707L33.5807 14.3546L34.9342 12.4513C42.9079 15.9026 45.8857 23.1097 46.3779 26.2818L44.0399 26.9163L46.501 27.17C46.8947 30.6213 46.0908 33.5989 45.6396 34.6562L38.6257 32.4992C38.6668 29.4117 37.1737 22.7798 30.8736 20.9526C24.5734 19.1255 19.9631 22.6444 18.4455 24.6323Z" fill="#131313"/>
<path d="M28.0443 22.0946C23.2207 21.5871 19.964 24.9284 18.9386 26.6625L22.384 28.312L17.8311 27.6776L14.6318 40.2392H16.2315L17.8311 34.0218H26.1986L25.3372 35.5444L18.3233 36.9402L15.3701 48.3598L25.8294 46.5835L29.8901 38.5897L29.5209 43.5382C32.4741 41.508 37.3961 42.0156 39.488 42.5231C38.2575 41.1274 37.3961 39.4779 37.15 38.8435C36.9531 38.3359 37.068 37.0248 37.15 36.4326L37.7653 32.753L33.5816 30.8497L37.027 31.4841C37.027 28.0582 34.0738 22.729 28.0443 22.0946Z" fill="#131313"/>
<path d="M45.8856 49.8824C32.5962 45.3145 19.922 51.5319 15.2461 55.2115C17.2149 51.9633 20.9884 49.967 22.6291 49.3748C23.2033 49.2056 24.7948 48.5374 26.5667 47.2178C30.2582 44.2994 33.7036 43.4112 38.3795 43.9188C42.1203 44.3248 44.9422 48.0637 45.8856 49.8824Z" fill="#131313"/>
<path d="M57.0332 41.504H59.7969V23.7348H57.0332V41.504Z" fill="#131313"/>
<path d="M61.064 41.504H65.4357C68.1994 41.504 69.5561 39.9556 69.5561 37.1125V28.1264C69.5561 25.2833 68.1994 23.7348 65.4357 23.7348H61.064V41.504ZM65.3854 26.2733C66.2648 26.2733 66.7924 26.7302 66.7924 27.9994V37.2394C66.7924 38.5087 66.2648 38.9656 65.3854 38.9656H63.8277V26.2733H65.3854Z" fill="#131313"/>
<path d="M73.1038 27.8217C73.1038 26.5525 73.6566 26.0702 74.536 26.0702C75.4153 26.0702 75.9681 26.5525 75.9681 27.8217V37.4171C75.9681 38.6864 75.4153 39.1687 74.536 39.1687C73.6566 39.1687 73.1038 38.6864 73.1038 37.4171V27.8217ZM70.3401 37.2394C70.3401 40.0825 71.8225 41.7071 74.536 41.7071C77.2494 41.7071 78.7318 40.0825 78.7318 37.2394V27.9994C78.7318 25.1564 77.2494 23.5317 74.536 23.5317C71.8225 23.5317 70.3401 25.1564 70.3401 27.9994V37.2394Z" fill="#131313"/>
<path d="M79.4223 27.9994C79.4223 33.0764 84.8242 33.7617 84.8242 37.4171C84.8242 38.6864 84.2714 39.1433 83.392 39.1433C82.5127 39.1433 81.9599 38.6864 81.9599 37.4171V36.1479H79.347V37.2394C79.347 40.0825 80.7539 41.7071 83.4674 41.7071C86.1809 41.7071 87.5879 40.0825 87.5879 37.2394C87.5879 32.1625 82.1861 31.4771 82.1861 27.8217C82.1861 26.5525 82.6886 26.0702 83.5679 26.0702C84.4473 26.0702 84.9498 26.5525 84.9498 27.8217V28.5579H87.5628V27.9994C87.5628 25.1564 86.1809 23.5317 83.4925 23.5317C80.8042 23.5317 79.4223 25.1564 79.4223 27.9994Z" fill="#131313"/>
<path d="M95.7107 34.1425H96.9669V37.4171C96.9669 38.6864 96.4141 39.1433 95.5348 39.1433C94.6554 39.1433 94.1027 38.6864 94.1027 37.4171V27.8217C94.1027 26.5525 94.6554 26.0702 95.5348 26.0702C96.4141 26.0702 96.9669 26.5525 96.9669 27.8217V29.7256H99.5799V27.9994C99.5799 25.1564 98.1729 23.5317 95.4594 23.5317C92.7459 23.5317 91.3389 25.1564 91.3389 27.9994V37.2394C91.3389 40.0825 92.7459 41.7071 95.4594 41.7071C98.1729 41.7071 99.5799 40.0825 99.5799 37.2394V31.604H95.7107V34.1425Z" fill="#131313"/>
<path d="M106.707 23.7348H102.662L99.848 41.504H102.386L102.863 38.2802H106.255L106.732 41.504H109.521L106.707 23.7348ZM104.546 26.8825L105.878 35.8687H103.215L104.546 26.8825Z" fill="#131313"/>
<path d="M113.873 23.7348H110.029V41.504H112.441V28.9387L114.501 41.504H117.114L119.024 28.761V41.504H121.637V23.7348H117.793L115.908 36.351L113.873 23.7348Z" fill="#131313"/>
<path d="M125.657 26.2733H130.431V23.7348H122.894V41.504H130.431V38.9656H125.657V33.7617H129.451V31.2233H125.657V26.2733Z" fill="#131313"/>
<path d="M131.038 27.9994C131.038 33.0764 136.44 33.7617 136.44 37.4171C136.44 38.6864 135.887 39.1433 135.008 39.1433C134.128 39.1433 133.576 38.6864 133.576 37.4171V36.1479H130.963V37.2394C130.963 40.0825 132.37 41.7071 135.083 41.7071C137.797 41.7071 139.204 40.0825 139.204 37.2394C139.204 32.1625 133.802 31.4771 133.802 27.8217C133.802 26.5525 134.304 26.0702 135.184 26.0702C136.063 26.0702 136.566 26.5525 136.566 27.8217V28.5579H139.178V27.9994C139.178 25.1564 137.797 23.5317 135.108 23.5317C132.42 23.5317 131.038 25.1564 131.038 27.9994Z" fill="#131313"/>
</svg>
