<svg width="15" height="12" viewBox="0 0 15 12" fill="none" xmlns="http://www.w3.org/2000/svg">
<path d="M13.8027 1.41015L15 0.253355V0H10.8535L7.89844 7.43175L4.53711 0H0.189453V0.253355L1.58789 1.95417C1.72461 2.07987 1.79492 2.26448 1.77734 2.4491V9.13257C1.82031 9.37414 1.74414 9.61964 1.57617 9.79444L0 11.725V11.9745H4.46484V11.7211L2.89062 9.7964C2.80628 9.71029 2.74284 9.60577 2.70523 9.49097C2.66763 9.37617 2.65688 9.25419 2.67383 9.13453V3.35254L6.59375 11.9784H7.04883L10.4199 3.35254V10.2246C10.4199 10.4052 10.4199 10.4426 10.3027 10.5624L9.08984 11.7466V12H14.9727V11.7466L13.8027 10.5899C13.7012 10.5113 13.6484 10.3797 13.6699 10.252V1.74795C13.6598 1.68484 13.6668 1.62015 13.6902 1.5607C13.7136 1.50126 13.7524 1.44924 13.8027 1.41015Z" fill="#666666"/>
</svg>
