<svg width="188" height="40" viewBox="0 0 188 40" fill="none" xmlns="http://www.w3.org/2000/svg">
<g clip-path="url(#clip0_2_65)">
<path d="M187.097 17.9766V14.7032H183.011V9.61447L182.874 9.65665L179.036 10.8246L178.96 10.8476V14.7036H172.902V12.5559C172.902 11.5559 173.127 10.7901 173.57 10.2796C174.01 9.77519 174.64 9.51883 175.442 9.51883C176.019 9.51883 176.617 9.6541 177.218 9.92101L177.369 9.98756V6.54028L177.298 6.51447C176.737 6.31374 175.974 6.21265 175.028 6.21265C173.837 6.21265 172.754 6.47083 171.809 6.9821C170.864 7.4941 170.121 8.22501 169.6 9.15483C169.081 10.0832 168.818 11.1556 168.818 12.3421V14.7036H165.973V17.977H168.818V31.7672H172.902V17.9766H178.96V26.7403C178.96 30.3497 180.671 32.1792 184.046 32.1792C184.601 32.1792 185.184 32.1141 185.78 31.9876C186.387 31.8577 186.8 31.7279 187.043 31.589L187.097 31.5577V28.2537L186.931 28.3628C186.709 28.5105 186.433 28.6301 186.109 28.7192C185.784 28.8101 185.513 28.8559 185.303 28.8559C184.512 28.8559 183.927 28.6439 183.564 28.2257C183.197 27.8039 183.011 27.0657 183.011 26.033V17.9766H187.097V17.9766ZM156.852 28.8567C155.369 28.8567 154.2 28.3672 153.377 27.4039C152.548 26.4356 152.128 25.0552 152.128 23.3014C152.128 21.4923 152.548 20.0759 153.377 19.0905C154.201 18.1116 155.359 17.6148 156.818 17.6148C158.235 17.6148 159.362 18.0894 160.169 19.0257C160.981 19.9676 161.393 21.3723 161.393 23.2028C161.393 25.0556 161.005 26.4792 160.242 27.4312C159.483 28.3763 158.343 28.8567 156.852 28.8567V28.8567ZM157.034 14.2923C154.205 14.2923 151.958 15.1166 150.357 16.7428C148.756 18.3694 147.945 20.6196 147.945 23.4327C147.945 26.1043 148.737 28.2534 150.3 29.8188C151.862 31.3854 153.989 32.1788 156.619 32.1788C159.361 32.1788 161.563 31.3425 163.164 29.6941C164.765 28.0468 165.576 25.8177 165.576 23.0705C165.576 20.357 164.815 18.1919 163.313 16.6366C161.811 15.081 159.698 14.2923 157.034 14.2923V14.2923ZM141.359 14.2923C139.435 14.2923 137.844 14.7817 136.628 15.7468C135.405 16.7177 134.785 17.9916 134.785 19.5326C134.785 20.3337 134.919 21.0454 135.182 21.649C135.447 22.2545 135.858 22.7876 136.403 23.2352C136.944 23.6788 137.779 24.1439 138.885 24.617C139.816 24.9977 140.509 25.3199 140.95 25.5737C141.381 25.8225 141.687 26.0727 141.86 26.3163C142.027 26.5545 142.113 26.8807 142.113 27.2836C142.113 28.4301 141.25 28.9876 139.474 28.9876C138.815 28.9876 138.064 28.8512 137.241 28.5814C136.424 28.3155 135.653 27.9264 134.954 27.4276L134.785 27.3068V31.2188L134.847 31.2479C135.425 31.5134 136.154 31.7367 137.012 31.913C137.87 32.0894 138.648 32.1792 139.325 32.1792C141.413 32.1792 143.094 31.6872 144.321 30.7159C145.555 29.7385 146.181 28.4348 146.181 26.8399C146.181 25.6897 145.844 24.7036 145.18 23.9079C144.521 23.1188 143.376 22.3945 141.78 21.7541C140.508 21.2465 139.694 20.825 139.358 20.5014C139.034 20.1887 138.869 19.7468 138.869 19.1872C138.869 18.6908 139.072 18.2934 139.489 17.9712C139.91 17.6476 140.494 17.4828 141.227 17.4828C141.908 17.4828 142.604 17.5897 143.296 17.7992C143.989 18.009 144.596 18.2897 145.104 18.633L145.271 18.7465V15.0356L145.206 15.0079C144.738 14.8083 144.121 14.6377 143.371 14.4988C142.625 14.3617 141.948 14.2923 141.359 14.2923V14.2923ZM124.137 28.8563C122.655 28.8563 121.486 28.3672 120.662 27.4039C119.833 26.4356 119.414 25.0556 119.414 23.3014C119.414 21.4923 119.833 20.0759 120.663 19.0905C121.486 18.1116 122.644 17.6148 124.104 17.6148C125.52 17.6148 126.647 18.0894 127.455 19.0257C128.266 19.9676 128.678 21.3723 128.678 23.2028C128.678 25.0556 128.291 26.4792 127.527 27.4312C126.769 28.3763 125.629 28.8567 124.137 28.8567V28.8563ZM124.319 14.2923C121.49 14.2923 119.243 15.1166 117.643 16.7428C116.042 18.3694 115.23 20.6196 115.23 23.4327C115.23 26.1054 116.023 28.2534 117.585 29.8188C119.148 31.3854 121.274 32.1788 123.905 32.1788C126.647 32.1788 128.849 31.3425 130.45 29.6941C132.05 28.0468 132.862 25.8177 132.862 23.0705C132.862 20.357 132.1 18.1919 130.599 16.6366C129.096 15.081 126.983 14.2923 124.319 14.2923H124.319ZM109.03 17.6585V14.7032H104.995V31.7672H109.03V23.0385C109.03 21.5541 109.368 20.3348 110.035 19.4137C110.694 18.5036 111.572 18.0428 112.645 18.0428C113.008 18.0428 113.416 18.1021 113.858 18.2203C114.295 18.3374 114.612 18.4646 114.799 18.5985L114.968 18.7206V14.6741L114.903 14.6461C114.527 14.4872 113.996 14.4072 113.323 14.4072C112.309 14.4072 111.402 14.7312 110.625 15.3694C109.943 15.9301 109.45 16.6992 109.072 17.6585H109.03H109.03ZM97.7699 14.2923C95.9189 14.2923 94.2679 14.6872 92.8633 15.4654C91.456 16.2454 90.3679 17.3596 89.6277 18.7759C88.8905 20.189 88.5166 21.8392 88.5166 23.6799C88.5166 25.2919 88.8792 26.7716 89.5963 28.0756C90.3138 29.3817 91.3299 30.4036 92.6154 31.1119C93.8995 31.8199 95.3831 32.1792 97.0261 32.1792C98.9436 32.1792 100.581 31.7974 101.893 31.0457L101.946 31.0152V27.3377L101.777 27.461C101.173 27.8965 100.508 28.2411 99.8029 28.4836C99.0898 28.7308 98.4395 28.8563 97.8693 28.8563C96.2867 28.8563 95.0158 28.3632 94.0928 27.3919C93.1681 26.4188 92.6995 25.053 92.6995 23.3337C92.6995 21.6039 93.1886 20.2028 94.1521 19.1686C95.1123 18.1381 96.3853 17.6152 97.9362 17.6152C99.2623 17.6152 100.554 18.0617 101.777 18.9443L101.946 19.0665V15.1919L101.891 15.161C101.432 14.905 100.804 14.6934 100.025 14.533C99.2495 14.373 98.4907 14.2923 97.7695 14.2923H97.7699ZM85.7372 14.7032H81.7027V31.7672H85.7376V14.7036L85.7372 14.7032ZM83.7612 7.4341C83.0975 7.4341 82.5185 7.65883 82.0422 8.10465C81.5645 8.55192 81.3222 9.11447 81.3222 9.77847C81.3222 10.4319 81.5616 10.9843 82.0349 11.4192C82.505 11.853 83.0858 12.073 83.7612 12.073C84.4367 12.073 85.0197 11.853 85.4956 11.4199C85.9744 10.9843 86.2175 10.4319 86.2175 9.77847C86.2175 9.13737 85.981 8.58028 85.5153 8.12247C85.05 7.66574 84.4601 7.4341 83.7612 7.4341V7.4341ZM73.695 13.4443V31.7672H77.8121V7.95665H72.1138L64.87 25.6421L57.8405 7.95665H51.9097V31.7672H55.779V13.4425H55.912L63.3349 31.7668H66.255L73.5616 13.4443H73.6946H73.695Z" fill="#424242"/>
<path d="M18.98 18.8825H0V0H18.98V18.8825Z" fill="#424242"/>
<path d="M39.9362 18.8825H20.9565V0H39.9362V18.8825Z" fill="#424242"/>
<path d="M18.9793 39.7381H0V20.856H18.9793V39.7381Z" fill="#424242"/>
<path d="M39.9362 39.7381H20.9565V20.856H39.9362V39.7381Z" fill="#424242"/>
</g>
<defs>
<clipPath id="clip0_2_65">
<rect width="187.143" height="40" fill="white"/>
</clipPath>
</defs>
</svg>
