<svg width="320" height="155" viewBox="0 0 320 155" fill="none" xmlns="http://www.w3.org/2000/svg">
<path d="M127.186 63.5325C127.186 62.8654 128.245 61.7991 128.908 61.7991H149.399C150.987 61.7991 154.3 65.0444 154.3 66.6466V76.0737C154.3 77.6731 150.987 80.8774 149.399 80.8774H132.483V88.9703C132.483 89.5472 131.954 90.0831 131.378 90.0831H128.332C127.759 90.0831 127.183 89.5499 127.183 88.9703V63.5325H127.186ZM149.003 76.1612V66.5099H132.486V76.1612H149.003Z" fill="#404040"/>
<path d="M159.029 80.9185C159.029 79.3163 161.943 76.6041 163.444 76.6041H176.119V72.1558H161.367C160.794 72.1558 160.262 71.6227 160.262 71.043V68.6862C160.262 68.1094 160.791 67.5735 161.367 67.5735H176.602C178.103 67.5735 181.283 70.6411 181.283 72.1531V85.4953C181.283 87.0073 178.103 90.0749 176.602 90.0749H163.708C162.206 90.0749 159.027 87.0073 159.027 85.4953V80.9185H159.029ZM176.121 85.4981V80.4728H164.153V85.4981H176.121Z" fill="#404040"/>
<path d="M186.633 90.0799C186.06 90.0799 185.75 89.5905 185.75 89.1011C185.75 88.8796 185.883 88.5679 185.97 88.4339L192.462 79.5837C192.682 79.2283 193.035 78.9166 193.478 78.7389C193.035 78.6049 192.682 78.2495 192.462 77.9378L185.927 69.2216C185.75 69.0439 185.617 68.7759 185.617 68.5107C185.617 68.0651 185.927 67.5757 186.5 67.5757H190.738L197.186 76.4696H198.645L205.136 67.5757H209.331C209.904 67.5757 210.214 68.0651 210.214 68.5107C210.214 68.7787 210.081 69.0439 209.948 69.2216L203.412 77.9378C203.146 78.2495 202.793 78.6049 202.353 78.7389C202.796 78.9166 203.149 79.2283 203.412 79.5837L209.861 88.4339C209.948 88.5679 210.127 88.8796 210.127 89.1011C210.127 89.5905 209.774 90.0799 209.245 90.0799H205.006L198.647 81.0519H197.189L190.83 90.0799H186.633V90.0799Z" fill="#404040"/>
<path d="M214.104 80.9185C214.104 79.3163 217.017 76.6041 218.518 76.6041H231.193V72.1558H216.441C215.868 72.1558 215.336 71.6227 215.336 71.043V68.6862C215.336 68.1094 215.866 67.5735 216.441 67.5735H231.676C233.178 67.5735 236.357 70.6411 236.357 72.1531V85.4953C236.357 87.0073 233.178 90.0749 231.676 90.0749H218.782C217.28 90.0749 214.101 87.0073 214.101 85.4953V80.9185H214.104ZM231.193 85.4981V80.4728H219.224V85.4981H231.193Z" fill="#404040"/>
<path d="M247.579 88.9675C247.579 89.5444 247.05 90.0803 246.474 90.0803H243.514C242.985 90.0803 242.409 89.5471 242.409 88.9675V72.1584C242.409 70.6902 245.589 67.5789 247.09 67.5789H257.028C257.601 67.5789 258.133 68.112 258.133 68.6916V71.0484C258.133 71.6253 257.604 72.1612 257.028 72.1612H247.576V88.9675H247.579Z" fill="#404040"/>
<path d="M262.021 72.1584C262.021 70.6465 265.201 67.5789 266.702 67.5789H279.862C281.407 67.5789 284.543 70.6465 284.543 72.1584V85.7222C284.543 87.2341 281.364 90.0803 279.862 90.0803H266.702C265.201 90.0803 262.021 87.1904 262.021 85.6784V72.1584ZM279.379 85.498V72.1557H267.191V85.498H279.379Z" fill="#404040"/>
<path d="M68.1892 116.67C50.4428 116.67 36.0035 102.13 36.0035 84.2603H49.3405C49.3405 94.7263 57.7955 103.243 68.1919 103.243V116.67H68.1892Z" fill="#404040"/>
<path d="M68.1889 103.822V90.3924C78.5825 90.3924 87.0403 81.8785 87.0403 71.4097C87.0403 60.9437 78.5852 52.427 68.1889 52.427C57.7952 52.427 49.3374 60.9409 49.3374 71.4097H36.0005C36.0005 53.5398 50.4398 39 68.1861 39C85.9325 39 100.372 53.5398 100.372 71.4097C100.374 89.2824 85.9379 103.822 68.1889 103.822Z" fill="#404040"/>
</svg>
