<svg width="320" height="155" viewBox="0 0 320 155" fill="none" xmlns="http://www.w3.org/2000/svg">
<path d="M83.204 103.798L91.9986 108.879L125.203 89.8274L116.049 84.2026L83.204 103.798Z" fill="#404040"/>
<path d="M70.9991 96.5406L79.9733 101.802L112.998 82.5695L104.024 77.1262L70.9991 96.5406Z" fill="#404040"/>
<path d="M112.998 44.1037L104.024 38.6604V77.1263L112.998 82.5696V44.1037Z" fill="#404040"/>
<path d="M125.203 50.9987L116.05 45.5554V84.2027L125.203 89.8275V50.9987Z" fill="#404040"/>
<path d="M104.024 38.6604L72.7941 56.9861L81.5888 62.4294L112.998 44.1037L104.024 38.6604Z" fill="#404040"/>
<path d="M116.049 45.5554L83.204 64.7884V103.799L91.9986 108.879V70.2316L125.203 50.9987L116.049 45.5554Z" fill="#404040"/>
<path d="M137.408 57.7118L128.255 52.45V110.149L137.408 115.592V57.7118Z" fill="#404040"/>
<path d="M95.0496 110.512L104.203 115.955L137.407 96.359L128.254 91.2786L95.0496 110.512Z" fill="#404040"/>
<path d="M137.407 57.7118L128.254 52.45L95.0496 72.0458V110.512L104.203 115.955V77.1262L137.407 57.7118Z" fill="#404040"/>
<path d="M79.9733 65.151L70.9991 59.7078V96.5407L79.9733 101.802V65.151Z" fill="#404040"/>
<path d="M171.319 64.784V68.1696C169.761 65.7682 167.269 64.2723 163.959 64.2723C158.546 64.2723 154.106 68.7995 154.106 74.6258C154.106 80.4522 158.546 84.9794 163.959 84.9794C167.269 84.9794 169.761 83.4834 171.319 81.082V97.4174L174.707 99.7484V64.784H171.319ZM164.387 81.6725C160.493 81.6725 157.494 78.6413 157.494 74.6258C157.494 70.6104 160.493 67.5791 164.387 67.5791C168.32 67.5791 171.319 70.6104 171.319 74.6258C171.319 78.6413 168.32 81.6725 164.387 81.6725Z" fill="#404040"/>
<path d="M194.443 64.784V75.2163C194.443 79.8616 191.912 81.7119 188.796 81.7119C185.798 81.7119 183.968 79.901 183.968 76.6729V64.784H180.58V76.8697C180.58 81.9087 183.578 84.9794 188.134 84.9794C190.86 84.9794 193.002 83.9558 194.443 81.6332V84.4676H197.831V64.784H194.443Z" fill="#404040"/>
<path d="M214.905 64.2723C211.595 64.2723 209.103 65.7682 207.545 68.1696V55.4603L204.157 53.1294V84.4676H207.545V81.082C209.103 83.4834 211.595 84.9794 214.905 84.9794C220.318 84.9794 224.757 80.4522 224.757 74.6258C224.757 68.7995 220.318 64.2723 214.905 64.2723ZM214.477 81.6725C210.544 81.6725 207.545 78.6413 207.545 74.6258C207.545 70.6104 210.544 67.5791 214.477 67.5791C218.371 67.5791 221.369 70.6104 221.369 74.6258C221.369 78.6413 218.371 81.6725 214.477 81.6725Z" fill="#404040"/>
<path d="M232.344 76.2005H248.66C248.738 75.6887 248.777 75.177 248.777 74.6652C248.777 69.1538 244.961 64.2723 239.081 64.2723C233.006 64.2723 228.878 68.7995 228.878 74.6258C228.878 80.5309 233.045 84.9794 239.314 84.9794C243.208 84.9794 246.168 83.2079 247.881 80.5309L245 78.8775C244.026 80.4915 242.079 81.7513 239.392 81.7513C235.771 81.7513 233.006 79.7435 232.344 76.2005ZM239.081 67.5004C242.001 67.5004 244.766 69.3113 245.35 73.2086H232.344C232.889 69.7837 235.42 67.5004 239.081 67.5004Z" fill="#404040"/>
<path d="M183.603 99.6018C184.506 99.6018 185.29 99.1263 185.669 98.3897L185.161 98.0914C184.866 98.6321 184.304 99.0051 183.603 99.0051C182.579 99.0051 181.786 98.1939 181.786 97.159C181.786 96.124 182.579 95.3129 183.603 95.3129C184.294 95.3129 184.875 95.6765 185.124 96.2266L185.622 95.9376C185.29 95.201 184.516 94.7162 183.603 94.7162C182.21 94.7162 181.177 95.7791 181.177 97.159C181.177 98.5389 182.21 99.6018 183.603 99.6018Z" fill="#404040"/>
<path d="M188.074 95.6019V94.828H187.465V99.4899H188.074V96.8979C188.074 95.7418 188.793 95.3502 189.531 95.3502V94.7534C188.941 94.7534 188.396 94.9492 188.074 95.6019Z" fill="#404040"/>
<path d="M194.698 94.828L193.204 98.7347L191.47 94.828H190.824L192.89 99.5179L192.77 99.8069C192.521 100.413 192.106 100.842 191.507 100.777V101.355C192.337 101.42 193.019 100.814 193.37 99.9188L195.343 94.828H194.698Z" fill="#404040"/>
<path d="M199.473 94.7162C198.652 94.7162 197.997 95.1171 197.61 95.7418V94.828H197.001V101.355H197.61V98.5762C197.997 99.2009 198.652 99.6018 199.473 99.6018C200.774 99.6018 201.853 98.5389 201.853 97.159C201.853 95.7791 200.774 94.7162 199.473 94.7162ZM199.427 99.0051C198.403 99.0051 197.61 98.1939 197.61 97.159C197.61 96.124 198.403 95.3129 199.427 95.3129C200.451 95.3129 201.244 96.124 201.244 97.159C201.244 98.1939 200.451 99.0051 199.427 99.0051Z" fill="#404040"/>
<path d="M206.141 95.4248V94.828H204.813V93.5227L204.204 93.7092V94.828H203.236V95.4248H204.204V98.2499C204.204 99.3687 204.896 99.6764 206.141 99.4899V98.9492C205.247 98.9865 204.813 99.0517 204.813 98.2499V95.4248H206.141Z" fill="#404040"/>
<path d="M209.948 99.6018C211.294 99.6018 212.373 98.5389 212.373 97.159C212.373 95.7791 211.294 94.7162 209.948 94.7162C208.601 94.7162 207.522 95.7791 207.522 97.159C207.522 98.5389 208.601 99.6018 209.948 99.6018ZM209.948 99.0051C208.924 99.0051 208.131 98.1939 208.131 97.159C208.131 96.124 208.924 95.3129 209.948 95.3129C210.972 95.3129 211.765 96.124 211.765 97.159C211.765 98.1939 210.972 99.0051 209.948 99.0051Z" fill="#404040"/>
<path d="M218.022 96.0495C218.022 95.546 218.511 95.3129 218.991 95.3129C219.433 95.3129 219.904 95.49 220.097 95.9655L220.605 95.6672C220.337 95.0891 219.747 94.7162 218.991 94.7162C218.068 94.7162 217.413 95.3036 217.413 96.0495C217.413 97.765 220.107 97.103 220.107 98.2592C220.107 98.8093 219.59 99.0051 219.046 99.0051C218.428 99.0051 217.948 98.6974 217.782 98.2219L217.266 98.5296C217.496 99.1263 218.124 99.6018 219.046 99.6018C220.033 99.6018 220.715 99.0517 220.715 98.2592C220.715 96.5436 218.022 97.2056 218.022 96.0495Z" fill="#404040"/>
<path d="M225.125 94.7162C224.304 94.7162 223.649 95.1171 223.262 95.7418V94.828H222.653V101.355H223.262V98.5762C223.649 99.2009 224.304 99.6018 225.125 99.6018C226.425 99.6018 227.504 98.5389 227.504 97.159C227.504 95.7791 226.425 94.7162 225.125 94.7162ZM225.079 99.0051C224.055 99.0051 223.262 98.1939 223.262 97.159C223.262 96.124 224.055 95.3129 225.079 95.3129C226.102 95.3129 226.896 96.124 226.896 97.159C226.896 98.1939 226.102 99.0051 225.079 99.0051Z" fill="#404040"/>
<path d="M233.405 94.828V95.7418C233.017 95.1171 232.363 94.7162 231.542 94.7162C230.241 94.7162 229.162 95.7791 229.162 97.159C229.162 98.5389 230.241 99.6018 231.542 99.6018C232.363 99.6018 233.017 99.2009 233.405 98.5762V99.4899H234.013V94.828H233.405ZM231.588 99.0051C230.564 99.0051 229.771 98.1939 229.771 97.159C229.771 96.124 230.564 95.3129 231.588 95.3129C232.612 95.3129 233.405 96.124 233.405 97.159C233.405 98.1939 232.612 99.0051 231.588 99.0051Z" fill="#404040"/>
<path d="M238.374 99.6018C239.277 99.6018 240.061 99.1263 240.44 98.3897L239.932 98.0914C239.637 98.6321 239.075 99.0051 238.374 99.0051C237.35 99.0051 236.557 98.1939 236.557 97.159C236.557 96.124 237.35 95.3129 238.374 95.3129C239.065 95.3129 239.646 95.6765 239.895 96.2266L240.393 95.9376C240.061 95.201 239.287 94.7162 238.374 94.7162C236.981 94.7162 235.948 95.7791 235.948 97.159C235.948 98.5389 236.981 99.6018 238.374 99.6018Z" fill="#404040"/>
<path d="M244.321 94.7162C242.892 94.7162 241.914 95.7884 241.914 97.159C241.914 98.5669 242.91 99.6018 244.367 99.6018C245.299 99.6018 246.009 99.1636 246.397 98.5296L245.862 98.2126C245.613 98.6601 245.105 99.0051 244.377 99.0051C243.399 99.0051 242.67 98.4177 242.541 97.4667H246.59C246.599 97.3734 246.609 97.2709 246.609 97.1776C246.609 95.9003 245.732 94.7162 244.321 94.7162ZM244.321 95.3129C245.114 95.3129 245.852 95.8443 245.981 96.8699H242.541C242.661 95.9562 243.353 95.3129 244.321 95.3129Z" fill="#404040"/>
<path d="M183.603 99.6018C184.506 99.6018 185.29 99.1263 185.669 98.3897L185.161 98.0914C184.866 98.6321 184.304 99.0051 183.603 99.0051C182.579 99.0051 181.786 98.1939 181.786 97.159C181.786 96.124 182.579 95.3129 183.603 95.3129C184.294 95.3129 184.875 95.6765 185.124 96.2266L185.622 95.9376C185.29 95.201 184.516 94.7162 183.603 94.7162C182.21 94.7162 181.177 95.7791 181.177 97.159C181.177 98.5389 182.21 99.6018 183.603 99.6018Z" stroke="#404040" stroke-width="1.54589"/>
<path d="M188.074 95.6019V94.828H187.465V99.4899H188.074V96.8979C188.074 95.7418 188.793 95.3502 189.531 95.3502V94.7534C188.941 94.7534 188.396 94.9492 188.074 95.6019Z" stroke="#404040" stroke-width="1.54589"/>
<path d="M194.698 94.828L193.204 98.7347L191.47 94.828H190.824L192.89 99.5179L192.77 99.8069C192.521 100.413 192.106 100.842 191.507 100.777V101.355C192.337 101.42 193.019 100.814 193.37 99.9188L195.343 94.828H194.698Z" stroke="#404040" stroke-width="1.54589"/>
<path d="M199.473 94.7162C198.652 94.7162 197.997 95.1171 197.61 95.7418V94.828H197.001V101.355H197.61V98.5762C197.997 99.2009 198.652 99.6018 199.473 99.6018C200.774 99.6018 201.853 98.5389 201.853 97.159C201.853 95.7791 200.774 94.7162 199.473 94.7162ZM199.427 99.0051C198.403 99.0051 197.61 98.1939 197.61 97.159C197.61 96.124 198.403 95.3129 199.427 95.3129C200.451 95.3129 201.244 96.124 201.244 97.159C201.244 98.1939 200.451 99.0051 199.427 99.0051Z" stroke="#404040" stroke-width="1.54589"/>
<path d="M206.141 95.4248V94.828H204.813V93.5227L204.204 93.7092V94.828H203.236V95.4248H204.204V98.2499C204.204 99.3687 204.896 99.6764 206.141 99.4899V98.9492C205.247 98.9865 204.813 99.0517 204.813 98.2499V95.4248H206.141Z" stroke="#404040" stroke-width="1.54589"/>
<path d="M209.948 99.6018C211.294 99.6018 212.373 98.5389 212.373 97.159C212.373 95.7791 211.294 94.7162 209.948 94.7162C208.601 94.7162 207.522 95.7791 207.522 97.159C207.522 98.5389 208.601 99.6018 209.948 99.6018ZM209.948 99.0051C208.924 99.0051 208.131 98.1939 208.131 97.159C208.131 96.124 208.924 95.3129 209.948 95.3129C210.972 95.3129 211.765 96.124 211.765 97.159C211.765 98.1939 210.972 99.0051 209.948 99.0051Z" stroke="#404040" stroke-width="1.54589"/>
<path d="M218.022 96.0495C218.022 95.546 218.511 95.3129 218.991 95.3129C219.433 95.3129 219.904 95.49 220.097 95.9655L220.605 95.6672C220.337 95.0891 219.747 94.7162 218.991 94.7162C218.068 94.7162 217.413 95.3036 217.413 96.0495C217.413 97.765 220.107 97.103 220.107 98.2592C220.107 98.8093 219.59 99.0051 219.046 99.0051C218.428 99.0051 217.948 98.6974 217.782 98.2219L217.266 98.5296C217.496 99.1263 218.124 99.6018 219.046 99.6018C220.033 99.6018 220.715 99.0517 220.715 98.2592C220.715 96.5436 218.022 97.2056 218.022 96.0495Z" stroke="#404040" stroke-width="1.54589"/>
<path d="M225.125 94.7162C224.304 94.7162 223.649 95.1171 223.262 95.7418V94.828H222.653V101.355H223.262V98.5762C223.649 99.2009 224.304 99.6018 225.125 99.6018C226.425 99.6018 227.504 98.5389 227.504 97.159C227.504 95.7791 226.425 94.7162 225.125 94.7162ZM225.079 99.0051C224.055 99.0051 223.262 98.1939 223.262 97.159C223.262 96.124 224.055 95.3129 225.079 95.3129C226.102 95.3129 226.896 96.124 226.896 97.159C226.896 98.1939 226.102 99.0051 225.079 99.0051Z" stroke="#404040" stroke-width="1.54589"/>
<path d="M233.405 94.828V95.7418C233.017 95.1171 232.363 94.7162 231.542 94.7162C230.241 94.7162 229.162 95.7791 229.162 97.159C229.162 98.5389 230.241 99.6018 231.542 99.6018C232.363 99.6018 233.017 99.2009 233.405 98.5762V99.4899H234.013V94.828H233.405ZM231.588 99.0051C230.564 99.0051 229.771 98.1939 229.771 97.159C229.771 96.124 230.564 95.3129 231.588 95.3129C232.612 95.3129 233.405 96.124 233.405 97.159C233.405 98.1939 232.612 99.0051 231.588 99.0051Z" stroke="#404040" stroke-width="1.54589"/>
<path d="M238.374 99.6018C239.277 99.6018 240.061 99.1263 240.44 98.3897L239.932 98.0914C239.637 98.6321 239.075 99.0051 238.374 99.0051C237.35 99.0051 236.557 98.1939 236.557 97.159C236.557 96.124 237.35 95.3129 238.374 95.3129C239.065 95.3129 239.646 95.6765 239.895 96.2266L240.393 95.9376C240.061 95.201 239.287 94.7162 238.374 94.7162C236.981 94.7162 235.948 95.7791 235.948 97.159C235.948 98.5389 236.981 99.6018 238.374 99.6018Z" stroke="#404040" stroke-width="1.54589"/>
<path d="M244.321 94.7162C242.892 94.7162 241.914 95.7884 241.914 97.159C241.914 98.5669 242.91 99.6018 244.367 99.6018C245.299 99.6018 246.009 99.1636 246.397 98.5296L245.862 98.2126C245.613 98.6601 245.105 99.0051 244.377 99.0051C243.399 99.0051 242.67 98.4177 242.541 97.4667H246.59C246.599 97.3734 246.609 97.2709 246.609 97.1776C246.609 95.9003 245.732 94.7162 244.321 94.7162ZM244.321 95.3129C245.114 95.3129 245.852 95.8443 245.981 96.8699H242.541C242.661 95.9562 243.353 95.3129 244.321 95.3129Z" stroke="#404040" stroke-width="1.54589"/>
</svg>
