<svg width="40" height="40" viewBox="0 0 40 40" fill="none" xmlns="http://www.w3.org/2000/svg">
<path d="M35.3817 6.9L35.3717 12.45H17.705C17.5368 12.4619 17.3793 12.5372 17.2643 12.6606C17.1494 12.784 17.0854 12.9463 17.0854 13.115C17.0854 13.2837 17.1494 13.446 17.2643 13.5694C17.3793 13.6928 17.5368 13.7681 17.705 13.78L22.305 13.7533C25.7471 13.8084 29.0296 15.2145 31.4442 17.6683C33.8588 20.122 35.212 23.4266 35.2117 26.8692C35.2115 30.3117 33.8579 33.6162 31.443 36.0696C29.0281 38.523 25.7454 39.9287 22.3033 39.9833L4.58 40L4.58834 34.375H22.3133C23.2993 34.3748 24.2757 34.1804 25.1865 33.8028C26.0974 33.4253 26.925 32.872 27.622 32.1747C28.3191 31.4773 28.872 30.6495 29.2491 29.7384C29.6262 28.8274 29.8202 27.851 29.82 26.865C29.8198 25.879 29.6254 24.9027 29.2478 23.9918C28.8703 23.0809 28.3171 22.2534 27.6197 21.5563C26.9223 20.8592 26.0945 20.3064 25.1834 19.9292C24.2724 19.5521 23.296 19.3581 22.31 19.3583L17.6917 19.3083C16.8768 19.3088 16.0699 19.1487 15.3169 18.8373C14.5639 18.5259 13.8796 18.0692 13.3031 17.4933C12.7266 16.9174 12.2692 16.2336 11.9569 15.481C11.6447 14.7283 11.4838 13.9215 11.4833 13.1067C11.4829 12.2918 11.643 11.4849 11.9544 10.7319C12.2658 9.97887 12.7225 9.29459 13.2984 8.71809C13.8743 8.1416 14.558 7.68417 15.3107 7.37194C16.0634 7.0597 16.8701 6.89877 17.685 6.89833H35.3817V6.9ZM4.605 33.0717L4.59834 27.52H22.28C22.63 27.52 22.9183 27.2283 22.9183 26.875C22.9183 26.7051 22.851 26.5421 22.731 26.4219C22.611 26.3016 22.4482 26.2338 22.2783 26.2333H17.705C10.4633 26.2333 4.59334 20.3583 4.59334 13.115C4.59334 5.87167 10.4633 0 17.705 0L35.3717 0.005L35.3817 5.58833L17.7083 5.59333C13.5583 5.59333 10.2083 8.95833 10.2083 13.105C10.211 15.0983 11.0052 17.0088 12.4164 18.4166C13.8276 19.8243 15.7401 20.6139 17.7333 20.6117L22.3583 20.6617C23.9857 20.6883 25.5375 21.3536 26.6789 22.5138C27.8203 23.6741 28.46 25.2365 28.46 26.8642C28.46 28.4918 27.8203 30.0542 26.6789 31.2145C25.5375 32.3748 23.9857 33.04 22.3583 33.0667H4.60834L4.605 33.0717V33.0717Z" fill="#424242"/>
</svg>
