<svg fill="none" height="22" viewBox="0 0 22 22" width="22" xmlns="http://www.w3.org/2000/svg"><path d="m11 6c-2.76 0-5 2.24-5 5s2.24 5 5 5 5-2.24 5-5-2.24-5-5-5zm-10 6h2c.55 0 1-.45 1-1s-.45-1-1-1h-2c-.55 0-1 .45-1 1s.45 1 1 1zm18 0h2c.55 0 1-.45 1-1s-.45-1-1-1h-2c-.55 0-1 .45-1 1s.45 1 1 1zm-9-11v2c0 .55.45 1 1 1s1-.45 1-1v-2c0-.55-.45-1-1-1s-1 .45-1 1zm0 18v2c0 .55.45 1 1 1s1-.45 1-1v-2c0-.55-.45-1-1-1s-1 .45-1 1zm-5.01-15.42c-.09251-.0927-.2024-.16625-.32338-.21643-.12097-.05018-.25065-.07601-.38162-.07601s-.26065.02583-.38162.07601c-.12098.05018-.23087.12373-.32338.21643-.0927.09251-.16625.2024-.21643.32338-.05018.12097-.07601.25065-.07601.38162s.02583.26065.07601.38162c.05018.12098.12373.23087.21643.32338l1.06 1.06c.39.39 1.03.39 1.41 0s.39-1.03 0-1.41zm12.37 12.37c-.0925-.0927-.2024-.1663-.3234-.2164-.1209-.0502-.2506-.076-.3816-.076s-.2607.0258-.3816.076c-.121.0501-.2309.1237-.3234.2164-.0927.0925-.1663.2024-.2164.3234-.0502.1209-.076.2506-.076.3816s.0258.2607.076.3816c.0501.121.1237.2309.2164.3234l1.06 1.06c.39.39 1.03.39 1.41 0 .0927-.0925.1663-.2024.2164-.3234.0502-.1209.076-.2506.076-.3816s-.0258-.2607-.076-.3816c-.0501-.121-.1237-.2309-.2164-.3234zm1.06-10.96c.0927-.09251.1663-.2024.2164-.32338.0502-.12097.076-.25065.076-.38162s-.0258-.26065-.076-.38162c-.0501-.12098-.1237-.23087-.2164-.32338-.0925-.0927-.2024-.16625-.3234-.21643-.1209-.05018-.2506-.07601-.3816-.07601s-.2607.02583-.3816.07601c-.121.05018-.2309.12373-.3234.21643l-1.06 1.06c-.39.39-.39 1.03 0 1.41s1.03.39 1.41 0zm-12.37 12.37c.0927-.0925.16625-.2024.21643-.3234.05018-.1209.07601-.2506.07601-.3816s-.02583-.2607-.07601-.3816c-.05018-.121-.12373-.2309-.21643-.3234-.09251-.0927-.2024-.1663-.32338-.2164-.12097-.0502-.25065-.076-.38162-.076s-.26065.0258-.38162.076c-.12098.0501-.23087.1237-.32338.2164l-1.06 1.06c-.39.39-.39 1.03 0 1.41s1.03.39 1.41 0z" fill="#fcef03"/></svg>