<svg fill="none" height="400" viewBox="0 0 261 400" width="261" xmlns="http://www.w3.org/2000/svg" xmlns:xlink="http://www.w3.org/1999/xlink"><linearGradient id="a"><stop offset="0" stop-color="#fff"/><stop offset=".890892" stop-color="#fff" stop-opacity="0"/></linearGradient><linearGradient id="b" gradientUnits="userSpaceOnUse" x1="7.27344" x2="7.27343" xlink:href="#a" y1="288.373" y2="198.599"/><linearGradient id="c" gradientUnits="userSpaceOnUse" x1="7.27344" x2="7.27343" xlink:href="#a" y1="377.774" y2="288"/><linearGradient id="d"><stop offset="0" stop-color="#0055d8"/><stop offset="1" stop-color="#2b7eff"/></linearGradient><linearGradient id="e" gradientUnits="userSpaceOnUse" x1="92" x2="182.734" xlink:href="#d" y1="48" y2="36.1023"/><linearGradient id="f" gradientUnits="userSpaceOnUse" x1="185.174" x2="261.527" xlink:href="#d" y1="100" y2="80.784"/><linearGradient id="g" gradientUnits="userSpaceOnUse" x1="185.174" x2="261.527" xlink:href="#d" y1="188" y2="168.784"/><linearGradient id="h" gradientUnits="userSpaceOnUse" x1="185.174" x2="261.527" xlink:href="#d" y1="276" y2="256.784"/><linearGradient id="i" gradientUnits="userSpaceOnUse" x1="185.174" x2="261.527" xlink:href="#d" y1="364" y2="344.784"/><linearGradient id="j" gradientUnits="userSpaceOnUse" x1="166" x2="166.235" xlink:href="#d" y1="74" y2="67.5695"/><linearGradient id="k" gradientUnits="userSpaceOnUse" x1="166" x2="166.235" xlink:href="#d" y1="68" y2="61.5695"/><linearGradient id="l" gradientUnits="userSpaceOnUse" x1="166" x2="166.235" xlink:href="#d" y1="162" y2="155.569"/><linearGradient id="m" gradientUnits="userSpaceOnUse" x1="166" x2="166.235" xlink:href="#d" y1="156" y2="149.569"/><linearGradient id="n" gradientUnits="userSpaceOnUse" x1="166" x2="166.235" xlink:href="#d" y1="250" y2="243.569"/><linearGradient id="o" gradientUnits="userSpaceOnUse" x1="166" x2="166.235" xlink:href="#d" y1="244" y2="237.569"/><linearGradient id="p" gradientUnits="userSpaceOnUse" x1="166" x2="166.235" xlink:href="#d" y1="338" y2="331.569"/><linearGradient id="q" gradientUnits="userSpaceOnUse" x1="166" x2="166.235" xlink:href="#d" y1="332" y2="325.569"/><linearGradient id="r" gradientUnits="userSpaceOnUse" x1="92" x2="92.2353" xlink:href="#d" y1="62" y2="68.4305"/><linearGradient id="s" gradientUnits="userSpaceOnUse" x1="92" x2="92.2353" xlink:href="#d" y1="68" y2="74.4305"/><linearGradient id="t" gradientUnits="userSpaceOnUse" x1="92" x2="92.2353" xlink:href="#d" y1="150" y2="156.431"/><linearGradient id="u" gradientUnits="userSpaceOnUse" x1="92" x2="92.2353" xlink:href="#d" y1="156" y2="162.431"/><linearGradient id="v" gradientUnits="userSpaceOnUse" x1="92" x2="92.2353" xlink:href="#d" y1="238" y2="244.431"/><linearGradient id="w" gradientUnits="userSpaceOnUse" x1="92" x2="92.2353" xlink:href="#d" y1="244" y2="250.431"/><linearGradient id="x" gradientUnits="userSpaceOnUse" x1="13" x2="12.7647" xlink:href="#d" y1="224" y2="217.569"/><linearGradient id="y" gradientUnits="userSpaceOnUse" x1="13" x2="12.7647" xlink:href="#d" y1="218" y2="211.569"/><linearGradient id="z" gradientUnits="userSpaceOnUse" x1="13" x2="12.7647" xlink:href="#d" y1="116.3" y2="109.869"/><linearGradient id="A" gradientUnits="userSpaceOnUse" x1="13" x2="12.7647" xlink:href="#d" y1="110.3" y2="103.869"/><linearGradient id="B" gradientUnits="userSpaceOnUse" x1="13" x2="12.7647" xlink:href="#d" y1="312" y2="305.569"/><linearGradient id="C" gradientUnits="userSpaceOnUse" x1="13" x2="12.7647" xlink:href="#d" y1="306" y2="299.569"/><linearGradient id="D" gradientUnits="userSpaceOnUse" x1="92" x2="92.2353" xlink:href="#d" y1="326" y2="332.431"/><linearGradient id="E" gradientUnits="userSpaceOnUse" x1="92" x2="92.2353" xlink:href="#d" y1="332" y2="338.431"/><path d="m97.4804 198.599h-82.207c-4.4183 0-7.99996-3.581-7.99996-8v-160.599c0-4.4183 3.58176-8 7.99996-8h82.207" opacity=".5" stroke="#fbfaff"/><path d="m97.4804 288.373h-82.207c-4.4183 0-7.99996-3.582-7.99996-8v-73.774c0-4.418 3.58176-8 7.99996-8h82.207" opacity=".5" stroke="url(#b)"/><path d="m97.4804 377.774h-82.207c-4.4183 0-7.99996-3.582-7.99996-8v-73.774c0-4.418 3.58176-8 7.99996-8h82.207" opacity=".5" stroke="url(#c)"/><path d="m99.5108 6.57285c.6902-3.80575 4.0042-6.57285 7.8722-6.57285h61.036c4.99 0 8.762 4.51758 7.872 9.42715l-5.802 31.99995c-.69 3.8058-4.004 6.5729-7.872 6.5729h-61.036c-4.9898 0-8.762-4.5176-7.8718-9.4272z" fill="#1f1f1f"/><path d="m99.5108 6.57285c.6902-3.80575 4.0042-6.57285 7.8722-6.57285h61.036c4.99 0 8.762 4.51758 7.872 9.42715l-5.802 31.99995c-.69 3.8058-4.004 6.5729-7.872 6.5729h-61.036c-4.9898 0-8.762-4.5176-7.8718-9.4272z" fill="url(#e)"/><path d="m111.991 27.5v-5.76h.848l2.836 4.28v-4.28h.848v5.76h-.848l-2.836-4.284v4.284zm5.969 0v-5.76h3.412v.836h-2.576v1.624h2.096v.84h-2.096v2.46zm5.889 0v-4.972h-1.917v-.788h4.669v.788h-1.917v4.972zm7.239.12c-.443 0-.819-.0987-1.128-.296s-.547-.468-.712-.812c-.163-.344-.245-.7347-.248-1.172.003-.4453.088-.8387.256-1.18.168-.344.408-.6133.72-.808s.687-.292 1.124-.292c.472 0 .875.1173 1.208.352.336.2347.557.556.664.964l-.832.24c-.083-.2427-.219-.4307-.408-.564-.187-.136-.401-.204-.644-.204-.275 0-.5.0653-.676.196-.176.128-.307.304-.392.528s-.129.48-.132.768c.003.4453.104.8053.304 1.08.203.2747.501.412.896.412.269 0 .487-.0613.652-.184.168-.1253.296-.304.384-.536l.848.2c-.141.4213-.375.7453-.7.972-.325.224-.72.336-1.184.336zm3.019-.12v-4.32h.744v1.048l-.104-.136c.053-.1387.123-.2653.208-.38.085-.1173.184-.2133.296-.288.109-.08.231-.1413.364-.184.136-.0453.275-.072.416-.08.141-.0107.277-.004.408.02v.784c-.141-.0373-.299-.048-.472-.032-.171.016-.328.0707-.472.164-.136.088-.244.1947-.324.32-.077.1253-.133.2653-.168.42-.035.152-.052.3133-.052.484v2.18zm5.251.12c-.429 0-.806-.0933-1.132-.28-.322-.1893-.574-.452-.756-.788-.178-.3387-.268-.7307-.268-1.176 0-.472.088-.8813.264-1.228.179-.3467.427-.6147.744-.804.318-.1893.687-.284 1.108-.284.44 0 .815.1027 1.124.308.31.2027.54.492.693.868.154.376.215.8227.184 1.34h-.837v-.304c-.005-.5013-.101-.872-.288-1.112-.184-.24-.465-.36-.844-.36-.418 0-.733.132-.944.396-.21.264-.316.6453-.316 1.144 0 .4747.106.8427.316 1.104.211.2587.515.388.912.388.262 0 .487-.0587.676-.176.192-.12.342-.2907.448-.512l.82.26c-.168.3867-.422.6867-.764.9-.341.2107-.721.316-1.14.316zm-1.54-2.044v-.652h3.084v.652zm5.86 2.044c-.32 0-.588-.0587-.804-.176-.216-.12-.38-.2773-.492-.472-.11-.1973-.164-.4133-.164-.648 0-.2187.038-.4107.116-.576.077-.1653.192-.3053.344-.42.152-.1173.338-.212.56-.284.192-.056.409-.1053.652-.148.242-.0427.497-.0827.764-.12.269-.0373.536-.0747.8-.112l-.304.168c.005-.3387-.067-.5893-.216-.752-.147-.1653-.4-.248-.76-.248-.227 0-.435.0533-.624.16-.19.104-.322.2773-.396.52l-.78-.24c.106-.3707.309-.6653.608-.884.301-.2187.701-.328 1.2-.328.386 0 .722.0667 1.008.2.288.1307.498.3387.632.624.069.1413.112.2907.128.448s.024.3267.024.508v2.66h-.74v-.988l.144.128c-.179.3307-.407.5773-.684.74-.275.16-.614.24-1.016.24zm.148-.684c.237 0 .441-.0413.612-.124.17-.0853.308-.1933.412-.324s.172-.2667.204-.408c.045-.128.07-.272.076-.432.008-.16.012-.288.012-.384l.272.1c-.264.04-.504.076-.72.108s-.412.064-.588.096c-.174.0293-.328.0653-.464.108-.115.04-.218.088-.308.144-.088.056-.159.124-.212.204-.051.08-.076.1773-.076.292 0 .112.028.216.084.312.056.0933.141.168.256.224.114.056.261.084.44.084zm5.978.564c-.272.0533-.538.076-.8.068-.261-.008-.494-.0587-.7-.152-.205-.0933-.36-.24-.464-.44-.093-.1787-.144-.36-.152-.544-.005-.1867-.008-.3973-.008-.632v-3.82h.84v3.78c0 .1733.002.324.004.452.006.128.034.236.084.324.096.1653.248.26.456.284.211.0213.458.012.74-.028zm-2.952-3.648v-.672h2.952v.672zm5.864 3.768c-.432 0-.807-.0973-1.124-.292s-.563-.4627-.736-.804c-.171-.344-.256-.74-.256-1.188 0-.4507.088-.8467.264-1.188.176-.344.423-.6107.74-.8.317-.192.688-.288 1.112-.288.432 0 .807.0973 1.124.292s.563.4627.736.804.26.7347.26 1.18c0 .4507-.088.848-.264 1.192-.173.3413-.419.6093-.736.804-.317.192-.691.288-1.12.288zm0-.788c.413 0 .721-.1387.924-.416.205-.28.308-.64.308-1.08 0-.4507-.104-.8107-.312-1.08-.205-.272-.512-.408-.92-.408-.28 0-.511.064-.692.192-.181.1253-.316.3-.404.524-.088.2213-.132.4787-.132.772 0 .4533.104.816.312 1.088s.513.408.916.408zm3.319.668v-4.32h.744v1.048l-.104-.136c.053-.1387.123-.2653.208-.38.085-.1173.184-.2133.296-.288.109-.08.231-.1413.364-.184.136-.0453.275-.072.416-.08.141-.0107.277-.004.408.02v.784c-.141-.0373-.299-.048-.472-.032-.171.016-.328.0707-.472.164-.136.088-.244.1947-.324.32-.077.1253-.133.2653-.168.42-.035.152-.052.3133-.052.484v2.18z" fill="#fbfaff"/><path d="m99.5108 94.5729c.6902-3.8058 4.0042-6.5729 7.8722-6.5729h61.036c4.99 0 8.762 4.5176 7.872 9.4272l-5.802 31.9998c-.69 3.806-4.004 6.573-7.872 6.573h-61.036c-4.9898 0-8.762-4.518-7.8718-9.427z" fill="#1f1f1f"/><path d="m99.5108 94.5729c.6902-3.8058 4.0042-6.5729 7.8722-6.5729h61.036c4.99 0 8.762 4.5176 7.872 9.4272l-5.802 31.9998c-.69 3.806-4.004 6.573-7.872 6.573h-61.036c-4.9898 0-8.762-4.518-7.8718-9.427z" fill="#1f1f1f"/><path d="m121.1 115.5v-5.76h2.264c.365 0 .672.075.92.224s.435.343.56.58c.125.235.188.483.188.744 0 .317-.079.589-.236.816-.155.227-.364.381-.628.464l-.008-.196c.368.091.651.268.848.532.197.261.296.567.296.916 0 .339-.068.633-.204.884-.133.251-.329.447-.588.588-.256.139-.567.208-.932.208zm.848-.796h1.504c.189 0 .359-.036.508-.108.152-.072.271-.175.356-.308.088-.136.132-.297.132-.484 0-.173-.039-.329-.116-.468-.075-.141-.184-.252-.328-.332-.141-.083-.308-.124-.5-.124h-1.556zm0-2.612h1.404c.155 0 .293-.031.416-.092.125-.064.224-.155.296-.272.075-.12.112-.264.112-.432 0-.224-.075-.408-.224-.552s-.349-.216-.6-.216h-1.404zm6.1 3.524c-.299 0-.549-.048-.752-.144s-.368-.221-.496-.376c-.125-.157-.221-.328-.288-.512s-.112-.364-.136-.54-.036-.331-.036-.464v-2.4h.848v2.124c0 .168.013.341.04.52.029.176.083.34.16.492.08.152.191.275.332.368.144.093.331.14.56.14.149 0 .291-.024.424-.072.133-.051.249-.131.348-.24.101-.109.18-.253.236-.432.059-.179.088-.396.088-.652l.52.196c0 .392-.073.739-.22 1.04-.147.299-.357.532-.632.7s-.607.252-.996.252zm1.428-.116v-1.248h-.1v-3.072h.844v4.32zm2.77 1.92.836-2.276.012.672-1.884-4.636h.872l1.408 3.58h-.256l1.344-3.58h.848l-2.384 6.24zm5.886-1.8c-.429 0-.806-.093-1.132-.28-.322-.189-.574-.452-.756-.788-.178-.339-.268-.731-.268-1.176 0-.472.088-.881.264-1.228.179-.347.427-.615.744-.804.318-.189.687-.284 1.108-.284.44 0 .815.103 1.124.308.31.203.54.492.692.868.155.376.216.823.184 1.34h-.836v-.304c-.005-.501-.101-.872-.288-1.112-.184-.24-.465-.36-.844-.36-.418 0-.733.132-.944.396-.21.264-.316.645-.316 1.144 0 .475.106.843.316 1.104.211.259.515.388.912.388.262 0 .487-.059.676-.176.192-.12.342-.291.448-.512l.82.26c-.168.387-.422.687-.764.9-.341.211-.721.316-1.14.316zm-1.54-2.044v-.652h3.084v.652zm4.718 1.924v-4.32h.744v1.048l-.104-.136c.053-.139.122-.265.208-.38.085-.117.184-.213.296-.288.109-.08.23-.141.364-.184.136-.045.274-.072.416-.08.141-.011.277-.004.408.02v.784c-.142-.037-.299-.048-.472-.032-.171.016-.328.071-.472.164-.136.088-.244.195-.324.32-.078.125-.134.265-.168.42-.035.152-.052.313-.052.484v2.18zm6.339 0v-4.84l-1.084.66v-.932l1.084-.648h.852v5.76z" fill="#fbfaff"/><path d="m187.59 86.996.004-.536 2.604-2.352c.224-.2027.372-.3947.444-.576.075-.184.112-.376.112-.576 0-.2373-.056-.452-.168-.644s-.262-.344-.452-.456c-.189-.1147-.401-.172-.636-.172-.245 0-.464.0587-.656.176s-.344.272-.456.464c-.109.192-.162.4013-.16.628h-.6c0-.3493.083-.6627.248-.94.166-.2773.39-.4947.672-.652.283-.16.603-.24.96-.24.35 0 .663.0827.94.248.28.1627.5.384.66.664.163.2773.244.5867.244.928 0 .24-.029.452-.088.636-.056.1813-.145.3507-.268.508-.12.1547-.273.3147-.46.48l-2.312 2.088-.092-.24h3.22v.564zm5.155.004v-.684h.684v.684zm3.939.12c-.299 0-.575-.0613-.828-.184s-.469-.292-.648-.508-.307-.464-.384-.744l.564-.152c.051.208.143.388.276.54.133.1493.289.2653.468.348.181.0827.371.124.568.124.256 0 .485-.0613.688-.184.205-.1253.368-.2907.488-.496s.18-.4307.18-.676c0-.2533-.063-.4813-.188-.684-.125-.2053-.291-.368-.496-.488s-.429-.18-.672-.18c-.272 0-.507.06-.704.18-.197.1173-.355.2653-.472.444l-.536-.224.176-2.996h3.076v.564h-2.816l.292-.276-.156 2.556-.148-.196c.165-.1893.365-.3373.6-.444s.481-.16.74-.16c.355 0 .675.0853.96.256.285.168.512.396.68.684s.252.6093.252.964c0 .352-.089.6747-.268.968-.179.2907-.416.524-.712.7s-.623.264-.98.264zm3.797-.12-.4-.4 5.372-5.36.4.396zm4.172.12c-.264 0-.505-.064-.724-.192-.216-.1307-.389-.304-.52-.52-.131-.2187-.196-.4613-.196-.728 0-.2613.067-.5013.2-.72s.309-.3933.528-.524.456-.196.712-.196c.264 0 .505.0653.724.196.219.128.392.3013.52.52.131.216.196.4573.196.724s-.065.5093-.196.728c-.128.216-.301.3893-.52.52-.219.128-.46.192-.724.192zm0-.532c.163 0 .313-.0413.452-.124s.249-.192.332-.328c.083-.1387.124-.2907.124-.456s-.041-.316-.124-.452c-.083-.1387-.193-.2493-.332-.332s-.289-.124-.452-.124c-.165 0-.317.0413-.456.124-.136.0827-.247.1933-.332.332-.083.136-.124.2867-.124.452s.041.3173.124.456c.085.136.196.2453.332.328.139.0827.291.124.456.124zm-3.372-2.588c-.264 0-.505-.064-.724-.192-.219-.1307-.393-.304-.524-.52-.128-.2187-.192-.4613-.192-.728 0-.2613.067-.5013.2-.72s.309-.3933.528-.524.456-.196.712-.196c.264 0 .504.0653.72.196.219.128.393.3013.524.52.131.216.196.4573.196.724s-.065.5093-.196.728c-.131.216-.305.3893-.524.52-.216.128-.456.192-.72.192zm0-.532c.165 0 .316-.0413.452-.124.139-.0827.249-.192.332-.328.083-.1387.124-.2907.124-.456s-.041-.316-.124-.452c-.083-.1387-.193-.2493-.332-.332-.136-.0827-.287-.124-.452-.124s-.317.0413-.456.124c-.136.0827-.245.1933-.328.332-.083.136-.124.2867-.124.452s.041.3173.124.456c.083.136.192.2453.328.328.139.0827.291.124.456.124zm10.161 4.968c-.315-.36-.586-.7627-.812-1.208-.224-.4427-.398-.908-.52-1.396-.12-.488-.179-.9787-.176-1.472-.003-.4933.056-.984.176-1.472.122-.4907.296-.9573.52-1.4.226-.4427.497-.844.812-1.204l.432.336c-.31.3707-.568.76-.776 1.168-.208.4053-.364.824-.468 1.256-.102.432-.154.8707-.156 1.316.002.44.056.8787.16 1.316.106.4347.262.8573.468 1.268.208.408.465.7907.772 1.148zm4.01-1.436c-.243.0507-.483.0707-.72.06-.235-.0107-.445-.0613-.632-.152-.184-.0907-.324-.232-.42-.424-.077-.16-.12-.3213-.128-.484-.005-.1653-.008-.3533-.008-.564v-3.956h.584v3.932c0 .1813.001.3333.004.456.005.12.033.2267.084.32.096.1787.248.2853.456.32.211.0347.471.0267.78-.024zm-2.832-3.816v-.504h2.832v.504zm4.003 3.816v-4.32h.528v1.04l-.104-.136c.048-.128.111-.2453.188-.352.077-.1093.161-.1987.252-.268.112-.0987.243-.1733.392-.224.149-.0533.3-.084.452-.092.152-.0107.291 0 .416.032v.552c-.157-.04-.329-.0493-.516-.028s-.359.096-.516.224c-.144.112-.252.2467-.324.404-.072.1547-.12.32-.144.496-.024.1733-.036.3453-.036.516v2.156zm4.275.12c-.326 0-.599-.0587-.82-.176-.219-.1173-.383-.2733-.492-.468-.11-.1947-.164-.4067-.164-.636 0-.2347.046-.4347.14-.6.096-.168.225-.3053.388-.412.165-.1067.356-.188.572-.244.218-.0533.46-.1.724-.14.266-.0427.526-.0787.78-.108.256-.032.48-.0627.672-.092l-.208.128c.008-.4267-.075-.7427-.248-.948-.174-.2053-.475-.308-.904-.308-.296 0-.547.0667-.752.2-.203.1333-.346.344-.428.632l-.572-.168c.098-.3867.297-.6867.596-.9.298-.2133.686-.32 1.164-.32.394 0 .729.0747 1.004.224.277.1467.473.36.588.64.053.1253.088.2653.104.42s.024.312.024.472v2.684h-.524v-1.084l.152.064c-.147.3707-.375.6533-.684.848-.31.1947-.68.292-1.112.292zm.068-.508c.274 0 .514-.0493.72-.148.205-.0987.37-.2333.496-.404.125-.1733.206-.368.244-.584.032-.1387.049-.2907.052-.456.002-.168.004-.2933.004-.376l.224.116c-.2.0267-.418.0533-.652.08-.232.0267-.462.0573-.688.092-.224.0347-.427.076-.608.124-.123.0347-.242.084-.356.148-.115.0613-.21.144-.284.248-.072.104-.108.2333-.108.388 0 .1253.03.2467.092.364.064.1173.165.2147.304.292.141.0773.328.116.56.116zm6.581.388v-2.204c0-.24-.023-.46-.068-.66-.045-.2027-.119-.3787-.22-.528-.099-.152-.228-.2693-.388-.352-.157-.0827-.349-.124-.576-.124-.208 0-.392.036-.552.108-.157.072-.291.176-.4.312-.107.1333-.188.296-.244.488s-.084.4107-.084.656l-.416-.092c0-.4427.077-.8147.232-1.116s.368-.5293.64-.684.584-.232.936-.232c.259 0 .484.04.676.12.195.08.359.188.492.324.136.136.245.292.328.468.083.1733.143.3587.18.556.037.1947.056.3893.056.584v2.376zm-3.124 0v-4.32h.532v1.064h.06v3.256zm6.686.116c-.507 0-.924-.1093-1.252-.328-.325-.2187-.525-.5227-.6-.912l.6-.1c.064.2453.209.4413.436.588.229.144.512.216.848.216.328 0 .587-.068.776-.204.189-.1387.284-.3267.284-.564 0-.1333-.031-.2413-.092-.324-.059-.0853-.18-.164-.364-.236s-.459-.1573-.824-.256c-.392-.1067-.699-.2133-.92-.32s-.379-.2293-.472-.368c-.093-.1413-.14-.3133-.14-.516 0-.2453.069-.46.208-.644.139-.1867.331-.3307.576-.432.245-.104.531-.156.856-.156s.616.0533.872.16c.259.104.467.2507.624.44s.251.4093.28.66l-.6.108c-.04-.2533-.167-.4533-.38-.6-.211-.1493-.479-.2267-.804-.232-.307-.008-.556.0507-.748.176-.192.1227-.288.2867-.288.492 0 .1147.035.2133.104.296.069.08.195.156.376.228.184.072.445.1507.784.236.397.1013.709.208.936.32s.388.244.484.396.144.34.144.564c0 .408-.152.7293-.456.964-.301.232-.717.348-1.248.348zm4.147.004c-.325 0-.598-.0587-.82-.176-.218-.1173-.382-.2733-.492-.468-.109-.1947-.164-.4067-.164-.636 0-.2347.047-.4347.14-.6.096-.168.226-.3053.388-.412.166-.1067.356-.188.572-.244.219-.0533.46-.1.724-.14.267-.0427.527-.0787.78-.108.256-.032.48-.0627.672-.092l-.208.128c.008-.4267-.074-.7427-.248-.948-.173-.2053-.474-.308-.904-.308-.296 0-.546.0667-.752.2-.202.1333-.345.344-.428.632l-.572-.168c.099-.3867.298-.6867.596-.9.299-.2133.687-.32 1.164-.32.395 0 .73.0747 1.004.224.278.1467.474.36.588.64.054.1253.088.2653.104.42s.024.312.024.472v2.684h-.524v-1.084l.152.064c-.146.3707-.374.6533-.684.848-.309.1947-.68.292-1.112.292zm.068-.508c.275 0 .515-.0493.72-.148.206-.0987.371-.2333.496-.404.126-.1733.207-.368.244-.584.032-.1387.05-.2907.052-.456.003-.168.004-.2933.004-.376l.224.116c-.2.0267-.417.0533-.652.08-.232.0267-.461.0573-.688.092-.224.0347-.426.076-.608.124-.122.0347-.241.084-.356.148-.114.0613-.209.144-.284.248-.072.104-.108.2333-.108.388 0 .1253.031.2467.092.364.064.1173.166.2147.304.292.142.0773.328.116.56.116zm5.254.508c-.435 0-.803-.0973-1.104-.292-.302-.1947-.531-.4627-.688-.804-.155-.344-.235-.7387-.24-1.184.005-.4533.088-.8507.248-1.192.16-.344.39-.6107.692-.8.301-.192.666-.288 1.096-.288.437 0 .817.1067 1.14.32.325.2133.548.5053.668.876l-.576.184c-.102-.2587-.263-.4587-.484-.6-.219-.144-.47-.216-.752-.216-.318 0-.58.0733-.788.22-.208.144-.363.3453-.464.604-.102.2587-.154.556-.156.892.005.5173.125.9333.36 1.248.234.312.584.468 1.048.468.293 0 .542-.0667.748-.2.208-.136.365-.3333.472-.592l.592.176c-.16.384-.395.6773-.704.88-.31.2-.679.3-1.108.3zm5.309-.12c-.242.0507-.482.0707-.72.06-.234-.0107-.445-.0613-.632-.152-.184-.0907-.324-.232-.42-.424-.077-.16-.12-.3213-.128-.484-.005-.1653-.008-.3533-.008-.564v-3.956h.584v3.932c0 .1813.002.3333.004.456.006.12.034.2267.084.32.096.1787.248.2853.456.32.211.0347.471.0267.78-.024zm-2.832-3.816v-.504h2.832v.504zm4.083-1.324v-.66h.588v.66zm0 5.14v-4.32h.588v4.32zm3.912.12c-.43 0-.796-.0973-1.1-.292s-.538-.464-.7-.808c-.163-.344-.244-.7387-.244-1.184 0-.4533.082-.8507.248-1.192.165-.3413.4-.6067.704-.796.306-.192.67-.288 1.092-.288.432 0 .8.0973 1.104.292.306.192.54.46.7.804.162.3413.244.7347.244 1.18 0 .4533-.082.852-.244 1.196-.163.3413-.398.608-.704.8-.307.192-.674.288-1.1.288zm0-.564c.48 0 .837-.1587 1.072-.476.234-.32.352-.7347.352-1.244 0-.5227-.119-.9387-.356-1.248-.235-.3093-.591-.464-1.068-.464-.323 0-.59.0733-.8.22-.208.144-.364.3453-.468.604-.102.256-.152.552-.152.888 0 .52.12.9373.36 1.252.24.312.593.468 1.06.468zm6.37.444v-2.204c0-.24-.023-.46-.068-.66-.045-.2027-.119-.3787-.22-.528-.099-.152-.228-.2693-.388-.352-.157-.0827-.349-.124-.576-.124-.208 0-.392.036-.552.108-.157.072-.291.176-.4.312-.107.1333-.188.296-.244.488s-.084.4107-.084.656l-.416-.092c0-.4427.077-.8147.232-1.116s.368-.5293.64-.684.584-.232.936-.232c.259 0 .484.04.676.12.195.08.359.188.492.324.136.136.245.292.328.468.083.1733.143.3587.18.556.037.1947.056.3893.056.584v2.376zm-3.124 0v-4.32h.532v1.064h.06v3.256zm-38.35 11v-4.64c0-.112.005-.2227.016-.332.013-.1093.038-.2133.076-.312.037-.1013.096-.1947.176-.28.088-.096.184-.1653.288-.208.104-.0453.212-.0747.324-.088.114-.0133.226-.02.336-.02h.552v.496h-.512c-.224 0-.392.0547-.504.164-.11.1093-.164.2813-.164.516v4.704zm-.748-3.816v-.504h2.516v.504zm5.147 3.936c-.421 0-.786-.0933-1.096-.28-.306-.1867-.545-.4493-.716-.788-.17-.3387-.256-.736-.256-1.192 0-.472.084-.88.252-1.224s.404-.6093.708-.796c.307-.1867.668-.28 1.084-.28.427 0 .791.0987 1.092.296.302.1947.53.4747.684.84.155.3653.226.8013.212 1.308h-.6v-.208c-.01-.56-.132-.9827-.364-1.268-.229-.2853-.565-.428-1.008-.428-.464 0-.82.1507-1.068.452-.245.3013-.368.7307-.368 1.288 0 .544.123.9667.368 1.268.248.2987.599.448 1.052.448.31 0 .579-.0707.808-.212.232-.144.415-.3507.548-.62l.548.212c-.17.376-.422.668-.756.876-.33.2053-.705.308-1.124.308zm-1.652-2.116v-.492h3.3v.492zm6.652 2.116c-.421 0-.787-.0933-1.096-.28-.307-.1867-.545-.4493-.716-.788s-.256-.736-.256-1.192c0-.472.084-.88.252-1.224s.404-.6093.708-.796c.307-.1867.668-.28 1.084-.28.427 0 .791.0987 1.092.296.301.1947.529.4747.684.84s.225.8013.212 1.308h-.6v-.208c-.011-.56-.132-.9827-.364-1.268-.229-.2853-.565-.428-1.008-.428-.464 0-.82.1507-1.068.452-.245.3013-.368.7307-.368 1.288 0 .544.123.9667.368 1.268.248.2987.599.448 1.052.448.309 0 .579-.0707.808-.212.232-.144.415-.3507.548-.62l.548.212c-.171.376-.423.668-.756.876-.331.2053-.705.308-1.124.308zm-1.652-2.116v-.492h3.3v.492zm4.723 3.432-.432-.344c.307-.3573.563-.74.768-1.148.208-.4107.364-.8333.468-1.268.107-.4373.162-.876.164-1.316-.002-.4453-.056-.884-.16-1.316-.101-.432-.256-.8507-.464-1.256-.208-.408-.466-.7973-.776-1.168l.432-.336c.315.36.584.7613.808 1.204.227.4427.4.9093.52 1.4.123.488.183.9787.18 1.472.003.4933-.057.984-.18 1.472-.12.488-.293.9533-.52 1.396-.224.4453-.493.848-.808 1.208z" fill="url(#f)"/><path d="m187.59 174.996.004-.536 2.604-2.352c.224-.203.372-.395.444-.576.075-.184.112-.376.112-.576 0-.237-.056-.452-.168-.644s-.262-.344-.452-.456c-.189-.115-.401-.172-.636-.172-.245 0-.464.059-.656.176s-.344.272-.456.464c-.109.192-.162.401-.16.628h-.6c0-.349.083-.663.248-.94.166-.277.39-.495.672-.652.283-.16.603-.24.96-.24.35 0 .663.083.94.248.28.163.5.384.66.664.163.277.244.587.244.928 0 .24-.029.452-.088.636-.056.181-.145.351-.268.508-.12.155-.273.315-.46.48l-2.312 2.088-.092-.24h3.22v.564zm5.155.004v-.684h.684v.684zm3.939.12c-.299 0-.575-.061-.828-.184s-.469-.292-.648-.508-.307-.464-.384-.744l.564-.152c.051.208.143.388.276.54.133.149.289.265.468.348.181.083.371.124.568.124.256 0 .485-.061.688-.184.205-.125.368-.291.488-.496s.18-.431.18-.676c0-.253-.063-.481-.188-.684-.125-.205-.291-.368-.496-.488s-.429-.18-.672-.18c-.272 0-.507.06-.704.18-.197.117-.355.265-.472.444l-.536-.224.176-2.996h3.076v.564h-2.816l.292-.276-.156 2.556-.148-.196c.165-.189.365-.337.6-.444s.481-.16.74-.16c.355 0 .675.085.96.256.285.168.512.396.68.684s.252.609.252.964c0 .352-.089.675-.268.968-.179.291-.416.524-.712.7s-.623.264-.98.264zm3.797-.12-.4-.4 5.372-5.36.4.396zm4.172.12c-.264 0-.505-.064-.724-.192-.216-.131-.389-.304-.52-.52-.131-.219-.196-.461-.196-.728 0-.261.067-.501.2-.72s.309-.393.528-.524.456-.196.712-.196c.264 0 .505.065.724.196.219.128.392.301.52.52.131.216.196.457.196.724s-.065.509-.196.728c-.128.216-.301.389-.52.52-.219.128-.46.192-.724.192zm0-.532c.163 0 .313-.041.452-.124s.249-.192.332-.328c.083-.139.124-.291.124-.456s-.041-.316-.124-.452c-.083-.139-.193-.249-.332-.332s-.289-.124-.452-.124c-.165 0-.317.041-.456.124-.136.083-.247.193-.332.332-.083.136-.124.287-.124.452s.041.317.124.456c.085.136.196.245.332.328.139.083.291.124.456.124zm-3.372-2.588c-.264 0-.505-.064-.724-.192-.219-.131-.393-.304-.524-.52-.128-.219-.192-.461-.192-.728 0-.261.067-.501.2-.72s.309-.393.528-.524.456-.196.712-.196c.264 0 .504.065.72.196.219.128.393.301.524.52.131.216.196.457.196.724s-.065.509-.196.728c-.131.216-.305.389-.524.52-.216.128-.456.192-.72.192zm0-.532c.165 0 .316-.041.452-.124.139-.083.249-.192.332-.328.083-.139.124-.291.124-.456s-.041-.316-.124-.452c-.083-.139-.193-.249-.332-.332-.136-.083-.287-.124-.452-.124s-.317.041-.456.124c-.136.083-.245.193-.328.332-.083.136-.124.287-.124.452s.041.317.124.456c.083.136.192.245.328.328.139.083.291.124.456.124zm10.161 4.968c-.315-.36-.586-.763-.812-1.208-.224-.443-.398-.908-.52-1.396-.12-.488-.179-.979-.176-1.472-.003-.493.056-.984.176-1.472.122-.491.296-.957.52-1.4.226-.443.497-.844.812-1.204l.432.336c-.31.371-.568.76-.776 1.168-.208.405-.364.824-.468 1.256-.102.432-.154.871-.156 1.316.002.44.056.879.16 1.316.106.435.262.857.468 1.268.208.408.465.791.772 1.148zm4.01-1.436c-.243.051-.483.071-.72.06-.235-.011-.445-.061-.632-.152-.184-.091-.324-.232-.42-.424-.077-.16-.12-.321-.128-.484-.005-.165-.008-.353-.008-.564v-3.956h.584v3.932c0 .181.001.333.004.456.005.12.033.227.084.32.096.179.248.285.456.32.211.035.471.027.78-.024zm-2.832-3.816v-.504h2.832v.504zm4.003 3.816v-4.32h.528v1.04l-.104-.136c.048-.128.111-.245.188-.352.077-.109.161-.199.252-.268.112-.099.243-.173.392-.224.149-.053.3-.084.452-.092.152-.011.291 0 .416.032v.552c-.157-.04-.329-.049-.516-.028s-.359.096-.516.224c-.144.112-.252.247-.324.404-.072.155-.12.32-.144.496-.024.173-.036.345-.036.516v2.156zm4.275.12c-.326 0-.599-.059-.82-.176-.219-.117-.383-.273-.492-.468-.11-.195-.164-.407-.164-.636 0-.235.046-.435.14-.6.096-.168.225-.305.388-.412.165-.107.356-.188.572-.244.218-.053.46-.1.724-.14.266-.043.526-.079.78-.108.256-.032.48-.063.672-.092l-.208.128c.008-.427-.075-.743-.248-.948-.174-.205-.475-.308-.904-.308-.296 0-.547.067-.752.2-.203.133-.346.344-.428.632l-.572-.168c.098-.387.297-.687.596-.9.298-.213.686-.32 1.164-.32.394 0 .729.075 1.004.224.277.147.473.36.588.64.053.125.088.265.104.42s.024.312.024.472v2.684h-.524v-1.084l.152.064c-.147.371-.375.653-.684.848-.31.195-.68.292-1.112.292zm.068-.508c.274 0 .514-.049.72-.148.205-.099.37-.233.496-.404.125-.173.206-.368.244-.584.032-.139.049-.291.052-.456.002-.168.004-.293.004-.376l.224.116c-.2.027-.418.053-.652.08-.232.027-.462.057-.688.092-.224.035-.427.076-.608.124-.123.035-.242.084-.356.148-.115.061-.21.144-.284.248-.072.104-.108.233-.108.388 0 .125.03.247.092.364.064.117.165.215.304.292.141.077.328.116.56.116zm6.581.388v-2.204c0-.24-.023-.46-.068-.66-.045-.203-.119-.379-.22-.528-.099-.152-.228-.269-.388-.352-.157-.083-.349-.124-.576-.124-.208 0-.392.036-.552.108-.157.072-.291.176-.4.312-.107.133-.188.296-.244.488s-.084.411-.084.656l-.416-.092c0-.443.077-.815.232-1.116s.368-.529.64-.684.584-.232.936-.232c.259 0 .484.04.676.12.195.08.359.188.492.324.136.136.245.292.328.468.083.173.143.359.18.556.037.195.056.389.056.584v2.376zm-3.124 0v-4.32h.532v1.064h.06v3.256zm6.686.116c-.507 0-.924-.109-1.252-.328-.325-.219-.525-.523-.6-.912l.6-.1c.064.245.209.441.436.588.229.144.512.216.848.216.328 0 .587-.068.776-.204.189-.139.284-.327.284-.564 0-.133-.031-.241-.092-.324-.059-.085-.18-.164-.364-.236s-.459-.157-.824-.256c-.392-.107-.699-.213-.92-.32s-.379-.229-.472-.368c-.093-.141-.14-.313-.14-.516 0-.245.069-.46.208-.644.139-.187.331-.331.576-.432.245-.104.531-.156.856-.156s.616.053.872.16c.259.104.467.251.624.44s.251.409.28.66l-.6.108c-.04-.253-.167-.453-.38-.6-.211-.149-.479-.227-.804-.232-.307-.008-.556.051-.748.176-.192.123-.288.287-.288.492 0 .115.035.213.104.296.069.08.195.156.376.228.184.072.445.151.784.236.397.101.709.208.936.32s.388.244.484.396.144.34.144.564c0 .408-.152.729-.456.964-.301.232-.717.348-1.248.348zm4.147.004c-.325 0-.598-.059-.82-.176-.218-.117-.382-.273-.492-.468-.109-.195-.164-.407-.164-.636 0-.235.047-.435.14-.6.096-.168.226-.305.388-.412.166-.107.356-.188.572-.244.219-.053.46-.1.724-.14.267-.043.527-.079.78-.108.256-.032.48-.063.672-.092l-.208.128c.008-.427-.074-.743-.248-.948-.173-.205-.474-.308-.904-.308-.296 0-.546.067-.752.2-.202.133-.345.344-.428.632l-.572-.168c.099-.387.298-.687.596-.9.299-.213.687-.32 1.164-.32.395 0 .73.075 1.004.224.278.147.474.36.588.64.054.125.088.265.104.42s.024.312.024.472v2.684h-.524v-1.084l.152.064c-.146.371-.374.653-.684.848-.309.195-.68.292-1.112.292zm.068-.508c.275 0 .515-.049.72-.148.206-.099.371-.233.496-.404.126-.173.207-.368.244-.584.032-.139.05-.291.052-.456.003-.168.004-.293.004-.376l.224.116c-.2.027-.417.053-.652.08-.232.027-.461.057-.688.092-.224.035-.426.076-.608.124-.122.035-.241.084-.356.148-.114.061-.209.144-.284.248-.072.104-.108.233-.108.388 0 .125.031.247.092.364.064.117.166.215.304.292.142.077.328.116.56.116zm5.254.508c-.435 0-.803-.097-1.104-.292-.302-.195-.531-.463-.688-.804-.155-.344-.235-.739-.24-1.184.005-.453.088-.851.248-1.192.16-.344.39-.611.692-.8.301-.192.666-.288 1.096-.288.437 0 .817.107 1.14.32.325.213.548.505.668.876l-.576.184c-.102-.259-.263-.459-.484-.6-.219-.144-.47-.216-.752-.216-.318 0-.58.073-.788.22-.208.144-.363.345-.464.604-.102.259-.154.556-.156.892.005.517.125.933.36 1.248.234.312.584.468 1.048.468.293 0 .542-.067.748-.2.208-.136.365-.333.472-.592l.592.176c-.16.384-.395.677-.704.88-.31.2-.679.3-1.108.3zm5.309-.12c-.242.051-.482.071-.72.06-.234-.011-.445-.061-.632-.152-.184-.091-.324-.232-.42-.424-.077-.16-.12-.321-.128-.484-.005-.165-.008-.353-.008-.564v-3.956h.584v3.932c0 .181.002.333.004.456.006.12.034.227.084.32.096.179.248.285.456.32.211.035.471.027.78-.024zm-2.832-3.816v-.504h2.832v.504zm4.083-1.324v-.66h.588v.66zm0 5.14v-4.32h.588v4.32zm3.912.12c-.43 0-.796-.097-1.1-.292s-.538-.464-.7-.808c-.163-.344-.244-.739-.244-1.184 0-.453.082-.851.248-1.192.165-.341.4-.607.704-.796.306-.192.67-.288 1.092-.288.432 0 .8.097 1.104.292.306.192.54.46.7.804.162.341.244.735.244 1.18 0 .453-.082.852-.244 1.196-.163.341-.398.608-.704.8-.307.192-.674.288-1.1.288zm0-.564c.48 0 .837-.159 1.072-.476.234-.32.352-.735.352-1.244 0-.523-.119-.939-.356-1.248-.235-.309-.591-.464-1.068-.464-.323 0-.59.073-.8.22-.208.144-.364.345-.468.604-.102.256-.152.552-.152.888 0 .52.12.937.36 1.252.24.312.593.468 1.06.468zm6.37.444v-2.204c0-.24-.023-.46-.068-.66-.045-.203-.119-.379-.22-.528-.099-.152-.228-.269-.388-.352-.157-.083-.349-.124-.576-.124-.208 0-.392.036-.552.108-.157.072-.291.176-.4.312-.107.133-.188.296-.244.488s-.084.411-.084.656l-.416-.092c0-.443.077-.815.232-1.116s.368-.529.64-.684.584-.232.936-.232c.259 0 .484.04.676.12.195.08.359.188.492.324.136.136.245.292.328.468.083.173.143.359.18.556.037.195.056.389.056.584v2.376zm-3.124 0v-4.32h.532v1.064h.06v3.256zm-38.35 11v-4.64c0-.112.005-.223.016-.332.013-.109.038-.213.076-.312.037-.101.096-.195.176-.28.088-.096.184-.165.288-.208.104-.045.212-.075.324-.088.114-.013.226-.02.336-.02h.552v.496h-.512c-.224 0-.392.055-.504.164-.11.109-.164.281-.164.516v4.704zm-.748-3.816v-.504h2.516v.504zm5.147 3.936c-.421 0-.786-.093-1.096-.28-.306-.187-.545-.449-.716-.788-.17-.339-.256-.736-.256-1.192 0-.472.084-.88.252-1.224s.404-.609.708-.796c.307-.187.668-.28 1.084-.28.427 0 .791.099 1.092.296.302.195.53.475.684.84.155.365.226.801.212 1.308h-.6v-.208c-.01-.56-.132-.983-.364-1.268-.229-.285-.565-.428-1.008-.428-.464 0-.82.151-1.068.452-.245.301-.368.731-.368 1.288 0 .544.123.967.368 1.268.248.299.599.448 1.052.448.31 0 .579-.071.808-.212.232-.144.415-.351.548-.62l.548.212c-.17.376-.422.668-.756.876-.33.205-.705.308-1.124.308zm-1.652-2.116v-.492h3.3v.492zm6.652 2.116c-.421 0-.787-.093-1.096-.28-.307-.187-.545-.449-.716-.788s-.256-.736-.256-1.192c0-.472.084-.88.252-1.224s.404-.609.708-.796c.307-.187.668-.28 1.084-.28.427 0 .791.099 1.092.296.301.195.529.475.684.84s.225.801.212 1.308h-.6v-.208c-.011-.56-.132-.983-.364-1.268-.229-.285-.565-.428-1.008-.428-.464 0-.82.151-1.068.452-.245.301-.368.731-.368 1.288 0 .544.123.967.368 1.268.248.299.599.448 1.052.448.309 0 .579-.071.808-.212.232-.144.415-.351.548-.62l.548.212c-.171.376-.423.668-.756.876-.331.205-.705.308-1.124.308zm-1.652-2.116v-.492h3.3v.492zm4.723 3.432-.432-.344c.307-.357.563-.74.768-1.148.208-.411.364-.833.468-1.268.107-.437.162-.876.164-1.316-.002-.445-.056-.884-.16-1.316-.101-.432-.256-.851-.464-1.256-.208-.408-.466-.797-.776-1.168l.432-.336c.315.36.584.761.808 1.204.227.443.4.909.52 1.4.123.488.183.979.18 1.472.003.493-.057.984-.18 1.472-.12.488-.293.953-.52 1.396-.224.445-.493.848-.808 1.208z" fill="url(#g)"/><path d="m187.59 262.996.004-.536 2.604-2.352c.224-.203.372-.395.444-.576.075-.184.112-.376.112-.576 0-.237-.056-.452-.168-.644s-.262-.344-.452-.456c-.189-.115-.401-.172-.636-.172-.245 0-.464.059-.656.176s-.344.272-.456.464c-.109.192-.162.401-.16.628h-.6c0-.349.083-.663.248-.94.166-.277.39-.495.672-.652.283-.16.603-.24.96-.24.35 0 .663.083.94.248.28.163.5.384.66.664.163.277.244.587.244.928 0 .24-.029.452-.088.636-.056.181-.145.351-.268.508-.12.155-.273.315-.46.48l-2.312 2.088-.092-.24h3.22v.564zm5.155.004v-.684h.684v.684zm3.939.12c-.299 0-.575-.061-.828-.184s-.469-.292-.648-.508-.307-.464-.384-.744l.564-.152c.051.208.143.388.276.54.133.149.289.265.468.348.181.083.371.124.568.124.256 0 .485-.061.688-.184.205-.125.368-.291.488-.496s.18-.431.18-.676c0-.253-.063-.481-.188-.684-.125-.205-.291-.368-.496-.488s-.429-.18-.672-.18c-.272 0-.507.06-.704.18-.197.117-.355.265-.472.444l-.536-.224.176-2.996h3.076v.564h-2.816l.292-.276-.156 2.556-.148-.196c.165-.189.365-.337.6-.444s.481-.16.74-.16c.355 0 .675.085.96.256.285.168.512.396.68.684s.252.609.252.964c0 .352-.089.675-.268.968-.179.291-.416.524-.712.7s-.623.264-.98.264zm3.797-.12-.4-.4 5.372-5.36.4.396zm4.172.12c-.264 0-.505-.064-.724-.192-.216-.131-.389-.304-.52-.52-.131-.219-.196-.461-.196-.728 0-.261.067-.501.2-.72s.309-.393.528-.524.456-.196.712-.196c.264 0 .505.065.724.196.219.128.392.301.52.52.131.216.196.457.196.724s-.065.509-.196.728c-.128.216-.301.389-.52.52-.219.128-.46.192-.724.192zm0-.532c.163 0 .313-.041.452-.124s.249-.192.332-.328c.083-.139.124-.291.124-.456s-.041-.316-.124-.452c-.083-.139-.193-.249-.332-.332s-.289-.124-.452-.124c-.165 0-.317.041-.456.124-.136.083-.247.193-.332.332-.083.136-.124.287-.124.452s.041.317.124.456c.085.136.196.245.332.328.139.083.291.124.456.124zm-3.372-2.588c-.264 0-.505-.064-.724-.192-.219-.131-.393-.304-.524-.52-.128-.219-.192-.461-.192-.728 0-.261.067-.501.2-.72s.309-.393.528-.524.456-.196.712-.196c.264 0 .504.065.72.196.219.128.393.301.524.52.131.216.196.457.196.724s-.065.509-.196.728c-.131.216-.305.389-.524.52-.216.128-.456.192-.72.192zm0-.532c.165 0 .316-.041.452-.124.139-.083.249-.192.332-.328.083-.139.124-.291.124-.456s-.041-.316-.124-.452c-.083-.139-.193-.249-.332-.332-.136-.083-.287-.124-.452-.124s-.317.041-.456.124c-.136.083-.245.193-.328.332-.083.136-.124.287-.124.452s.041.317.124.456c.083.136.192.245.328.328.139.083.291.124.456.124zm10.161 4.968c-.315-.36-.586-.763-.812-1.208-.224-.443-.398-.908-.52-1.396-.12-.488-.179-.979-.176-1.472-.003-.493.056-.984.176-1.472.122-.491.296-.957.52-1.4.226-.443.497-.844.812-1.204l.432.336c-.31.371-.568.76-.776 1.168-.208.405-.364.824-.468 1.256-.102.432-.154.871-.156 1.316.002.44.056.879.16 1.316.106.435.262.857.468 1.268.208.408.465.791.772 1.148zm4.01-1.436c-.243.051-.483.071-.72.06-.235-.011-.445-.061-.632-.152-.184-.091-.324-.232-.42-.424-.077-.16-.12-.321-.128-.484-.005-.165-.008-.353-.008-.564v-3.956h.584v3.932c0 .181.001.333.004.456.005.12.033.227.084.32.096.179.248.285.456.32.211.035.471.027.78-.024zm-2.832-3.816v-.504h2.832v.504zm4.003 3.816v-4.32h.528v1.04l-.104-.136c.048-.128.111-.245.188-.352.077-.109.161-.199.252-.268.112-.099.243-.173.392-.224.149-.053.3-.084.452-.092.152-.011.291 0 .416.032v.552c-.157-.04-.329-.049-.516-.028s-.359.096-.516.224c-.144.112-.252.247-.324.404-.072.155-.12.32-.144.496-.024.173-.036.345-.036.516v2.156zm4.275.12c-.326 0-.599-.059-.82-.176-.219-.117-.383-.273-.492-.468-.11-.195-.164-.407-.164-.636 0-.235.046-.435.14-.6.096-.168.225-.305.388-.412.165-.107.356-.188.572-.244.218-.053.46-.1.724-.14.266-.043.526-.079.78-.108.256-.032.48-.063.672-.092l-.208.128c.008-.427-.075-.743-.248-.948-.174-.205-.475-.308-.904-.308-.296 0-.547.067-.752.2-.203.133-.346.344-.428.632l-.572-.168c.098-.387.297-.687.596-.9.298-.213.686-.32 1.164-.32.394 0 .729.075 1.004.224.277.147.473.36.588.64.053.125.088.265.104.42s.024.312.024.472v2.684h-.524v-1.084l.152.064c-.147.371-.375.653-.684.848-.31.195-.68.292-1.112.292zm.068-.508c.274 0 .514-.049.72-.148.205-.099.37-.233.496-.404.125-.173.206-.368.244-.584.032-.139.049-.291.052-.456.002-.168.004-.293.004-.376l.224.116c-.2.027-.418.053-.652.08-.232.027-.462.057-.688.092-.224.035-.427.076-.608.124-.123.035-.242.084-.356.148-.115.061-.21.144-.284.248-.072.104-.108.233-.108.388 0 .125.03.247.092.364.064.117.165.215.304.292.141.077.328.116.56.116zm6.581.388v-2.204c0-.24-.023-.46-.068-.66-.045-.203-.119-.379-.22-.528-.099-.152-.228-.269-.388-.352-.157-.083-.349-.124-.576-.124-.208 0-.392.036-.552.108-.157.072-.291.176-.4.312-.107.133-.188.296-.244.488s-.084.411-.084.656l-.416-.092c0-.443.077-.815.232-1.116s.368-.529.64-.684.584-.232.936-.232c.259 0 .484.04.676.12.195.08.359.188.492.324.136.136.245.292.328.468.083.173.143.359.18.556.037.195.056.389.056.584v2.376zm-3.124 0v-4.32h.532v1.064h.06v3.256zm6.686.116c-.507 0-.924-.109-1.252-.328-.325-.219-.525-.523-.6-.912l.6-.1c.064.245.209.441.436.588.229.144.512.216.848.216.328 0 .587-.068.776-.204.189-.139.284-.327.284-.564 0-.133-.031-.241-.092-.324-.059-.085-.18-.164-.364-.236s-.459-.157-.824-.256c-.392-.107-.699-.213-.92-.32s-.379-.229-.472-.368c-.093-.141-.14-.313-.14-.516 0-.245.069-.46.208-.644.139-.187.331-.331.576-.432.245-.104.531-.156.856-.156s.616.053.872.16c.259.104.467.251.624.44s.251.409.28.66l-.6.108c-.04-.253-.167-.453-.38-.6-.211-.149-.479-.227-.804-.232-.307-.008-.556.051-.748.176-.192.123-.288.287-.288.492 0 .115.035.213.104.296.069.08.195.156.376.228.184.072.445.151.784.236.397.101.709.208.936.32s.388.244.484.396.144.34.144.564c0 .408-.152.729-.456.964-.301.232-.717.348-1.248.348zm4.147.004c-.325 0-.598-.059-.82-.176-.218-.117-.382-.273-.492-.468-.109-.195-.164-.407-.164-.636 0-.235.047-.435.14-.6.096-.168.226-.305.388-.412.166-.107.356-.188.572-.244.219-.053.46-.1.724-.14.267-.043.527-.079.78-.108.256-.032.48-.063.672-.092l-.208.128c.008-.427-.074-.743-.248-.948-.173-.205-.474-.308-.904-.308-.296 0-.546.067-.752.2-.202.133-.345.344-.428.632l-.572-.168c.099-.387.298-.687.596-.9.299-.213.687-.32 1.164-.32.395 0 .73.075 1.004.224.278.147.474.36.588.64.054.125.088.265.104.42s.024.312.024.472v2.684h-.524v-1.084l.152.064c-.146.371-.374.653-.684.848-.309.195-.68.292-1.112.292zm.068-.508c.275 0 .515-.049.72-.148.206-.099.371-.233.496-.404.126-.173.207-.368.244-.584.032-.139.05-.291.052-.456.003-.168.004-.293.004-.376l.224.116c-.2.027-.417.053-.652.08-.232.027-.461.057-.688.092-.224.035-.426.076-.608.124-.122.035-.241.084-.356.148-.114.061-.209.144-.284.248-.072.104-.108.233-.108.388 0 .125.031.247.092.364.064.117.166.215.304.292.142.077.328.116.56.116zm5.254.508c-.435 0-.803-.097-1.104-.292-.302-.195-.531-.463-.688-.804-.155-.344-.235-.739-.24-1.184.005-.453.088-.851.248-1.192.16-.344.39-.611.692-.8.301-.192.666-.288 1.096-.288.437 0 .817.107 1.14.32.325.213.548.505.668.876l-.576.184c-.102-.259-.263-.459-.484-.6-.219-.144-.47-.216-.752-.216-.318 0-.58.073-.788.22-.208.144-.363.345-.464.604-.102.259-.154.556-.156.892.005.517.125.933.36 1.248.234.312.584.468 1.048.468.293 0 .542-.067.748-.2.208-.136.365-.333.472-.592l.592.176c-.16.384-.395.677-.704.88-.31.2-.679.3-1.108.3zm5.309-.12c-.242.051-.482.071-.72.06-.234-.011-.445-.061-.632-.152-.184-.091-.324-.232-.42-.424-.077-.16-.12-.321-.128-.484-.005-.165-.008-.353-.008-.564v-3.956h.584v3.932c0 .181.002.333.004.456.006.12.034.227.084.32.096.179.248.285.456.32.211.035.471.027.78-.024zm-2.832-3.816v-.504h2.832v.504zm4.083-1.324v-.66h.588v.66zm0 5.14v-4.32h.588v4.32zm3.912.12c-.43 0-.796-.097-1.1-.292s-.538-.464-.7-.808c-.163-.344-.244-.739-.244-1.184 0-.453.082-.851.248-1.192.165-.341.4-.607.704-.796.306-.192.67-.288 1.092-.288.432 0 .8.097 1.104.292.306.192.54.46.7.804.162.341.244.735.244 1.18 0 .453-.082.852-.244 1.196-.163.341-.398.608-.704.8-.307.192-.674.288-1.1.288zm0-.564c.48 0 .837-.159 1.072-.476.234-.32.352-.735.352-1.244 0-.523-.119-.939-.356-1.248-.235-.309-.591-.464-1.068-.464-.323 0-.59.073-.8.22-.208.144-.364.345-.468.604-.102.256-.152.552-.152.888 0 .52.12.937.36 1.252.24.312.593.468 1.06.468zm6.37.444v-2.204c0-.24-.023-.46-.068-.66-.045-.203-.119-.379-.22-.528-.099-.152-.228-.269-.388-.352-.157-.083-.349-.124-.576-.124-.208 0-.392.036-.552.108-.157.072-.291.176-.4.312-.107.133-.188.296-.244.488s-.084.411-.084.656l-.416-.092c0-.443.077-.815.232-1.116s.368-.529.64-.684.584-.232.936-.232c.259 0 .484.04.676.12.195.08.359.188.492.324.136.136.245.292.328.468.083.173.143.359.18.556.037.195.056.389.056.584v2.376zm-3.124 0v-4.32h.532v1.064h.06v3.256zm-38.35 11v-4.64c0-.112.005-.223.016-.332.013-.109.038-.213.076-.312.037-.101.096-.195.176-.28.088-.096.184-.165.288-.208.104-.045.212-.075.324-.088.114-.013.226-.02.336-.02h.552v.496h-.512c-.224 0-.392.055-.504.164-.11.109-.164.281-.164.516v4.704zm-.748-3.816v-.504h2.516v.504zm5.147 3.936c-.421 0-.786-.093-1.096-.28-.306-.187-.545-.449-.716-.788-.17-.339-.256-.736-.256-1.192 0-.472.084-.88.252-1.224s.404-.609.708-.796c.307-.187.668-.28 1.084-.28.427 0 .791.099 1.092.296.302.195.53.475.684.84.155.365.226.801.212 1.308h-.6v-.208c-.01-.56-.132-.983-.364-1.268-.229-.285-.565-.428-1.008-.428-.464 0-.82.151-1.068.452-.245.301-.368.731-.368 1.288 0 .544.123.967.368 1.268.248.299.599.448 1.052.448.31 0 .579-.071.808-.212.232-.144.415-.351.548-.62l.548.212c-.17.376-.422.668-.756.876-.33.205-.705.308-1.124.308zm-1.652-2.116v-.492h3.3v.492zm6.652 2.116c-.421 0-.787-.093-1.096-.28-.307-.187-.545-.449-.716-.788s-.256-.736-.256-1.192c0-.472.084-.88.252-1.224s.404-.609.708-.796c.307-.187.668-.28 1.084-.28.427 0 .791.099 1.092.296.301.195.529.475.684.84s.225.801.212 1.308h-.6v-.208c-.011-.56-.132-.983-.364-1.268-.229-.285-.565-.428-1.008-.428-.464 0-.82.151-1.068.452-.245.301-.368.731-.368 1.288 0 .544.123.967.368 1.268.248.299.599.448 1.052.448.309 0 .579-.071.808-.212.232-.144.415-.351.548-.62l.548.212c-.171.376-.423.668-.756.876-.331.205-.705.308-1.124.308zm-1.652-2.116v-.492h3.3v.492zm4.723 3.432-.432-.344c.307-.357.563-.74.768-1.148.208-.411.364-.833.468-1.268.107-.437.162-.876.164-1.316-.002-.445-.056-.884-.16-1.316-.101-.432-.256-.851-.464-1.256-.208-.408-.466-.797-.776-1.168l.432-.336c.315.36.584.761.808 1.204.227.443.4.909.52 1.4.123.488.183.979.18 1.472.003.493-.057.984-.18 1.472-.12.488-.293.953-.52 1.396-.224.445-.493.848-.808 1.208z" fill="url(#h)"/><path d="m25.137 221.62c-.2987 0-.5747-.061-.828-.184-.2534-.123-.4694-.292-.648-.508-.1787-.216-.3067-.464-.384-.744l.564-.152c.0506.208.1426.388.276.54.1333.149.2893.265.468.348.1813.083.3706.124.568.124.256 0 .4853-.061.688-.184.2053-.125.368-.291.488-.496s.18-.431.18-.676c0-.253-.0627-.481-.188-.684-.1254-.205-.2907-.368-.496-.488-.2054-.12-.4294-.18-.672-.18-.272 0-.5067.06-.704.18-.1974.117-.3547.265-.472.444l-.536-.224.176-2.996h3.076v.564h-2.816l.292-.276-.156 2.556-.148-.196c.1653-.189.3653-.337.6-.444.2346-.107.4813-.16.74-.16.3546 0 .6746.085.96.256.2853.168.512.396.68.684s.252.609.252.964c0 .352-.0894.675-.268.968-.1787.291-.416.524-.712.7s-.6227.264-.98.264zm3.7971-.12-.4-.4 5.372-5.36.4.396zm4.172.12c-.264 0-.5053-.064-.724-.192-.216-.131-.3893-.304-.52-.52-.1306-.219-.196-.461-.196-.728 0-.261.0667-.501.2-.72.1334-.219.3094-.393.528-.524.2187-.131.456-.196.712-.196.264 0 .5054.065.724.196.2187.128.392.301.52.52.1307.216.196.457.196.724s-.0653.509-.196.728c-.128.216-.3013.389-.52.52-.2186.128-.46.192-.724.192zm0-.532c.1627 0 .3134-.041.452-.124.1387-.083.2494-.192.332-.328.0827-.139.124-.291.124-.456s-.0413-.316-.124-.452c-.0826-.139-.1933-.249-.332-.332-.1386-.083-.2893-.124-.452-.124-.1653 0-.3173.041-.456.124-.136.083-.2466.193-.332.332-.0826.136-.124.287-.124.452s.0414.317.124.456c.0854.136.196.245.332.328.1387.083.2907.124.456.124zm-3.372-2.588c-.264 0-.5053-.064-.724-.192-.2186-.131-.3933-.304-.524-.52-.128-.219-.192-.461-.192-.728 0-.261.0667-.501.2-.72.1334-.219.3094-.393.528-.524.2187-.131.456-.196.712-.196.264 0 .504.065.72.196.2187.128.3934.301.524.52.1307.216.196.457.196.724s-.0653.509-.196.728c-.1306.216-.3053.389-.524.52-.216.128-.456.192-.72.192zm0-.532c.1654 0 .316-.041.452-.124.1387-.083.2494-.192.332-.328.0827-.139.124-.291.124-.456s-.0413-.316-.124-.452c-.0826-.139-.1933-.249-.332-.332-.136-.083-.2866-.124-.452-.124-.1653 0-.3173.041-.456.124-.136.083-.2453.193-.328.332-.0826.136-.124.287-.124.452s.0414.317.124.456c.0827.136.192.245.328.328.1387.083.2907.124.456.124z" fill="#fbfaff"/><path d="m25.137 113.92c-.2987 0-.5747-.062-.828-.184-.2534-.123-.4694-.292-.648-.508-.1787-.216-.3067-.464-.384-.744l.564-.152c.0506.208.1426.388.276.54.1333.149.2893.265.468.348.1813.082.3706.124.568.124.256 0 .4853-.062.688-.184.2053-.126.368-.291.488-.496.12-.206.18-.431.18-.676 0-.254-.0627-.482-.188-.684-.1254-.206-.2907-.368-.496-.488-.2054-.12-.4294-.18-.672-.18-.272 0-.5067.06-.704.18-.1974.117-.3547.265-.472.444l-.536-.224.176-2.996h3.076v.564h-2.816l.292-.276-.156 2.556-.148-.196c.1653-.19.3653-.338.6-.444.2346-.107.4813-.16.74-.16.3546 0 .6746.085.96.256.2853.168.512.396.68.684s.252.609.252.964c0 .352-.0894.674-.268.968-.1787.29-.416.524-.712.7s-.6227.264-.98.264zm3.7971-.12-.4-.4 5.372-5.36.4.396zm4.172.12c-.264 0-.5053-.064-.724-.192-.216-.131-.3893-.304-.52-.52-.1306-.219-.196-.462-.196-.728 0-.262.0667-.502.2-.72.1334-.219.3094-.394.528-.524.2187-.131.456-.196.712-.196.264 0 .5054.065.724.196.2187.128.392.301.52.52.1307.216.196.457.196.724 0 .266-.0653.509-.196.728-.128.216-.3013.389-.52.52-.2186.128-.46.192-.724.192zm0-.532c.1627 0 .3134-.042.452-.124.1387-.083.2494-.192.332-.328.0827-.139.124-.291.124-.456 0-.166-.0413-.316-.124-.452-.0826-.139-.1933-.25-.332-.332-.1386-.083-.2893-.124-.452-.124-.1653 0-.3173.041-.456.124-.136.082-.2466.193-.332.332-.0826.136-.124.286-.124.452 0 .165.0414.317.124.456.0854.136.196.245.332.328.1387.082.2907.124.456.124zm-3.372-2.588c-.264 0-.5053-.064-.724-.192-.2186-.131-.3933-.304-.524-.52-.128-.219-.192-.462-.192-.728 0-.262.0667-.502.2-.72.1334-.219.3094-.394.528-.524.2187-.131.456-.196.712-.196.264 0 .504.065.72.196.2187.128.3934.301.524.52.1307.216.196.457.196.724 0 .266-.0653.509-.196.728-.1306.216-.3053.389-.524.52-.216.128-.456.192-.72.192zm0-.532c.1654 0 .316-.042.452-.124.1387-.083.2494-.192.332-.328.0827-.139.124-.291.124-.456 0-.166-.0413-.316-.124-.452-.0826-.139-.1933-.25-.332-.332-.136-.083-.2866-.124-.452-.124-.1653 0-.3173.041-.456.124-.136.082-.2453.193-.328.332-.0826.136-.124.286-.124.452 0 .165.0414.317.124.456.0827.136.192.245.328.328.1387.082.2907.124.456.124z" fill="#fbfaff"/><path d="m25.137 309.62c-.2987 0-.5747-.061-.828-.184-.2534-.123-.4694-.292-.648-.508-.1787-.216-.3067-.464-.384-.744l.564-.152c.0506.208.1426.388.276.54.1333.149.2893.265.468.348.1813.083.3706.124.568.124.256 0 .4853-.061.688-.184.2053-.125.368-.291.488-.496s.18-.431.18-.676c0-.253-.0627-.481-.188-.684-.1254-.205-.2907-.368-.496-.488-.2054-.12-.4294-.18-.672-.18-.272 0-.5067.06-.704.18-.1974.117-.3547.265-.472.444l-.536-.224.176-2.996h3.076v.564h-2.816l.292-.276-.156 2.556-.148-.196c.1653-.189.3653-.337.6-.444.2346-.107.4813-.16.74-.16.3546 0 .6746.085.96.256.2853.168.512.396.68.684s.252.609.252.964c0 .352-.0894.675-.268.968-.1787.291-.416.524-.712.7s-.6227.264-.98.264zm3.7971-.12-.4-.4 5.372-5.36.4.396zm4.172.12c-.264 0-.5053-.064-.724-.192-.216-.131-.3893-.304-.52-.52-.1306-.219-.196-.461-.196-.728 0-.261.0667-.501.2-.72.1334-.219.3094-.393.528-.524.2187-.131.456-.196.712-.196.264 0 .5054.065.724.196.2187.128.392.301.52.52.1307.216.196.457.196.724s-.0653.509-.196.728c-.128.216-.3013.389-.52.52-.2186.128-.46.192-.724.192zm0-.532c.1627 0 .3134-.041.452-.124.1387-.083.2494-.192.332-.328.0827-.139.124-.291.124-.456s-.0413-.316-.124-.452c-.0826-.139-.1933-.249-.332-.332-.1386-.083-.2893-.124-.452-.124-.1653 0-.3173.041-.456.124-.136.083-.2466.193-.332.332-.0826.136-.124.287-.124.452s.0414.317.124.456c.0854.136.196.245.332.328.1387.083.2907.124.456.124zm-3.372-2.588c-.264 0-.5053-.064-.724-.192-.2186-.131-.3933-.304-.524-.52-.128-.219-.192-.461-.192-.728 0-.261.0667-.501.2-.72.1334-.219.3094-.393.528-.524.2187-.131.456-.196.712-.196.264 0 .504.065.72.196.2187.128.3934.301.524.52.1307.216.196.457.196.724s-.0653.509-.196.728c-.1306.216-.3053.389-.524.52-.216.128-.456.192-.72.192zm0-.532c.1654 0 .316-.041.452-.124.1387-.083.2494-.192.332-.328.0827-.139.124-.291.124-.456s-.0413-.316-.124-.452c-.0826-.139-.1933-.249-.332-.332-.136-.083-.2866-.124-.452-.124-.1653 0-.3173.041-.456.124-.136.083-.2453.193-.328.332-.0826.136-.124.287-.124.452s.0414.317.124.456c.0827.136.192.245.328.328.1387.083.2907.124.456.124z" fill="#fbfaff"/><path d="m187.59 350.996.004-.536 2.604-2.352c.224-.203.372-.395.444-.576.075-.184.112-.376.112-.576 0-.237-.056-.452-.168-.644s-.262-.344-.452-.456c-.189-.115-.401-.172-.636-.172-.245 0-.464.059-.656.176s-.344.272-.456.464c-.109.192-.162.401-.16.628h-.6c0-.349.083-.663.248-.94.166-.277.39-.495.672-.652.283-.16.603-.24.96-.24.35 0 .663.083.94.248.28.163.5.384.66.664.163.277.244.587.244.928 0 .24-.029.452-.088.636-.056.181-.145.351-.268.508-.12.155-.273.315-.46.48l-2.312 2.088-.092-.24h3.22v.564zm5.155.004v-.684h.684v.684zm3.939.12c-.299 0-.575-.061-.828-.184s-.469-.292-.648-.508-.307-.464-.384-.744l.564-.152c.051.208.143.388.276.54.133.149.289.265.468.348.181.083.371.124.568.124.256 0 .485-.061.688-.184.205-.125.368-.291.488-.496s.18-.431.18-.676c0-.253-.063-.481-.188-.684-.125-.205-.291-.368-.496-.488s-.429-.18-.672-.18c-.272 0-.507.06-.704.18-.197.117-.355.265-.472.444l-.536-.224.176-2.996h3.076v.564h-2.816l.292-.276-.156 2.556-.148-.196c.165-.189.365-.337.6-.444s.481-.16.74-.16c.355 0 .675.085.96.256.285.168.512.396.68.684s.252.609.252.964c0 .352-.089.675-.268.968-.179.291-.416.524-.712.7s-.623.264-.98.264zm3.797-.12-.4-.4 5.372-5.36.4.396zm4.172.12c-.264 0-.505-.064-.724-.192-.216-.131-.389-.304-.52-.52-.131-.219-.196-.461-.196-.728 0-.261.067-.501.2-.72s.309-.393.528-.524.456-.196.712-.196c.264 0 .505.065.724.196.219.128.392.301.52.52.131.216.196.457.196.724s-.065.509-.196.728c-.128.216-.301.389-.52.52-.219.128-.46.192-.724.192zm0-.532c.163 0 .313-.041.452-.124s.249-.192.332-.328c.083-.139.124-.291.124-.456s-.041-.316-.124-.452c-.083-.139-.193-.249-.332-.332s-.289-.124-.452-.124c-.165 0-.317.041-.456.124-.136.083-.247.193-.332.332-.083.136-.124.287-.124.452s.041.317.124.456c.085.136.196.245.332.328.139.083.291.124.456.124zm-3.372-2.588c-.264 0-.505-.064-.724-.192-.219-.131-.393-.304-.524-.52-.128-.219-.192-.461-.192-.728 0-.261.067-.501.2-.72s.309-.393.528-.524.456-.196.712-.196c.264 0 .504.065.72.196.219.128.393.301.524.52.131.216.196.457.196.724s-.065.509-.196.728c-.131.216-.305.389-.524.52-.216.128-.456.192-.72.192zm0-.532c.165 0 .316-.041.452-.124.139-.083.249-.192.332-.328.083-.139.124-.291.124-.456s-.041-.316-.124-.452c-.083-.139-.193-.249-.332-.332-.136-.083-.287-.124-.452-.124s-.317.041-.456.124c-.136.083-.245.193-.328.332-.083.136-.124.287-.124.452s.041.317.124.456c.083.136.192.245.328.328.139.083.291.124.456.124zm10.161 4.968c-.315-.36-.586-.763-.812-1.208-.224-.443-.398-.908-.52-1.396-.12-.488-.179-.979-.176-1.472-.003-.493.056-.984.176-1.472.122-.491.296-.957.52-1.4.226-.443.497-.844.812-1.204l.432.336c-.31.371-.568.76-.776 1.168-.208.405-.364.824-.468 1.256-.102.432-.154.871-.156 1.316.002.44.056.879.16 1.316.106.435.262.857.468 1.268.208.408.465.791.772 1.148zm4.01-1.436c-.243.051-.483.071-.72.06-.235-.011-.445-.061-.632-.152-.184-.091-.324-.232-.42-.424-.077-.16-.12-.321-.128-.484-.005-.165-.008-.353-.008-.564v-3.956h.584v3.932c0 .181.001.333.004.456.005.12.033.227.084.32.096.179.248.285.456.32.211.035.471.027.78-.024zm-2.832-3.816v-.504h2.832v.504zm4.003 3.816v-4.32h.528v1.04l-.104-.136c.048-.128.111-.245.188-.352.077-.109.161-.199.252-.268.112-.099.243-.173.392-.224.149-.053.3-.084.452-.092.152-.011.291 0 .416.032v.552c-.157-.04-.329-.049-.516-.028s-.359.096-.516.224c-.144.112-.252.247-.324.404-.072.155-.12.32-.144.496-.024.173-.036.345-.036.516v2.156zm4.275.12c-.326 0-.599-.059-.82-.176-.219-.117-.383-.273-.492-.468-.11-.195-.164-.407-.164-.636 0-.235.046-.435.14-.6.096-.168.225-.305.388-.412.165-.107.356-.188.572-.244.218-.053.46-.1.724-.14.266-.043.526-.079.78-.108.256-.032.48-.063.672-.092l-.208.128c.008-.427-.075-.743-.248-.948-.174-.205-.475-.308-.904-.308-.296 0-.547.067-.752.2-.203.133-.346.344-.428.632l-.572-.168c.098-.387.297-.687.596-.9.298-.213.686-.32 1.164-.32.394 0 .729.075 1.004.224.277.147.473.36.588.64.053.125.088.265.104.42s.024.312.024.472v2.684h-.524v-1.084l.152.064c-.147.371-.375.653-.684.848-.31.195-.68.292-1.112.292zm.068-.508c.274 0 .514-.049.72-.148.205-.099.37-.233.496-.404.125-.173.206-.368.244-.584.032-.139.049-.291.052-.456.002-.168.004-.293.004-.376l.224.116c-.2.027-.418.053-.652.08-.232.027-.462.057-.688.092-.224.035-.427.076-.608.124-.123.035-.242.084-.356.148-.115.061-.21.144-.284.248-.072.104-.108.233-.108.388 0 .125.03.247.092.364.064.117.165.215.304.292.141.077.328.116.56.116zm6.581.388v-2.204c0-.24-.023-.46-.068-.66-.045-.203-.119-.379-.22-.528-.099-.152-.228-.269-.388-.352-.157-.083-.349-.124-.576-.124-.208 0-.392.036-.552.108-.157.072-.291.176-.4.312-.107.133-.188.296-.244.488s-.084.411-.084.656l-.416-.092c0-.443.077-.815.232-1.116s.368-.529.64-.684.584-.232.936-.232c.259 0 .484.04.676.12.195.08.359.188.492.324.136.136.245.292.328.468.083.173.143.359.18.556.037.195.056.389.056.584v2.376zm-3.124 0v-4.32h.532v1.064h.06v3.256zm6.686.116c-.507 0-.924-.109-1.252-.328-.325-.219-.525-.523-.6-.912l.6-.1c.064.245.209.441.436.588.229.144.512.216.848.216.328 0 .587-.068.776-.204.189-.139.284-.327.284-.564 0-.133-.031-.241-.092-.324-.059-.085-.18-.164-.364-.236s-.459-.157-.824-.256c-.392-.107-.699-.213-.92-.32s-.379-.229-.472-.368c-.093-.141-.14-.313-.14-.516 0-.245.069-.46.208-.644.139-.187.331-.331.576-.432.245-.104.531-.156.856-.156s.616.053.872.16c.259.104.467.251.624.44s.251.409.28.66l-.6.108c-.04-.253-.167-.453-.38-.6-.211-.149-.479-.227-.804-.232-.307-.008-.556.051-.748.176-.192.123-.288.287-.288.492 0 .115.035.213.104.296.069.08.195.156.376.228.184.072.445.151.784.236.397.101.709.208.936.32s.388.244.484.396.144.34.144.564c0 .408-.152.729-.456.964-.301.232-.717.348-1.248.348zm4.147.004c-.325 0-.598-.059-.82-.176-.218-.117-.382-.273-.492-.468-.109-.195-.164-.407-.164-.636 0-.235.047-.435.14-.6.096-.168.226-.305.388-.412.166-.107.356-.188.572-.244.219-.053.46-.1.724-.14.267-.043.527-.079.78-.108.256-.032.48-.063.672-.092l-.208.128c.008-.427-.074-.743-.248-.948-.173-.205-.474-.308-.904-.308-.296 0-.546.067-.752.2-.202.133-.345.344-.428.632l-.572-.168c.099-.387.298-.687.596-.9.299-.213.687-.32 1.164-.32.395 0 .73.075 1.004.224.278.147.474.36.588.64.054.125.088.265.104.42s.024.312.024.472v2.684h-.524v-1.084l.152.064c-.146.371-.374.653-.684.848-.309.195-.68.292-1.112.292zm.068-.508c.275 0 .515-.049.72-.148.206-.099.371-.233.496-.404.126-.173.207-.368.244-.584.032-.139.05-.291.052-.456.003-.168.004-.293.004-.376l.224.116c-.2.027-.417.053-.652.08-.232.027-.461.057-.688.092-.224.035-.426.076-.608.124-.122.035-.241.084-.356.148-.114.061-.209.144-.284.248-.072.104-.108.233-.108.388 0 .125.031.247.092.364.064.117.166.215.304.292.142.077.328.116.56.116zm5.254.508c-.435 0-.803-.097-1.104-.292-.302-.195-.531-.463-.688-.804-.155-.344-.235-.739-.24-1.184.005-.453.088-.851.248-1.192.16-.344.39-.611.692-.8.301-.192.666-.288 1.096-.288.437 0 .817.107 1.14.32.325.213.548.505.668.876l-.576.184c-.102-.259-.263-.459-.484-.6-.219-.144-.47-.216-.752-.216-.318 0-.58.073-.788.22-.208.144-.363.345-.464.604-.102.259-.154.556-.156.892.005.517.125.933.36 1.248.234.312.584.468 1.048.468.293 0 .542-.067.748-.2.208-.136.365-.333.472-.592l.592.176c-.16.384-.395.677-.704.88-.31.2-.679.3-1.108.3zm5.309-.12c-.242.051-.482.071-.72.06-.234-.011-.445-.061-.632-.152-.184-.091-.324-.232-.42-.424-.077-.16-.12-.321-.128-.484-.005-.165-.008-.353-.008-.564v-3.956h.584v3.932c0 .181.002.333.004.456.006.12.034.227.084.32.096.179.248.285.456.32.211.035.471.027.78-.024zm-2.832-3.816v-.504h2.832v.504zm4.083-1.324v-.66h.588v.66zm0 5.14v-4.32h.588v4.32zm3.912.12c-.43 0-.796-.097-1.1-.292s-.538-.464-.7-.808c-.163-.344-.244-.739-.244-1.184 0-.453.082-.851.248-1.192.165-.341.4-.607.704-.796.306-.192.67-.288 1.092-.288.432 0 .8.097 1.104.292.306.192.54.46.7.804.162.341.244.735.244 1.18 0 .453-.082.852-.244 1.196-.163.341-.398.608-.704.8-.307.192-.674.288-1.1.288zm0-.564c.48 0 .837-.159 1.072-.476.234-.32.352-.735.352-1.244 0-.523-.119-.939-.356-1.248-.235-.309-.591-.464-1.068-.464-.323 0-.59.073-.8.22-.208.144-.364.345-.468.604-.102.256-.152.552-.152.888 0 .52.12.937.36 1.252.24.312.593.468 1.06.468zm6.37.444v-2.204c0-.24-.023-.46-.068-.66-.045-.203-.119-.379-.22-.528-.099-.152-.228-.269-.388-.352-.157-.083-.349-.124-.576-.124-.208 0-.392.036-.552.108-.157.072-.291.176-.4.312-.107.133-.188.296-.244.488s-.084.411-.084.656l-.416-.092c0-.443.077-.815.232-1.116s.368-.529.64-.684.584-.232.936-.232c.259 0 .484.04.676.12.195.08.359.188.492.324.136.136.245.292.328.468.083.173.143.359.18.556.037.195.056.389.056.584v2.376zm-3.124 0v-4.32h.532v1.064h.06v3.256zm-38.35 11v-4.64c0-.112.005-.223.016-.332.013-.109.038-.213.076-.312.037-.101.096-.195.176-.28.088-.096.184-.165.288-.208.104-.045.212-.075.324-.088.114-.013.226-.02.336-.02h.552v.496h-.512c-.224 0-.392.055-.504.164-.11.109-.164.281-.164.516v4.704zm-.748-3.816v-.504h2.516v.504zm5.147 3.936c-.421 0-.786-.093-1.096-.28-.306-.187-.545-.449-.716-.788-.17-.339-.256-.736-.256-1.192 0-.472.084-.88.252-1.224s.404-.609.708-.796c.307-.187.668-.28 1.084-.28.427 0 .791.099 1.092.296.302.195.53.475.684.84.155.365.226.801.212 1.308h-.6v-.208c-.01-.56-.132-.983-.364-1.268-.229-.285-.565-.428-1.008-.428-.464 0-.82.151-1.068.452-.245.301-.368.731-.368 1.288 0 .544.123.967.368 1.268.248.299.599.448 1.052.448.31 0 .579-.071.808-.212.232-.144.415-.351.548-.62l.548.212c-.17.376-.422.668-.756.876-.33.205-.705.308-1.124.308zm-1.652-2.116v-.492h3.3v.492zm6.652 2.116c-.421 0-.787-.093-1.096-.28-.307-.187-.545-.449-.716-.788s-.256-.736-.256-1.192c0-.472.084-.88.252-1.224s.404-.609.708-.796c.307-.187.668-.28 1.084-.28.427 0 .791.099 1.092.296.301.195.529.475.684.84s.225.801.212 1.308h-.6v-.208c-.011-.56-.132-.983-.364-1.268-.229-.285-.565-.428-1.008-.428-.464 0-.82.151-1.068.452-.245.301-.368.731-.368 1.288 0 .544.123.967.368 1.268.248.299.599.448 1.052.448.309 0 .579-.071.808-.212.232-.144.415-.351.548-.62l.548.212c-.171.376-.423.668-.756.876-.331.205-.705.308-1.124.308zm-1.652-2.116v-.492h3.3v.492zm4.723 3.432-.432-.344c.307-.357.563-.74.768-1.148.208-.411.364-.833.468-1.268.107-.437.162-.876.164-1.316-.002-.445-.056-.884-.16-1.316-.101-.432-.256-.851-.464-1.256-.208-.408-.466-.797-.776-1.168l.432-.336c.315.36.584.761.808 1.204.227.443.4.909.52 1.4.123.488.183.979.18 1.472.003.493-.057.984-.18 1.472-.12.488-.293.953-.52 1.396-.224.445-.493.848-.808 1.208z" fill="url(#i)"/><path d="m99.5108 182.573c.6902-3.806 4.0042-6.573 7.8722-6.573h61.036c4.99 0 8.762 4.518 7.872 9.427l-5.802 32c-.69 3.806-4.004 6.573-7.872 6.573h-61.036c-4.9898 0-8.762-4.518-7.8718-9.427z" fill="#1f1f1f"/><path d="m99.5108 182.573c.6902-3.806 4.0042-6.573 7.8722-6.573h61.036c4.99 0 8.762 4.518 7.872 9.427l-5.802 32c-.69 3.806-4.004 6.573-7.872 6.573h-61.036c-4.9898 0-8.762-4.518-7.8718-9.427z" fill="#1f1f1f"/><path d="m120.44 203.5v-5.76h2.264c.365 0 .672.075.92.224s.435.343.56.58c.125.235.188.483.188.744 0 .317-.079.589-.236.816-.155.227-.364.381-.628.464l-.008-.196c.368.091.651.268.848.532.197.261.296.567.296.916 0 .339-.068.633-.204.884-.133.251-.329.447-.588.588-.256.139-.567.208-.932.208zm.848-.796h1.504c.189 0 .359-.036.508-.108.152-.072.271-.175.356-.308.088-.136.132-.297.132-.484 0-.173-.039-.329-.116-.468-.075-.141-.184-.252-.328-.332-.141-.083-.308-.124-.5-.124h-1.556zm0-2.612h1.404c.155 0 .293-.031.416-.092.125-.064.224-.155.296-.272.075-.12.112-.264.112-.432 0-.224-.075-.408-.224-.552s-.349-.216-.6-.216h-1.404zm6.1 3.524c-.299 0-.549-.048-.752-.144s-.368-.221-.496-.376c-.125-.157-.221-.328-.288-.512s-.112-.364-.136-.54-.036-.331-.036-.464v-2.4h.848v2.124c0 .168.013.341.04.52.029.176.083.34.16.492.08.152.191.275.332.368.144.093.331.14.56.14.149 0 .291-.024.424-.072.133-.051.249-.131.348-.24.101-.109.18-.253.236-.432.059-.179.088-.396.088-.652l.52.196c0 .392-.073.739-.22 1.04-.147.299-.357.532-.632.7s-.607.252-.996.252zm1.428-.116v-1.248h-.1v-3.072h.844v4.32zm2.77 1.92.836-2.276.012.672-1.884-4.636h.872l1.408 3.58h-.256l1.344-3.58h.848l-2.384 6.24zm5.886-1.8c-.429 0-.807-.093-1.132-.28-.323-.189-.575-.452-.756-.788-.179-.339-.268-.731-.268-1.176 0-.472.088-.881.264-1.228.179-.347.427-.615.744-.804s.687-.284 1.108-.284c.44 0 .815.103 1.124.308.309.203.54.492.692.868.155.376.216.823.184 1.34h-.836v-.304c-.005-.501-.101-.872-.288-1.112-.184-.24-.465-.36-.844-.36-.419 0-.733.132-.944.396s-.316.645-.316 1.144c0 .475.105.843.316 1.104.211.259.515.388.912.388.261 0 .487-.059.676-.176.192-.12.341-.291.448-.512l.82.26c-.168.387-.423.687-.764.9-.341.211-.721.316-1.14.316zm-1.54-2.044v-.652h3.084v.652zm4.718 1.924v-4.32h.744v1.048l-.104-.136c.053-.139.122-.265.208-.38.085-.117.184-.213.296-.288.109-.08.23-.141.364-.184.136-.045.274-.072.416-.08.141-.011.277-.004.408.02v.784c-.142-.037-.299-.048-.472-.032-.171.016-.328.071-.472.164-.136.088-.244.195-.324.32-.078.125-.134.265-.168.42-.035.152-.052.313-.052.484v2.18zm5.175-.004.004-.744 2.508-2.248c.203-.179.34-.349.412-.512.075-.163.112-.325.112-.488 0-.205-.045-.389-.136-.552-.091-.165-.216-.296-.376-.392s-.344-.144-.552-.144c-.213 0-.404.051-.572.152-.165.099-.295.231-.388.396s-.139.344-.136.536h-.856c0-.373.084-.7.252-.98.171-.283.404-.503.7-.66.296-.16.635-.24 1.016-.24.363 0 .688.083.976.248.288.163.515.387.68.672.168.285.252.611.252.976 0 .264-.035.488-.104.672s-.173.355-.312.512-.312.328-.52.512l-1.936 1.728-.092-.24h2.964v.796z" fill="#fbfaff"/><path d="m99.5108 270.573c.6902-3.806 4.0042-6.573 7.8722-6.573h61.036c4.99 0 8.762 4.518 7.872 9.427l-5.802 32c-.69 3.806-4.004 6.573-7.872 6.573h-61.036c-4.9898 0-8.762-4.518-7.8718-9.427z" fill="#1f1f1f"/><path d="m99.5108 270.573c.6902-3.806 4.0042-6.573 7.8722-6.573h61.036c4.99 0 8.762 4.518 7.872 9.427l-5.802 32c-.69 3.806-4.004 6.573-7.872 6.573h-61.036c-4.9898 0-8.762-4.518-7.8718-9.427z" fill="#1f1f1f"/><path d="m120.498 291.5v-5.76h2.264c.366 0 .672.075.92.224s.435.343.56.58c.126.235.188.483.188.744 0 .317-.078.589-.236.816-.154.227-.364.381-.628.464l-.008-.196c.368.091.651.268.848.532.198.261.296.567.296.916 0 .339-.068.633-.204.884-.133.251-.329.447-.588.588-.256.139-.566.208-.932.208zm.848-.796h1.504c.19 0 .359-.036.508-.108.152-.072.271-.175.356-.308.088-.136.132-.297.132-.484 0-.173-.038-.329-.116-.468-.074-.141-.184-.252-.328-.332-.141-.083-.308-.124-.5-.124h-1.556zm0-2.612h1.404c.155 0 .294-.031.416-.092.126-.064.224-.155.296-.272.075-.12.112-.264.112-.432 0-.224-.074-.408-.224-.552-.149-.144-.349-.216-.6-.216h-1.404zm6.1 3.524c-.298 0-.549-.048-.752-.144-.202-.096-.368-.221-.496-.376-.125-.157-.221-.328-.288-.512-.066-.184-.112-.364-.136-.54s-.036-.331-.036-.464v-2.4h.848v2.124c0 .168.014.341.04.52.03.176.083.34.16.492.08.152.191.275.332.368.144.093.331.14.56.14.15 0 .291-.024.424-.072.134-.051.25-.131.348-.24.102-.109.18-.253.236-.432.059-.179.088-.396.088-.652l.52.196c0 .392-.073.739-.22 1.04-.146.299-.357.532-.632.7-.274.168-.606.252-.996.252zm1.428-.116v-1.248h-.1v-3.072h.844v4.32zm2.77 1.92.836-2.276.012.672-1.884-4.636h.872l1.408 3.58h-.256l1.344-3.58h.848l-2.384 6.24zm5.887-1.8c-.43 0-.807-.093-1.132-.28-.323-.189-.575-.452-.756-.788-.179-.339-.268-.731-.268-1.176 0-.472.088-.881.264-1.228.178-.347.426-.615.744-.804.317-.189.686-.284 1.108-.284.44 0 .814.103 1.124.308.309.203.54.492.692.868.154.376.216.823.184 1.34h-.836v-.304c-.006-.501-.102-.872-.288-1.112-.184-.24-.466-.36-.844-.36-.419 0-.734.132-.944.396-.211.264-.316.645-.316 1.144 0 .475.105.843.316 1.104.21.259.514.388.912.388.261 0 .486-.059.676-.176.192-.12.341-.291.448-.512l.82.26c-.168.387-.423.687-.764.9-.342.211-.722.316-1.14.316zm-1.54-2.044v-.652h3.084v.652zm4.717 1.924v-4.32h.744v1.048l-.104-.136c.053-.139.123-.265.208-.38.085-.117.184-.213.296-.288.109-.08.231-.141.364-.184.136-.045.275-.072.416-.08.141-.011.277-.004.408.02v.784c-.141-.037-.299-.048-.472-.032-.171.016-.328.071-.472.164-.136.088-.244.195-.324.32-.077.125-.133.265-.168.42-.035.152-.052.313-.052.484v2.18zm6.947.108c-.285 0-.553-.053-.804-.16-.25-.109-.468-.264-.652-.464-.181-.2-.313-.436-.396-.708l.808-.224c.078.248.212.439.404.572.192.131.406.195.64.192.211-.003.396-.052.556-.148s.286-.225.376-.388c.091-.165.136-.355.136-.568 0-.32-.1-.584-.3-.792-.197-.208-.456-.312-.776-.312-.09 0-.184.013-.28.04-.093.027-.181.061-.264.104l-.392-.66 2.032-1.796.088.24h-2.8v-.796h3.464v.796l-1.688 1.624-.008-.272c.363 0 .678.081.944.244.267.16.472.379.616.656.147.275.22.583.22.924 0 .368-.086.695-.26.98-.17.285-.401.509-.692.672-.288.163-.612.244-.972.244z" fill="#fbfaff"/><path d="m99.5108 358.573c.6902-3.806 4.0042-6.573 7.8722-6.573h61.036c4.99 0 8.762 4.518 7.872 9.427l-5.802 32c-.69 3.806-4.004 6.573-7.872 6.573h-61.036c-4.9898 0-8.762-4.518-7.8718-9.427z" fill="#1f1f1f"/><path d="m99.5108 358.573c.6902-3.806 4.0042-6.573 7.8722-6.573h61.036c4.99 0 8.762 4.518 7.872 9.427l-5.802 32c-.69 3.806-4.004 6.573-7.872 6.573h-61.036c-4.9898 0-8.762-4.518-7.8718-9.427z" fill="#1f1f1f"/><path d="m131.95 379.5v-.884h.884v.884zm2.609 0v-.884h.884v.884zm2.61 0v-.884h.884v.884z" fill="#fbfaff"/><path d="m135 88v-40" opacity=".5" stroke="#fbfaff"/><path d="m135 176v-40" opacity=".5" stroke="#fbfaff"/><path d="m135 264v-40" opacity=".5" stroke="#fbfaff"/><path d="m135 352v-40" opacity=".5" stroke="#fbfaff"/><g stroke-width="2"><path d="m178 74-6-6-6 6" stroke="url(#j)"/><path d="m178 68-6-6-6 6" stroke="url(#k)"/><path d="m178 162-6-6-6 6" stroke="url(#l)"/><path d="m178 156-6-6-6 6" stroke="url(#m)"/><path d="m178 250-6-6-6 6" stroke="url(#n)"/><path d="m178 244-6-6-6 6" stroke="url(#o)"/><path d="m178 338-6-6-6 6" stroke="url(#p)"/><path d="m178 332-6-6-6 6" stroke="url(#q)"/><path d="m104 62-6 6-6-6" stroke="url(#r)"/><path d="m104 68-6 6-6-6" stroke="url(#s)"/><path d="m104 150-6 6-6-6" stroke="url(#t)"/><path d="m104 156-6 6-6-6" stroke="url(#u)"/><path d="m104 238-6 6-6-6" stroke="url(#v)"/><path d="m104 244-6 6-6-6" stroke="url(#w)"/><path d="m1 224 6-6 6 6" stroke="url(#x)"/><path d="m1 218 6-6 6 6" stroke="url(#y)"/><path d="m1 116.3 6-6 6 6" stroke="url(#z)"/><path d="m1 110.3 6-6 6 6" stroke="url(#A)"/><path d="m1 312 6-6 6 6" stroke="url(#B)"/><path d="m1 306 6-6 6 6" stroke="url(#C)"/><path d="m104 326-6 6-6-6" stroke="url(#D)"/><path d="m104 332-6 6-6-6" stroke="url(#E)"/></g><path d="m41.98 73v-10.08h1.036l5.551 8.26v-8.26h1.036v10.08h-1.036l-5.551-8.267v8.267zm10.144 0v-10.08h5.789v1.029h-4.76v3.5h3.92v1.022h-3.92v4.529zm10.2957 0v-9.093h-3.521v-.987h8.071v.987h-3.521v9.093z" fill="#fbfaff"/><path d="m206.298 62.717c.635 0 1.209.154 1.722.462.518.3033.929.7187 1.232 1.246.303.5227.455 1.1107.455 1.764v3.5c0 .672-.152 1.274-.455 1.806s-.719.952-1.246 1.26c-.523.3033-1.118.455-1.785.455-.574 0-1.106-.126-1.596-.378-.485-.2567-.887-.609-1.204-1.057l.784-.651c.215.3313.499.5973.854.798.359.2007.747.301 1.162.301.476 0 .896-.112 1.26-.336.369-.2287.658-.5273.868-.896.215-.3733.322-.777.322-1.211v-2.198l.252.294c-.289.462-.674.8353-1.155 1.12-.476.2847-.999.427-1.568.427-.621 0-1.183-.1493-1.687-.448-.499-.2987-.896-.7-1.19-1.204-.289-.504-.434-1.0663-.434-1.687s.154-1.1853.462-1.694c.308-.5133.721-.9193 1.239-1.218.518-.3033 1.087-.455 1.708-.455zm0 .994c-.439 0-.838.1073-1.197.322-.359.21-.646.4947-.861.854-.21.3593-.315.7583-.315 1.197s.105.8377.315 1.197.495.6463.854.861c.359.21.758.315 1.197.315s.838-.105 1.197-.315c.364-.2147.651-.5017.861-.861.215-.3593.322-.7583.322-1.197 0-.434-.107-.8307-.322-1.19-.21-.3593-.495-.6463-.854-.861s-.758-.322-1.197-.322zm6.285 9.289 3.71-9.079h-4.669v-1.001h5.768v1.001l-3.703 9.079zm6.315 0v-1.197h1.197v1.197zm6.893.21c-.522 0-1.005-.1073-1.449-.322-.443-.2147-.821-.511-1.134-.889-.312-.378-.536-.812-.672-1.302l.987-.266c.089.364.25.679.483.945.234.2613.507.4643.819.609.318.1447.649.217.994.217.448 0 .85-.1073 1.204-.322.36-.2193.644-.5087.854-.868s.315-.7537.315-1.183c0-.4433-.109-.8423-.329-1.197-.219-.3593-.508-.644-.868-.854-.359-.21-.751-.315-1.176-.315-.476 0-.886.105-1.232.315-.345.2053-.62.4643-.826.777l-.938-.392.308-5.243h5.383v.987h-4.928l.511-.483-.273 4.473-.259-.343c.29-.3313.64-.5903 1.05-.777.411-.1867.843-.28 1.295-.28.621 0 1.181.1493 1.68.448.5.294.896.693 1.19 1.197s.441 1.0663.441 1.687c0 .616-.156 1.1807-.469 1.694-.312.5087-.728.917-1.246 1.225s-1.089.462-1.715.462zm6.645-.21-.7-.7 9.401-9.38.7.693zm7.301.21c-.462 0-.884-.112-1.267-.336-.378-.2287-.681-.532-.91-.91-.228-.3827-.343-.8073-.343-1.274 0-.4573.117-.8773.35-1.26.234-.3827.542-.6883.924-.917.383-.2287.798-.343 1.246-.343.462 0 .885.1143 1.267.343.383.224.686.5273.91.91.229.378.343.8003.343 1.267s-.114.8913-.343 1.274c-.224.378-.527.6813-.91.91-.382.224-.805.336-1.267.336zm0-.931c.285 0 .549-.0723.791-.217.243-.1447.437-.336.581-.574.145-.2427.217-.5087.217-.798s-.072-.553-.217-.791c-.144-.2427-.338-.4363-.581-.581-.242-.1447-.506-.217-.791-.217-.289 0-.555.0723-.798.217-.238.1447-.431.3383-.581.581-.144.238-.217.5017-.217.791s.073.5553.217.798c.15.238.343.4293.581.574.243.1447.509.217.798.217zm-5.901-4.529c-.462 0-.884-.112-1.267-.336-.382-.2287-.688-.532-.917-.91-.224-.3827-.336-.8073-.336-1.274 0-.4573.117-.8773.35-1.26.234-.3827.542-.6883.924-.917.383-.2287.798-.343 1.246-.343.462 0 .882.1143 1.26.343.383.224.689.5273.917.91.229.378.343.8003.343 1.267s-.114.8913-.343 1.274c-.228.378-.534.6813-.917.91-.378.224-.798.336-1.26.336zm0-.931c.29 0 .553-.0723.791-.217.243-.1447.437-.336.581-.574.145-.2427.217-.5087.217-.798s-.072-.553-.217-.791c-.144-.2427-.338-.4363-.581-.581-.238-.1447-.501-.217-.791-.217-.289 0-.555.0723-.798.217-.238.1447-.429.3383-.574.581-.144.238-.217.5017-.217.791s.073.5553.217.798c.145.238.336.4293.574.574.243.1447.509.217.798.217z" fill="#fbfaff"/><path d="m41.98 161v-10.08h1.036l5.551 8.26v-8.26h1.036v10.08h-1.036l-5.551-8.267v8.267zm10.144 0v-10.08h5.789v1.029h-4.76v3.5h3.92v1.022h-3.92v4.529zm10.2957 0v-9.093h-3.521v-.987h8.071v.987h-3.521v9.093z" fill="#fbfaff"/><path d="m206.298 150.717c.635 0 1.209.154 1.722.462.518.303.929.719 1.232 1.246.303.523.455 1.111.455 1.764v3.5c0 .672-.152 1.274-.455 1.806s-.719.952-1.246 1.26c-.523.303-1.118.455-1.785.455-.574 0-1.106-.126-1.596-.378-.485-.257-.887-.609-1.204-1.057l.784-.651c.215.331.499.597.854.798.359.201.747.301 1.162.301.476 0 .896-.112 1.26-.336.369-.229.658-.527.868-.896.215-.373.322-.777.322-1.211v-2.198l.252.294c-.289.462-.674.835-1.155 1.12-.476.285-.999.427-1.568.427-.621 0-1.183-.149-1.687-.448-.499-.299-.896-.7-1.19-1.204-.289-.504-.434-1.066-.434-1.687s.154-1.185.462-1.694c.308-.513.721-.919 1.239-1.218.518-.303 1.087-.455 1.708-.455zm0 .994c-.439 0-.838.107-1.197.322-.359.21-.646.495-.861.854-.21.359-.315.758-.315 1.197s.105.838.315 1.197.495.646.854.861c.359.21.758.315 1.197.315s.838-.105 1.197-.315c.364-.215.651-.502.861-.861.215-.359.322-.758.322-1.197 0-.434-.107-.831-.322-1.19-.21-.359-.495-.646-.854-.861s-.758-.322-1.197-.322zm5.644 9.282.007-.938 4.557-4.116c.392-.355.651-.691.777-1.008.13-.322.196-.658.196-1.008 0-.415-.098-.791-.294-1.127s-.46-.602-.791-.798c-.332-.201-.703-.301-1.113-.301-.43 0-.812.103-1.148.308s-.602.476-.798.812c-.192.336-.285.702-.28 1.099h-1.05c0-.611.144-1.16.434-1.645.289-.485.681-.866 1.176-1.141.494-.28 1.054-.42 1.68-.42.611 0 1.159.145 1.645.434.49.285.875.672 1.155 1.162.284.485.427 1.027.427 1.624 0 .42-.052.791-.154 1.113-.098.317-.255.614-.469.889-.21.271-.479.551-.805.84l-4.046 3.654-.161-.42h5.635v.987zm9.02.007v-1.197h1.197v1.197zm6.894.21c-.523 0-1.006-.107-1.449-.322-.444-.215-.822-.511-1.134-.889-.313-.378-.537-.812-.672-1.302l.987-.266c.088.364.249.679.483.945.233.261.506.464.819.609.317.145.648.217.994.217.448 0 .849-.107 1.204-.322.359-.219.644-.509.854-.868s.315-.754.315-1.183c0-.443-.11-.842-.329-1.197-.22-.359-.509-.644-.868-.854-.36-.21-.752-.315-1.176-.315-.476 0-.887.105-1.232.315-.346.205-.621.464-.826.777l-.938-.392.308-5.243h5.383v.987h-4.928l.511-.483-.273 4.473-.259-.343c.289-.331.639-.59 1.05-.777.41-.187.842-.28 1.295-.28.62 0 1.18.149 1.68.448.499.294.896.693 1.19 1.197s.441 1.066.441 1.687c0 .616-.157 1.181-.469 1.694-.313.509-.728.917-1.246 1.225s-1.09.462-1.715.462zm6.645-.21-.7-.7 9.401-9.38.7.693zm7.301.21c-.462 0-.885-.112-1.267-.336-.378-.229-.682-.532-.91-.91-.229-.383-.343-.807-.343-1.274 0-.457.116-.877.35-1.26.233-.383.541-.688.924-.917.382-.229.798-.343 1.246-.343.462 0 .884.114 1.267.343.382.224.686.527.91.91.228.378.343.8.343 1.267s-.115.891-.343 1.274c-.224.378-.528.681-.91.91-.383.224-.805.336-1.267.336zm0-.931c.284 0 .548-.072.791-.217.242-.145.436-.336.581-.574.144-.243.217-.509.217-.798s-.073-.553-.217-.791c-.145-.243-.339-.436-.581-.581-.243-.145-.507-.217-.791-.217-.29 0-.556.072-.798.217-.238.145-.432.338-.581.581-.145.238-.217.502-.217.791s.072.555.217.798c.149.238.343.429.581.574.242.145.508.217.798.217zm-5.901-4.529c-.462 0-.885-.112-1.267-.336-.383-.229-.689-.532-.917-.91-.224-.383-.336-.807-.336-1.274 0-.457.116-.877.35-1.26.233-.383.541-.688.924-.917.382-.229.798-.343 1.246-.343.462 0 .882.114 1.26.343.382.224.688.527.917.91.228.378.343.8.343 1.267s-.115.891-.343 1.274c-.229.378-.535.681-.917.91-.378.224-.798.336-1.26.336zm0-.931c.289 0 .553-.072.791-.217.242-.145.436-.336.581-.574.144-.243.217-.509.217-.798s-.073-.553-.217-.791c-.145-.243-.339-.436-.581-.581-.238-.145-.502-.217-.791-.217-.29 0-.556.072-.798.217-.238.145-.43.338-.574.581-.145.238-.217.502-.217.791s.072.555.217.798c.144.238.336.429.574.574.242.145.508.217.798.217z" fill="#fbfaff"/><path d="m41.98 249v-10.08h1.036l5.551 8.26v-8.26h1.036v10.08h-1.036l-5.551-8.267v8.267zm10.144 0v-10.08h5.789v1.029h-4.76v3.5h3.92v1.022h-3.92v4.529zm10.2957 0v-9.093h-3.521v-.987h8.071v.987h-3.521v9.093z" fill="#fbfaff"/><path d="m206.298 238.717c.635 0 1.209.154 1.722.462.518.303.929.719 1.232 1.246.303.523.455 1.111.455 1.764v3.5c0 .672-.152 1.274-.455 1.806s-.719.952-1.246 1.26c-.523.303-1.118.455-1.785.455-.574 0-1.106-.126-1.596-.378-.485-.257-.887-.609-1.204-1.057l.784-.651c.215.331.499.597.854.798.359.201.747.301 1.162.301.476 0 .896-.112 1.26-.336.369-.229.658-.527.868-.896.215-.373.322-.777.322-1.211v-2.198l.252.294c-.289.462-.674.835-1.155 1.12-.476.285-.999.427-1.568.427-.621 0-1.183-.149-1.687-.448-.499-.299-.896-.7-1.19-1.204-.289-.504-.434-1.066-.434-1.687s.154-1.185.462-1.694c.308-.513.721-.919 1.239-1.218.518-.303 1.087-.455 1.708-.455zm0 .994c-.439 0-.838.107-1.197.322-.359.21-.646.495-.861.854-.21.359-.315.758-.315 1.197s.105.838.315 1.197.495.646.854.861c.359.21.758.315 1.197.315s.838-.105 1.197-.315c.364-.215.651-.502.861-.861.215-.359.322-.758.322-1.197 0-.434-.107-.831-.322-1.19-.21-.359-.495-.646-.854-.861s-.758-.322-1.197-.322zm5.644 9.282.007-.938 4.557-4.116c.392-.355.651-.691.777-1.008.13-.322.196-.658.196-1.008 0-.415-.098-.791-.294-1.127s-.46-.602-.791-.798c-.332-.201-.703-.301-1.113-.301-.43 0-.812.103-1.148.308s-.602.476-.798.812c-.192.336-.285.702-.28 1.099h-1.05c0-.611.144-1.16.434-1.645.289-.485.681-.866 1.176-1.141.494-.28 1.054-.42 1.68-.42.611 0 1.159.145 1.645.434.49.285.875.672 1.155 1.162.284.485.427 1.027.427 1.624 0 .42-.052.791-.154 1.113-.098.317-.255.614-.469.889-.21.271-.479.551-.805.84l-4.046 3.654-.161-.42h5.635v.987zm9.02.007v-1.197h1.197v1.197zm6.894.21c-.523 0-1.006-.107-1.449-.322-.444-.215-.822-.511-1.134-.889-.313-.378-.537-.812-.672-1.302l.987-.266c.088.364.249.679.483.945.233.261.506.464.819.609.317.145.648.217.994.217.448 0 .849-.107 1.204-.322.359-.219.644-.509.854-.868s.315-.754.315-1.183c0-.443-.11-.842-.329-1.197-.22-.359-.509-.644-.868-.854-.36-.21-.752-.315-1.176-.315-.476 0-.887.105-1.232.315-.346.205-.621.464-.826.777l-.938-.392.308-5.243h5.383v.987h-4.928l.511-.483-.273 4.473-.259-.343c.289-.331.639-.59 1.05-.777.41-.187.842-.28 1.295-.28.62 0 1.18.149 1.68.448.499.294.896.693 1.19 1.197s.441 1.066.441 1.687c0 .616-.157 1.181-.469 1.694-.313.509-.728.917-1.246 1.225s-1.09.462-1.715.462zm6.645-.21-.7-.7 9.401-9.38.7.693zm7.301.21c-.462 0-.885-.112-1.267-.336-.378-.229-.682-.532-.91-.91-.229-.383-.343-.807-.343-1.274 0-.457.116-.877.35-1.26.233-.383.541-.688.924-.917.382-.229.798-.343 1.246-.343.462 0 .884.114 1.267.343.382.224.686.527.91.91.228.378.343.8.343 1.267s-.115.891-.343 1.274c-.224.378-.528.681-.91.91-.383.224-.805.336-1.267.336zm0-.931c.284 0 .548-.072.791-.217.242-.145.436-.336.581-.574.144-.243.217-.509.217-.798s-.073-.553-.217-.791c-.145-.243-.339-.436-.581-.581-.243-.145-.507-.217-.791-.217-.29 0-.556.072-.798.217-.238.145-.432.338-.581.581-.145.238-.217.502-.217.791s.072.555.217.798c.149.238.343.429.581.574.242.145.508.217.798.217zm-5.901-4.529c-.462 0-.885-.112-1.267-.336-.383-.229-.689-.532-.917-.91-.224-.383-.336-.807-.336-1.274 0-.457.116-.877.35-1.26.233-.383.541-.688.924-.917.382-.229.798-.343 1.246-.343.462 0 .882.114 1.26.343.382.224.688.527.917.91.228.378.343.8.343 1.267s-.115.891-.343 1.274c-.229.378-.535.681-.917.91-.378.224-.798.336-1.26.336zm0-.931c.289 0 .553-.072.791-.217.242-.145.436-.336.581-.574.144-.243.217-.509.217-.798s-.073-.553-.217-.791c-.145-.243-.339-.436-.581-.581-.238-.145-.502-.217-.791-.217-.29 0-.556.072-.798.217-.238.145-.43.338-.574.581-.145.238-.217.502-.217.791s.072.555.217.798c.144.238.336.429.574.574.242.145.508.217.798.217z" fill="#fbfaff"/><path d="m41.98 337v-10.08h1.036l5.551 8.26v-8.26h1.036v10.08h-1.036l-5.551-8.267v8.267zm10.144 0v-10.08h5.789v1.029h-4.76v3.5h3.92v1.022h-3.92v4.529zm10.2957 0v-9.093h-3.521v-.987h8.071v.987h-3.521v9.093z" fill="#fbfaff"/><path d="m206.298 326.717c.635 0 1.209.154 1.722.462.518.303.929.719 1.232 1.246.303.523.455 1.111.455 1.764v3.5c0 .672-.152 1.274-.455 1.806s-.719.952-1.246 1.26c-.523.303-1.118.455-1.785.455-.574 0-1.106-.126-1.596-.378-.485-.257-.887-.609-1.204-1.057l.784-.651c.215.331.499.597.854.798.359.201.747.301 1.162.301.476 0 .896-.112 1.26-.336.369-.229.658-.527.868-.896.215-.373.322-.777.322-1.211v-2.198l.252.294c-.289.462-.674.835-1.155 1.12-.476.285-.999.427-1.568.427-.621 0-1.183-.149-1.687-.448-.499-.299-.896-.7-1.19-1.204-.289-.504-.434-1.066-.434-1.687s.154-1.185.462-1.694c.308-.513.721-.919 1.239-1.218.518-.303 1.087-.455 1.708-.455zm0 .994c-.439 0-.838.107-1.197.322-.359.21-.646.495-.861.854-.21.359-.315.758-.315 1.197s.105.838.315 1.197.495.646.854.861c.359.21.758.315 1.197.315s.838-.105 1.197-.315c.364-.215.651-.502.861-.861.215-.359.322-.758.322-1.197 0-.434-.107-.831-.322-1.19-.21-.359-.495-.646-.854-.861s-.758-.322-1.197-.322zm5.644 9.282.007-.938 4.557-4.116c.392-.355.651-.691.777-1.008.13-.322.196-.658.196-1.008 0-.415-.098-.791-.294-1.127s-.46-.602-.791-.798c-.332-.201-.703-.301-1.113-.301-.43 0-.812.103-1.148.308s-.602.476-.798.812c-.192.336-.285.702-.28 1.099h-1.05c0-.611.144-1.16.434-1.645.289-.485.681-.866 1.176-1.141.494-.28 1.054-.42 1.68-.42.611 0 1.159.145 1.645.434.49.285.875.672 1.155 1.162.284.485.427 1.027.427 1.624 0 .42-.052.791-.154 1.113-.098.317-.255.614-.469.889-.21.271-.479.551-.805.84l-4.046 3.654-.161-.42h5.635v.987zm9.02.007v-1.197h1.197v1.197zm6.894.21c-.523 0-1.006-.107-1.449-.322-.444-.215-.822-.511-1.134-.889-.313-.378-.537-.812-.672-1.302l.987-.266c.088.364.249.679.483.945.233.261.506.464.819.609.317.145.648.217.994.217.448 0 .849-.107 1.204-.322.359-.219.644-.509.854-.868s.315-.754.315-1.183c0-.443-.11-.842-.329-1.197-.22-.359-.509-.644-.868-.854-.36-.21-.752-.315-1.176-.315-.476 0-.887.105-1.232.315-.346.205-.621.464-.826.777l-.938-.392.308-5.243h5.383v.987h-4.928l.511-.483-.273 4.473-.259-.343c.289-.331.639-.59 1.05-.777.41-.187.842-.28 1.295-.28.62 0 1.18.149 1.68.448.499.294.896.693 1.19 1.197s.441 1.066.441 1.687c0 .616-.157 1.181-.469 1.694-.313.509-.728.917-1.246 1.225s-1.09.462-1.715.462zm6.645-.21-.7-.7 9.401-9.38.7.693zm7.301.21c-.462 0-.885-.112-1.267-.336-.378-.229-.682-.532-.91-.91-.229-.383-.343-.807-.343-1.274 0-.457.116-.877.35-1.26.233-.383.541-.688.924-.917.382-.229.798-.343 1.246-.343.462 0 .884.114 1.267.343.382.224.686.527.91.91.228.378.343.8.343 1.267s-.115.891-.343 1.274c-.224.378-.528.681-.91.91-.383.224-.805.336-1.267.336zm0-.931c.284 0 .548-.072.791-.217.242-.145.436-.336.581-.574.144-.243.217-.509.217-.798s-.073-.553-.217-.791c-.145-.243-.339-.436-.581-.581-.243-.145-.507-.217-.791-.217-.29 0-.556.072-.798.217-.238.145-.432.338-.581.581-.145.238-.217.502-.217.791s.072.555.217.798c.149.238.343.429.581.574.242.145.508.217.798.217zm-5.901-4.529c-.462 0-.885-.112-1.267-.336-.383-.229-.689-.532-.917-.91-.224-.383-.336-.807-.336-1.274 0-.457.116-.877.35-1.26.233-.383.541-.688.924-.917.382-.229.798-.343 1.246-.343.462 0 .882.114 1.26.343.382.224.688.527.917.91.228.378.343.8.343 1.267s-.115.891-.343 1.274c-.229.378-.535.681-.917.91-.378.224-.798.336-1.26.336zm0-.931c.289 0 .553-.072.791-.217.242-.145.436-.336.581-.574.144-.243.217-.509.217-.798s-.073-.553-.217-.791c-.145-.243-.339-.436-.581-.581-.238-.145-.502-.217-.791-.217-.29 0-.556.072-.798.217-.238.145-.43.338-.574.581-.145.238-.217.502-.217.791s.072.555.217.798c.144.238.336.429.574.574.242.145.508.217.798.217z" fill="#fbfaff"/></svg>