<svg fill="none" height="271" viewBox="0 0 1169 271" width="1169" xmlns="http://www.w3.org/2000/svg" xmlns:xlink="http://www.w3.org/1999/xlink"><filter id="a" color-interpolation-filters="sRGB" filterUnits="userSpaceOnUse" height="120" width="205.088" x=".455811" y="45"><feFlood flood-opacity="0" result="BackgroundImageFix"/><feColorMatrix in="SourceAlpha" result="hardAlpha" type="matrix" values="0 0 0 0 0 0 0 0 0 0 0 0 0 0 0 0 0 0 127 0"/><feOffset dy="10"/><feGaussianBlur stdDeviation="15"/><feComposite in2="hardAlpha" operator="out"/><feColorMatrix type="matrix" values="0 0 0 0 0.00784314 0 0 0 0 0.341177 0 0 0 0 0.854902 0 0 0 0.4 0"/><feBlend in2="BackgroundImageFix" mode="normal" result="effect1_dropShadow_18_866"/><feBlend in="SourceGraphic" in2="effect1_dropShadow_18_866" mode="normal" result="shape"/></filter><linearGradient id="b"><stop offset="0" stop-color="#fff" stop-opacity="0"/><stop offset="1" stop-color="#fff"/></linearGradient><linearGradient id="c" gradientUnits="userSpaceOnUse" x1="584" x2="847" xlink:href="#b" y1="220" y2="220"/><linearGradient id="d" gradientUnits="userSpaceOnUse" x1="832" x2="1095" xlink:href="#b" y1="220" y2="220"/><linearGradient id="e"><stop offset="0" stop-color="#0055d8"/><stop offset="1" stop-color="#2b7eff"/></linearGradient><linearGradient id="f" gradientUnits="userSpaceOnUse" x1="29" x2="182.819" xlink:href="#e" y1="125" y2="97.2313"/><linearGradient id="g" gradientUnits="userSpaceOnUse" x1="233" x2="226.569" xlink:href="#e" y1="77" y2="76.7647"/><linearGradient id="h" gradientUnits="userSpaceOnUse" x1="227" x2="220.569" xlink:href="#e" y1="77" y2="76.7647"/><linearGradient id="i" gradientUnits="userSpaceOnUse" x1="481" x2="474.569" xlink:href="#e" y1="77" y2="76.7647"/><linearGradient id="j" gradientUnits="userSpaceOnUse" x1="475" x2="468.569" xlink:href="#e" y1="77" y2="76.7647"/><linearGradient id="k" gradientUnits="userSpaceOnUse" x1="729" x2="722.569" xlink:href="#e" y1="77" y2="76.7647"/><linearGradient id="l" gradientUnits="userSpaceOnUse" x1="723" x2="716.569" xlink:href="#e" y1="77" y2="76.7647"/><linearGradient id="m" gradientUnits="userSpaceOnUse" x1="977" x2="970.569" xlink:href="#e" y1="77" y2="76.7647"/><linearGradient id="n" gradientUnits="userSpaceOnUse" x1="971" x2="964.569" xlink:href="#e" y1="77" y2="76.7647"/><linearGradient id="o" gradientUnits="userSpaceOnUse" x1="221" x2="227.431" xlink:href="#e" y1="125" y2="124.765"/><linearGradient id="p" gradientUnits="userSpaceOnUse" x1="227" x2="233.431" xlink:href="#e" y1="125" y2="124.765"/><linearGradient id="q" gradientUnits="userSpaceOnUse" x1="349" x2="342.569" xlink:href="#e" y1="226" y2="225.765"/><linearGradient id="r" gradientUnits="userSpaceOnUse" x1="343" x2="336.569" xlink:href="#e" y1="226" y2="225.765"/><linearGradient id="s" gradientUnits="userSpaceOnUse" x1="729" x2="722.569" xlink:href="#e" y1="226" y2="225.765"/><linearGradient id="t" gradientUnits="userSpaceOnUse" x1="723" x2="716.569" xlink:href="#e" y1="226" y2="225.765"/><linearGradient id="u" gradientUnits="userSpaceOnUse" x1="977" x2="970.569" xlink:href="#e" y1="226" y2="225.765"/><linearGradient id="v" gradientUnits="userSpaceOnUse" x1="971" x2="964.569" xlink:href="#e" y1="226" y2="225.765"/><linearGradient id="w" gradientUnits="userSpaceOnUse" x1="469" x2="475.431" xlink:href="#e" y1="125" y2="124.765"/><linearGradient id="x" gradientUnits="userSpaceOnUse" x1="475" x2="481.431" xlink:href="#e" y1="125" y2="124.765"/><linearGradient id="y" gradientUnits="userSpaceOnUse" x1="717" x2="723.431" xlink:href="#e" y1="125" y2="124.765"/><linearGradient id="z" gradientUnits="userSpaceOnUse" x1="723" x2="729.431" xlink:href="#e" y1="125" y2="124.765"/><linearGradient id="A" gradientUnits="userSpaceOnUse" x1="965" x2="971.431" xlink:href="#e" y1="125" y2="124.765"/><linearGradient id="B" gradientUnits="userSpaceOnUse" x1="971" x2="977.431" xlink:href="#e" y1="125" y2="124.765"/><linearGradient id="C" gradientUnits="userSpaceOnUse" x1="149" x2="275.678" xlink:href="#e" y1="49" y2="-23.7788"/><linearGradient id="D" gradientUnits="userSpaceOnUse" x1="396" x2="522.678" xlink:href="#e" y1="49" y2="-23.7788"/><linearGradient id="E" gradientUnits="userSpaceOnUse" x1="644" x2="770.678" xlink:href="#e" y1="49" y2="-23.7788"/><linearGradient id="F" gradientUnits="userSpaceOnUse" x1="892" x2="1018.68" xlink:href="#e" y1="49" y2="-23.7788"/><path d="m599 108-14.038 98.263c-1.126 7.882-7.876 13.737-15.839 13.737h-464.675c-9.7366 0-17.216-8.624-15.839-18.263l13.391-93.737" opacity=".5" stroke="#fbfaff"/><path d="m847 108-14.038 98.263c-1.126 7.882-7.876 13.737-15.839 13.737h-233.123" opacity=".5" stroke="url(#c)"/><path d="m1095 108-14.04 98.263c-1.12 7.882-7.87 13.737-15.84 13.737h-233.12" opacity=".5" stroke="url(#d)"/><path d="m169 95h115" opacity=".5" stroke="#fbfaff"/><path d="m417 95h115" opacity=".5" stroke="#fbfaff"/><path d="m665 95h115" opacity=".5" stroke="#fbfaff"/><path d="m913 95h115" opacity=".5" stroke="#fbfaff"/><g filter="url(#a)"><path d="m37.9686 71.6732c.6479-3.8522 3.983-6.6732 7.8892-6.6732h121.6842c4.948 0 8.71 4.4471 7.889 9.3268l-7.4 44.0002c-.647 3.852-3.983 6.673-7.889 6.673h-121.6842c-4.9483 0-8.7099-4.447-7.8892-9.327z" fill="url(#f)"/></g><path d="m65.0347 101v-10.08h1.484l4.963 7.49v-7.49h1.484v10.08h-1.484l-4.963-7.497v7.497zm9.8848 0v-10.08h5.971v1.463h-4.508v2.842h3.668v1.47h-3.668v4.305zm9.7454 0v-8.701h-3.353v-1.379h8.169v1.379h-3.353v8.701zm11.5491.21c-.7747 0-1.4327-.173-1.974-.518s-.9567-.819-1.246-1.421c-.2847-.602-.4293-1.2857-.434-2.051.0047-.7793.154-1.4677.448-2.065.294-.602.714-1.0733 1.26-1.414s1.2017-.511 1.967-.511c.826 0 1.5307.2053 2.114.616.588.4107.9753.973 1.162 1.687l-1.456.42c-.1447-.4247-.3827-.7537-.714-.987-.3267-.238-.7023-.357-1.127-.357-.4807 0-.875.1143-1.183.343-.308.224-.5367.532-.686.924s-.2263.84-.231 1.344c.0047.7793.182 1.4093.532 1.89.3547.4807.8773.721 1.568.721.4713 0 .8517-.1073 1.141-.322.294-.2193.518-.532.672-.938l1.484.35c-.2473.7373-.6557 1.304-1.225 1.701-.5693.392-1.26.588-2.072.588zm4.723-.21v-7.56h1.302v1.834l-.182-.238c.093-.2427.215-.4643.364-.665.149-.2053.322-.3733.518-.504.191-.14.404-.2473.637-.322.238-.0793.481-.126.728-.14.247-.0187.485-.007.714.035v1.372c-.247-.0653-.523-.084-.826-.056-.299.028-.574.1237-.826.287-.238.154-.427.3407-.567.56-.135.2193-.233.4643-.294.735-.061.266-.091.5483-.091.847v3.815zm8.63.21c-.751 0-1.411-.163-1.981-.49-.564-.331-1.005-.791-1.323-1.379-.312-.5927-.469-1.2787-.469-2.058 0-.826.154-1.5423.462-2.149.313-.6067.747-1.0757 1.302-1.407.556-.3313 1.202-.497 1.939-.497.77 0 1.426.1797 1.967.539.542.3547.945.861 1.211 1.519.271.658.378 1.4397.322 2.345h-1.463v-.532c-.009-.8773-.177-1.526-.504-1.946-.322-.42-.814-.63-1.477-.63-.732 0-1.283.231-1.652.693-.368.462-.553 1.1293-.553 2.002 0 .8307.185 1.4747.553 1.932.369.4527.901.679 1.596.679.458 0 .852-.1027 1.183-.308.336-.21.598-.5087.784-.896l1.435.455c-.294.6767-.739 1.202-1.337 1.575-.597.369-1.262.553-1.995.553zm-2.695-3.577v-1.141h5.397v1.141zm9.694 3.577c-.56 0-1.029-.103-1.407-.308-.378-.21-.665-.485-.861-.826-.191-.3453-.287-.7233-.287-1.134 0-.3827.068-.7187.203-1.008.136-.2893.336-.5343.602-.735.266-.2053.593-.371.98-.497.336-.098.717-.1843 1.141-.259.425-.0747.871-.1447 1.337-.21.472-.0653.938-.1307 1.4-.196l-.532.294c.01-.5927-.116-1.0313-.378-1.316-.256-.2893-.7-.434-1.33-.434-.396 0-.76.0933-1.092.28-.331.182-.562.4853-.693.91l-1.365-.42c.187-.6487.542-1.1643 1.064-1.547.528-.3827 1.228-.574 2.1-.574.677 0 1.265.1167 1.764.35.504.2287.873.5927 1.106 1.092.122.2473.196.5087.224.784s.042.5717.042.889v4.655h-1.295v-1.729l.252.224c-.312.579-.711 1.01-1.197 1.295-.48.28-1.073.42-1.778.42zm.259-1.197c.416 0 .773-.0723 1.071-.217.299-.1493.539-.3383.721-.567s.301-.4667.357-.714c.08-.224.124-.476.133-.756.014-.28.021-.504.021-.672l.476.175c-.462.07-.882.133-1.26.189s-.721.112-1.029.168c-.303.0513-.574.1143-.812.189-.2.07-.38.154-.539.252-.154.098-.277.217-.371.357-.088.14-.133.3103-.133.511 0 .196.049.378.147.546.098.1633.248.294.448.392.201.098.458.147.77.147zm9.903.987c-.476.093-.943.133-1.4.119s-.866-.103-1.225-.266-.63-.42-.812-.77c-.163-.3127-.252-.63-.266-.952-.009-.3267-.014-.6953-.014-1.106v-6.685h1.47v6.615c0 .3033.002.567.007.791.009.224.058.413.147.567.168.2893.434.455.798.497.369.0373.8.021 1.295-.049zm-5.166-6.384v-1.176h5.166v1.176zm9.701 6.594c-.756 0-1.412-.17-1.967-.511s-.985-.8097-1.288-1.407c-.299-.602-.448-1.295-.448-2.079 0-.7887.154-1.4817.462-2.079.308-.602.74-1.0687 1.295-1.4.555-.336 1.204-.504 1.946-.504.756 0 1.412.1703 1.967.511s.985.8097 1.288 1.407.455 1.2857.455 2.065c0 .7887-.154 1.484-.462 2.086-.303.5973-.733 1.066-1.288 1.407-.555.336-1.209.504-1.96.504zm0-1.379c.723 0 1.262-.2427 1.617-.728.359-.49.539-1.12.539-1.89 0-.7887-.182-1.4187-.546-1.89-.359-.476-.896-.714-1.61-.714-.49 0-.894.112-1.211.336-.317.2193-.553.525-.707.917-.154.3873-.231.8377-.231 1.351 0 .7933.182 1.428.546 1.904s.898.714 1.603.714zm5.248 1.169v-7.56h1.302v1.834l-.182-.238c.094-.2427.215-.4643.364-.665.15-.2053.322-.3733.518-.504.192-.14.404-.2473.637-.322.238-.0793.481-.126.728-.14.248-.0187.486-.007.714.035v1.372c-.247-.0653-.522-.084-.826-.056-.298.028-.574.1237-.826.287-.238.154-.427.3407-.567.56-.135.2193-.233.4643-.294.735-.06.266-.091.5483-.091.847v3.815z" fill="#fbfaff"/><path d="m285.845 71.6906c.64-3.8602 3.979-6.6906 7.892-6.6906h121.826c4.941 0 8.701 4.4349 7.892 9.3094l-7.3 43.9996c-.64 3.861-3.979 6.691-7.892 6.691h-121.826c-4.941 0-8.701-4.435-7.892-9.309z" fill="#1f1f1f"/><path d="m328.293 101v-10.08h3.927c.602 0 1.115.1237 1.54.371.429.2473.756.574.98.98.228.4013.343.8353.343 1.302 0 .546-.14 1.0243-.42 1.435s-.658.693-1.134.847l-.014-.343c.648.1727 1.152.49 1.511.952.36.462.54 1.0127.54 1.652 0 .588-.122 1.0967-.364 1.526-.238.429-.584.763-1.036 1.001-.448.238-.98.357-1.596.357zm1.26-1.19h2.779c.373 0 .707-.0677 1.001-.203.294-.14.525-.336.693-.588.172-.252.259-.5553.259-.91 0-.3407-.077-.6463-.231-.917-.15-.2707-.362-.4853-.637-.644-.271-.1633-.586-.245-.945-.245h-2.919zm0-4.683h2.653c.298 0 .567-.063.805-.189.242-.1307.434-.3127.574-.546.144-.2333.217-.5063.217-.819 0-.434-.147-.7887-.441-1.064s-.679-.413-1.155-.413h-2.653zm10.277 6.069c-.485 0-.903-.077-1.253-.231-.345-.154-.632-.359-.861-.616-.228-.257-.408-.5413-.539-.854-.13-.3127-.224-.6323-.28-.959-.051-.3267-.077-.6323-.077-.917v-4.179h1.26v3.787c0 .3547.033.6977.098 1.029.066.3313.175.63.329.896.159.266.369.476.63.63.266.154.598.231.994.231.313 0 .598-.0537.854-.161.257-.1073.476-.266.658-.476.182-.2147.322-.4853.42-.812s.147-.707.147-1.141l.819.252c0 .728-.133 1.3557-.399 1.883-.261.527-.632.933-1.113 1.218-.476.28-1.038.42-1.687.42zm2.52-.196v-2.023h-.14v-5.537h1.253v7.56zm4.123 3.36 1.463-3.976.021 1.176-3.304-8.12h1.309l2.59 6.531h-.448l2.429-6.531h1.267l-4.116 10.92zm9.486-3.15c-.742 0-1.391-.163-1.946-.49-.551-.331-.98-.791-1.288-1.379-.308-.5927-.462-1.2833-.462-2.072 0-.826.152-1.54.455-2.142.303-.6067.726-1.0733 1.267-1.4.546-.3313 1.185-.497 1.918-.497.761 0 1.407.175 1.939.525.537.35.938.8493 1.204 1.498.271.6487.387 1.421.35 2.317h-1.26v-.448c-.014-.9287-.203-1.6217-.567-2.079-.364-.462-.905-.693-1.624-.693-.77 0-1.356.2473-1.757.742s-.602 1.204-.602 2.128c0 .8913.201 1.582.602 2.072s.973.735 1.715.735c.499 0 .933-.1143 1.302-.343s.658-.5577.868-.987l1.197.413c-.294.6673-.737 1.185-1.33 1.554-.588.364-1.248.546-1.981.546zm-2.793-3.64v-1.001h5.586v1.001zm7.789 3.43v-7.56h1.113v1.827l-.182-.238c.088-.2333.203-.448.343-.644.144-.196.305-.357.483-.483.196-.1587.417-.28.665-.364.247-.084.499-.133.756-.147.256-.0187.497-.0023.721.049v1.169c-.262-.07-.549-.0887-.861-.056-.313.0327-.602.147-.868.343-.243.1727-.432.3827-.567.63-.131.2473-.222.5157-.273.805-.052.2847-.077.5763-.077.875v3.794zm9.782 0v-8.701l-1.897 1.148v-1.393l1.897-1.134h1.267v10.08z" fill="#fbfaff"/><path d="m533.845 71.6906c.64-3.8602 3.979-6.6906 7.892-6.6906h121.826c4.941 0 8.701 4.4349 7.892 9.3094l-7.3 43.9996c-.64 3.861-3.979 6.691-7.892 6.691h-121.826c-4.941 0-8.701-4.435-7.892-9.309z" fill="#1f1f1f"/><path d="m575.089 101v-10.08h3.927c.602 0 1.116.1237 1.54.371.43.2473.756.574.98.98.229.4013.343.8353.343 1.302 0 .546-.14 1.0243-.42 1.435s-.658.693-1.134.847l-.014-.343c.649.1727 1.153.49 1.512.952.36.462.539 1.0127.539 1.652 0 .588-.121 1.0967-.364 1.526-.238.429-.583.763-1.036 1.001-.448.238-.98.357-1.596.357zm1.26-1.19h2.779c.374 0 .707-.0677 1.001-.203.294-.14.525-.336.693-.588.173-.252.259-.5553.259-.91 0-.3407-.077-.6463-.231-.917-.149-.2707-.361-.4853-.637-.644-.27-.1633-.585-.245-.945-.245h-2.919zm0-4.683h2.653c.299 0 .567-.063.805-.189.243-.1307.434-.3127.574-.546.145-.2333.217-.5063.217-.819 0-.434-.147-.7887-.441-1.064s-.679-.413-1.155-.413h-2.653zm10.278 6.069c-.485 0-.903-.077-1.253-.231-.345-.154-.632-.359-.861-.616-.228-.257-.408-.5413-.539-.854-.13-.3127-.224-.6323-.28-.959-.051-.3267-.077-.6323-.077-.917v-4.179h1.26v3.787c0 .3547.033.6977.098 1.029.066.3313.175.63.329.896.159.266.369.476.63.63.266.154.598.231.994.231.313 0 .598-.0537.854-.161.257-.1073.476-.266.658-.476.182-.2147.322-.4853.42-.812s.147-.707.147-1.141l.819.252c0 .728-.133 1.3557-.399 1.883-.261.527-.632.933-1.113 1.218-.476.28-1.038.42-1.687.42zm2.52-.196v-2.023h-.14v-5.537h1.253v7.56zm4.123 3.36 1.463-3.976.021 1.176-3.304-8.12h1.309l2.59 6.531h-.448l2.429-6.531h1.267l-4.116 10.92zm9.486-3.15c-.742 0-1.391-.163-1.946-.49-.551-.331-.98-.791-1.288-1.379-.308-.5927-.462-1.2833-.462-2.072 0-.826.152-1.54.455-2.142.303-.6067.726-1.0733 1.267-1.4.546-.3313 1.185-.497 1.918-.497.761 0 1.407.175 1.939.525.537.35.938.8493 1.204 1.498.271.6487.387 1.421.35 2.317h-1.26v-.448c-.014-.9287-.203-1.6217-.567-2.079-.364-.462-.905-.693-1.624-.693-.77 0-1.356.2473-1.757.742s-.602 1.204-.602 2.128c0 .8913.201 1.582.602 2.072s.973.735 1.715.735c.499 0 .933-.1143 1.302-.343s.658-.5577.868-.987l1.197.413c-.294.6673-.737 1.185-1.33 1.554-.588.364-1.248.546-1.981.546zm-2.793-3.64v-1.001h5.586v1.001zm7.788 3.43v-7.56h1.113v1.827l-.182-.238c.089-.2333.203-.448.343-.644.145-.196.306-.357.483-.483.196-.1587.418-.28.665-.364.248-.084.5-.133.756-.147.257-.0187.497-.0023.721.049v1.169c-.261-.07-.548-.0887-.861-.056-.312.0327-.602.147-.868.343-.242.1727-.431.3827-.567.63-.13.2473-.221.5157-.273.805-.051.2847-.077.5763-.077.875v3.794zm7.746-.007.007-1.12 4.473-4.025c.373-.336.623-.6533.749-.952.131-.3033.196-.6137.196-.931 0-.3873-.089-.7373-.266-1.05s-.42-.56-.728-.742c-.303-.182-.649-.273-1.036-.273-.401 0-.758.0957-1.071.287-.313.1867-.56.4363-.742.749-.177.3127-.264.6533-.259 1.022h-1.274c0-.6347.147-1.1947.441-1.68.294-.49.693-.8727 1.197-1.148.509-.28 1.085-.42 1.729-.42.625 0 1.185.1447 1.68.434.495.2847.884.6743 1.169 1.169.289.49.434 1.0453.434 1.666 0 .4387-.056.819-.168 1.141-.107.322-.275.6207-.504.896-.229.2707-.516.56-.861.868l-3.717 3.339-.161-.42h5.411v1.19z" fill="#fbfaff"/><path d="m781.845 71.6906c.64-3.8602 3.979-6.6906 7.892-6.6906h121.826c4.941 0 8.701 4.4349 7.892 9.3094l-7.3 43.9996c-.64 3.861-3.979 6.691-7.892 6.691h-121.826c-4.941 0-8.701-4.435-7.892-9.309z" fill="#1f1f1f"/><path d="m823.199 101v-10.08h3.927c.602 0 1.115.1237 1.54.371.429.2473.756.574.98.98.228.4013.343.8353.343 1.302 0 .546-.14 1.0243-.42 1.435s-.658.693-1.134.847l-.014-.343c.648.1727 1.152.49 1.512.952.359.462.539 1.0127.539 1.652 0 .588-.122 1.0967-.364 1.526-.238.429-.584.763-1.036 1.001-.448.238-.98.357-1.596.357zm1.26-1.19h2.779c.373 0 .707-.0677 1.001-.203.294-.14.525-.336.693-.588.172-.252.259-.5553.259-.91 0-.3407-.077-.6463-.231-.917-.15-.2707-.362-.4853-.637-.644-.271-.1633-.586-.245-.945-.245h-2.919zm0-4.683h2.653c.298 0 .567-.063.805-.189.242-.1307.434-.3127.574-.546.144-.2333.217-.5063.217-.819 0-.434-.147-.7887-.441-1.064s-.679-.413-1.155-.413h-2.653zm10.278 6.069c-.486 0-.903-.077-1.253-.231-.346-.154-.633-.359-.861-.616-.229-.257-.409-.5413-.539-.854-.131-.3127-.224-.6323-.28-.959-.052-.3267-.077-.6323-.077-.917v-4.179h1.26v3.787c0 .3547.032.6977.098 1.029.065.3313.175.63.329.896.158.266.368.476.63.63.266.154.597.231.994.231.312 0 .597-.0537.854-.161.256-.1073.476-.266.658-.476.182-.2147.322-.4853.42-.812s.147-.707.147-1.141l.819.252c0 .728-.133 1.3557-.399 1.883-.262.527-.633.933-1.113 1.218-.476.28-1.039.42-1.687.42zm2.52-.196v-2.023h-.14v-5.537h1.253v7.56zm4.123 3.36 1.463-3.976.021 1.176-3.304-8.12h1.309l2.59 6.531h-.448l2.429-6.531h1.267l-4.116 10.92zm9.485-3.15c-.742 0-1.39-.163-1.946-.49-.55-.331-.98-.791-1.288-1.379-.308-.5927-.462-1.2833-.462-2.072 0-.826.152-1.54.455-2.142.304-.6067.726-1.0733 1.267-1.4.546-.3313 1.186-.497 1.918-.497.761 0 1.407.175 1.939.525.537.35.938.8493 1.204 1.498.271.6487.388 1.421.35 2.317h-1.26v-.448c-.014-.9287-.203-1.6217-.567-2.079-.364-.462-.905-.693-1.624-.693-.77 0-1.355.2473-1.757.742-.401.4947-.602 1.204-.602 2.128 0 .8913.201 1.582.602 2.072.402.49.973.735 1.715.735.5 0 .934-.1143 1.302-.343.369-.2287.658-.5577.868-.987l1.197.413c-.294.6673-.737 1.185-1.33 1.554-.588.364-1.248.546-1.981.546zm-2.793-3.64v-1.001h5.586v1.001zm7.789 3.43v-7.56h1.113v1.827l-.182-.238c.089-.2333.203-.448.343-.644.145-.196.306-.357.483-.483.196-.1587.418-.28.665-.364s.499-.133.756-.147c.257-.0187.497-.0023.721.049v1.169c-.261-.07-.548-.0887-.861-.056s-.602.147-.868.343c-.243.1727-.432.3827-.567.63-.131.2473-.222.5157-.273.805-.051.2847-.077.5763-.077.875v3.794zm10.79.196c-.499 0-.963-.091-1.393-.273-.429-.187-.8-.448-1.113-.784-.308-.3407-.534-.7443-.679-1.211l1.197-.343c.154.4667.411.8213.77 1.064.36.2427.763.362 1.211.357.411-.0093.766-.1027 1.064-.28.304-.182.537-.4293.7-.742.168-.3127.252-.6743.252-1.085 0-.6253-.186-1.1317-.56-1.519-.373-.392-.863-.588-1.47-.588-.168 0-.345.0233-.532.07-.182.0467-.352.112-.511.196l-.602-.987 3.738-3.381.161.42h-5.019v-1.19h5.943v1.197l-3.185 3.052-.014-.441c.668-.0467 1.251.063 1.75.329.5.266.887.6463 1.162 1.141.28.4947.42 1.0617.42 1.701 0 .644-.144 1.2133-.434 1.708-.289.495-.681.884-1.176 1.169-.494.28-1.054.42-1.68.42z" fill="#fbfaff"/><path d="m1029.84 71.6906c.64-3.8602 3.98-6.6906 7.9-6.6906h121.82c4.94 0 8.7 4.4349 7.9 9.3094l-7.3 43.9996c-.64 3.861-3.98 6.691-7.9 6.691h-121.82c-4.94 0-8.7-4.435-7.9-9.309z" fill="#1f1f1f"/><path d="m1090.04 101v-1.372h1.38v1.372zm3.78 0v-1.372h1.37v1.372zm3.77 0v-1.372h1.37v1.372z" fill="#fbfaff"/><g stroke-width="2"><path d="m233 65-6 6 6 6" stroke="url(#g)"/><path d="m227 65-6 6 6 6" stroke="url(#h)"/><path d="m481 65-6 6 6 6" stroke="url(#i)"/><path d="m475 65-6 6 6 6" stroke="url(#j)"/><path d="m729 65-6 6 6 6" stroke="url(#k)"/><path d="m723 65-6 6 6 6" stroke="url(#l)"/><path d="m977 65-6 6 6 6" stroke="url(#m)"/><path d="m971 65-6 6 6 6" stroke="url(#n)"/><path d="m221 113 6 6-6 6" stroke="url(#o)"/><path d="m227 113 6 6-6 6" stroke="url(#p)"/><path d="m349 214-6 6 6 6" stroke="url(#q)"/><path d="m343 214-6 6 6 6" stroke="url(#r)"/><path d="m729 214-6 6 6 6" stroke="url(#s)"/><path d="m723 214-6 6 6 6" stroke="url(#t)"/><path d="m977 214-6 6 6 6" stroke="url(#u)"/><path d="m971 214-6 6 6 6" stroke="url(#v)"/><path d="m469 113 6 6-6 6" stroke="url(#w)"/><path d="m475 113 6 6-6 6" stroke="url(#x)"/><path d="m717 113 6 6-6 6" stroke="url(#y)"/><path d="m723 113 6 6-6 6" stroke="url(#z)"/><path d="m965 113 6 6-6 6" stroke="url(#A)"/><path d="m971 113 6 6-6 6" stroke="url(#B)"/></g><path d="m208.886 164v-15.12h1.554l8.326 12.39v-12.39h1.554v15.12h-1.554l-8.326-12.401v12.401zm15.216 0v-15.12h8.683v1.543h-7.14v5.25h5.88v1.533h-5.88v6.794zm15.443 0v-13.64h-5.281v-1.48h12.106v1.48h-5.281v13.64z" fill="#fbfaff"/><path d="m332.988 265.315c-.784 0-1.508-.161-2.173-.483s-1.232-.767-1.701-1.334-.805-1.218-1.008-1.953l1.48-.399c.133.546.375 1.019.725 1.418.35.392.759.696 1.228.913.476.217.973.326 1.491.326.672 0 1.274-.161 1.806-.483.539-.329.966-.763 1.281-1.302s.473-1.131.473-1.775c0-.665-.165-1.263-.494-1.795-.329-.539-.763-.966-1.302-1.281s-1.127-.473-1.764-.473c-.714 0-1.33.158-1.848.473-.518.308-.931.696-1.239 1.165l-1.407-.588.462-7.864h8.075v1.48h-7.392l.766-.724-.409 6.709-.389-.514c.434-.497.959-.886 1.575-1.166s1.264-.42 1.943-.42c.931 0 1.771.224 2.52.672.749.441 1.344 1.04 1.785 1.796s.661 1.599.661 2.53c0 .924-.234 1.771-.703 2.541-.469.763-1.092 1.376-1.869 1.838s-1.635.693-2.573.693zm9.968-.315-1.05-1.05 14.101-14.07 1.05 1.039zm10.951.315c-.693 0-1.326-.168-1.9-.504-.567-.343-1.022-.798-1.365-1.365-.343-.574-.515-1.211-.515-1.911 0-.686.175-1.316.525-1.89s.812-1.033 1.386-1.376 1.197-.514 1.869-.514c.693 0 1.327.171 1.901.514.574.336 1.029.791 1.365 1.365.343.567.514 1.201.514 1.901s-.171 1.337-.514 1.911c-.336.567-.791 1.022-1.365 1.365-.574.336-1.208.504-1.901.504zm0-1.397c.427 0 .823-.108 1.187-.325s.654-.504.871-.861c.217-.364.326-.763.326-1.197s-.109-.83-.326-1.187c-.217-.364-.507-.654-.871-.871s-.76-.326-1.187-.326c-.434 0-.833.109-1.197.326-.357.217-.647.507-.871.871-.217.357-.326.753-.326 1.187s.109.833.326 1.197c.224.357.514.644.871.861.364.217.763.325 1.197.325zm-8.851-6.793c-.693 0-1.327-.168-1.901-.504-.574-.343-1.032-.798-1.375-1.365-.336-.574-.504-1.211-.504-1.911 0-.686.175-1.316.525-1.89s.812-1.033 1.386-1.376 1.197-.514 1.869-.514c.693 0 1.323.171 1.89.514.574.336 1.032.791 1.375 1.365.343.567.515 1.201.515 1.901s-.172 1.337-.515 1.911c-.343.567-.801 1.022-1.375 1.365-.567.336-1.197.504-1.89.504zm0-1.397c.434 0 .829-.108 1.186-.325.364-.217.655-.504.872-.861.217-.364.325-.763.325-1.197s-.108-.83-.325-1.187c-.217-.364-.508-.654-.872-.871-.357-.217-.752-.326-1.186-.326s-.833.109-1.197.326c-.357.217-.644.507-.861.871-.217.357-.326.753-.326 1.187s.109.833.326 1.197c.217.357.504.644.861.861.364.217.763.325 1.197.325z" fill="#fbfaff"/><path d="m712.988 265.315c-.784 0-1.508-.161-2.173-.483s-1.232-.767-1.701-1.334-.805-1.218-1.008-1.953l1.48-.399c.133.546.375 1.019.725 1.418.35.392.759.696 1.228.913.476.217.973.326 1.491.326.672 0 1.274-.161 1.806-.483.539-.329.966-.763 1.281-1.302s.473-1.131.473-1.775c0-.665-.165-1.263-.494-1.795-.329-.539-.763-.966-1.302-1.281s-1.127-.473-1.764-.473c-.714 0-1.33.158-1.848.473-.518.308-.931.696-1.239 1.165l-1.407-.588.462-7.864h8.075v1.48h-7.392l.766-.724-.409 6.709-.389-.514c.434-.497.959-.886 1.575-1.166s1.264-.42 1.943-.42c.931 0 1.771.224 2.52.672.749.441 1.344 1.04 1.785 1.796s.661 1.599.661 2.53c0 .924-.234 1.771-.703 2.541-.469.763-1.092 1.376-1.869 1.838s-1.635.693-2.573.693zm9.968-.315-1.05-1.05 14.101-14.07 1.05 1.039zm10.951.315c-.693 0-1.326-.168-1.9-.504-.567-.343-1.022-.798-1.365-1.365-.343-.574-.515-1.211-.515-1.911 0-.686.175-1.316.525-1.89s.812-1.033 1.386-1.376 1.197-.514 1.869-.514c.693 0 1.327.171 1.901.514.574.336 1.029.791 1.365 1.365.343.567.514 1.201.514 1.901s-.171 1.337-.514 1.911c-.336.567-.791 1.022-1.365 1.365-.574.336-1.208.504-1.901.504zm0-1.397c.427 0 .823-.108 1.187-.325s.654-.504.871-.861c.217-.364.326-.763.326-1.197s-.109-.83-.326-1.187c-.217-.364-.507-.654-.871-.871s-.76-.326-1.187-.326c-.434 0-.833.109-1.197.326-.357.217-.647.507-.871.871-.217.357-.326.753-.326 1.187s.109.833.326 1.197c.224.357.514.644.871.861.364.217.763.325 1.197.325zm-8.851-6.793c-.693 0-1.327-.168-1.901-.504-.574-.343-1.032-.798-1.375-1.365-.336-.574-.504-1.211-.504-1.911 0-.686.175-1.316.525-1.89s.812-1.033 1.386-1.376 1.197-.514 1.869-.514c.693 0 1.323.171 1.89.514.574.336 1.032.791 1.375 1.365.343.567.515 1.201.515 1.901s-.172 1.337-.515 1.911c-.343.567-.801 1.022-1.375 1.365-.567.336-1.197.504-1.89.504zm0-1.397c.434 0 .829-.108 1.186-.325.364-.217.655-.504.872-.861.217-.364.325-.763.325-1.197s-.108-.83-.325-1.187c-.217-.364-.508-.654-.872-.871-.357-.217-.752-.326-1.186-.326s-.833.109-1.197.326c-.357.217-.644.507-.861.871-.217.357-.326.753-.326 1.187s.109.833.326 1.197c.217.357.504.644.861.861.364.217.763.325 1.197.325z" fill="#fbfaff"/><path d="m960.988 265.315c-.784 0-1.508-.161-2.173-.483s-1.232-.767-1.701-1.334-.805-1.218-1.008-1.953l1.48-.399c.133.546.375 1.019.725 1.418.35.392.759.696 1.228.913.476.217.973.326 1.491.326.672 0 1.274-.161 1.806-.483.539-.329.966-.763 1.281-1.302s.473-1.131.473-1.775c0-.665-.165-1.263-.494-1.795-.329-.539-.763-.966-1.302-1.281s-1.127-.473-1.764-.473c-.714 0-1.33.158-1.848.473-.518.308-.931.696-1.239 1.165l-1.407-.588.462-7.864h8.075v1.48h-7.392l.766-.724-.409 6.709-.389-.514c.434-.497.959-.886 1.575-1.166s1.264-.42 1.943-.42c.931 0 1.771.224 2.52.672.749.441 1.344 1.04 1.785 1.796s.661 1.599.661 2.53c0 .924-.234 1.771-.703 2.541-.469.763-1.092 1.376-1.869 1.838s-1.635.693-2.573.693zm9.968-.315-1.05-1.05 14.101-14.07 1.05 1.039zm10.951.315c-.693 0-1.326-.168-1.9-.504-.567-.343-1.022-.798-1.365-1.365-.343-.574-.515-1.211-.515-1.911 0-.686.175-1.316.525-1.89s.812-1.033 1.386-1.376 1.197-.514 1.869-.514c.693 0 1.327.171 1.901.514.574.336 1.029.791 1.365 1.365.343.567.514 1.201.514 1.901s-.171 1.337-.514 1.911c-.336.567-.791 1.022-1.365 1.365-.574.336-1.208.504-1.901.504zm0-1.397c.427 0 .823-.108 1.187-.325s.654-.504.871-.861c.217-.364.326-.763.326-1.197s-.109-.83-.326-1.187c-.217-.364-.507-.654-.871-.871s-.76-.326-1.187-.326c-.434 0-.833.109-1.197.326-.357.217-.647.507-.871.871-.217.357-.326.753-.326 1.187s.109.833.326 1.197c.224.357.514.644.871.861.364.217.763.325 1.197.325zm-8.851-6.793c-.693 0-1.327-.168-1.901-.504-.574-.343-1.032-.798-1.375-1.365-.336-.574-.504-1.211-.504-1.911 0-.686.175-1.316.525-1.89s.812-1.033 1.386-1.376 1.197-.514 1.869-.514c.693 0 1.323.171 1.89.514.574.336 1.032.791 1.375 1.365.343.567.515 1.201.515 1.901s-.172 1.337-.515 1.911c-.343.567-.801 1.022-1.375 1.365-.567.336-1.197.504-1.89.504zm0-1.397c.434 0 .829-.108 1.186-.325.364-.217.655-.504.872-.861.217-.364.325-.763.325-1.197s-.108-.83-.325-1.187c-.217-.364-.508-.654-.872-.871-.357-.217-.752-.326-1.186-.326s-.833.109-1.197.326c-.357.217-.644.507-.861.871-.217.357-.326.753-.326 1.187s.109.833.326 1.197c.217.357.504.644.861.861.364.217.763.325 1.197.325z" fill="#fbfaff"/><path d="m202.625 7.5755c.952 0 1.813.231 2.583.693.777.455 1.393 1.078 1.848 1.869.455.784.683 1.666.683 2.646v5.25c0 1.008-.228 1.911-.683 2.709s-1.078 1.428-1.869 1.89c-.784.455-1.676.6825-2.677.6825-.861 0-1.659-.189-2.394-.567-.728-.385-1.33-.9135-1.806-1.5855l1.176-.9765c.322.497.749.896 1.281 1.197.539.301 1.12.4515 1.743.4515.714 0 1.344-.168 1.89-.504.553-.343.987-.791 1.302-1.344.322-.56.483-1.1655.483-1.8165v-3.297l.378.441c-.434.693-1.012 1.253-1.733 1.68-.714.427-1.498.6405-2.352.6405-.931 0-1.774-.224-2.53-.672-.749-.448-1.344-1.05-1.785-1.806-.434-.756-.651-1.5995-.651-2.5305s.231-1.778.693-2.541c.462-.77 1.081-1.379 1.858-1.827.777-.455 1.631-.6825 2.562-.6825zm0 1.491c-.658 0-1.256.161-1.795.483-.539.315-.97.742-1.292 1.281-.315.539-.472 1.1375-.472 1.7955s.157 1.2565.472 1.7955.742.9695 1.281 1.2915c.539.315 1.138.4725 1.796.4725s1.256-.1575 1.795-.4725c.546-.322.977-.7525 1.292-1.2915.322-.539.483-1.1375.483-1.7955 0-.651-.161-1.246-.483-1.785-.315-.539-.742-.9695-1.281-1.2915s-1.138-.483-1.796-.483zm9.428 13.9335 5.565-13.6185h-7.004v-1.5015h8.652v1.5015l-5.554 13.6185zm9.472 0v-1.7955h1.795v1.7955zm10.34.315c-.784 0-1.508-.161-2.173-.483s-1.232-.7665-1.701-1.3335-.805-1.218-1.008-1.953l1.48-.399c.133.546.375 1.0185.725 1.4175.35.392.759.6965 1.228.9135.476.217.973.3255 1.491.3255.672 0 1.274-.161 1.806-.483.539-.329.966-.763 1.281-1.302s.473-1.1305.473-1.7745c0-.665-.165-1.2635-.494-1.7955-.329-.539-.763-.966-1.302-1.281s-1.127-.4725-1.764-.4725c-.714 0-1.33.1575-1.848.4725-.518.308-.931.6965-1.239 1.1655l-1.407-.588.462-7.8645h8.075v1.4805h-7.392l.766-.7245-.409 6.7095-.389-.5145c.434-.497.959-.8855 1.575-1.1655s1.264-.42 1.943-.42c.931 0 1.771.224 2.52.672.749.441 1.344 1.0395 1.785 1.7955s.661 1.5995.661 2.5305c0 .924-.234 1.771-.703 2.541-.469.763-1.092 1.3755-1.869 1.8375s-1.635.693-2.573.693zm9.968-.315-1.05-1.05 14.101-14.07 1.05 1.0395zm10.951.315c-.693 0-1.326-.168-1.9-.504-.567-.343-1.022-.798-1.365-1.365-.343-.574-.515-1.211-.515-1.911 0-.686.175-1.316.525-1.89s.812-1.0325 1.386-1.3755 1.197-.5145 1.869-.5145c.693 0 1.327.1715 1.901.5145.574.336 1.029.791 1.365 1.365.343.567.514 1.2005.514 1.9005s-.171 1.337-.514 1.911c-.336.567-.791 1.022-1.365 1.365-.574.336-1.208.504-1.901.504zm0-1.3965c.427 0 .823-.1085 1.187-.3255s.654-.504.871-.861c.217-.364.326-.763.326-1.197s-.109-.8295-.326-1.1865c-.217-.364-.507-.6545-.871-.8715s-.76-.3255-1.187-.3255c-.434 0-.833.1085-1.197.3255-.357.217-.647.5075-.871.8715-.217.357-.326.7525-.326 1.1865s.109.833.326 1.197c.224.357.514.644.871.861.364.217.763.3255 1.197.3255zm-8.851-6.7935c-.693 0-1.327-.168-1.901-.504-.574-.343-1.032-.798-1.375-1.365-.336-.574-.504-1.211-.504-1.911 0-.686.175-1.316.525-1.89s.812-1.0325 1.386-1.3755 1.197-.5145 1.869-.5145c.693 0 1.323.1715 1.89.5145.574.336 1.032.791 1.375 1.365.343.567.515 1.2005.515 1.9005s-.172 1.337-.515 1.911c-.343.567-.801 1.022-1.375 1.365-.567.336-1.197.504-1.89.504zm0-1.3965c.434 0 .829-.1085 1.186-.3255.364-.217.655-.504.872-.861.217-.364.325-.763.325-1.197s-.108-.8295-.325-1.1865c-.217-.364-.508-.6545-.872-.8715-.357-.217-.752-.3255-1.186-.3255s-.833.1085-1.197.3255c-.357.217-.644.5075-.861.8715-.217.357-.326.7525-.326 1.1865s.109.833.326 1.197c.217.357.504.644.861.861.364.217.763.3255 1.197.3255z" fill="#fbfaff"/><path d="m448.577 7.5755c.952 0 1.813.231 2.583.693.777.455 1.393 1.078 1.848 1.869.455.784.683 1.666.683 2.646v5.25c0 1.008-.228 1.911-.683 2.709s-1.078 1.428-1.869 1.89c-.784.455-1.676.6825-2.677.6825-.861 0-1.659-.189-2.394-.567-.728-.385-1.33-.9135-1.806-1.5855l1.176-.9765c.322.497.749.896 1.281 1.197.539.301 1.12.4515 1.743.4515.714 0 1.344-.168 1.89-.504.553-.343.987-.791 1.302-1.344.322-.56.483-1.1655.483-1.8165v-3.297l.378.441c-.434.693-1.012 1.253-1.733 1.68-.714.427-1.498.6405-2.352.6405-.931 0-1.774-.224-2.53-.672-.749-.448-1.344-1.05-1.785-1.806-.434-.756-.651-1.5995-.651-2.5305s.231-1.778.693-2.541c.462-.77 1.081-1.379 1.858-1.827.777-.455 1.631-.6825 2.562-.6825zm0 1.491c-.658 0-1.256.161-1.795.483-.539.315-.97.742-1.292 1.281-.315.539-.472 1.1375-.472 1.7955s.157 1.2565.472 1.7955.742.9695 1.281 1.2915c.539.315 1.138.4725 1.796.4725s1.256-.1575 1.795-.4725c.546-.322.977-.7525 1.292-1.2915.322-.539.483-1.1375.483-1.7955 0-.651-.161-1.246-.483-1.785-.315-.539-.742-.9695-1.281-1.2915s-1.138-.483-1.796-.483zm8.466 13.923.01-1.407 6.836-6.174c.588-.532.976-1.036 1.165-1.512.196-.483.294-.987.294-1.512 0-.623-.147-1.1865-.441-1.6905s-.689-.903-1.186-1.197c-.497-.301-1.054-.4515-1.67-.4515-.644 0-1.218.154-1.722.462s-.903.714-1.197 1.218c-.287.504-.427 1.0535-.42 1.6485h-1.575c0-.917.217-1.7395.651-2.4675s1.022-1.2985 1.764-1.7115c.742-.42 1.582-.63 2.52-.63.917 0 1.74.217 2.468.651.735.427 1.312 1.008 1.732 1.743.427.728.641 1.54.641 2.436 0 .63-.077 1.1865-.231 1.6695-.147.476-.382.9205-.704 1.3335-.315.406-.717.826-1.207 1.26l-6.069 5.481-.242-.63h8.453v1.4805zm13.53.0105v-1.7955h1.796v1.7955zm10.341.315c-.784 0-1.509-.161-2.174-.483s-1.232-.7665-1.701-1.3335-.805-1.218-1.008-1.953l1.481-.399c.133.546.374 1.0185.724 1.4175.35.392.76.6965 1.229.9135.476.217.973.3255 1.491.3255.672 0 1.274-.161 1.806-.483.539-.329.966-.763 1.281-1.302s.472-1.1305.472-1.7745c0-.665-.164-1.2635-.493-1.7955-.329-.539-.763-.966-1.302-1.281s-1.127-.4725-1.764-.4725c-.714 0-1.33.1575-1.848.4725-.518.308-.931.6965-1.239 1.1655l-1.407-.588.462-7.8645h8.074v1.4805h-7.392l.767-.7245-.41 6.7095-.388-.5145c.434-.497.959-.8855 1.575-1.1655s1.263-.42 1.942-.42c.931 0 1.771.224 2.52.672.749.441 1.344 1.0395 1.785 1.7955s.662 1.5995.662 2.5305c0 .924-.235 1.771-.704 2.541-.469.763-1.092 1.3755-1.869 1.8375s-1.634.693-2.572.693zm9.967-.315-1.05-1.05 14.102-14.07 1.05 1.0395zm10.952.315c-.693 0-1.327-.168-1.901-.504-.567-.343-1.022-.798-1.365-1.365-.343-.574-.514-1.211-.514-1.911 0-.686.175-1.316.525-1.89s.812-1.0325 1.386-1.3755 1.197-.5145 1.869-.5145c.693 0 1.326.1715 1.9.5145.574.336 1.029.791 1.365 1.365.343.567.515 1.2005.515 1.9005s-.172 1.337-.515 1.911c-.336.567-.791 1.022-1.365 1.365-.574.336-1.207.504-1.9.504zm0-1.3965c.427 0 .822-.1085 1.186-.3255s.655-.504.872-.861c.217-.364.325-.763.325-1.197s-.108-.8295-.325-1.1865c-.217-.364-.508-.6545-.872-.8715s-.759-.3255-1.186-.3255c-.434 0-.833.1085-1.197.3255-.357.217-.648.5075-.872.8715-.217.357-.325.7525-.325 1.1865s.108.833.325 1.197c.224.357.515.644.872.861.364.217.763.3255 1.197.3255zm-8.852-6.7935c-.693 0-1.326-.168-1.9-.504-.574-.343-1.033-.798-1.376-1.365-.336-.574-.504-1.211-.504-1.911 0-.686.175-1.316.525-1.89s.812-1.0325 1.386-1.3755 1.197-.5145 1.869-.5145c.693 0 1.323.1715 1.89.5145.574.336 1.033.791 1.376 1.365.343.567.514 1.2005.514 1.9005s-.171 1.337-.514 1.911c-.343.567-.802 1.022-1.376 1.365-.567.336-1.197.504-1.89.504zm0-1.3965c.434 0 .83-.1085 1.187-.3255.364-.217.654-.504.871-.861.217-.364.326-.763.326-1.197s-.109-.8295-.326-1.1865c-.217-.364-.507-.6545-.871-.8715-.357-.217-.753-.3255-1.187-.3255s-.833.1085-1.197.3255c-.357.217-.644.5075-.861.8715-.217.357-.325.7525-.325 1.1865s.108.833.325 1.197c.217.357.504.644.861.861.364.217.763.3255 1.197.3255z" fill="#fbfaff"/><path d="m696.577 7.5755c.952 0 1.813.231 2.583.693.777.455 1.393 1.078 1.848 1.869.455.784.683 1.666.683 2.646v5.25c0 1.008-.228 1.911-.683 2.709s-1.078 1.428-1.869 1.89c-.784.455-1.676.6825-2.677.6825-.861 0-1.659-.189-2.394-.567-.728-.385-1.33-.9135-1.806-1.5855l1.176-.9765c.322.497.749.896 1.281 1.197.539.301 1.12.4515 1.743.4515.714 0 1.344-.168 1.89-.504.553-.343.987-.791 1.302-1.344.322-.56.483-1.1655.483-1.8165v-3.297l.378.441c-.434.693-1.012 1.253-1.733 1.68-.714.427-1.498.6405-2.352.6405-.931 0-1.774-.224-2.53-.672-.749-.448-1.344-1.05-1.785-1.806-.434-.756-.651-1.5995-.651-2.5305s.231-1.778.693-2.541c.462-.77 1.081-1.379 1.858-1.827.777-.455 1.631-.6825 2.562-.6825zm0 1.491c-.658 0-1.256.161-1.795.483-.539.315-.97.742-1.292 1.281-.315.539-.472 1.1375-.472 1.7955s.157 1.2565.472 1.7955.742.9695 1.281 1.2915c.539.315 1.138.4725 1.796.4725s1.256-.1575 1.795-.4725c.546-.322.977-.7525 1.292-1.2915.322-.539.483-1.1375.483-1.7955 0-.651-.161-1.246-.483-1.785-.315-.539-.742-.9695-1.281-1.2915s-1.138-.483-1.796-.483zm8.466 13.923.01-1.407 6.836-6.174c.588-.532.976-1.036 1.165-1.512.196-.483.294-.987.294-1.512 0-.623-.147-1.1865-.441-1.6905s-.689-.903-1.186-1.197c-.497-.301-1.054-.4515-1.67-.4515-.644 0-1.218.154-1.722.462s-.903.714-1.197 1.218c-.287.504-.427 1.0535-.42 1.6485h-1.575c0-.917.217-1.7395.651-2.4675s1.022-1.2985 1.764-1.7115c.742-.42 1.582-.63 2.52-.63.917 0 1.74.217 2.468.651.735.427 1.312 1.008 1.732 1.743.427.728.641 1.54.641 2.436 0 .63-.077 1.1865-.231 1.6695-.147.476-.382.9205-.704 1.3335-.315.406-.717.826-1.207 1.26l-6.069 5.481-.242-.63h8.453v1.4805zm13.53.0105v-1.7955h1.796v1.7955zm10.341.315c-.784 0-1.509-.161-2.174-.483s-1.232-.7665-1.701-1.3335-.805-1.218-1.008-1.953l1.481-.399c.133.546.374 1.0185.724 1.4175.35.392.76.6965 1.229.9135.476.217.973.3255 1.491.3255.672 0 1.274-.161 1.806-.483.539-.329.966-.763 1.281-1.302s.472-1.1305.472-1.7745c0-.665-.164-1.2635-.493-1.7955-.329-.539-.763-.966-1.302-1.281s-1.127-.4725-1.764-.4725c-.714 0-1.33.1575-1.848.4725-.518.308-.931.6965-1.239 1.1655l-1.407-.588.462-7.8645h8.074v1.4805h-7.392l.767-.7245-.41 6.7095-.388-.5145c.434-.497.959-.8855 1.575-1.1655s1.263-.42 1.942-.42c.931 0 1.771.224 2.52.672.749.441 1.344 1.0395 1.785 1.7955s.662 1.5995.662 2.5305c0 .924-.235 1.771-.704 2.541-.469.763-1.092 1.3755-1.869 1.8375s-1.634.693-2.572.693zm9.967-.315-1.05-1.05 14.102-14.07 1.05 1.0395zm10.952.315c-.693 0-1.327-.168-1.901-.504-.567-.343-1.022-.798-1.365-1.365-.343-.574-.514-1.211-.514-1.911 0-.686.175-1.316.525-1.89s.812-1.0325 1.386-1.3755 1.197-.5145 1.869-.5145c.693 0 1.326.1715 1.9.5145.574.336 1.029.791 1.365 1.365.343.567.515 1.2005.515 1.9005s-.172 1.337-.515 1.911c-.336.567-.791 1.022-1.365 1.365-.574.336-1.207.504-1.9.504zm0-1.3965c.427 0 .822-.1085 1.186-.3255s.655-.504.872-.861c.217-.364.325-.763.325-1.197s-.108-.8295-.325-1.1865c-.217-.364-.508-.6545-.872-.8715s-.759-.3255-1.186-.3255c-.434 0-.833.1085-1.197.3255-.357.217-.648.5075-.872.8715-.217.357-.325.7525-.325 1.1865s.108.833.325 1.197c.224.357.515.644.872.861.364.217.763.3255 1.197.3255zm-8.852-6.7935c-.693 0-1.326-.168-1.9-.504-.574-.343-1.033-.798-1.376-1.365-.336-.574-.504-1.211-.504-1.911 0-.686.175-1.316.525-1.89s.812-1.0325 1.386-1.3755 1.197-.5145 1.869-.5145c.693 0 1.323.1715 1.89.5145.574.336 1.033.791 1.376 1.365.343.567.514 1.2005.514 1.9005s-.171 1.337-.514 1.911c-.343.567-.802 1.022-1.376 1.365-.567.336-1.197.504-1.89.504zm0-1.3965c.434 0 .83-.1085 1.187-.3255.364-.217.654-.504.871-.861.217-.364.326-.763.326-1.197s-.109-.8295-.326-1.1865c-.217-.364-.507-.6545-.871-.8715-.357-.217-.753-.3255-1.187-.3255s-.833.1085-1.197.3255c-.357.217-.644.5075-.861.8715-.217.357-.325.7525-.325 1.1865s.108.833.325 1.197c.217.357.504.644.861.861.364.217.763.3255 1.197.3255z" fill="#fbfaff"/><path d="m944.577 7.5755c.952 0 1.813.231 2.583.693.777.455 1.393 1.078 1.848 1.869.455.784.683 1.666.683 2.646v5.25c0 1.008-.228 1.911-.683 2.709s-1.078 1.428-1.869 1.89c-.784.455-1.676.6825-2.677.6825-.861 0-1.659-.189-2.394-.567-.728-.385-1.33-.9135-1.806-1.5855l1.176-.9765c.322.497.749.896 1.281 1.197.539.301 1.12.4515 1.743.4515.714 0 1.344-.168 1.89-.504.553-.343.987-.791 1.302-1.344.322-.56.483-1.1655.483-1.8165v-3.297l.378.441c-.434.693-1.012 1.253-1.733 1.68-.714.427-1.498.6405-2.352.6405-.931 0-1.774-.224-2.53-.672-.749-.448-1.344-1.05-1.785-1.806-.434-.756-.651-1.5995-.651-2.5305s.231-1.778.693-2.541c.462-.77 1.081-1.379 1.858-1.827.777-.455 1.631-.6825 2.562-.6825zm0 1.491c-.658 0-1.256.161-1.795.483-.539.315-.97.742-1.292 1.281-.315.539-.472 1.1375-.472 1.7955s.157 1.2565.472 1.7955.742.9695 1.281 1.2915c.539.315 1.138.4725 1.796.4725s1.256-.1575 1.795-.4725c.546-.322.977-.7525 1.292-1.2915.322-.539.483-1.1375.483-1.7955 0-.651-.161-1.246-.483-1.785-.315-.539-.742-.9695-1.281-1.2915s-1.138-.483-1.796-.483zm8.466 13.923.01-1.407 6.836-6.174c.588-.532.976-1.036 1.165-1.512.196-.483.294-.987.294-1.512 0-.623-.147-1.1865-.441-1.6905s-.689-.903-1.186-1.197c-.497-.301-1.054-.4515-1.67-.4515-.644 0-1.218.154-1.722.462s-.903.714-1.197 1.218c-.287.504-.427 1.0535-.42 1.6485h-1.575c0-.917.217-1.7395.651-2.4675s1.022-1.2985 1.764-1.7115c.742-.42 1.582-.63 2.52-.63.917 0 1.74.217 2.468.651.735.427 1.312 1.008 1.732 1.743.427.728.641 1.54.641 2.436 0 .63-.077 1.1865-.231 1.6695-.147.476-.382.9205-.704 1.3335-.315.406-.717.826-1.207 1.26l-6.069 5.481-.242-.63h8.453v1.4805zm13.53.0105v-1.7955h1.796v1.7955zm10.341.315c-.784 0-1.509-.161-2.174-.483s-1.232-.7665-1.701-1.3335-.805-1.218-1.008-1.953l1.481-.399c.133.546.374 1.0185.724 1.4175.35.392.76.6965 1.229.9135.476.217.973.3255 1.491.3255.672 0 1.274-.161 1.806-.483.539-.329.966-.763 1.281-1.302s.472-1.1305.472-1.7745c0-.665-.164-1.2635-.493-1.7955-.329-.539-.763-.966-1.302-1.281s-1.127-.4725-1.764-.4725c-.714 0-1.33.1575-1.848.4725-.518.308-.931.6965-1.239 1.1655l-1.407-.588.462-7.8645h8.074v1.4805h-7.392l.767-.7245-.41 6.7095-.388-.5145c.434-.497.959-.8855 1.575-1.1655s1.263-.42 1.942-.42c.931 0 1.771.224 2.52.672.749.441 1.344 1.0395 1.785 1.7955s.662 1.5995.662 2.5305c0 .924-.235 1.771-.704 2.541-.469.763-1.092 1.3755-1.869 1.8375s-1.634.693-2.572.693zm9.967-.315-1.05-1.05 14.102-14.07 1.047 1.0395zm10.952.315c-.693 0-1.327-.168-1.901-.504-.567-.343-1.022-.798-1.365-1.365-.343-.574-.514-1.211-.514-1.911 0-.686.175-1.316.525-1.89s.812-1.0325 1.386-1.3755 1.197-.5145 1.869-.5145c.693 0 1.326.1715 1.9.5145.577.336 1.027.791 1.367 1.365.34.567.51 1.2005.51 1.9005s-.17 1.337-.51 1.911c-.34.567-.79 1.022-1.367 1.365-.574.336-1.207.504-1.9.504zm0-1.3965c.427 0 .822-.1085 1.186-.3255s.655-.504.872-.861c.219-.364.329-.763.329-1.197s-.11-.8295-.329-1.1865c-.217-.364-.508-.6545-.872-.8715s-.759-.3255-1.186-.3255c-.434 0-.833.1085-1.197.3255-.357.217-.648.5075-.872.8715-.217.357-.325.7525-.325 1.1865s.108.833.325 1.197c.224.357.515.644.872.861.364.217.763.3255 1.197.3255zm-8.852-6.7935c-.693 0-1.326-.168-1.9-.504-.574-.343-1.033-.798-1.376-1.365-.336-.574-.504-1.211-.504-1.911 0-.686.175-1.316.525-1.89s.812-1.0325 1.386-1.3755 1.197-.5145 1.869-.5145c.693 0 1.323.1715 1.89.5145.574.336 1.033.791 1.376 1.365.343.567.514 1.2005.514 1.9005s-.171 1.337-.514 1.911c-.343.567-.802 1.022-1.376 1.365-.567.336-1.197.504-1.89.504zm0-1.3965c.434 0 .83-.1085 1.187-.3255.364-.217.654-.504.871-.861.217-.364.326-.763.326-1.197s-.109-.8295-.326-1.1865c-.217-.364-.507-.6545-.871-.8715-.357-.217-.753-.3255-1.187-.3255s-.833.1085-1.197.3255c-.357.217-.644.5075-.861.8715-.217.357-.325.7525-.325 1.1865s.108.833.325 1.197c.217.357.504.644.861.861.364.217.763.3255 1.197.3255z" fill="#fbfaff"/><path d="m149.777 43.993.007-.938 4.557-4.116c.392-.3547.651-.6907.777-1.008.131-.322.196-.658.196-1.008 0-.4153-.098-.791-.294-1.127s-.46-.602-.791-.798c-.331-.2007-.702-.301-1.113-.301-.429 0-.812.1027-1.148.308s-.602.476-.798.812c-.191.336-.285.7023-.28 1.099h-1.05c0-.6113.145-1.1597.434-1.645s.681-.8657 1.176-1.141c.495-.28 1.055-.42 1.68-.42.611 0 1.16.1447 1.645.434.49.2847.875.672 1.155 1.162.285.4853.427 1.0267.427 1.624 0 .42-.051.791-.154 1.113-.098.3173-.254.6137-.469.889-.21.2707-.478.5507-.805.84l-4.046 3.654-.161-.42h5.635v.987zm9.02.007v-1.197h1.197v1.197zm6.894.21c-.523 0-1.006-.1073-1.449-.322s-.821-.511-1.134-.889-.537-.812-.672-1.302l.987-.266c.089.364.25.679.483.945.233.2613.506.4643.819.609.317.1447.649.217.994.217.448 0 .849-.1073 1.204-.322.359-.2193.644-.5087.854-.868s.315-.7537.315-1.183c0-.4433-.11-.8423-.329-1.197-.219-.3593-.509-.644-.868-.854s-.751-.315-1.176-.315c-.476 0-.887.105-1.232.315-.345.2053-.621.4643-.826.777l-.938-.392.308-5.243h5.383v.987h-4.928l.511-.483-.273 4.473-.259-.343c.289-.3313.639-.5903 1.05-.777s.842-.28 1.295-.28c.621 0 1.181.1493 1.68.448.499.294.896.693 1.19 1.197s.441 1.0663.441 1.687c0 .616-.156 1.1807-.469 1.694-.313.5087-.728.917-1.246 1.225s-1.09.462-1.715.462zm6.645-.21-.7-.7 9.401-9.38.7.693zm7.301.21c-.462 0-.884-.112-1.267-.336-.378-.2287-.681-.532-.91-.91-.228-.3827-.343-.8073-.343-1.274 0-.4573.117-.8773.35-1.26.234-.3827.542-.6883.924-.917.383-.2287.798-.343 1.246-.343.462 0 .885.1143 1.267.343.383.224.686.5273.91.91.229.378.343.8003.343 1.267s-.114.8913-.343 1.274c-.224.378-.527.6813-.91.91-.382.224-.805.336-1.267.336zm0-.931c.285 0 .549-.0723.791-.217.243-.1447.437-.336.581-.574.145-.2427.217-.5087.217-.798s-.072-.553-.217-.791c-.144-.2427-.338-.4363-.581-.581-.242-.1447-.506-.217-.791-.217-.289 0-.555.0723-.798.217-.238.1447-.431.3383-.581.581-.144.238-.217.5017-.217.791s.073.5553.217.798c.15.238.343.4293.581.574.243.1447.509.217.798.217zm-5.901-4.529c-.462 0-.884-.112-1.267-.336-.382-.2287-.688-.532-.917-.91-.224-.3827-.336-.8073-.336-1.274 0-.4573.117-.8773.35-1.26.234-.3827.542-.6883.924-.917.383-.2287.798-.343 1.246-.343.462 0 .882.1143 1.26.343.383.224.689.5273.917.91.229.378.343.8003.343 1.267s-.114.8913-.343 1.274c-.228.378-.534.6813-.917.91-.378.224-.798.336-1.26.336zm0-.931c.29 0 .553-.0723.791-.217.243-.1447.437-.336.581-.574.145-.2427.217-.5087.217-.798s-.072-.553-.217-.791c-.144-.2427-.338-.4363-.581-.581-.238-.1447-.501-.217-.791-.217-.289 0-.555.0723-.798.217-.238.1447-.429.3383-.574.581-.144.238-.217.5017-.217.791s.073.5553.217.798c.145.238.336.4293.574.574.243.1447.509.217.798.217zm17.781 8.694c-.551-.63-1.024-1.3347-1.421-2.114-.392-.7747-.695-1.589-.91-2.443-.21-.854-.313-1.7127-.308-2.576-.005-.8633.098-1.722.308-2.576.215-.8587.518-1.6753.91-2.45.397-.7747.87-1.477 1.421-2.107l.756.588c-.541.6487-.994 1.33-1.358 2.044-.364.7093-.637 1.442-.819 2.198-.177.756-.268 1.5237-.273 2.303.005.77.098 1.5377.28 2.303.187.7607.46 1.5003.819 2.219.364.714.814 1.3837 1.351 2.009zm7.018-2.513c-.425.0887-.845.1237-1.26.105-.411-.0187-.779-.1073-1.106-.266-.322-.1587-.567-.406-.735-.742-.135-.28-.21-.5623-.224-.847-.009-.2893-.014-.6183-.014-.987v-6.923h1.022v6.881c0 .3173.002.5833.007.798.009.21.058.3967.147.56.168.3127.434.4993.798.56.369.0607.824.0467 1.365-.042zm-4.956-6.678v-.882h4.956v.882zm7.005 6.678v-7.56h.924v1.82l-.182-.238c.084-.224.194-.4293.329-.616.136-.1913.283-.3477.441-.469.196-.1727.425-.3033.686-.392.262-.0933.525-.147.791-.161.266-.0187.509 0 .728.056v.966c-.275-.07-.576-.0863-.903-.049-.326.0373-.627.168-.903.392-.252.196-.441.4317-.567.707-.126.2707-.21.56-.252.868-.042.3033-.063.6043-.063.903v3.773zm7.481.21c-.569 0-1.047-.1027-1.435-.308-.382-.2053-.669-.4783-.861-.819-.191-.3407-.287-.7117-.287-1.113 0-.4107.082-.7607.245-1.05.168-.294.395-.5343.679-.721.29-.1867.623-.329 1.001-.427.383-.0933.805-.175 1.267-.245.467-.0747.922-.1377 1.365-.189.448-.056.84-.1097 1.176-.161l-.364.224c.014-.7467-.13-1.2997-.434-1.659-.303-.3593-.83-.539-1.582-.539-.518 0-.956.1167-1.316.35-.354.2333-.604.602-.749 1.106l-1.001-.294c.173-.6767.521-1.2017 1.043-1.575.523-.3733 1.202-.56 2.037-.56.691 0 1.277.1307 1.757.392.486.2567.829.63 1.029 1.12.094.2193.154.4643.182.735s.042.546.042.826v4.697h-.917v-1.897l.266.112c-.256.6487-.655 1.1433-1.197 1.484-.541.3407-1.19.511-1.946.511zm.119-.889c.481 0 .901-.0863 1.26-.259.36-.1727.649-.4083.868-.707.22-.3033.362-.644.427-1.022.056-.2427.087-.5087.091-.798.005-.294.007-.5133.007-.658l.392.203c-.35.0467-.73.0933-1.141.14-.406.0467-.807.1003-1.204.161-.392.0607-.746.133-1.064.217-.214.0607-.422.147-.623.259-.2.1073-.366.252-.497.434-.126.182-.189.4083-.189.679 0 .2193.054.4317.161.637.112.2053.29.3757.532.511.248.1353.574.203.98.203zm11.518.679v-3.857c0-.42-.04-.805-.119-1.155-.08-.3547-.208-.6627-.385-.924-.173-.266-.399-.4713-.679-.616-.276-.1447-.612-.217-1.008-.217-.364 0-.686.063-.966.189-.276.126-.509.308-.7.546-.187.2333-.329.518-.427.854s-.147.7187-.147 1.148l-.728-.161c0-.7747.135-1.4257.406-1.953.27-.5273.644-.9263 1.12-1.197s1.022-.406 1.638-.406c.452 0 .847.07 1.183.21.34.14.627.329.861.567.238.238.429.511.574.819.144.3033.249.6277.315.973.065.3407.098.6813.098 1.022v4.158zm-5.467 0v-7.56h.931v1.862h.105v5.698zm11.7.203c-.887 0-1.617-.1913-2.191-.574-.569-.3827-.919-.9147-1.05-1.596l1.05-.175c.112.4293.366.7723.763 1.029.401.252.896.378 1.484.378.574 0 1.027-.119 1.358-.357.331-.2427.497-.5717.497-.987 0-.2333-.054-.4223-.161-.567-.103-.1493-.315-.287-.637-.413s-.803-.2753-1.442-.448c-.686-.1867-1.223-.3733-1.61-.56s-.663-.4013-.826-.644c-.163-.2473-.245-.5483-.245-.903 0-.4293.121-.805.364-1.127.243-.3267.579-.5787 1.008-.756.429-.182.929-.273 1.498-.273s1.078.0933 1.526.28c.453.182.817.4387 1.092.77s.439.7163.49 1.155l-1.05.189c-.07-.4433-.292-.7933-.665-1.05-.369-.2613-.838-.3967-1.407-.406-.537-.014-.973.0887-1.309.308-.336.2147-.504.5017-.504.861 0 .2007.061.3733.182.518.121.14.341.273.658.399.322.126.779.2637 1.372.413.695.1773 1.241.364 1.638.56s.679.427.847.693.252.595.252.987c0 .714-.266 1.2763-.798 1.687-.527.406-1.255.609-2.184.609zm7.258.007c-.57 0-1.048-.1027-1.435-.308-.383-.2053-.67-.4783-.861-.819-.192-.3407-.287-.7117-.287-1.113 0-.4107.081-.7607.245-1.05.168-.294.394-.5343.679-.721.289-.1867.623-.329 1.001-.427.382-.0933.805-.175 1.267-.245.466-.0747.921-.1377 1.365-.189.448-.056.84-.1097 1.176-.161l-.364.224c.014-.7467-.131-1.2997-.434-1.659-.304-.3593-.831-.539-1.582-.539-.518 0-.957.1167-1.316.35-.355.2333-.605.602-.749 1.106l-1.001-.294c.172-.6767.52-1.2017 1.043-1.575.522-.3733 1.201-.56 2.037-.56.69 0 1.276.1307 1.757.392.485.2567.828.63 1.029 1.12.093.2193.154.4643.182.735s.042.546.042.826v4.697h-.917v-1.897l.266.112c-.257.6487-.656 1.1433-1.197 1.484-.542.3407-1.19.511-1.946.511zm.119-.889c.48 0 .9-.0863 1.26-.259.359-.1727.648-.4083.868-.707.219-.3033.361-.644.427-1.022.056-.2427.086-.5087.091-.798.004-.294.007-.5133.007-.658l.392.203c-.35.0467-.731.0933-1.141.14-.406.0467-.808.1003-1.204.161-.392.0607-.747.133-1.064.217-.215.0607-.423.147-.623.259-.201.1073-.367.252-.497.434-.126.182-.189.4083-.189.679 0 .2193.053.4317.161.637.112.2053.289.3757.532.511.247.1353.574.203.98.203zm9.193.889c-.761 0-1.405-.1703-1.932-.511-.528-.3407-.929-.8097-1.204-1.407-.271-.602-.411-1.2927-.42-2.072.009-.7933.154-1.4887.434-2.086.28-.602.683-1.0687 1.211-1.4.527-.336 1.166-.504 1.918-.504.765 0 1.43.1867 1.995.56.569.3733.959.8843 1.169 1.533l-1.008.322c-.178-.4527-.46-.8027-.847-1.05-.383-.252-.822-.378-1.316-.378-.556 0-1.015.1283-1.379.385-.364.252-.635.6043-.812 1.057-.178.4527-.269.973-.273 1.561.009.9053.219 1.6333.63 2.184.41.546 1.022.819 1.834.819.513 0 .949-.1167 1.309-.35.364-.238.639-.5833.826-1.036l1.036.308c-.28.672-.691 1.1853-1.232 1.54-.542.35-1.188.525-1.939.525zm9.292-.21c-.425.0887-.845.1237-1.26.105-.411-.0187-.78-.1073-1.106-.266-.322-.1587-.567-.406-.735-.742-.136-.28-.21-.5623-.224-.847-.01-.2893-.014-.6183-.014-.987v-6.923h1.022v6.881c0 .3173.002.5833.007.798.009.21.058.3967.147.56.168.3127.434.4993.798.56.368.0607.823.0467 1.365-.042zm-4.956-6.678v-.882h4.956v.882zm7.145-2.317v-1.155h1.029v1.155zm0 8.995v-7.56h1.029v7.56zm6.845.21c-.752 0-1.393-.1703-1.925-.511s-.941-.812-1.225-1.414c-.285-.602-.427-1.2927-.427-2.072 0-.7933.144-1.4887.434-2.086.289-.5973.7-1.0617 1.232-1.393.536-.336 1.173-.504 1.911-.504.756 0 1.4.1703 1.932.511.536.336.945.805 1.225 1.407.284.5973.427 1.2857.427 2.065 0 .7933-.143 1.491-.427 2.093-.285.5973-.696 1.064-1.232 1.4-.537.336-1.179.504-1.925.504zm0-.987c.84 0 1.465-.2777 1.876-.833.41-.56.616-1.2857.616-2.177 0-.9147-.208-1.6427-.623-2.184-.411-.5413-1.034-.812-1.869-.812-.565 0-1.032.1283-1.4.385-.364.252-.637.6043-.819 1.057-.178.448-.266.966-.266 1.554 0 .91.21 1.6403.63 2.191.42.546 1.038.819 1.855.819zm11.148.777v-3.857c0-.42-.04-.805-.119-1.155-.079-.3547-.208-.6627-.385-.924-.173-.266-.399-.4713-.679-.616-.275-.1447-.611-.217-1.008-.217-.364 0-.686.063-.966.189-.275.126-.509.308-.7.546-.187.2333-.329.518-.427.854s-.147.7187-.147 1.148l-.728-.161c0-.7747.135-1.4257.406-1.953s.644-.9263 1.12-1.197 1.022-.406 1.638-.406c.453 0 .847.07 1.183.21.341.14.628.329.861.567.238.238.429.511.574.819.145.3033.25.6277.315.973.065.3407.098.6813.098 1.022v4.158zm-5.467 0v-7.56h.931v1.862h.105v5.698zm12.991 0v-8.12c0-.196.01-.3897.028-.581.024-.1913.068-.3733.133-.546.066-.1773.168-.3407.308-.49.154-.168.322-.2893.504-.364.182-.0793.371-.1307.567-.154.201-.0233.397-.035.588-.035h.966v.868h-.896c-.392 0-.686.0957-.882.287-.191.1913-.287.4923-.287.903v8.232zm-1.309-6.678v-.882h4.403v.882zm9.009 6.888c-.738 0-1.377-.1633-1.918-.49-.537-.3267-.955-.7863-1.253-1.379-.299-.5927-.448-1.288-.448-2.086 0-.826.147-1.54.441-2.142s.707-1.0663 1.239-1.393c.536-.3267 1.169-.49 1.897-.49.746 0 1.383.1727 1.911.518.527.3407.926.8307 1.197 1.47.27.6393.394 1.4023.371 2.289h-1.05v-.364c-.019-.98-.231-1.7197-.637-2.219-.402-.4993-.99-.749-1.764-.749-.812 0-1.435.2637-1.869.791-.43.5273-.644 1.2787-.644 2.254 0 .952.214 1.6917.644 2.219.434.5227 1.047.784 1.841.784.541 0 1.012-.1237 1.414-.371.406-.252.725-.6137.959-1.085l.959.371c-.299.658-.74 1.169-1.323 1.533-.579.3593-1.235.539-1.967.539zm-2.891-3.703v-.861h5.775v.861zm11.64 3.703c-.737 0-1.377-.1633-1.918-.49-.537-.3267-.954-.7863-1.253-1.379s-.448-1.288-.448-2.086c0-.826.147-1.54.441-2.142s.707-1.0663 1.239-1.393c.537-.3267 1.169-.49 1.897-.49.747 0 1.384.1727 1.911.518.527.3407.926.8307 1.197 1.47s.394 1.4023.371 2.289h-1.05v-.364c-.019-.98-.231-1.7197-.637-2.219-.401-.4993-.989-.749-1.764-.749-.812 0-1.435.2637-1.869.791-.429.5273-.644 1.2787-.644 2.254 0 .952.215 1.6917.644 2.219.434.5227 1.048.784 1.841.784.541 0 1.013-.1237 1.414-.371.406-.252.726-.6137.959-1.085l.959.371c-.299.658-.74 1.169-1.323 1.533-.579.3593-1.234.539-1.967.539zm-2.891-3.703v-.861h5.775v.861zm8.266 6.006-.756-.602c.537-.6253.985-1.295 1.344-2.009.364-.7187.637-1.4583.819-2.219.187-.7653.282-1.533.287-2.303-.005-.7793-.098-1.547-.28-2.303-.177-.756-.448-1.4887-.812-2.198-.364-.714-.817-1.3953-1.358-2.044l.756-.588c.551.63 1.022 1.3323 1.414 2.107.397.7747.7 1.5913.91 2.45.215.854.32 1.7127.315 2.576.005.8633-.1 1.722-.315 2.576-.21.854-.513 1.6683-.91 2.443-.392.7793-.863 1.484-1.414 2.114z" fill="url(#C)"/><path d="m396.777 43.993.007-.938 4.557-4.116c.392-.3547.651-.6907.777-1.008.131-.322.196-.658.196-1.008 0-.4153-.098-.791-.294-1.127s-.46-.602-.791-.798c-.331-.2007-.702-.301-1.113-.301-.429 0-.812.1027-1.148.308s-.602.476-.798.812c-.191.336-.285.7023-.28 1.099h-1.05c0-.6113.145-1.1597.434-1.645s.681-.8657 1.176-1.141c.495-.28 1.055-.42 1.68-.42.611 0 1.16.1447 1.645.434.49.2847.875.672 1.155 1.162.285.4853.427 1.0267.427 1.624 0 .42-.051.791-.154 1.113-.098.3173-.254.6137-.469.889-.21.2707-.478.5507-.805.84l-4.046 3.654-.161-.42h5.635v.987zm9.02.007v-1.197h1.197v1.197zm6.894.21c-.523 0-1.006-.1073-1.449-.322s-.821-.511-1.134-.889-.537-.812-.672-1.302l.987-.266c.089.364.25.679.483.945.233.2613.506.4643.819.609.317.1447.649.217.994.217.448 0 .849-.1073 1.204-.322.359-.2193.644-.5087.854-.868s.315-.7537.315-1.183c0-.4433-.11-.8423-.329-1.197-.219-.3593-.509-.644-.868-.854s-.751-.315-1.176-.315c-.476 0-.887.105-1.232.315-.345.2053-.621.4643-.826.777l-.938-.392.308-5.243h5.383v.987h-4.928l.511-.483-.273 4.473-.259-.343c.289-.3313.639-.5903 1.05-.777s.842-.28 1.295-.28c.621 0 1.181.1493 1.68.448.499.294.896.693 1.19 1.197s.441 1.0663.441 1.687c0 .616-.156 1.1807-.469 1.694-.313.5087-.728.917-1.246 1.225s-1.09.462-1.715.462zm6.645-.21-.7-.7 9.401-9.38.7.693zm7.301.21c-.462 0-.884-.112-1.267-.336-.378-.2287-.681-.532-.91-.91-.228-.3827-.343-.8073-.343-1.274 0-.4573.117-.8773.35-1.26.234-.3827.542-.6883.924-.917.383-.2287.798-.343 1.246-.343.462 0 .885.1143 1.267.343.383.224.686.5273.91.91.229.378.343.8003.343 1.267s-.114.8913-.343 1.274c-.224.378-.527.6813-.91.91-.382.224-.805.336-1.267.336zm0-.931c.285 0 .549-.0723.791-.217.243-.1447.437-.336.581-.574.145-.2427.217-.5087.217-.798s-.072-.553-.217-.791c-.144-.2427-.338-.4363-.581-.581-.242-.1447-.506-.217-.791-.217-.289 0-.555.0723-.798.217-.238.1447-.431.3383-.581.581-.144.238-.217.5017-.217.791s.073.5553.217.798c.15.238.343.4293.581.574.243.1447.509.217.798.217zm-5.901-4.529c-.462 0-.884-.112-1.267-.336-.382-.2287-.688-.532-.917-.91-.224-.3827-.336-.8073-.336-1.274 0-.4573.117-.8773.35-1.26.234-.3827.542-.6883.924-.917.383-.2287.798-.343 1.246-.343.462 0 .882.1143 1.26.343.383.224.689.5273.917.91.229.378.343.8003.343 1.267s-.114.8913-.343 1.274c-.228.378-.534.6813-.917.91-.378.224-.798.336-1.26.336zm0-.931c.29 0 .553-.0723.791-.217.243-.1447.437-.336.581-.574.145-.2427.217-.5087.217-.798s-.072-.553-.217-.791c-.144-.2427-.338-.4363-.581-.581-.238-.1447-.501-.217-.791-.217-.289 0-.555.0723-.798.217-.238.1447-.429.3383-.574.581-.144.238-.217.5017-.217.791s.073.5553.217.798c.145.238.336.4293.574.574.243.1447.509.217.798.217zm17.781 8.694c-.551-.63-1.024-1.3347-1.421-2.114-.392-.7747-.695-1.589-.91-2.443-.21-.854-.313-1.7127-.308-2.576-.005-.8633.098-1.722.308-2.576.215-.8587.518-1.6753.91-2.45.397-.7747.87-1.477 1.421-2.107l.756.588c-.541.6487-.994 1.33-1.358 2.044-.364.7093-.637 1.442-.819 2.198-.177.756-.268 1.5237-.273 2.303.005.77.098 1.5377.28 2.303.187.7607.46 1.5003.819 2.219.364.714.814 1.3837 1.351 2.009zm7.018-2.513c-.425.0887-.845.1237-1.26.105-.411-.0187-.779-.1073-1.106-.266-.322-.1587-.567-.406-.735-.742-.135-.28-.21-.5623-.224-.847-.009-.2893-.014-.6183-.014-.987v-6.923h1.022v6.881c0 .3173.002.5833.007.798.009.21.058.3967.147.56.168.3127.434.4993.798.56.369.0607.824.0467 1.365-.042zm-4.956-6.678v-.882h4.956v.882zm7.005 6.678v-7.56h.924v1.82l-.182-.238c.084-.224.194-.4293.329-.616.136-.1913.283-.3477.441-.469.196-.1727.425-.3033.686-.392.262-.0933.525-.147.791-.161.266-.0187.509 0 .728.056v.966c-.275-.07-.576-.0863-.903-.049-.326.0373-.627.168-.903.392-.252.196-.441.4317-.567.707-.126.2707-.21.56-.252.868-.042.3033-.063.6043-.063.903v3.773zm7.481.21c-.569 0-1.047-.1027-1.435-.308-.382-.2053-.669-.4783-.861-.819-.191-.3407-.287-.7117-.287-1.113 0-.4107.082-.7607.245-1.05.168-.294.395-.5343.679-.721.29-.1867.623-.329 1.001-.427.383-.0933.805-.175 1.267-.245.467-.0747.922-.1377 1.365-.189.448-.056.84-.1097 1.176-.161l-.364.224c.014-.7467-.13-1.2997-.434-1.659-.303-.3593-.83-.539-1.582-.539-.518 0-.956.1167-1.316.35-.354.2333-.604.602-.749 1.106l-1.001-.294c.173-.6767.521-1.2017 1.043-1.575.523-.3733 1.202-.56 2.037-.56.691 0 1.277.1307 1.757.392.486.2567.829.63 1.029 1.12.094.2193.154.4643.182.735s.042.546.042.826v4.697h-.917v-1.897l.266.112c-.256.6487-.655 1.1433-1.197 1.484-.541.3407-1.19.511-1.946.511zm.119-.889c.481 0 .901-.0863 1.26-.259.36-.1727.649-.4083.868-.707.22-.3033.362-.644.427-1.022.056-.2427.087-.5087.091-.798.005-.294.007-.5133.007-.658l.392.203c-.35.0467-.73.0933-1.141.14-.406.0467-.807.1003-1.204.161-.392.0607-.746.133-1.064.217-.214.0607-.422.147-.623.259-.2.1073-.366.252-.497.434-.126.182-.189.4083-.189.679 0 .2193.054.4317.161.637.112.2053.29.3757.532.511.248.1353.574.203.98.203zm11.518.679v-3.857c0-.42-.04-.805-.119-1.155-.08-.3547-.208-.6627-.385-.924-.173-.266-.399-.4713-.679-.616-.276-.1447-.612-.217-1.008-.217-.364 0-.686.063-.966.189-.276.126-.509.308-.7.546-.187.2333-.329.518-.427.854s-.147.7187-.147 1.148l-.728-.161c0-.7747.135-1.4257.406-1.953.27-.5273.644-.9263 1.12-1.197s1.022-.406 1.638-.406c.452 0 .847.07 1.183.21.34.14.627.329.861.567.238.238.429.511.574.819.144.3033.249.6277.315.973.065.3407.098.6813.098 1.022v4.158zm-5.467 0v-7.56h.931v1.862h.105v5.698zm11.7.203c-.887 0-1.617-.1913-2.191-.574-.569-.3827-.919-.9147-1.05-1.596l1.05-.175c.112.4293.366.7723.763 1.029.401.252.896.378 1.484.378.574 0 1.027-.119 1.358-.357.331-.2427.497-.5717.497-.987 0-.2333-.054-.4223-.161-.567-.103-.1493-.315-.287-.637-.413s-.803-.2753-1.442-.448c-.686-.1867-1.223-.3733-1.61-.56s-.663-.4013-.826-.644c-.163-.2473-.245-.5483-.245-.903 0-.4293.121-.805.364-1.127.243-.3267.579-.5787 1.008-.756.429-.182.929-.273 1.498-.273s1.078.0933 1.526.28c.453.182.817.4387 1.092.77s.439.7163.49 1.155l-1.05.189c-.07-.4433-.292-.7933-.665-1.05-.369-.2613-.838-.3967-1.407-.406-.537-.014-.973.0887-1.309.308-.336.2147-.504.5017-.504.861 0 .2007.061.3733.182.518.121.14.341.273.658.399.322.126.779.2637 1.372.413.695.1773 1.241.364 1.638.56s.679.427.847.693.252.595.252.987c0 .714-.266 1.2763-.798 1.687-.527.406-1.255.609-2.184.609zm7.258.007c-.57 0-1.048-.1027-1.435-.308-.383-.2053-.67-.4783-.861-.819-.192-.3407-.287-.7117-.287-1.113 0-.4107.081-.7607.245-1.05.168-.294.394-.5343.679-.721.289-.1867.623-.329 1.001-.427.382-.0933.805-.175 1.267-.245.466-.0747.921-.1377 1.365-.189.448-.056.84-.1097 1.176-.161l-.364.224c.014-.7467-.131-1.2997-.434-1.659-.304-.3593-.831-.539-1.582-.539-.518 0-.957.1167-1.316.35-.355.2333-.605.602-.749 1.106l-1.001-.294c.172-.6767.52-1.2017 1.043-1.575.522-.3733 1.201-.56 2.037-.56.69 0 1.276.1307 1.757.392.485.2567.828.63 1.029 1.12.093.2193.154.4643.182.735s.042.546.042.826v4.697h-.917v-1.897l.266.112c-.257.6487-.656 1.1433-1.197 1.484-.542.3407-1.19.511-1.946.511zm.119-.889c.48 0 .9-.0863 1.26-.259.359-.1727.648-.4083.868-.707.219-.3033.361-.644.427-1.022.056-.2427.086-.5087.091-.798.004-.294.007-.5133.007-.658l.392.203c-.35.0467-.731.0933-1.141.14-.406.0467-.808.1003-1.204.161-.392.0607-.747.133-1.064.217-.215.0607-.423.147-.623.259-.201.1073-.367.252-.497.434-.126.182-.189.4083-.189.679 0 .2193.053.4317.161.637.112.2053.289.3757.532.511.247.1353.574.203.98.203zm9.193.889c-.761 0-1.405-.1703-1.932-.511-.528-.3407-.929-.8097-1.204-1.407-.271-.602-.411-1.2927-.42-2.072.009-.7933.154-1.4887.434-2.086.28-.602.683-1.0687 1.211-1.4.527-.336 1.166-.504 1.918-.504.765 0 1.43.1867 1.995.56.569.3733.959.8843 1.169 1.533l-1.008.322c-.178-.4527-.46-.8027-.847-1.05-.383-.252-.822-.378-1.316-.378-.556 0-1.015.1283-1.379.385-.364.252-.635.6043-.812 1.057-.178.4527-.269.973-.273 1.561.009.9053.219 1.6333.63 2.184.41.546 1.022.819 1.834.819.513 0 .949-.1167 1.309-.35.364-.238.639-.5833.826-1.036l1.036.308c-.28.672-.691 1.1853-1.232 1.54-.542.35-1.188.525-1.939.525zm9.292-.21c-.425.0887-.845.1237-1.26.105-.411-.0187-.78-.1073-1.106-.266-.322-.1587-.567-.406-.735-.742-.136-.28-.21-.5623-.224-.847-.01-.2893-.014-.6183-.014-.987v-6.923h1.022v6.881c0 .3173.002.5833.007.798.009.21.058.3967.147.56.168.3127.434.4993.798.56.368.0607.823.0467 1.365-.042zm-4.956-6.678v-.882h4.956v.882zm7.145-2.317v-1.155h1.029v1.155zm0 8.995v-7.56h1.029v7.56zm6.845.21c-.752 0-1.393-.1703-1.925-.511s-.941-.812-1.225-1.414c-.285-.602-.427-1.2927-.427-2.072 0-.7933.144-1.4887.434-2.086.289-.5973.7-1.0617 1.232-1.393.536-.336 1.173-.504 1.911-.504.756 0 1.4.1703 1.932.511.536.336.945.805 1.225 1.407.284.5973.427 1.2857.427 2.065 0 .7933-.143 1.491-.427 2.093-.285.5973-.696 1.064-1.232 1.4-.537.336-1.179.504-1.925.504zm0-.987c.84 0 1.465-.2777 1.876-.833.41-.56.616-1.2857.616-2.177 0-.9147-.208-1.6427-.623-2.184-.411-.5413-1.034-.812-1.869-.812-.565 0-1.032.1283-1.4.385-.364.252-.637.6043-.819 1.057-.178.448-.266.966-.266 1.554 0 .91.21 1.6403.63 2.191.42.546 1.038.819 1.855.819zm11.148.777v-3.857c0-.42-.04-.805-.119-1.155-.079-.3547-.208-.6627-.385-.924-.173-.266-.399-.4713-.679-.616-.275-.1447-.611-.217-1.008-.217-.364 0-.686.063-.966.189-.275.126-.509.308-.7.546-.187.2333-.329.518-.427.854s-.147.7187-.147 1.148l-.728-.161c0-.7747.135-1.4257.406-1.953s.644-.9263 1.12-1.197 1.022-.406 1.638-.406c.453 0 .847.07 1.183.21.341.14.628.329.861.567.238.238.429.511.574.819.145.3033.25.6277.315.973.065.3407.098.6813.098 1.022v4.158zm-5.467 0v-7.56h.931v1.862h.105v5.698zm12.991 0v-8.12c0-.196.01-.3897.028-.581.024-.1913.068-.3733.133-.546.066-.1773.168-.3407.308-.49.154-.168.322-.2893.504-.364.182-.0793.371-.1307.567-.154.201-.0233.397-.035.588-.035h.966v.868h-.896c-.392 0-.686.0957-.882.287-.191.1913-.287.4923-.287.903v8.232zm-1.309-6.678v-.882h4.403v.882zm9.009 6.888c-.738 0-1.377-.1633-1.918-.49-.537-.3267-.955-.7863-1.253-1.379-.299-.5927-.448-1.288-.448-2.086 0-.826.147-1.54.441-2.142s.707-1.0663 1.239-1.393c.536-.3267 1.169-.49 1.897-.49.746 0 1.383.1727 1.911.518.527.3407.926.8307 1.197 1.47.27.6393.394 1.4023.371 2.289h-1.05v-.364c-.019-.98-.231-1.7197-.637-2.219-.402-.4993-.99-.749-1.764-.749-.812 0-1.435.2637-1.869.791-.43.5273-.644 1.2787-.644 2.254 0 .952.214 1.6917.644 2.219.434.5227 1.047.784 1.841.784.541 0 1.012-.1237 1.414-.371.406-.252.725-.6137.959-1.085l.959.371c-.299.658-.74 1.169-1.323 1.533-.579.3593-1.235.539-1.967.539zm-2.891-3.703v-.861h5.775v.861zm11.64 3.703c-.737 0-1.377-.1633-1.918-.49-.537-.3267-.954-.7863-1.253-1.379s-.448-1.288-.448-2.086c0-.826.147-1.54.441-2.142s.707-1.0663 1.239-1.393c.537-.3267 1.169-.49 1.897-.49.747 0 1.384.1727 1.911.518.527.3407.926.8307 1.197 1.47s.394 1.4023.371 2.289h-1.05v-.364c-.019-.98-.231-1.7197-.637-2.219-.401-.4993-.989-.749-1.764-.749-.812 0-1.435.2637-1.869.791-.429.5273-.644 1.2787-.644 2.254 0 .952.215 1.6917.644 2.219.434.5227 1.048.784 1.841.784.541 0 1.013-.1237 1.414-.371.406-.252.726-.6137.959-1.085l.959.371c-.299.658-.74 1.169-1.323 1.533-.579.3593-1.234.539-1.967.539zm-2.891-3.703v-.861h5.775v.861zm8.266 6.006-.756-.602c.537-.6253.985-1.295 1.344-2.009.364-.7187.637-1.4583.819-2.219.187-.7653.282-1.533.287-2.303-.005-.7793-.098-1.547-.28-2.303-.177-.756-.448-1.4887-.812-2.198-.364-.714-.817-1.3953-1.358-2.044l.756-.588c.551.63 1.022 1.3323 1.414 2.107.397.7747.7 1.5913.91 2.45.215.854.32 1.7127.315 2.576.005.8633-.1 1.722-.315 2.576-.21.854-.513 1.6683-.91 2.443-.392.7793-.863 1.484-1.414 2.114z" fill="url(#D)"/><path d="m644.777 43.993.007-.938 4.557-4.116c.392-.3547.651-.6907.777-1.008.131-.322.196-.658.196-1.008 0-.4153-.098-.791-.294-1.127s-.46-.602-.791-.798c-.331-.2007-.702-.301-1.113-.301-.429 0-.812.1027-1.148.308s-.602.476-.798.812c-.191.336-.285.7023-.28 1.099h-1.05c0-.6113.145-1.1597.434-1.645s.681-.8657 1.176-1.141c.495-.28 1.055-.42 1.68-.42.611 0 1.16.1447 1.645.434.49.2847.875.672 1.155 1.162.285.4853.427 1.0267.427 1.624 0 .42-.051.791-.154 1.113-.098.3173-.254.6137-.469.889-.21.2707-.478.5507-.805.84l-4.046 3.654-.161-.42h5.635v.987zm9.02.007v-1.197h1.197v1.197zm6.894.21c-.523 0-1.006-.1073-1.449-.322s-.821-.511-1.134-.889-.537-.812-.672-1.302l.987-.266c.089.364.25.679.483.945.233.2613.506.4643.819.609.317.1447.649.217.994.217.448 0 .849-.1073 1.204-.322.359-.2193.644-.5087.854-.868s.315-.7537.315-1.183c0-.4433-.11-.8423-.329-1.197-.219-.3593-.509-.644-.868-.854s-.751-.315-1.176-.315c-.476 0-.887.105-1.232.315-.345.2053-.621.4643-.826.777l-.938-.392.308-5.243h5.383v.987h-4.928l.511-.483-.273 4.473-.259-.343c.289-.3313.639-.5903 1.05-.777s.842-.28 1.295-.28c.621 0 1.181.1493 1.68.448.499.294.896.693 1.19 1.197s.441 1.0663.441 1.687c0 .616-.156 1.1807-.469 1.694-.313.5087-.728.917-1.246 1.225s-1.09.462-1.715.462zm6.645-.21-.7-.7 9.401-9.38.7.693zm7.301.21c-.462 0-.884-.112-1.267-.336-.378-.2287-.681-.532-.91-.91-.228-.3827-.343-.8073-.343-1.274 0-.4573.117-.8773.35-1.26.234-.3827.542-.6883.924-.917.383-.2287.798-.343 1.246-.343.462 0 .885.1143 1.267.343.383.224.686.5273.91.91.229.378.343.8003.343 1.267s-.114.8913-.343 1.274c-.224.378-.527.6813-.91.91-.382.224-.805.336-1.267.336zm0-.931c.285 0 .549-.0723.791-.217.243-.1447.437-.336.581-.574.145-.2427.217-.5087.217-.798s-.072-.553-.217-.791c-.144-.2427-.338-.4363-.581-.581-.242-.1447-.506-.217-.791-.217-.289 0-.555.0723-.798.217-.238.1447-.431.3383-.581.581-.144.238-.217.5017-.217.791s.073.5553.217.798c.15.238.343.4293.581.574.243.1447.509.217.798.217zm-5.901-4.529c-.462 0-.884-.112-1.267-.336-.382-.2287-.688-.532-.917-.91-.224-.3827-.336-.8073-.336-1.274 0-.4573.117-.8773.35-1.26.234-.3827.542-.6883.924-.917.383-.2287.798-.343 1.246-.343.462 0 .882.1143 1.26.343.383.224.689.5273.917.91.229.378.343.8003.343 1.267s-.114.8913-.343 1.274c-.228.378-.534.6813-.917.91-.378.224-.798.336-1.26.336zm0-.931c.29 0 .553-.0723.791-.217.243-.1447.437-.336.581-.574.145-.2427.217-.5087.217-.798s-.072-.553-.217-.791c-.144-.2427-.338-.4363-.581-.581-.238-.1447-.501-.217-.791-.217-.289 0-.555.0723-.798.217-.238.1447-.429.3383-.574.581-.144.238-.217.5017-.217.791s.073.5553.217.798c.145.238.336.4293.574.574.243.1447.509.217.798.217zm17.781 8.694c-.551-.63-1.024-1.3347-1.421-2.114-.392-.7747-.695-1.589-.91-2.443-.21-.854-.313-1.7127-.308-2.576-.005-.8633.098-1.722.308-2.576.215-.8587.518-1.6753.91-2.45.397-.7747.87-1.477 1.421-2.107l.756.588c-.541.6487-.994 1.33-1.358 2.044-.364.7093-.637 1.442-.819 2.198-.177.756-.268 1.5237-.273 2.303.005.77.098 1.5377.28 2.303.187.7607.46 1.5003.819 2.219.364.714.814 1.3837 1.351 2.009zm7.018-2.513c-.425.0887-.845.1237-1.26.105-.411-.0187-.779-.1073-1.106-.266-.322-.1587-.567-.406-.735-.742-.135-.28-.21-.5623-.224-.847-.009-.2893-.014-.6183-.014-.987v-6.923h1.022v6.881c0 .3173.002.5833.007.798.009.21.058.3967.147.56.168.3127.434.4993.798.56.369.0607.824.0467 1.365-.042zm-4.956-6.678v-.882h4.956v.882zm7.005 6.678v-7.56h.924v1.82l-.182-.238c.084-.224.194-.4293.329-.616.136-.1913.283-.3477.441-.469.196-.1727.425-.3033.686-.392.262-.0933.525-.147.791-.161.266-.0187.509 0 .728.056v.966c-.275-.07-.576-.0863-.903-.049-.326.0373-.627.168-.903.392-.252.196-.441.4317-.567.707-.126.2707-.21.56-.252.868-.042.3033-.063.6043-.063.903v3.773zm7.481.21c-.569 0-1.047-.1027-1.435-.308-.382-.2053-.669-.4783-.861-.819-.191-.3407-.287-.7117-.287-1.113 0-.4107.082-.7607.245-1.05.168-.294.395-.5343.679-.721.29-.1867.623-.329 1.001-.427.383-.0933.805-.175 1.267-.245.467-.0747.922-.1377 1.365-.189.448-.056.84-.1097 1.176-.161l-.364.224c.014-.7467-.13-1.2997-.434-1.659-.303-.3593-.83-.539-1.582-.539-.518 0-.956.1167-1.316.35-.354.2333-.604.602-.749 1.106l-1.001-.294c.173-.6767.521-1.2017 1.043-1.575.523-.3733 1.202-.56 2.037-.56.691 0 1.277.1307 1.757.392.486.2567.829.63 1.029 1.12.094.2193.154.4643.182.735s.042.546.042.826v4.697h-.917v-1.897l.266.112c-.256.6487-.655 1.1433-1.197 1.484-.541.3407-1.19.511-1.946.511zm.119-.889c.481 0 .901-.0863 1.26-.259.36-.1727.649-.4083.868-.707.22-.3033.362-.644.427-1.022.056-.2427.087-.5087.091-.798.005-.294.007-.5133.007-.658l.392.203c-.35.0467-.73.0933-1.141.14-.406.0467-.807.1003-1.204.161-.392.0607-.746.133-1.064.217-.214.0607-.422.147-.623.259-.2.1073-.366.252-.497.434-.126.182-.189.4083-.189.679 0 .2193.054.4317.161.637.112.2053.29.3757.532.511.248.1353.574.203.98.203zm11.518.679v-3.857c0-.42-.04-.805-.119-1.155-.08-.3547-.208-.6627-.385-.924-.173-.266-.399-.4713-.679-.616-.276-.1447-.612-.217-1.008-.217-.364 0-.686.063-.966.189-.276.126-.509.308-.7.546-.187.2333-.329.518-.427.854s-.147.7187-.147 1.148l-.728-.161c0-.7747.135-1.4257.406-1.953.27-.5273.644-.9263 1.12-1.197s1.022-.406 1.638-.406c.452 0 .847.07 1.183.21.34.14.627.329.861.567.238.238.429.511.574.819.144.3033.249.6277.315.973.065.3407.098.6813.098 1.022v4.158zm-5.467 0v-7.56h.931v1.862h.105v5.698zm11.7.203c-.887 0-1.617-.1913-2.191-.574-.569-.3827-.919-.9147-1.05-1.596l1.05-.175c.112.4293.366.7723.763 1.029.401.252.896.378 1.484.378.574 0 1.027-.119 1.358-.357.331-.2427.497-.5717.497-.987 0-.2333-.054-.4223-.161-.567-.103-.1493-.315-.287-.637-.413s-.803-.2753-1.442-.448c-.686-.1867-1.223-.3733-1.61-.56s-.663-.4013-.826-.644c-.163-.2473-.245-.5483-.245-.903 0-.4293.121-.805.364-1.127.243-.3267.579-.5787 1.008-.756.429-.182.929-.273 1.498-.273s1.078.0933 1.526.28c.453.182.817.4387 1.092.77s.439.7163.49 1.155l-1.05.189c-.07-.4433-.292-.7933-.665-1.05-.369-.2613-.838-.3967-1.407-.406-.537-.014-.973.0887-1.309.308-.336.2147-.504.5017-.504.861 0 .2007.061.3733.182.518.121.14.341.273.658.399.322.126.779.2637 1.372.413.695.1773 1.241.364 1.638.56s.679.427.847.693.252.595.252.987c0 .714-.266 1.2763-.798 1.687-.527.406-1.255.609-2.184.609zm7.258.007c-.57 0-1.048-.1027-1.435-.308-.383-.2053-.67-.4783-.861-.819-.192-.3407-.287-.7117-.287-1.113 0-.4107.081-.7607.245-1.05.168-.294.394-.5343.679-.721.289-.1867.623-.329 1.001-.427.382-.0933.805-.175 1.267-.245.466-.0747.921-.1377 1.365-.189.448-.056.84-.1097 1.176-.161l-.364.224c.014-.7467-.131-1.2997-.434-1.659-.304-.3593-.831-.539-1.582-.539-.518 0-.957.1167-1.316.35-.355.2333-.605.602-.749 1.106l-1.001-.294c.172-.6767.52-1.2017 1.043-1.575.522-.3733 1.201-.56 2.037-.56.69 0 1.276.1307 1.757.392.485.2567.828.63 1.029 1.12.093.2193.154.4643.182.735s.042.546.042.826v4.697h-.917v-1.897l.266.112c-.257.6487-.656 1.1433-1.197 1.484-.542.3407-1.19.511-1.946.511zm.119-.889c.48 0 .9-.0863 1.26-.259.359-.1727.648-.4083.868-.707.219-.3033.361-.644.427-1.022.056-.2427.086-.5087.091-.798.004-.294.007-.5133.007-.658l.392.203c-.35.0467-.731.0933-1.141.14-.406.0467-.808.1003-1.204.161-.392.0607-.747.133-1.064.217-.215.0607-.423.147-.623.259-.201.1073-.367.252-.497.434-.126.182-.189.4083-.189.679 0 .2193.053.4317.161.637.112.2053.289.3757.532.511.247.1353.574.203.98.203zm9.193.889c-.761 0-1.405-.1703-1.932-.511-.528-.3407-.929-.8097-1.204-1.407-.271-.602-.411-1.2927-.42-2.072.009-.7933.154-1.4887.434-2.086.28-.602.683-1.0687 1.211-1.4.527-.336 1.166-.504 1.918-.504.765 0 1.43.1867 1.995.56.569.3733.959.8843 1.169 1.533l-1.008.322c-.178-.4527-.46-.8027-.847-1.05-.383-.252-.822-.378-1.316-.378-.556 0-1.015.1283-1.379.385-.364.252-.635.6043-.812 1.057-.178.4527-.269.973-.273 1.561.009.9053.219 1.6333.63 2.184.41.546 1.022.819 1.834.819.513 0 .949-.1167 1.309-.35.364-.238.639-.5833.826-1.036l1.036.308c-.28.672-.691 1.1853-1.232 1.54-.542.35-1.188.525-1.939.525zm9.292-.21c-.425.0887-.845.1237-1.26.105-.411-.0187-.78-.1073-1.106-.266-.322-.1587-.567-.406-.735-.742-.136-.28-.21-.5623-.224-.847-.01-.2893-.014-.6183-.014-.987v-6.923h1.022v6.881c0 .3173.002.5833.007.798.009.21.058.3967.147.56.168.3127.434.4993.798.56.368.0607.823.0467 1.365-.042zm-4.956-6.678v-.882h4.956v.882zm7.145-2.317v-1.155h1.029v1.155zm0 8.995v-7.56h1.029v7.56zm6.845.21c-.752 0-1.393-.1703-1.925-.511s-.941-.812-1.225-1.414c-.285-.602-.427-1.2927-.427-2.072 0-.7933.144-1.4887.434-2.086.289-.5973.7-1.0617 1.232-1.393.536-.336 1.173-.504 1.911-.504.756 0 1.4.1703 1.932.511.536.336.945.805 1.225 1.407.284.5973.427 1.2857.427 2.065 0 .7933-.143 1.491-.427 2.093-.285.5973-.696 1.064-1.232 1.4-.537.336-1.179.504-1.925.504zm0-.987c.84 0 1.465-.2777 1.876-.833.41-.56.616-1.2857.616-2.177 0-.9147-.208-1.6427-.623-2.184-.411-.5413-1.034-.812-1.869-.812-.565 0-1.032.1283-1.4.385-.364.252-.637.6043-.819 1.057-.178.448-.266.966-.266 1.554 0 .91.21 1.6403.63 2.191.42.546 1.038.819 1.855.819zm11.148.777v-3.857c0-.42-.04-.805-.119-1.155-.079-.3547-.208-.6627-.385-.924-.173-.266-.399-.4713-.679-.616-.275-.1447-.611-.217-1.008-.217-.364 0-.686.063-.966.189-.275.126-.509.308-.7.546-.187.2333-.329.518-.427.854s-.147.7187-.147 1.148l-.728-.161c0-.7747.135-1.4257.406-1.953s.644-.9263 1.12-1.197 1.022-.406 1.638-.406c.453 0 .847.07 1.183.21.341.14.628.329.861.567.238.238.429.511.574.819.145.3033.25.6277.315.973.065.3407.098.6813.098 1.022v4.158zm-5.467 0v-7.56h.931v1.862h.105v5.698zm12.991 0v-8.12c0-.196.01-.3897.028-.581.024-.1913.068-.3733.133-.546.066-.1773.168-.3407.308-.49.154-.168.322-.2893.504-.364.182-.0793.371-.1307.567-.154.201-.0233.397-.035.588-.035h.966v.868h-.896c-.392 0-.686.0957-.882.287-.191.1913-.287.4923-.287.903v8.232zm-1.309-6.678v-.882h4.403v.882zm9.009 6.888c-.738 0-1.377-.1633-1.918-.49-.537-.3267-.955-.7863-1.253-1.379-.299-.5927-.448-1.288-.448-2.086 0-.826.147-1.54.441-2.142s.707-1.0663 1.239-1.393c.536-.3267 1.169-.49 1.897-.49.746 0 1.383.1727 1.911.518.527.3407.926.8307 1.197 1.47.27.6393.394 1.4023.371 2.289h-1.05v-.364c-.019-.98-.231-1.7197-.637-2.219-.402-.4993-.99-.749-1.764-.749-.812 0-1.435.2637-1.869.791-.43.5273-.644 1.2787-.644 2.254 0 .952.214 1.6917.644 2.219.434.5227 1.047.784 1.841.784.541 0 1.012-.1237 1.414-.371.406-.252.725-.6137.959-1.085l.959.371c-.299.658-.74 1.169-1.323 1.533-.579.3593-1.235.539-1.967.539zm-2.891-3.703v-.861h5.775v.861zm11.64 3.703c-.737 0-1.377-.1633-1.918-.49-.537-.3267-.954-.7863-1.253-1.379s-.448-1.288-.448-2.086c0-.826.147-1.54.441-2.142s.707-1.0663 1.239-1.393c.537-.3267 1.169-.49 1.897-.49.747 0 1.384.1727 1.911.518.527.3407.926.8307 1.197 1.47s.394 1.4023.371 2.289h-1.05v-.364c-.019-.98-.231-1.7197-.637-2.219-.401-.4993-.989-.749-1.764-.749-.812 0-1.435.2637-1.869.791-.429.5273-.644 1.2787-.644 2.254 0 .952.215 1.6917.644 2.219.434.5227 1.048.784 1.841.784.541 0 1.013-.1237 1.414-.371.406-.252.726-.6137.959-1.085l.959.371c-.299.658-.74 1.169-1.323 1.533-.579.3593-1.234.539-1.967.539zm-2.891-3.703v-.861h5.775v.861zm8.266 6.006-.756-.602c.537-.6253.985-1.295 1.344-2.009.364-.7187.637-1.4583.819-2.219.187-.7653.282-1.533.287-2.303-.005-.7793-.098-1.547-.28-2.303-.177-.756-.448-1.4887-.812-2.198-.364-.714-.817-1.3953-1.358-2.044l.756-.588c.551.63 1.022 1.3323 1.414 2.107.397.7747.7 1.5913.91 2.45.215.854.32 1.7127.315 2.576.005.8633-.1 1.722-.315 2.576-.21.854-.513 1.6683-.91 2.443-.392.7793-.863 1.484-1.414 2.114z" fill="url(#E)"/><path d="m892.777 43.993.007-.938 4.557-4.116c.392-.3547.651-.6907.777-1.008.131-.322.196-.658.196-1.008 0-.4153-.098-.791-.294-1.127s-.46-.602-.791-.798c-.331-.2007-.702-.301-1.113-.301-.429 0-.812.1027-1.148.308s-.602.476-.798.812c-.191.336-.285.7023-.28 1.099h-1.05c0-.6113.145-1.1597.434-1.645s.681-.8657 1.176-1.141c.495-.28 1.055-.42 1.68-.42.611 0 1.16.1447 1.645.434.49.2847.875.672 1.155 1.162.285.4853.427 1.0267.427 1.624 0 .42-.051.791-.154 1.113-.098.3173-.254.6137-.469.889-.21.2707-.478.5507-.805.84l-4.046 3.654-.161-.42h5.635v.987zm9.02.007v-1.197h1.197v1.197zm6.894.21c-.523 0-1.006-.1073-1.449-.322s-.821-.511-1.134-.889-.537-.812-.672-1.302l.987-.266c.089.364.25.679.483.945.233.2613.506.4643.819.609.317.1447.649.217.994.217.448 0 .849-.1073 1.204-.322.359-.2193.644-.5087.854-.868s.315-.7537.315-1.183c0-.4433-.11-.8423-.329-1.197-.219-.3593-.509-.644-.868-.854s-.751-.315-1.176-.315c-.476 0-.887.105-1.232.315-.345.2053-.621.4643-.826.777l-.938-.392.308-5.243h5.383v.987h-4.928l.511-.483-.273 4.473-.259-.343c.289-.3313.639-.5903 1.05-.777s.842-.28 1.295-.28c.621 0 1.181.1493 1.68.448.499.294.896.693 1.19 1.197s.441 1.0663.441 1.687c0 .616-.156 1.1807-.469 1.694-.313.5087-.728.917-1.246 1.225s-1.09.462-1.715.462zm6.645-.21-.7-.7 9.401-9.38.7.693zm7.301.21c-.462 0-.884-.112-1.267-.336-.378-.2287-.681-.532-.91-.91-.228-.3827-.343-.8073-.343-1.274 0-.4573.117-.8773.35-1.26.234-.3827.542-.6883.924-.917.383-.2287.798-.343 1.246-.343.462 0 .885.1143 1.267.343.383.224.686.5273.91.91.229.378.343.8003.343 1.267s-.114.8913-.343 1.274c-.224.378-.527.6813-.91.91-.382.224-.805.336-1.267.336zm0-.931c.285 0 .549-.0723.791-.217.243-.1447.437-.336.581-.574.145-.2427.217-.5087.217-.798s-.072-.553-.217-.791c-.144-.2427-.338-.4363-.581-.581-.242-.1447-.506-.217-.791-.217-.289 0-.555.0723-.798.217-.238.1447-.431.3383-.581.581-.144.238-.217.5017-.217.791s.073.5553.217.798c.15.238.343.4293.581.574.243.1447.509.217.798.217zm-5.901-4.529c-.462 0-.884-.112-1.267-.336-.382-.2287-.688-.532-.917-.91-.224-.3827-.336-.8073-.336-1.274 0-.4573.117-.8773.35-1.26.234-.3827.542-.6883.924-.917.383-.2287.798-.343 1.246-.343.462 0 .882.1143 1.26.343.383.224.689.5273.917.91.229.378.343.8003.343 1.267s-.114.8913-.343 1.274c-.228.378-.534.6813-.917.91-.378.224-.798.336-1.26.336zm0-.931c.29 0 .553-.0723.791-.217.243-.1447.437-.336.581-.574.145-.2427.217-.5087.217-.798s-.072-.553-.217-.791c-.144-.2427-.338-.4363-.581-.581-.238-.1447-.501-.217-.791-.217-.289 0-.555.0723-.798.217-.238.1447-.429.3383-.574.581-.144.238-.217.5017-.217.791s.073.5553.217.798c.145.238.336.4293.574.574.243.1447.509.217.798.217zm17.781 8.694c-.551-.63-1.024-1.3347-1.421-2.114-.392-.7747-.695-1.589-.91-2.443-.21-.854-.313-1.7127-.308-2.576-.005-.8633.098-1.722.308-2.576.215-.8587.518-1.6753.91-2.45.397-.7747.87-1.477 1.421-2.107l.756.588c-.541.6487-.994 1.33-1.358 2.044-.364.7093-.637 1.442-.819 2.198-.177.756-.268 1.5237-.273 2.303.005.77.098 1.5377.28 2.303.187.7607.46 1.5003.819 2.219.364.714.814 1.3837 1.351 2.009zm7.018-2.513c-.425.0887-.845.1237-1.26.105-.411-.0187-.779-.1073-1.106-.266-.322-.1587-.567-.406-.735-.742-.135-.28-.21-.5623-.224-.847-.009-.2893-.014-.6183-.014-.987v-6.923h1.022v6.881c0 .3173.002.5833.007.798.009.21.058.3967.147.56.168.3127.434.4993.798.56.369.0607.824.0467 1.365-.042zm-4.956-6.678v-.882h4.956v.882zm7.005 6.678v-7.56h.924v1.82l-.182-.238c.084-.224.194-.4293.329-.616.136-.1913.283-.3477.441-.469.196-.1727.425-.3033.686-.392.262-.0933.525-.147.791-.161.266-.0187.509 0 .728.056v.966c-.275-.07-.576-.0863-.903-.049-.326.0373-.627.168-.903.392-.252.196-.441.4317-.567.707-.126.2707-.21.56-.252.868-.042.3033-.063.6043-.063.903v3.773zm7.481.21c-.569 0-1.047-.1027-1.435-.308-.382-.2053-.669-.4783-.861-.819-.191-.3407-.287-.7117-.287-1.113 0-.4107.082-.7607.245-1.05.168-.294.395-.5343.679-.721.29-.1867.623-.329 1.001-.427.383-.0933.805-.175 1.267-.245.467-.0747.922-.1377 1.365-.189.448-.056.84-.1097 1.176-.161l-.364.224c.014-.7467-.13-1.2997-.434-1.659-.303-.3593-.83-.539-1.582-.539-.518 0-.956.1167-1.316.35-.354.2333-.604.602-.749 1.106l-1.001-.294c.173-.6767.521-1.2017 1.043-1.575.523-.3733 1.202-.56 2.037-.56.691 0 1.277.1307 1.757.392.486.2567.829.63 1.029 1.12.094.2193.154.4643.182.735s.042.546.042.826v4.697h-.917v-1.897l.266.112c-.256.6487-.655 1.1433-1.197 1.484-.541.3407-1.19.511-1.946.511zm.119-.889c.481 0 .901-.0863 1.26-.259.36-.1727.649-.4083.868-.707.22-.3033.362-.644.427-1.022.056-.2427.087-.5087.091-.798.005-.294.007-.5133.007-.658l.392.203c-.35.0467-.73.0933-1.141.14-.406.0467-.807.1003-1.204.161-.392.0607-.746.133-1.064.217-.214.0607-.422.147-.623.259-.2.1073-.366.252-.497.434-.126.182-.189.4083-.189.679 0 .2193.054.4317.161.637.112.2053.29.3757.532.511.248.1353.574.203.98.203zm11.518.679v-3.857c0-.42-.04-.805-.119-1.155-.08-.3547-.208-.6627-.385-.924-.173-.266-.399-.4713-.679-.616-.276-.1447-.612-.217-1.008-.217-.364 0-.686.063-.966.189-.276.126-.509.308-.7.546-.187.2333-.329.518-.427.854s-.147.7187-.147 1.148l-.728-.161c0-.7747.135-1.4257.406-1.953.27-.5273.644-.9263 1.12-1.197s1.022-.406 1.638-.406c.452 0 .847.07 1.183.21.34.14.627.329.861.567.238.238.429.511.574.819.144.3033.249.6277.315.973.065.3407.098.6813.098 1.022v4.158zm-5.467 0v-7.56h.931v1.862h.105v5.698zm11.7.203c-.887 0-1.617-.1913-2.191-.574-.569-.3827-.919-.9147-1.05-1.596l1.05-.175c.112.4293.366.7723.763 1.029.401.252.896.378 1.484.378.574 0 1.027-.119 1.358-.357.331-.2427.497-.5717.497-.987 0-.2333-.054-.4223-.161-.567-.103-.1493-.315-.287-.637-.413s-.803-.2753-1.442-.448c-.686-.1867-1.223-.3733-1.61-.56s-.663-.4013-.826-.644c-.163-.2473-.245-.5483-.245-.903 0-.4293.121-.805.364-1.127.243-.3267.579-.5787 1.008-.756.429-.182.929-.273 1.498-.273s1.078.0933 1.526.28c.453.182.817.4387 1.092.77s.439.7163.49 1.155l-1.05.189c-.07-.4433-.292-.7933-.665-1.05-.369-.2613-.838-.3967-1.407-.406-.537-.014-.973.0887-1.309.308-.336.2147-.504.5017-.504.861 0 .2007.061.3733.182.518.121.14.341.273.658.399.322.126.779.2637 1.372.413.695.1773 1.241.364 1.638.56s.679.427.847.693.252.595.252.987c0 .714-.266 1.2763-.798 1.687-.527.406-1.255.609-2.184.609zm7.258.007c-.57 0-1.048-.1027-1.435-.308-.383-.2053-.67-.4783-.861-.819-.192-.3407-.287-.7117-.287-1.113 0-.4107.081-.7607.245-1.05.168-.294.394-.5343.679-.721.289-.1867.623-.329 1.001-.427.382-.0933.805-.175 1.267-.245.466-.0747.921-.1377 1.365-.189.448-.056.84-.1097 1.176-.161l-.364.224c.014-.7467-.131-1.2997-.434-1.659-.304-.3593-.831-.539-1.582-.539-.518 0-.957.1167-1.316.35-.355.2333-.605.602-.749 1.106l-1.001-.294c.172-.6767.52-1.2017 1.043-1.575.522-.3733 1.201-.56 2.037-.56.69 0 1.276.1307 1.757.392.485.2567.828.63 1.029 1.12.093.2193.154.4643.182.735s.042.546.042.826v4.697h-.917v-1.897l.266.112c-.257.6487-.656 1.1433-1.197 1.484-.542.3407-1.19.511-1.946.511zm.119-.889c.48 0 .9-.0863 1.26-.259.359-.1727.648-.4083.868-.707.219-.3033.361-.644.427-1.022.056-.2427.086-.5087.091-.798.004-.294.007-.5133.007-.658l.392.203c-.35.0467-.731.0933-1.141.14-.406.0467-.808.1003-1.204.161-.392.0607-.747.133-1.064.217-.215.0607-.423.147-.623.259-.201.1073-.367.252-.497.434-.126.182-.189.4083-.189.679 0 .2193.053.4317.161.637.112.2053.289.3757.532.511.247.1353.574.203.98.203zm9.193.889c-.761 0-1.405-.1703-1.932-.511-.528-.3407-.929-.8097-1.204-1.407-.271-.602-.411-1.2927-.42-2.072.009-.7933.154-1.4887.434-2.086.28-.602.683-1.0687 1.211-1.4.527-.336 1.166-.504 1.918-.504.765 0 1.43.1867 1.995.56.569.3733.959.8843 1.169 1.533l-1.008.322c-.178-.4527-.46-.8027-.847-1.05-.383-.252-.822-.378-1.316-.378-.556 0-1.015.1283-1.379.385-.364.252-.635.6043-.812 1.057-.178.4527-.269.973-.273 1.561.009.9053.219 1.6333.63 2.184.41.546 1.022.819 1.834.819.513 0 .949-.1167 1.309-.35.364-.238.639-.5833.826-1.036l1.036.308c-.28.672-.691 1.1853-1.232 1.54-.542.35-1.188.525-1.939.525zm9.292-.21c-.425.0887-.845.1237-1.26.105-.411-.0187-.78-.1073-1.106-.266-.322-.1587-.567-.406-.735-.742-.136-.28-.21-.5623-.224-.847-.01-.2893-.014-.6183-.014-.987v-6.923h1.022v6.881c0 .3173.002.5833.007.798.009.21.058.3967.147.56.168.3127.434.4993.798.56.368.0607.823.0467 1.365-.042zm-4.956-6.678v-.882h4.956v.882zm7.145-2.317v-1.155h1.029v1.155zm0 8.995v-7.56h1.029v7.56zm6.844.21c-.75 0-1.39-.1703-1.92-.511-.54-.3407-.94-.812-1.23-1.414-.28-.602-.43-1.2927-.43-2.072 0-.7933.15-1.4887.44-2.086s.7-1.0617 1.23-1.393c.54-.336 1.17-.504 1.91-.504.76 0 1.4.1703 1.93.511.54.336.95.805 1.23 1.407.28.5973.42 1.2857.42 2.065 0 .7933-.14 1.491-.42 2.093-.29.5973-.7 1.064-1.23 1.4-.54.336-1.18.504-1.93.504zm0-.987c.84 0 1.47-.2777 1.88-.833.41-.56.61-1.2857.61-2.177 0-.9147-.2-1.6427-.62-2.184-.41-.5413-1.03-.812-1.87-.812-.56 0-1.03.1283-1.4.385-.36.252-.64.6043-.82 1.057-.18.448-.26.966-.26 1.554 0 .91.21 1.6403.63 2.191.42.546 1.03.819 1.85.819zm11.15.777v-3.857c0-.42-.04-.805-.12-1.155-.08-.3547-.21-.6627-.39-.924-.17-.266-.39-.4713-.67-.616s-.62-.217-1.01-.217c-.37 0-.69.063-.97.189-.27.126-.51.308-.7.546-.18.2333-.33.518-.43.854-.09.336-.14.7187-.14 1.148l-.73-.161c0-.7747.14-1.4257.41-1.953s.64-.9263 1.12-1.197c.47-.2707 1.02-.406 1.63-.406.46 0 .85.07 1.19.21s.62.329.86.567.43.511.57.819c.15.3033.25.6277.32.973.06.3407.09.6813.09 1.022v4.158zm-5.47 0v-7.56h.93v1.862h.11v5.698zm12.99 0v-8.12c0-.196.01-.3897.03-.581s.07-.3733.13-.546c.07-.1773.17-.3407.31-.49.16-.168.32-.2893.51-.364.18-.0793.37-.1307.56-.154.2-.0233.4-.035.59-.035h.97v.868h-.9c-.39 0-.68.0957-.88.287-.19.1913-.29.4923-.29.903v8.232zm-1.31-6.678v-.882h4.41v.882zm9.01 6.888c-.73 0-1.37-.1633-1.92-.49-.53-.3267-.95-.7863-1.25-1.379s-.45-1.288-.45-2.086c0-.826.15-1.54.44-2.142.3-.602.71-1.0663 1.24-1.393.54-.3267 1.17-.49 1.9-.49.75 0 1.38.1727 1.91.518.53.3407.93.8307 1.2 1.47s.39 1.4023.37 2.289h-1.05v-.364c-.02-.98-.23-1.7197-.64-2.219-.4-.4993-.99-.749-1.76-.749-.81 0-1.44.2637-1.87.791s-.64 1.2787-.64 2.254c0 .952.21 1.6917.64 2.219.43.5227 1.05.784 1.84.784.54 0 1.01-.1237 1.41-.371.41-.252.73-.6137.96-1.085l.96.371c-.3.658-.74 1.169-1.32 1.533-.58.3593-1.23.539-1.97.539zm-2.89-3.703v-.861h5.78v.861zm11.64 3.703c-.74 0-1.37-.1633-1.92-.49-.53-.3267-.95-.7863-1.25-1.379s-.45-1.288-.45-2.086c0-.826.15-1.54.44-2.142.3-.602.71-1.0663 1.24-1.393.54-.3267 1.17-.49 1.9-.49.75 0 1.38.1727 1.91.518.53.3407.93.8307 1.2 1.47s.39 1.4023.37 2.289h-1.05v-.364c-.02-.98-.23-1.7197-.64-2.219-.4-.4993-.99-.749-1.76-.749-.81 0-1.44.2637-1.87.791s-.64 1.2787-.64 2.254c0 .952.21 1.6917.64 2.219.43.5227 1.05.784 1.84.784.54 0 1.01-.1237 1.41-.371.41-.252.73-.6137.96-1.085l.96.371c-.3.658-.74 1.169-1.32 1.533-.58.3593-1.24.539-1.97.539zm-2.89-3.703v-.861h5.78v.861zm8.27 6.006-.76-.602c.54-.6253.99-1.295 1.35-2.009.36-.7187.63-1.4583.81-2.219.19-.7653.29-1.533.29-2.303 0-.7793-.1-1.547-.28-2.303s-.45-1.4887-.81-2.198c-.36-.714-.82-1.3953-1.36-2.044l.76-.588c.55.63 1.02 1.3323 1.41 2.107.4.7747.7 1.5913.91 2.45.22.854.32 1.7127.32 2.576s-.1 1.722-.32 2.576c-.21.854-.51 1.6683-.91 2.443-.39.7793-.86 1.484-1.41 2.114z" fill="url(#F)"/><path d="m456.886 164v-15.12h1.554l8.326 12.39v-12.39h1.554v15.12h-1.554l-8.326-12.401v12.401zm15.216 0v-15.12h8.683v1.543h-7.14v5.25h5.88v1.533h-5.88v6.794zm15.443 0v-13.64h-5.281v-1.48h12.106v1.48h-5.281v13.64z" fill="#fbfaff"/><path d="m704.886 164v-15.12h1.554l8.326 12.39v-12.39h1.554v15.12h-1.554l-8.326-12.401v12.401zm15.216 0v-15.12h8.683v1.543h-7.14v5.25h5.88v1.533h-5.88v6.794zm15.443 0v-13.64h-5.281v-1.48h12.106v1.48h-5.281v13.64z" fill="#fbfaff"/><path d="m952.886 164v-15.12h1.554l8.326 12.39v-12.39h1.554v15.12h-1.554l-8.326-12.401v12.401zm15.216 0v-15.12h8.683v1.543h-7.14v5.25h5.88v1.533h-5.88v6.794zm15.443 0v-13.64h-5.281v-1.48h12.106v1.48h-5.281v13.64z" fill="#fbfaff"/></svg>