<svg fill="none" height="421" viewBox="0 0 258 421" width="258" xmlns="http://www.w3.org/2000/svg" xmlns:xlink="http://www.w3.org/1999/xlink"><linearGradient id="a"><stop offset="0" stop-color="#fff"/><stop offset="1" stop-color="#fff" stop-opacity="0"/></linearGradient><linearGradient id="b" gradientUnits="userSpaceOnUse" x1="46.2844" x2="46.2844" xlink:href="#a" y1="176" y2="136.79"/><linearGradient id="c" gradientUnits="userSpaceOnUse" x1="46.2845" x2="46.2845" xlink:href="#a" y1="176" y2="136.79"/><linearGradient id="d" gradientUnits="userSpaceOnUse" x1="52.0598" x2="52.0598" xlink:href="#a" y1="87.2012" y2="47.9915"/><linearGradient id="e" gradientUnits="userSpaceOnUse" x1="45.3754" x2="45.3754" xlink:href="#a" y1="87.2011" y2="47.9914"/><linearGradient id="f"><stop offset="0" stop-color="#0055d8"/><stop offset="1" stop-color="#2b7eff"/></linearGradient><linearGradient id="g" gradientUnits="userSpaceOnUse" x1="180" x2="251.259" xlink:href="#f" y1="211" y2="194.406"/><linearGradient id="h" gradientUnits="userSpaceOnUse" x1="8" x2="79.2589" xlink:href="#f" y1="211" y2="194.406"/><linearGradient id="i" gradientUnits="userSpaceOnUse" x1="180" x2="251.259" xlink:href="#f" y1="298.611" y2="282.017"/><linearGradient id="j" gradientUnits="userSpaceOnUse" x1="177" x2="253.662" xlink:href="#f" y1="386.221" y2="366.839"/><linearGradient id="k" gradientUnits="userSpaceOnUse" x1="91" x2="167.662" xlink:href="#f" y1="386.221" y2="366.839"/><linearGradient id="l" gradientUnits="userSpaceOnUse" x1="180" x2="253.355" xlink:href="#f" y1="128" y2="116.612"/><linearGradient id="m" gradientUnits="userSpaceOnUse" x1="86" x2="176.734" xlink:href="#f" y1="48" y2="36.1023"/><linearGradient id="n" gradientUnits="userSpaceOnUse" x1="125.226" x2="130.559" xlink:href="#a" y1="87.6661" y2="49.7197"/><linearGradient id="o" gradientUnits="userSpaceOnUse" x1="34.85" x2="40.183" xlink:href="#a" y1="175.861" y2="137.914"/><linearGradient id="p" gradientUnits="userSpaceOnUse" x1="211.226" x2="216.559" xlink:href="#a" y1="263.472" y2="225.525"/><linearGradient id="q" gradientUnits="userSpaceOnUse" x1="211.226" x2="216.559" xlink:href="#a" y1="351.082" y2="313.136"/><linearGradient id="r" gradientUnits="userSpaceOnUse" x1="130.677" x2="130.677" xlink:href="#a" y1="420.418" y2="400.93"/><linearGradient id="s" gradientUnits="userSpaceOnUse" x1="211.01" x2="216.343" xlink:href="#a" y1="175.666" y2="137.72"/><path d="m47.3912 136.097-1.5027 10.692c-.6765 4.814 3.0611 9.114 7.9222 9.114h151.7943c4.856 0 8.592 4.291 7.924 9.1l-1.736 12.497" opacity=".5" stroke="url(#b)" stroke-width=".80614"/><path d="m128.198 136.098-1.503 10.692c-.677 4.813 3.061 9.113 7.922 9.113h70.987c4.856 0 8.592 4.291 7.924 9.101l-1.736 12.496" opacity=".5" stroke="url(#c)" stroke-width=".80614"/><path d="m131.908 47.2988-1.503 10.692c-.676 4.8138 3.061 9.1134 7.922 9.1134l73.053-.0002c4.855 0 8.592 4.291 7.923 9.1008l-1.736 12.4964" opacity=".5" stroke="url(#d)" stroke-width=".80614"/><path d="m131.909 47.2988-1.815 12.9187c-.555 3.9493-3.934 6.8867-7.923 6.8867l-70.7633-.0003c-3.993-.0001-7.3745 2.9442-7.9239 6.8991l-2.0419 14.6981" opacity=".5" stroke="url(#e)" stroke-width=".80614"/><path d="m7.51083 94.5729c.68999-3.8058 4.00387-6.5729 7.87167-6.5729h61.0367c4.9896 0 8.7618 4.5176 7.8716 9.4272l-5.8016 31.9998c-.69 3.806-4.0039 6.573-7.8717 6.573h-61.03668c-4.98961 0-8.761773-4.518-7.87166-9.427z" fill="#1f1f1f"/><path d="m21.5653 115v-5.76h2.224c.3227 0 .604.067.844.2s.4267.313.56.54c.1333.224.2.472.2.744 0 .309-.0827.585-.248.828-.1653.24-.3867.407-.664.5l-.008-.196c.3733.107.6667.293.88.56s.32.589.32.968c0 .333-.0707.621-.212.864-.1413.24-.34.425-.596.556s-.5533.196-.892.196zm.592-.564h1.672c.2347 0 .4453-.041.632-.124.1867-.085.3333-.205.44-.36.1093-.155.164-.341.164-.56 0-.213-.0493-.405-.148-.576s-.2333-.307-.404-.408c-.168-.104-.36-.156-.576-.156h-1.78zm0-2.74h1.628c.184 0 .352-.041.504-.124.152-.085.272-.201.36-.348.0907-.147.136-.316.136-.508 0-.272-.0947-.493-.284-.664-.1867-.171-.4253-.256-.716-.256h-1.628zm6.2863 3.412c-.2587 0-.4854-.04-.68-.12-.192-.08-.356-.188-.492-.324-.1334-.136-.2414-.291-.324-.464-.0827-.176-.1427-.361-.18-.556-.0374-.197-.056-.393-.056-.588v-2.376h.592v2.204c0 .237.0226.457.068.66.0453.203.1173.38.216.532.1013.149.2306.265.388.348.16.083.3533.124.58.124.208 0 .3906-.036.548-.108.16-.072.2933-.175.4-.308.1093-.136.192-.3.248-.492.056-.195.084-.413.084-.656l.416.092c0 .443-.0774.815-.232 1.116-.1547.301-.368.529-.64.684s-.584.232-.936.232zm1.452-.108v-1.064h-.06v-3.256h.588v4.32zm2.582 1.92.836-2.268.012.672-1.892-4.644h.624l1.552 3.884h-.256l1.432-3.884h.6l-2.32 6.24zm4.0027-7.06v-.66h.588v.66zm0 5.14v-4.32h.588v4.32zm5.2272 0v-2.204c0-.24-.0227-.46-.068-.66-.0453-.203-.1187-.379-.22-.528-.0987-.152-.228-.269-.388-.352-.1573-.083-.3493-.124-.576-.124-.208 0-.392.036-.552.108-.1573.072-.2907.176-.4.312-.1067.133-.188.296-.244.488s-.084.411-.084.656l-.416-.092c0-.443.0773-.815.232-1.116s.368-.529.64-.684.584-.232.936-.232c.2587 0 .484.04.676.12.1947.08.3587.188.492.324.136.136.2453.292.328.468.0827.173.1427.359.18.556.0373.195.056.389.056.584v2.376zm-3.124 0v-4.32h.532v1.064h.06v3.256zm6.79 2.04c-.2213 0-.44-.033-.656-.1-.2133-.064-.4107-.167-.592-.308-.1813-.139-.3333-.32-.456-.544l.532-.296c.12.24.288.412.504.516.2187.107.4413.16.668.16.312 0 .564-.059.756-.176.1947-.115.336-.285.424-.512s.1307-.509.128-.848v-1.152h.068v-3.1h.524v4.26c0 .123-.004.24-.012.352-.0053.115-.0173.227-.036.336-.0507.323-.156.588-.316.796-.1573.208-.3653.363-.624.464-.256.101-.56.152-.912.152zm-.04-1.92c-.4027 0-.7467-.1-1.032-.3-.2853-.203-.504-.476-.656-.82s-.228-.732-.228-1.164c0-.429.0747-.816.224-1.16.152-.344.3693-.616.652-.816s.6213-.3 1.016-.3c.4053 0 .7467.099 1.024.296s.4867.468.628.812c.144.341.216.731.216 1.168 0 .429-.0707.817-.212 1.164-.1413.344-.3493.617-.624.82-.2747.2-.6107.3-1.008.3zm.06-.548c.3067 0 .56-.075.76-.224s.3493-.355.448-.616c.0987-.264.148-.563.148-.896 0-.339-.0493-.637-.148-.896-.0987-.261-.248-.465-.448-.612-.1973-.147-.4467-.22-.748-.22-.3093 0-.5653.076-.768.228s-.3533.359-.452.62c-.096.261-.144.555-.144.88 0 .328.0493.624.148.888.1013.261.252.468.452.62s.4507.228.752.228zm5.2399.428v-5.76h.592l3.172 4.72v-4.72h.592v5.76h-.592l-3.172-4.724v4.724zm5.7966 0v-5.76h3.308v.588h-2.72v2h2.24v.584h-2.24v2.588zm5.8833 0v-5.196h-2.012v-.564h4.612v.564h-2.012v5.196z" fill="#fbfaff"/><path d="m179.511 182.573c.69-3.806 4.004-6.573 7.872-6.573h61.036c4.99 0 8.762 4.518 7.872 9.427l-5.802 32c-.69 3.806-4.004 6.573-7.872 6.573h-61.036c-4.99 0-8.762-4.518-7.872-9.427z" fill="#1f1f1f"/><path d="m185.011 198v-5.76h1.748c.062 0 .166.001.312.004.15.003.292.013.428.032.438.061.803.224 1.096.488.294.264.514.6.66 1.008.147.408.22.857.22 1.348s-.073.94-.22 1.348c-.146.408-.366.744-.66 1.008-.293.264-.658.427-1.096.488-.133.016-.276.027-.428.032-.152.003-.256.004-.312.004zm.608-.564h1.14c.11 0 .227-.003.352-.008.128-.008.238-.021.328-.04.336-.059.607-.195.812-.408.208-.213.36-.48.456-.8.096-.323.144-.676.144-1.06 0-.387-.048-.741-.144-1.064s-.248-.589-.456-.8-.478-.345-.812-.404c-.09-.019-.201-.031-.332-.036-.128-.008-.244-.012-.348-.012h-1.14zm6.915.684c-.421 0-.786-.093-1.096-.28-.306-.187-.545-.449-.716-.788-.17-.339-.256-.736-.256-1.192 0-.472.084-.88.252-1.224s.404-.609.708-.796c.307-.187.668-.28 1.084-.28.427 0 .791.099 1.092.296.302.195.53.475.684.84.155.365.226.801.212 1.308h-.6v-.208c-.01-.56-.132-.983-.364-1.268-.229-.285-.565-.428-1.008-.428-.464 0-.82.151-1.068.452-.245.301-.368.731-.368 1.288 0 .544.123.967.368 1.268.248.299.599.448 1.052.448.31 0 .579-.071.808-.212.232-.144.415-.351.548-.62l.548.212c-.17.376-.422.668-.756.876-.33.205-.705.308-1.124.308zm-1.652-2.116v-.492h3.3v.492zm5.836 1.996-1.568-4.32h.596l1.276 3.552 1.268-3.552h.604l-1.568 4.32zm4.886.12c-.421 0-.787-.093-1.096-.28-.307-.187-.545-.449-.716-.788s-.256-.736-.256-1.192c0-.472.084-.88.252-1.224s.404-.609.708-.796c.307-.187.668-.28 1.084-.28.427 0 .791.099 1.092.296.301.195.529.475.684.84s.225.801.212 1.308h-.6v-.208c-.011-.56-.132-.983-.364-1.268-.229-.285-.565-.428-1.008-.428-.464 0-.82.151-1.068.452-.245.301-.368.731-.368 1.288 0 .544.123.967.368 1.268.248.299.599.448 1.052.448.309 0 .579-.071.808-.212.232-.144.415-.351.548-.62l.548.212c-.171.376-.423.668-.756.876-.331.205-.705.308-1.124.308zm-1.652-2.116v-.492h3.3v.492zm4.904 1.996v-5.88h.588v5.88zm3.911.12c-.43 0-.796-.097-1.1-.292s-.538-.464-.7-.808c-.163-.344-.244-.739-.244-1.184 0-.453.082-.851.248-1.192.165-.341.4-.607.704-.796.306-.192.67-.288 1.092-.288.432 0 .8.097 1.104.292.306.192.54.46.7.804.162.341.244.735.244 1.18 0 .453-.082.852-.244 1.196-.163.341-.398.608-.704.8-.307.192-.674.288-1.1.288zm0-.564c.48 0 .837-.159 1.072-.476.234-.32.352-.735.352-1.244 0-.523-.119-.939-.356-1.248-.235-.309-.591-.464-1.068-.464-.323 0-.59.073-.8.22-.208.144-.364.345-.468.604-.102.256-.152.552-.152.888 0 .52.12.937.36 1.252.24.312.593.468 1.06.468zm5.19.564c-.397 0-.733-.1-1.008-.3-.274-.203-.482-.476-.624-.82-.141-.347-.212-.735-.212-1.164 0-.437.071-.827.212-1.168.144-.344.355-.615.632-.812.278-.197.619-.296 1.024-.296.395 0 .734.1 1.016.3.283.2.499.472.648.816.152.344.228.731.228 1.16 0 .432-.076.82-.228 1.164s-.37.617-.656.82c-.285.2-.629.3-1.032.3zm-1.944 1.8v-6.24h.528v3.252h.064v2.988zm1.884-2.348c.302 0 .552-.076.752-.228s.35-.359.448-.62c.102-.264.152-.56.152-.888 0-.325-.049-.619-.148-.88-.098-.261-.249-.468-.452-.62-.2-.152-.454-.228-.764-.228-.301 0-.552.073-.752.22-.197.147-.345.351-.444.612-.098.259-.148.557-.148.896 0 .333.05.632.148.896.099.261.248.467.448.616s.454.224.76.224zm8.327.428.004-2.836c0-.333-.094-.595-.28-.784-.184-.192-.419-.288-.704-.288-.163 0-.322.037-.476.112-.155.075-.283.195-.384.36-.099.165-.148.381-.148.648l-.348-.1c-.008-.309.052-.58.18-.812.13-.232.309-.412.536-.54.229-.131.488-.196.776-.196.434 0 .782.135 1.044.404.261.267.392.628.392 1.084l-.004 2.948zm-5.156 0v-4.32h.528v1.064h.064v3.256zm2.584 0 .004-2.796c0-.344-.092-.615-.276-.812-.182-.2-.422-.3-.72-.3-.299 0-.54.103-.724.308-.184.203-.276.473-.276.812l-.352-.192c0-.277.065-.525.196-.744.13-.221.309-.395.536-.52.226-.128.484-.192.772-.192.274 0 .518.059.732.176.216.117.385.288.508.512.122.224.184.496.184.816l-.004 2.932zm6.325.12c-.421 0-.786-.093-1.096-.28-.306-.187-.545-.449-.716-.788-.17-.339-.256-.736-.256-1.192 0-.472.084-.88.252-1.224s.404-.609.708-.796c.307-.187.668-.28 1.084-.28.427 0 .791.099 1.092.296.302.195.53.475.684.84.155.365.226.801.212 1.308h-.6v-.208c-.01-.56-.132-.983-.364-1.268-.229-.285-.565-.428-1.008-.428-.464 0-.82.151-1.068.452-.245.301-.368.731-.368 1.288 0 .544.123.967.368 1.268.248.299.599.448 1.052.448.31 0 .579-.071.808-.212.232-.144.415-.351.548-.62l.548.212c-.17.376-.422.668-.756.876-.33.205-.705.308-1.124.308zm-1.652-2.116v-.492h3.3v.492zm7.827 1.996v-2.204c0-.24-.023-.46-.068-.66-.045-.203-.119-.379-.22-.528-.099-.152-.228-.269-.388-.352-.157-.083-.349-.124-.576-.124-.208 0-.392.036-.552.108-.157.072-.291.176-.4.312-.107.133-.188.296-.244.488s-.084.411-.084.656l-.416-.092c0-.443.077-.815.232-1.116s.368-.529.64-.684.584-.232.936-.232c.259 0 .484.04.676.12.195.08.359.188.492.324.136.136.245.292.328.468.083.173.143.359.18.556.037.195.056.389.056.584v2.376zm-3.124 0v-4.32h.532v1.064h.06v3.256zm7.426 0c-.243.051-.483.071-.72.06-.235-.011-.445-.061-.632-.152-.184-.091-.324-.232-.42-.424-.077-.16-.12-.321-.128-.484-.005-.165-.008-.353-.008-.564v-3.956h.584v3.932c0 .181.001.333.004.456.005.12.033.227.084.32.096.179.248.285.456.32.211.035.471.027.78-.024zm-2.832-3.816v-.504h2.832v.504zm5.845 1.548v-.504h5.28v.504z" fill="#fbfaff"/><path d="m208.639 209v-5.104l-1.084.652v-.66l1.084-.648h.596v5.76zm4.313.12c-.355 0-.675-.083-.96-.248-.283-.165-.507-.389-.672-.672-.166-.285-.248-.605-.248-.96v-2.24c0-.355.082-.673.248-.956.165-.285.389-.511.672-.676.285-.165.605-.248.96-.248.354 0 .673.083.956.248.285.165.51.391.676.676.165.283.248.601.248.956v2.24c0 .355-.083.675-.248.96-.166.283-.391.507-.676.672-.283.165-.602.248-.956.248zm0-.568c.237 0 .453-.057.648-.172.194-.117.349-.273.464-.468.114-.195.172-.409.172-.644v-2.296c0-.237-.058-.453-.172-.648-.115-.195-.27-.349-.464-.464-.195-.117-.411-.176-.648-.176-.238 0-.454.059-.648.176-.195.115-.35.269-.464.464-.115.195-.172.411-.172.648v2.296c0 .235.057.449.172.644.114.195.269.351.464.468.194.115.41.172.648.172zm3.883.448-.4-.4 5.372-5.36.4.396zm4.172.12c-.264 0-.506-.064-.724-.192-.216-.131-.39-.304-.52-.52-.131-.219-.196-.461-.196-.728 0-.261.066-.501.2-.72.133-.219.309-.393.528-.524.218-.131.456-.196.712-.196.264 0 .505.065.724.196.218.128.392.301.52.52.13.216.196.457.196.724s-.066.509-.196.728c-.128.216-.302.389-.52.52-.219.128-.46.192-.724.192zm0-.532c.162 0 .313-.041.452-.124.138-.083.249-.192.332-.328.082-.139.124-.291.124-.456s-.042-.316-.124-.452c-.083-.139-.194-.249-.332-.332-.139-.083-.29-.124-.452-.124-.166 0-.318.041-.456.124-.136.083-.247.193-.332.332-.083.136-.124.287-.124.452s.041.317.124.456c.085.136.196.245.332.328.138.083.29.124.456.124zm-3.372-2.588c-.264 0-.506-.064-.724-.192-.219-.131-.394-.304-.524-.52-.128-.219-.192-.461-.192-.728 0-.261.066-.501.2-.72.133-.219.309-.393.528-.524.218-.131.456-.196.712-.196.264 0 .504.065.72.196.218.128.393.301.524.52.13.216.196.457.196.724s-.066.509-.196.728c-.131.216-.306.389-.524.52-.216.128-.456.192-.72.192zm0-.532c.165 0 .316-.041.452-.124.138-.083.249-.192.332-.328.082-.139.124-.291.124-.456s-.042-.316-.124-.452c-.083-.139-.194-.249-.332-.332-.136-.083-.287-.124-.452-.124-.166 0-.318.041-.456.124-.136.083-.246.193-.328.332-.083.136-.124.287-.124.452s.041.317.124.456c.082.136.192.245.328.328.138.083.29.124.456.124z" fill="url(#g)"/><path d="m7.51083 182.573c.68999-3.806 4.00387-6.573 7.87167-6.573h61.0367c4.9896 0 8.7618 4.518 7.8716 9.427l-5.8016 32c-.69 3.806-4.0039 6.573-7.8717 6.573h-61.03668c-4.98961 0-8.761773-4.518-7.87166-9.427z" fill="#1f1f1f"/><path d="m12.0828 198v-5.196h-2.012v-.564h4.612v.564h-2.012v5.196zm4.7248.12c-.4293 0-.796-.097-1.1-.292s-.5373-.464-.7-.808-.244-.739-.244-1.184c0-.453.0827-.851.248-1.192s.4-.607.704-.796c.3067-.192.6707-.288 1.092-.288.432 0 .8.097 1.104.292.3067.192.54.46.7.804.1627.341.244.735.244 1.18 0 .453-.0813.852-.244 1.196-.1627.341-.3973.608-.704.8s-.6733.288-1.1.288zm0-.564c.48 0 .8373-.159 1.072-.476.2347-.32.352-.735.352-1.244 0-.523-.1187-.939-.356-1.248-.2347-.309-.5907-.464-1.068-.464-.3227 0-.5893.073-.8.22-.208.144-.364.345-.468.604-.1013.256-.152.552-.152.888 0 .52.12.937.36 1.252.24.312.5933.468 1.06.468zm5.1719.444v-5.76h.592l3.172 4.72v-4.72h.592v5.76h-.592l-3.172-4.724v4.724zm5.7966 0v-5.76h3.308v.588h-2.72v2h2.24v.584h-2.24v2.588zm5.8832 0v-5.196h-2.012v-.564h4.612v.564h-2.012v5.196zm7.0329.12c-.4347 0-.8027-.097-1.104-.292-.3014-.195-.5307-.463-.688-.804-.1547-.344-.2347-.739-.24-1.184.0053-.453.088-.851.248-1.192.16-.344.3906-.611.692-.8.3013-.192.6666-.288 1.096-.288.4373 0 .8173.107 1.14.32.3253.213.548.505.668.876l-.576.184c-.1014-.259-.2627-.459-.484-.6-.2187-.144-.4694-.216-.752-.216-.3174 0-.58.073-.788.22-.208.144-.3627.345-.464.604-.1014.259-.1534.556-.156.892.0053.517.1253.933.36 1.248.2346.312.584.468 1.048.468.2933 0 .5426-.067.748-.2.208-.136.3653-.333.472-.592l.592.176c-.16.384-.3947.677-.704.88-.3094.2-.6787.3-1.108.3zm2.9576-.12v-4.32h.528v1.04l-.104-.136c.048-.128.1107-.245.188-.352.0774-.109.1614-.199.252-.268.112-.099.2427-.173.392-.224.1494-.053.3-.084.452-.092.152-.011.2907 0 .416.032v.552c-.1573-.04-.3293-.049-.516-.028-.1866.021-.3586.096-.516.224-.144.112-.252.247-.324.404-.072.155-.12.32-.144.496-.024.173-.036.345-.036.516v2.156zm4.9527.12c-.4213 0-.7866-.093-1.096-.28-.3066-.187-.5453-.449-.716-.788-.1706-.339-.256-.736-.256-1.192 0-.472.084-.88.252-1.224s.404-.609.708-.796c.3067-.187.668-.28 1.084-.28.4267 0 .7907.099 1.092.296.3014.195.5294.475.684.84.1547.365.2254.801.212 1.308h-.6v-.208c-.0106-.56-.132-.983-.364-1.268-.2293-.285-.5653-.428-1.008-.428-.464 0-.82.151-1.068.452-.2453.301-.368.731-.368 1.288 0 .544.1227.967.368 1.268.248.299.5987.448 1.052.448.3094 0 .5787-.071.808-.212.232-.144.4147-.351.548-.62l.548.212c-.1706.376-.4226.668-.756.876-.3306.205-.7053.308-1.124.308zm-1.652-2.116v-.492h3.3v.492zm5.9816 2.116c-.3253 0-.5987-.059-.82-.176-.2187-.117-.3827-.273-.492-.468s-.164-.407-.164-.636c0-.235.0467-.435.14-.6.096-.168.2253-.305.388-.412.1653-.107.356-.188.572-.244.2187-.053.46-.1.724-.14.2667-.043.5267-.079.78-.108.256-.032.48-.063.672-.092l-.208.128c.008-.427-.0747-.743-.248-.948s-.4747-.308-.904-.308c-.296 0-.5467.067-.752.2-.2027.133-.3453.344-.428.632l-.572-.168c.0987-.387.2973-.687.596-.9s.6867-.32 1.164-.32c.3947 0 .7293.075 1.004.224.2773.147.4733.36.588.64.0533.125.088.265.104.42s.024.312.024.472v2.684h-.524v-1.084l.152.064c-.1467.371-.3747.653-.684.848s-.68.292-1.112.292zm.068-.508c.2747 0 .5147-.049.72-.148s.3707-.233.496-.404c.1253-.173.2067-.368.244-.584.032-.139.0493-.291.052-.456.0027-.168.004-.293.004-.376l.224.116c-.2.027-.4173.053-.652.08-.232.027-.4613.057-.688.092-.224.035-.4267.076-.608.124-.1227.035-.2413.084-.356.148-.1147.061-.2093.144-.284.248-.072.104-.108.233-.108.388 0 .125.0307.247.092.364.064.117.1653.215.304.292.1413.077.328.116.56.116zm5.8133.388c-.2427.051-.4827.071-.72.06-.2347-.011-.4453-.061-.632-.152-.184-.091-.324-.232-.42-.424-.0773-.16-.12-.321-.128-.484-.0053-.165-.008-.353-.008-.564v-3.956h.584v3.932c0 .181.0013.333.004.456.0053.12.0333.227.084.32.096.179.248.285.456.32.2107.035.4707.027.78-.024zm-2.832-3.816v-.504h2.832v.504zm5.6509 3.936c-.4294 0-.796-.097-1.1-.292s-.5374-.464-.7-.808c-.1627-.344-.244-.739-.244-1.184 0-.453.0826-.851.248-1.192.1653-.341.4-.607.704-.796.3066-.192.6706-.288 1.092-.288.432 0 .8.097 1.104.292.3066.192.54.46.7.804.1626.341.244.735.244 1.18 0 .453-.0814.852-.244 1.196-.1627.341-.3974.608-.704.8-.3067.192-.6734.288-1.1.288zm0-.564c.48 0 .8373-.159 1.072-.476.2346-.32.352-.735.352-1.244 0-.523-.1187-.939-.356-1.248-.2347-.309-.5907-.464-1.068-.464-.3227 0-.5894.073-.8.22-.208.144-.364.345-.468.604-.1014.256-.152.552-.152.888 0 .52.12.937.36 1.252.24.312.5933.468 1.06.468zm3.2504.444v-4.32h.528v1.04l-.104-.136c.048-.128.1106-.245.188-.352.0773-.109.1613-.199.252-.268.112-.099.2426-.173.392-.224.1493-.053.3-.084.452-.092.152-.011.2906 0 .416.032v.552c-.1574-.04-.3294-.049-.516-.028-.1867.021-.3587.096-.516.224-.144.112-.252.247-.324.404-.072.155-.12.32-.144.496-.024.173-.036.345-.036.516v2.156zm5.0443-2.268v-.504h5.28v.504z" fill="#fbfaff"/><path d="m39.1859 209.12c-.2986 0-.5746-.061-.828-.184-.2533-.123-.4693-.292-.648-.508-.1786-.216-.3066-.464-.384-.744l.564-.152c.0507.208.1427.388.276.54.1334.149.2894.265.468.348.1814.083.3707.124.568.124.256 0 .4854-.061.688-.184.2054-.125.368-.291.488-.496s.18-.431.18-.676c0-.253-.0626-.481-.188-.684-.1253-.205-.2906-.368-.496-.488-.2053-.12-.4293-.18-.672-.18-.272 0-.5066.06-.704.18-.1973.117-.3546.265-.472.444l-.536-.224.176-2.996h3.076v.564h-2.816l.292-.276-.156 2.556-.148-.196c.1654-.189.3654-.337.6-.444.2347-.107.4814-.16.74-.16.3547 0 .6747.085.96.256.2854.168.512.396.68.684s.252.609.252.964c0 .352-.0893.675-.268.968-.1786.291-.416.524-.712.7s-.6226.264-.98.264zm3.7972-.12-.4-.4 5.372-5.36.4.396zm4.172.12c-.264 0-.5053-.064-.724-.192-.216-.131-.3893-.304-.52-.52-.1306-.219-.196-.461-.196-.728 0-.261.0667-.501.2-.72.1334-.219.3094-.393.528-.524.2187-.131.456-.196.712-.196.264 0 .5054.065.724.196.2187.128.392.301.52.52.1307.216.196.457.196.724s-.0653.509-.196.728c-.128.216-.3013.389-.52.52-.2186.128-.46.192-.724.192zm0-.532c.1627 0 .3134-.041.452-.124.1387-.083.2494-.192.332-.328.0827-.139.124-.291.124-.456s-.0413-.316-.124-.452c-.0826-.139-.1933-.249-.332-.332-.1386-.083-.2893-.124-.452-.124-.1653 0-.3173.041-.456.124-.136.083-.2466.193-.332.332-.0826.136-.124.287-.124.452s.0414.317.124.456c.0854.136.196.245.332.328.1387.083.2907.124.456.124zm-3.372-2.588c-.264 0-.5053-.064-.724-.192-.2186-.131-.3933-.304-.524-.52-.128-.219-.192-.461-.192-.728 0-.261.0667-.501.2-.72.1334-.219.3094-.393.528-.524.2187-.131.456-.196.712-.196.264 0 .504.065.72.196.2187.128.3934.301.524.52.1307.216.196.457.196.724s-.0653.509-.196.728c-.1306.216-.3053.389-.524.52-.216.128-.456.192-.72.192zm0-.532c.1654 0 .316-.041.452-.124.1387-.083.2494-.192.332-.328.0827-.139.124-.291.124-.456s-.0413-.316-.124-.452c-.0826-.139-.1933-.249-.332-.332-.136-.083-.2866-.124-.452-.124-.1653 0-.3173.041-.456.124-.136.083-.2453.193-.328.332-.0826.136-.124.287-.124.452s.0414.317.124.456c.0827.136.192.245.328.328.1387.083.2907.124.456.124z" fill="url(#h)"/><path d="m179.511 270.184c.69-3.806 4.004-6.573 7.872-6.573h61.036c4.99 0 8.762 4.517 7.872 9.427l-5.802 32c-.69 3.806-4.004 6.573-7.872 6.573h-61.036c-4.99 0-8.762-4.518-7.872-9.427z" fill="#1f1f1f"/><path d="m184.709 285.611v-5.76h.588v5.196h2.736v.564zm4.406-5.14v-.66h.588v.66zm0 5.14v-4.32h.588v4.32zm3.783.12c-.403 0-.747-.1-1.032-.3-.285-.203-.504-.476-.656-.82s-.228-.732-.228-1.164c0-.43.075-.816.224-1.16.152-.344.369-.616.652-.816s.621-.3 1.016-.3c.405 0 .747.098 1.024.296.277.197.487.468.628.812.144.341.216.73.216 1.168 0 .429-.071.817-.212 1.164-.141.344-.349.617-.624.82-.275.2-.611.3-1.008.3zm.06-.548c.307 0 .56-.075.76-.224.2-.15.349-.355.448-.616.099-.264.148-.563.148-.896 0-.339-.049-.638-.148-.896-.099-.262-.248-.466-.448-.612-.197-.147-.447-.22-.748-.22-.309 0-.565.076-.768.228s-.353.358-.452.62c-.096.261-.144.554-.144.88 0 .328.049.624.148.888.101.261.252.468.452.62s.451.228.752.228zm1.292 2.348v-2.988h.064v-3.252h.528v6.24zm3.686-1.812c-.258 0-.485-.04-.68-.12-.192-.08-.356-.188-.492-.324-.133-.136-.241-.291-.324-.464-.082-.176-.142-.362-.18-.556-.037-.198-.056-.394-.056-.588v-2.376h.592v2.204c0 .237.023.457.068.66.046.202.118.38.216.532.102.149.231.265.388.348.16.082.354.124.58.124.208 0 .391-.036.548-.108.16-.072.294-.175.4-.308.11-.136.192-.3.248-.492.056-.195.084-.414.084-.656l.416.092c0 .442-.077.814-.232 1.116-.154.301-.368.529-.64.684-.272.154-.584.232-.936.232zm1.452-.108v-1.064h-.06v-3.256h.588v4.32zm2.046-5.14v-.66h.588v.66zm0 5.14v-4.32h.588v4.32zm3.783.12c-.402 0-.746-.1-1.032-.3-.285-.203-.504-.476-.656-.82s-.228-.732-.228-1.164c0-.43.075-.816.224-1.16.152-.344.37-.616.652-.816.283-.2.622-.3 1.016-.3.406 0 .747.098 1.024.296.278.197.487.468.628.812.144.341.216.73.216 1.168 0 .429-.07.817-.212 1.164-.141.344-.349.617-.624.82-.274.2-.61.3-1.008.3zm.06-.548c.307 0 .56-.075.76-.224.2-.15.35-.355.448-.616.099-.264.148-.563.148-.896 0-.339-.049-.638-.148-.896-.098-.262-.248-.466-.448-.612-.197-.147-.446-.22-.748-.22-.309 0-.565.076-.768.228-.202.152-.353.358-.452.62-.096.261-.144.554-.144.88 0 .328.05.624.148.888.102.261.252.468.452.62s.451.228.752.228zm1.356.428v-3.252h-.064v-2.508h.592v5.76zm2.051-5.14v-.66h.588v.66zm0 5.14v-4.32h.588v4.32zm4.459 0c-.243.05-.483.07-.72.06-.235-.011-.446-.062-.632-.152-.184-.091-.324-.232-.42-.424-.078-.16-.12-.322-.128-.484-.006-.166-.008-.354-.008-.564v-3.956h.584v3.932c0 .181.001.333.004.456.005.12.033.226.084.32.096.178.248.285.456.32.21.034.47.026.78-.024zm-2.832-3.816v-.504h2.832v.504zm4.502 5.736.836-2.268.012.672-1.892-4.644h.624l1.552 3.884h-.256l1.432-3.884h.6l-2.32 6.24zm7.784-1.8c-.397 0-.733-.1-1.008-.3-.275-.203-.483-.476-.624-.82-.141-.347-.212-.735-.212-1.164 0-.438.071-.827.212-1.168.144-.344.355-.615.632-.812.277-.198.619-.296 1.024-.296.395 0 .733.1 1.016.3s.499.472.648.816c.152.344.228.73.228 1.16 0 .432-.076.82-.228 1.164s-.371.617-.656.82c-.285.2-.629.3-1.032.3zm-1.944 1.8v-6.24h.528v3.252h.064v2.988zm1.884-2.348c.301 0 .552-.076.752-.228s.349-.359.448-.62c.101-.264.152-.56.152-.888 0-.326-.049-.619-.148-.88-.099-.262-.249-.468-.452-.62-.2-.152-.455-.228-.764-.228-.301 0-.552.073-.752.22-.197.146-.345.35-.444.612-.099.258-.148.557-.148.896 0 .333.049.632.148.896.099.261.248.466.448.616.2.149.453.224.76.224zm4.978.548c-.429 0-.796-.098-1.1-.292-.304-.195-.537-.464-.7-.808-.162-.344-.244-.739-.244-1.184 0-.454.083-.851.248-1.192.166-.342.4-.607.704-.796.307-.192.671-.288 1.092-.288.432 0 .8.097 1.104.292.307.192.54.46.7.804.163.341.244.734.244 1.18 0 .453-.081.852-.244 1.196-.162.341-.397.608-.704.8-.306.192-.673.288-1.1.288zm0-.564c.48 0 .838-.159 1.072-.476.235-.32.352-.735.352-1.244 0-.523-.118-.939-.356-1.248-.234-.31-.59-.464-1.068-.464-.322 0-.589.073-.8.22-.208.144-.364.345-.468.604-.101.256-.152.552-.152.888 0 .52.12.937.36 1.252.24.312.594.468 1.06.468zm5.055.564c-.43 0-.796-.098-1.1-.292-.304-.195-.538-.464-.7-.808-.163-.344-.244-.739-.244-1.184 0-.454.082-.851.248-1.192.165-.342.4-.607.704-.796.306-.192.67-.288 1.092-.288.432 0 .8.097 1.104.292.306.192.54.46.7.804.162.341.244.734.244 1.18 0 .453-.082.852-.244 1.196-.163.341-.398.608-.704.8-.307.192-.674.288-1.1.288zm0-.564c.48 0 .837-.159 1.072-.476.234-.32.352-.735.352-1.244 0-.523-.119-.939-.356-1.248-.235-.31-.591-.464-1.068-.464-.323 0-.59.073-.8.22-.208.144-.364.345-.468.604-.102.256-.152.552-.152.888 0 .52.12.937.36 1.252.24.312.593.468 1.06.468zm3.33.444v-5.88h.588v5.88zm3.949-2.268v-.504h5.28v.504z" fill="#fbfaff"/><path d="m209.503 296.611v-1.116h-2.696v-.56l1.928-4.084h.66l-1.928 4.084h2.036v-1.68h.592v1.68h.628v.56h-.628v1.116zm4.202.12c-.298 0-.574-.062-.828-.184-.253-.123-.469-.292-.648-.508-.178-.216-.306-.464-.384-.744l.564-.152c.051.208.143.388.276.54.134.149.29.265.468.348.182.082.371.124.568.124.256 0 .486-.062.688-.184.206-.126.368-.291.488-.496.12-.206.18-.431.18-.676 0-.254-.062-.482-.188-.684-.125-.206-.29-.368-.496-.488-.205-.12-.429-.18-.672-.18-.272 0-.506.06-.704.18-.197.117-.354.265-.472.444l-.536-.224.176-2.996h3.076v.564h-2.816l.292-.276-.156 2.556-.148-.196c.166-.19.366-.338.6-.444.235-.107.482-.16.74-.16.355 0 .675.085.96.256.286.168.512.396.68.684s.252.609.252.964c0 .352-.089.674-.268.968-.178.29-.416.524-.712.7s-.622.264-.98.264zm3.797-.12-.4-.4 5.373-5.36.399.396zm4.172.12c-.263 0-.505-.064-.723-.192-.216-.131-.39-.304-.52-.52-.131-.219-.197-.462-.197-.728 0-.262.067-.502.2-.72.134-.219.31-.394.529-.524.218-.131.456-.196.711-.196.264 0 .506.065.724.196.219.128.393.301.52.52.131.216.197.457.197.724 0 .266-.066.509-.197.728-.127.216-.301.389-.52.52-.218.128-.46.192-.724.192zm0-.532c.163 0 .314-.042.453-.124.138-.083.249-.192.331-.328.083-.139.124-.291.124-.456 0-.166-.041-.316-.124-.452-.082-.139-.193-.25-.331-.332-.139-.083-.29-.124-.453-.124-.165 0-.317.041-.455.124-.136.082-.247.193-.333.332-.082.136-.124.286-.124.452 0 .165.042.317.124.456.086.136.197.245.333.328.138.082.29.124.455.124zm-3.372-2.588c-.264 0-.505-.064-.724-.192-.218-.131-.393-.304-.524-.52-.128-.219-.192-.462-.192-.728 0-.262.067-.502.2-.72.134-.219.31-.394.528-.524.219-.131.456-.196.712-.196.264 0 .504.065.72.196.219.128.394.301.524.52.131.216.196.457.196.724 0 .266-.065.509-.196.728-.13.216-.305.389-.524.52-.216.128-.456.192-.72.192zm0-.532c.166 0 .316-.042.452-.124.139-.083.25-.192.332-.328.083-.139.124-.291.124-.456 0-.166-.041-.316-.124-.452-.082-.139-.193-.25-.332-.332-.136-.083-.286-.124-.452-.124-.165 0-.317.041-.456.124-.136.082-.245.193-.328.332-.082.136-.124.286-.124.452 0 .165.042.317.124.456.083.136.192.245.328.328.139.082.291.124.456.124z" fill="url(#i)"/><path d="m179.511 357.794c.69-3.805 4.004-6.573 7.872-6.573h61.036c4.99 0 8.762 4.518 7.872 9.428l-5.802 32c-.69 3.805-4.004 6.572-7.872 6.572h-61.036c-4.99 0-8.762-4.517-7.872-9.427z" fill="#1f1f1f"/><path d="m179.13 373.221v-5.196h-2.012v-.564h4.612v.564h-2.012v5.196zm4.725.12c-.43 0-.796-.097-1.1-.292-.304-.194-.538-.464-.7-.808-.163-.344-.244-.738-.244-1.184 0-.453.082-.85.248-1.192.165-.341.4-.606.704-.796.306-.192.67-.288 1.092-.288.432 0 .8.098 1.104.292.306.192.54.46.7.804.162.342.244.735.244 1.18 0 .454-.082.852-.244 1.196-.163.342-.398.608-.704.8-.307.192-.674.288-1.1.288zm0-.564c.48 0 .837-.158 1.072-.476.234-.32.352-.734.352-1.244 0-.522-.119-.938-.356-1.248-.235-.309-.591-.464-1.068-.464-.323 0-.59.074-.8.22-.208.144-.364.346-.468.604-.102.256-.152.552-.152.888 0 .52.12.938.36 1.252.24.312.593.468 1.06.468zm4.902.552c-.259 0-.485-.04-.68-.12-.192-.08-.356-.188-.492-.324-.133-.136-.241-.29-.324-.464-.083-.176-.143-.361-.18-.556-.037-.197-.056-.393-.056-.588v-2.376h.592v2.204c0 .238.023.458.068.66.045.203.117.38.216.532.101.15.231.266.388.348.16.083.353.124.58.124.208 0 .391-.036.548-.108.16-.072.293-.174.4-.308.109-.136.192-.3.248-.492.056-.194.084-.413.084-.656l.416.092c0 .443-.077.815-.232 1.116-.155.302-.368.53-.64.684-.272.155-.584.232-.936.232zm1.452-.108v-1.064h-.06v-3.256h.588v4.32zm1.966 0v-4.32h.528v1.04l-.104-.136c.048-.128.111-.245.188-.352.077-.109.161-.198.252-.268.112-.098.243-.173.392-.224.149-.053.3-.084.452-.092.152-.01.291 0 .416.032v.552c-.157-.04-.329-.049-.516-.028-.187.022-.359.096-.516.224-.144.112-.252.247-.324.404-.072.155-.12.32-.144.496-.024.174-.036.346-.036.516v2.156zm6.323 0v-2.204c0-.24-.023-.46-.068-.66-.046-.202-.119-.378-.22-.528-.099-.152-.228-.269-.388-.352-.158-.082-.35-.124-.576-.124-.208 0-.392.036-.552.108-.158.072-.291.176-.4.312-.107.134-.188.296-.244.488s-.084.411-.084.656l-.416-.092c0-.442.077-.814.232-1.116.154-.301.368-.529.64-.684.272-.154.584-.232.936-.232.258 0 .484.04.676.12.194.08.358.188.492.324.136.136.245.292.328.468.082.174.142.359.18.556.037.195.056.39.056.584v2.376zm-3.124 0v-4.32h.532v1.064h.06v3.256zm6.31.12c-.326 0-.599-.058-.82-.176-.219-.117-.383-.273-.492-.468-.11-.194-.164-.406-.164-.636 0-.234.046-.434.14-.6.096-.168.225-.305.388-.412.165-.106.356-.188.572-.244.218-.053.46-.1.724-.14.266-.042.526-.078.78-.108.256-.032.48-.062.672-.092l-.208.128c.008-.426-.075-.742-.248-.948-.174-.205-.475-.308-.904-.308-.296 0-.547.067-.752.2-.203.134-.346.344-.428.632l-.572-.168c.098-.386.297-.686.596-.9.298-.213.686-.32 1.164-.32.394 0 .729.075 1.004.224.277.147.473.36.588.64.053.126.088.266.104.42.016.155.024.312.024.472v2.684h-.524v-1.084l.152.064c-.147.371-.375.654-.684.848-.31.195-.68.292-1.112.292zm.068-.508c.274 0 .514-.049.72-.148.205-.098.37-.233.496-.404.125-.173.206-.368.244-.584.032-.138.049-.29.052-.456.002-.168.004-.293.004-.376l.224.116c-.2.027-.418.054-.652.08-.232.027-.462.058-.688.092-.224.035-.427.076-.608.124-.123.035-.242.084-.356.148-.115.062-.21.144-.284.248-.072.104-.108.234-.108.388 0 .126.03.247.092.364.064.118.165.215.304.292.141.078.328.116.56.116zm8.613.388.004-2.836c0-.333-.093-.594-.28-.784-.184-.192-.419-.288-.704-.288-.163 0-.321.038-.476.112-.155.075-.283.195-.384.36-.099.166-.148.382-.148.648l-.348-.1c-.008-.309.052-.58.18-.812.131-.232.309-.412.536-.54.229-.13.488-.196.776-.196.435 0 .783.135 1.044.404.261.267.392.628.392 1.084l-.004 2.948zm-5.156 0v-4.32h.528v1.064h.064v3.256zm2.584 0 .004-2.796c0-.344-.092-.614-.276-.812-.181-.2-.421-.3-.72-.3s-.54.103-.724.308c-.184.203-.276.474-.276.812l-.352-.192c0-.277.065-.525.196-.744.131-.221.309-.394.536-.52.227-.128.484-.192.772-.192.275 0 .519.059.732.176.216.118.385.288.508.512s.184.496.184.816l-.004 2.932zm6.326.12c-.421 0-.787-.093-1.096-.28-.307-.186-.545-.449-.716-.788-.171-.338-.256-.736-.256-1.192 0-.472.084-.88.252-1.224s.404-.609.708-.796c.307-.186.668-.28 1.084-.28.427 0 .791.099 1.092.296.301.195.529.475.684.84.155.366.225.802.212 1.308h-.6v-.208c-.011-.56-.132-.982-.364-1.268-.229-.285-.565-.428-1.008-.428-.464 0-.82.151-1.068.452-.245.302-.368.731-.368 1.288 0 .544.123.967.368 1.268.248.299.599.448 1.052.448.309 0 .579-.07.808-.212.232-.144.415-.35.548-.62l.548.212c-.171.376-.423.668-.756.876-.331.206-.705.308-1.124.308zm-1.652-2.116v-.492h3.3v.492zm7.826 1.996v-2.204c0-.24-.022-.46-.068-.66-.045-.202-.118-.378-.22-.528-.098-.152-.228-.269-.388-.352-.157-.082-.349-.124-.576-.124-.208 0-.392.036-.552.108-.157.072-.29.176-.4.312-.106.134-.188.296-.244.488s-.084.411-.084.656l-.416-.092c0-.442.078-.814.232-1.116.155-.301.368-.529.64-.684.272-.154.584-.232.936-.232.259 0 .484.04.676.12.195.08.359.188.492.324.136.136.246.292.328.468.083.174.143.359.18.556.038.195.056.39.056.584v2.376zm-3.124 0v-4.32h.532v1.064h.06v3.256zm7.426 0c-.242.051-.482.071-.72.06-.234-.01-.445-.061-.632-.152-.184-.09-.324-.232-.42-.424-.077-.16-.12-.321-.128-.484-.005-.165-.008-.353-.008-.564v-3.956h.584v3.932c0 .182.002.334.004.456.006.12.034.227.084.32.096.179.248.286.456.32.211.035.471.027.78-.024zm-2.832-3.816v-.504h2.832v.504zm7.865 3.936c-.397 0-.733-.1-1.008-.3-.275-.202-.483-.476-.624-.82-.141-.346-.212-.734-.212-1.164 0-.437.071-.826.212-1.168.144-.344.355-.614.632-.812.277-.197.619-.296 1.024-.296.395 0 .733.1 1.016.3s.499.472.648.816c.152.344.228.731.228 1.16 0 .432-.076.82-.228 1.164s-.371.618-.656.82c-.285.2-.629.3-1.032.3zm-1.944 1.8v-6.24h.528v3.252h.064v2.988zm1.884-2.348c.301 0 .552-.076.752-.228s.349-.358.448-.62c.101-.264.152-.56.152-.888 0-.325-.049-.618-.148-.88-.099-.261-.249-.468-.452-.62-.2-.152-.455-.228-.764-.228-.301 0-.552.074-.752.22-.197.147-.345.351-.444.612-.099.259-.148.558-.148.896 0 .334.049.632.148.896.099.262.248.467.448.616.2.15.453.224.76.224zm4.978.548c-.429 0-.796-.097-1.1-.292-.304-.194-.537-.464-.7-.808-.162-.344-.244-.738-.244-1.184 0-.453.083-.85.248-1.192.166-.341.4-.606.704-.796.307-.192.671-.288 1.092-.288.432 0 .8.098 1.104.292.307.192.54.46.7.804.163.342.244.735.244 1.18 0 .454-.081.852-.244 1.196-.162.342-.397.608-.704.8-.306.192-.673.288-1.1.288zm0-.564c.48 0 .838-.158 1.072-.476.235-.32.352-.734.352-1.244 0-.522-.118-.938-.356-1.248-.234-.309-.59-.464-1.068-.464-.322 0-.589.074-.8.22-.208.144-.364.346-.468.604-.101.256-.152.552-.152.888 0 .52.12.938.36 1.252.24.312.594.468 1.06.468zm5.055.564c-.429 0-.796-.097-1.1-.292-.304-.194-.537-.464-.7-.808s-.244-.738-.244-1.184c0-.453.083-.85.248-1.192.165-.341.4-.606.704-.796.307-.192.671-.288 1.092-.288.432 0 .8.098 1.104.292.307.192.54.46.7.804.163.342.244.735.244 1.18 0 .454-.081.852-.244 1.196-.163.342-.397.608-.704.8s-.673.288-1.1.288zm0-.564c.48 0 .837-.158 1.072-.476.235-.32.352-.734.352-1.244 0-.522-.119-.938-.356-1.248-.235-.309-.591-.464-1.068-.464-.323 0-.589.074-.8.22-.208.144-.364.346-.468.604-.101.256-.152.552-.152.888 0 .52.12.938.36 1.252.24.312.593.468 1.06.468zm3.33.444v-5.88h.588v5.88zm3.949-2.268v-.504h5.28v.504z" fill="#fbfaff"/><path d="m209.503 384.221v-1.116h-2.696v-.56l1.928-4.084h.66l-1.928 4.084h2.036v-1.68h.592v1.68h.628v.56h-.628v1.116zm4.202.12c-.298 0-.574-.061-.828-.184-.253-.122-.469-.292-.648-.508-.178-.216-.306-.464-.384-.744l.564-.152c.051.208.143.388.276.54.134.15.29.266.468.348.182.083.371.124.568.124.256 0 .486-.061.688-.184.206-.125.368-.29.488-.496.12-.205.18-.43.18-.676 0-.253-.062-.481-.188-.684-.125-.205-.29-.368-.496-.488-.205-.12-.429-.18-.672-.18-.272 0-.506.06-.704.18-.197.118-.354.266-.472.444l-.536-.224.176-2.996h3.076v.564h-2.816l.292-.276-.156 2.556-.148-.196c.166-.189.366-.337.6-.444.235-.106.482-.16.74-.16.355 0 .675.086.96.256.286.168.512.396.68.684s.252.61.252.964c0 .352-.089.675-.268.968-.178.291-.416.524-.712.7s-.622.264-.98.264zm3.797-.12-.4-.4 5.373-5.36.399.396zm4.172.12c-.263 0-.505-.064-.723-.192-.216-.13-.39-.304-.52-.52-.131-.218-.197-.461-.197-.728 0-.261.067-.501.2-.72.134-.218.31-.393.529-.524.218-.13.456-.196.711-.196.264 0 .506.066.724.196.219.128.393.302.52.52.131.216.197.458.197.724 0 .267-.066.51-.197.728-.127.216-.301.39-.52.52-.218.128-.46.192-.724.192zm0-.532c.163 0 .314-.041.453-.124.138-.082.249-.192.331-.328.083-.138.124-.29.124-.456 0-.165-.041-.316-.124-.452-.082-.138-.193-.249-.331-.332-.139-.082-.29-.124-.453-.124-.165 0-.317.042-.455.124-.136.083-.247.194-.333.332-.082.136-.124.287-.124.452 0 .166.042.318.124.456.086.136.197.246.333.328.138.083.29.124.455.124zm-3.372-2.588c-.264 0-.505-.064-.724-.192-.218-.13-.393-.304-.524-.52-.128-.218-.192-.461-.192-.728 0-.261.067-.501.2-.72.134-.218.31-.393.528-.524.219-.13.456-.196.712-.196.264 0 .504.066.72.196.219.128.394.302.524.52.131.216.196.458.196.724 0 .267-.065.51-.196.728-.13.216-.305.39-.524.52-.216.128-.456.192-.72.192zm0-.532c.166 0 .316-.041.452-.124.139-.082.25-.192.332-.328.083-.138.124-.29.124-.456 0-.165-.041-.316-.124-.452-.082-.138-.193-.249-.332-.332-.136-.082-.286-.124-.452-.124-.165 0-.317.042-.456.124-.136.083-.245.194-.328.332-.082.136-.124.287-.124.452 0 .166.042.318.124.456.083.136.192.246.328.328.139.083.291.124.456.124z" fill="url(#j)"/><path d="m93.5108 357.794c.69-3.805 4.0039-6.573 7.8722-6.573h61.036c4.99 0 8.762 4.518 7.872 9.428l-5.802 32c-.69 3.805-4.004 6.572-7.872 6.572h-61.0362c-4.9896 0-8.7618-4.517-7.8716-9.427z" fill="#1f1f1f"/><path d="m107.008 373.221v-5.196h-2.012v-.564h4.612v.564h-2.012v5.196zm4.724.12c-.429 0-.796-.097-1.1-.292-.304-.194-.537-.464-.7-.808-.162-.344-.244-.738-.244-1.184 0-.453.083-.85.248-1.192.166-.341.4-.606.704-.796.307-.192.671-.288 1.092-.288.432 0 .8.098 1.104.292.307.192.54.46.7.804.163.342.244.735.244 1.18 0 .454-.081.852-.244 1.196-.162.342-.397.608-.704.8-.306.192-.673.288-1.1.288zm0-.564c.48 0 .838-.158 1.072-.476.235-.32.352-.734.352-1.244 0-.522-.118-.938-.356-1.248-.234-.309-.59-.464-1.068-.464-.322 0-.589.074-.8.22-.208.144-.364.346-.468.604-.101.256-.152.552-.152.888 0 .52.12.938.36 1.252.24.312.594.468 1.06.468zm4.903.552c-.259 0-.486-.04-.68-.12-.192-.08-.356-.188-.492-.324-.134-.136-.242-.29-.324-.464-.083-.176-.143-.361-.18-.556-.038-.197-.056-.393-.056-.588v-2.376h.592v2.204c0 .238.022.458.068.66.045.203.117.38.216.532.101.15.23.266.388.348.16.083.353.124.58.124.208 0 .39-.036.548-.108.16-.072.293-.174.4-.308.109-.136.192-.3.248-.492.056-.194.084-.413.084-.656l.416.092c0 .443-.078.815-.232 1.116-.155.302-.368.53-.64.684-.272.155-.584.232-.936.232zm1.452-.108v-1.064h-.06v-3.256h.588v4.32zm1.966 0v-4.32h.528v1.04l-.104-.136c.048-.128.11-.245.188-.352.077-.109.161-.198.252-.268.112-.098.242-.173.392-.224.149-.053.3-.084.452-.092.152-.01.29 0 .416.032v.552c-.158-.04-.33-.049-.516-.028-.187.022-.359.096-.516.224-.144.112-.252.247-.324.404-.072.155-.12.32-.144.496-.024.174-.036.346-.036.516v2.156zm6.323 0v-2.204c0-.24-.023-.46-.068-.66-.046-.202-.119-.378-.22-.528-.099-.152-.228-.269-.388-.352-.158-.082-.35-.124-.576-.124-.208 0-.392.036-.552.108-.158.072-.291.176-.4.312-.107.134-.188.296-.244.488s-.084.411-.084.656l-.416-.092c0-.442.077-.814.232-1.116.154-.301.368-.529.64-.684.272-.154.584-.232.936-.232.258 0 .484.04.676.12.194.08.358.188.492.324.136.136.245.292.328.468.082.174.142.359.18.556.037.195.056.39.056.584v2.376zm-3.124 0v-4.32h.532v1.064h.06v3.256zm6.31.12c-.326 0-.599-.058-.82-.176-.219-.117-.383-.273-.492-.468-.11-.194-.164-.406-.164-.636 0-.234.046-.434.14-.6.096-.168.225-.305.388-.412.165-.106.356-.188.572-.244.218-.053.46-.1.724-.14.266-.042.526-.078.78-.108.256-.032.48-.062.672-.092l-.208.128c.008-.426-.075-.742-.248-.948-.174-.205-.475-.308-.904-.308-.296 0-.547.067-.752.2-.203.134-.346.344-.428.632l-.572-.168c.098-.386.297-.686.596-.9.298-.213.686-.32 1.164-.32.394 0 .729.075 1.004.224.277.147.473.36.588.64.053.126.088.266.104.42.016.155.024.312.024.472v2.684h-.524v-1.084l.152.064c-.147.371-.375.654-.684.848-.31.195-.68.292-1.112.292zm.068-.508c.274 0 .514-.049.72-.148.205-.098.37-.233.496-.404.125-.173.206-.368.244-.584.032-.138.049-.29.052-.456.002-.168.004-.293.004-.376l.224.116c-.2.027-.418.054-.652.08-.232.027-.462.058-.688.092-.224.035-.427.076-.608.124-.123.035-.242.084-.356.148-.115.062-.21.144-.284.248-.072.104-.108.234-.108.388 0 .126.03.247.092.364.064.118.165.215.304.292.141.078.328.116.56.116zm8.613.388.004-2.836c0-.333-.093-.594-.28-.784-.184-.192-.419-.288-.704-.288-.163 0-.321.038-.476.112-.155.075-.283.195-.384.36-.099.166-.148.382-.148.648l-.348-.1c-.008-.309.052-.58.18-.812.131-.232.309-.412.536-.54.229-.13.488-.196.776-.196.435 0 .783.135 1.044.404.261.267.392.628.392 1.084l-.004 2.948zm-5.156 0v-4.32h.528v1.064h.064v3.256zm2.584 0 .004-2.796c0-.344-.092-.614-.276-.812-.181-.2-.421-.3-.72-.3s-.54.103-.724.308c-.184.203-.276.474-.276.812l-.352-.192c0-.277.065-.525.196-.744.131-.221.309-.394.536-.52.227-.128.484-.192.772-.192.275 0 .519.059.732.176.216.118.385.288.508.512s.184.496.184.816l-.004 2.932zm6.326.12c-.422 0-.787-.093-1.096-.28-.307-.186-.546-.449-.716-.788-.171-.338-.256-.736-.256-1.192 0-.472.084-.88.252-1.224s.404-.609.708-.796c.306-.186.668-.28 1.084-.28.426 0 .79.099 1.092.296.301.195.529.475.684.84.154.366.225.802.212 1.308h-.6v-.208c-.011-.56-.132-.982-.364-1.268-.23-.285-.566-.428-1.008-.428-.464 0-.82.151-1.068.452-.246.302-.368.731-.368 1.288 0 .544.122.967.368 1.268.248.299.598.448 1.052.448.309 0 .578-.07.808-.212.232-.144.414-.35.548-.62l.548.212c-.171.376-.423.668-.756.876-.331.206-.706.308-1.124.308zm-1.652-2.116v-.492h3.3v.492zm7.826 1.996v-2.204c0-.24-.022-.46-.068-.66-.045-.202-.118-.378-.22-.528-.098-.152-.228-.269-.388-.352-.157-.082-.349-.124-.576-.124-.208 0-.392.036-.552.108-.157.072-.29.176-.4.312-.106.134-.188.296-.244.488s-.084.411-.084.656l-.416-.092c0-.442.078-.814.232-1.116.155-.301.368-.529.64-.684.272-.154.584-.232.936-.232.259 0 .484.04.676.12.195.08.359.188.492.324.136.136.246.292.328.468.083.174.143.359.18.556.038.195.056.39.056.584v2.376zm-3.124 0v-4.32h.532v1.064h.06v3.256zm7.426 0c-.242.051-.482.071-.72.06-.234-.01-.445-.061-.632-.152-.184-.09-.324-.232-.42-.424-.077-.16-.12-.321-.128-.484-.005-.165-.008-.353-.008-.564v-3.956h.584v3.932c0 .182.002.334.004.456.006.12.034.227.084.32.096.179.248.286.456.32.211.035.471.027.78-.024zm-2.832-3.816v-.504h2.832v.504zm-53.321 14.816v-4.32h.528v1.04l-.104-.136c.048-.128.1107-.245.188-.352.0773-.109.1613-.198.252-.268.112-.098.2427-.173.392-.224.1493-.053.3-.084.452-.092.152-.01.2907 0 .416.032v.552c-.1573-.04-.3293-.049-.516-.028-.1867.022-.3587.096-.516.224-.144.112-.252.247-.324.404-.072.155-.12.32-.144.496-.024.174-.036.346-.036.516v2.156zm4.953.12c-.422 0-.787-.093-1.096-.28-.307-.186-.5456-.449-.7163-.788-.1707-.338-.256-.736-.256-1.192 0-.472.084-.88.252-1.224s.404-.609.7083-.796c.306-.186.668-.28 1.084-.28.426 0 .79.099 1.092.296.301.195.529.475.684.84.154.366.225.802.212 1.308h-.6v-.208c-.011-.56-.132-.982-.364-1.268-.23-.285-.566-.428-1.008-.428-.464 0-.82.151-1.068.452-.2456.302-.3683.731-.3683 1.288 0 .544.1227.967.3683 1.268.248.299.598.448 1.052.448.309 0 .578-.07.808-.212.232-.144.414-.35.548-.62l.548.212c-.171.376-.423.668-.756.876-.331.206-.706.308-1.124.308zm-1.6523-2.116v-.492h3.3003v.492zm5.5873 1.996-1.32-4.324.588.004 1.024 3.356 1.028-3.356h.536l1.028 3.356 1.032-3.356h.584l-1.32 4.32h-.512l-1.08-3.44-1.076 3.44zm6.535.12c-.326 0-.599-.058-.82-.176-.219-.117-.383-.273-.492-.468-.11-.194-.164-.406-.164-.636 0-.234.046-.434.14-.6.096-.168.225-.305.388-.412.165-.106.356-.188.572-.244.218-.053.46-.1.724-.14.266-.042.526-.078.78-.108.256-.032.48-.062.672-.092l-.208.128c.008-.426-.075-.742-.248-.948-.174-.205-.475-.308-.904-.308-.296 0-.547.067-.752.2-.203.134-.346.344-.428.632l-.572-.168c.098-.386.297-.686.596-.9.298-.213.686-.32 1.164-.32.394 0 .729.075 1.004.224.277.147.473.36.588.64.053.126.088.266.104.42.016.155.024.312.024.472v2.684h-.524v-1.084l.152.064c-.147.371-.375.654-.684.848-.31.195-.68.292-1.112.292zm.068-.508c.274 0 .514-.049.72-.148.205-.098.37-.233.496-.404.125-.173.206-.368.244-.584.032-.138.049-.29.052-.456.002-.168.004-.293.004-.376l.224.116c-.2.027-.418.054-.652.08-.232.027-.462.058-.688.092-.224.035-.427.076-.608.124-.123.035-.242.084-.356.148-.115.062-.21.144-.284.248-.072.104-.108.234-.108.388 0 .126.03.247.092.364.064.118.165.215.304.292.141.078.328.116.56.116zm3.461.388v-4.32h.528v1.04l-.104-.136c.048-.128.111-.245.188-.352.077-.109.161-.198.252-.268.112-.098.243-.173.392-.224.149-.053.3-.084.452-.092.152-.01.291 0 .416.032v.552c-.157-.04-.329-.049-.516-.028-.187.022-.359.096-.516.224-.144.112-.252.247-.324.404-.072.155-.12.32-.144.496-.024.174-.036.346-.036.516v2.156zm4.801.12c-.403 0-.747-.1-1.032-.3-.286-.202-.504-.476-.656-.82s-.228-.732-.228-1.164c0-.429.074-.816.224-1.16.152-.344.369-.616.652-.816.282-.2.621-.3 1.016-.3.405 0 .746.099 1.024.296.277.198.486.468.628.812.144.342.216.731.216 1.168 0 .43-.071.818-.212 1.164-.142.344-.35.618-.624.82-.275.2-.611.3-1.008.3zm.06-.548c.306 0 .56-.074.76-.224.2-.149.349-.354.448-.616.098-.264.148-.562.148-.896 0-.338-.05-.637-.148-.896-.099-.261-.248-.465-.448-.612-.198-.146-.447-.22-.748-.22-.31 0-.566.076-.768.228-.203.152-.354.359-.452.62-.096.262-.144.555-.144.88 0 .328.049.624.148.888.101.262.252.468.452.62s.45.228.752.228zm1.356.428v-3.252h-.064v-2.508h.592v5.76zm3.582.116c-.507 0-.924-.109-1.252-.328-.326-.218-.526-.522-.6-.912l.6-.1c.064.246.209.442.436.588.229.144.512.216.848.216.328 0 .586-.068.776-.204.189-.138.284-.326.284-.564 0-.133-.031-.241-.092-.324-.059-.085-.18-.164-.364-.236s-.459-.157-.824-.256c-.392-.106-.699-.213-.92-.32-.222-.106-.379-.229-.472-.368-.094-.141-.14-.313-.14-.516 0-.245.069-.46.208-.644.138-.186.33-.33.576-.432.245-.104.53-.156.856-.156.325 0 .616.054.872.16.258.104.466.251.624.44.157.19.25.41.28.66l-.6.108c-.04-.253-.167-.453-.38-.6-.211-.149-.479-.226-.804-.232-.307-.008-.556.051-.748.176-.192.123-.288.287-.288.492 0 .115.034.214.104.296.069.08.194.156.376.228.184.072.445.151.784.236.397.102.709.208.936.32.226.112.388.244.484.396s.144.34.144.564c0 .408-.152.73-.456.964-.302.232-.718.348-1.248.348zm4.752-2.384v-.504h5.28v.504z" fill="#fbfaff"/><path d="m138.227 384.217.004-.536 2.604-2.352c.224-.202.372-.394.444-.576.075-.184.112-.376.112-.576 0-.237-.056-.452-.168-.644s-.262-.344-.452-.456c-.189-.114-.401-.172-.636-.172-.245 0-.464.059-.656.176-.192.118-.344.272-.456.464-.109.192-.162.402-.16.628h-.6c0-.349.083-.662.248-.94.166-.277.39-.494.672-.652.283-.16.603-.24.96-.24.35 0 .663.083.94.248.28.163.5.384.66.664.163.278.244.587.244.928 0 .24-.029.452-.088.636-.056.182-.145.351-.268.508-.12.155-.273.315-.46.48l-2.312 2.088-.092-.24h3.22v.564zm4.963-2.624v-.504h2.4v.504zm4.763 2.628v-5.104l-1.084.652v-.66l1.084-.648h.596v5.76zm4.313.12c-.354 0-.674-.082-.96-.248-.282-.165-.506-.389-.672-.672-.165-.285-.248-.605-.248-.96v-2.24c0-.354.083-.673.248-.956.166-.285.39-.51.672-.676.286-.165.606-.248.96-.248.355 0 .674.083.956.248.286.166.511.391.676.676.166.283.248.602.248.956v2.24c0 .355-.082.675-.248.96-.165.283-.39.507-.676.672-.282.166-.601.248-.956.248zm0-.568c.238 0 .454-.057.648-.172.195-.117.35-.273.464-.468.115-.194.172-.409.172-.644v-2.296c0-.237-.057-.453-.172-.648-.114-.194-.269-.349-.464-.464-.194-.117-.41-.176-.648-.176-.237 0-.453.059-.648.176-.194.115-.349.27-.464.464-.114.195-.172.411-.172.648v2.296c0 .235.058.45.172.644.115.195.27.351.464.468.195.115.411.172.648.172zm3.883.448-.4-.4 5.372-5.36.4.396zm4.172.12c-.264 0-.505-.064-.724-.192-.216-.13-.389-.304-.52-.52-.131-.218-.196-.461-.196-.728 0-.261.067-.501.2-.72.133-.218.309-.393.528-.524.219-.13.456-.196.712-.196.264 0 .505.066.724.196.219.128.392.302.52.52.131.216.196.458.196.724 0 .267-.065.51-.196.728-.128.216-.301.39-.52.52-.219.128-.46.192-.724.192zm0-.532c.163 0 .313-.041.452-.124.139-.082.249-.192.332-.328.083-.138.124-.29.124-.456 0-.165-.041-.316-.124-.452-.083-.138-.193-.249-.332-.332-.139-.082-.289-.124-.452-.124-.165 0-.317.042-.456.124-.136.083-.247.194-.332.332-.083.136-.124.287-.124.452 0 .166.041.318.124.456.085.136.196.246.332.328.139.083.291.124.456.124zm-3.372-2.588c-.264 0-.505-.064-.724-.192-.219-.13-.393-.304-.524-.52-.128-.218-.192-.461-.192-.728 0-.261.067-.501.2-.72.133-.218.309-.393.528-.524.219-.13.456-.196.712-.196.264 0 .504.066.72.196.219.128.393.302.524.52.131.216.196.458.196.724 0 .267-.065.51-.196.728-.131.216-.305.39-.524.52-.216.128-.456.192-.72.192zm0-.532c.165 0 .316-.041.452-.124.139-.082.249-.192.332-.328.083-.138.124-.29.124-.456 0-.165-.041-.316-.124-.452-.083-.138-.193-.249-.332-.332-.136-.082-.287-.124-.452-.124s-.317.042-.456.124c-.136.083-.245.194-.328.332-.083.136-.124.287-.124.452 0 .166.041.318.124.456.083.136.192.246.328.328.139.083.291.124.456.124z" fill="url(#k)"/><path d="m93.5108 94.5729c.69-3.8058 4.0039-6.5729 7.8722-6.5729h61.036c4.99 0 8.762 4.5176 7.872 9.4272l-5.802 31.9998c-.69 3.806-4.004 6.573-7.872 6.573h-61.0362c-4.9896 0-8.7618-4.518-7.8716-9.427z" fill="#1f1f1f"/><path d="m113.223 109v-5.76h.588v5.76zm5.227 0v-2.204c0-.24-.022-.46-.068-.66-.045-.203-.118-.379-.22-.528-.098-.152-.228-.269-.388-.352-.157-.083-.349-.124-.576-.124-.208 0-.392.036-.552.108-.157.072-.29.176-.4.312-.106.133-.188.296-.244.488s-.084.411-.084.656l-.416-.092c0-.443.078-.815.232-1.116.155-.301.368-.529.64-.684s.584-.232.936-.232c.259 0 .484.04.676.12.195.08.359.188.492.324.136.136.246.292.328.468.083.173.143.359.18.556.038.195.056.389.056.584v2.376zm-3.124 0v-4.32h.532v1.064h.06v3.256zm4.994-2.268v-.504h2.4v.504zm5.476 4.308c-.222 0-.44-.033-.656-.1-.214-.064-.411-.167-.592-.308-.182-.139-.334-.32-.456-.544l.532-.296c.12.24.288.412.504.516.218.107.441.16.668.16.312 0 .564-.059.756-.176.194-.115.336-.285.424-.512s.13-.509.128-.848v-1.152h.068v-3.1h.524v4.26c0 .123-.004.24-.012.352-.006.115-.018.227-.036.336-.051.323-.156.588-.316.796-.158.208-.366.363-.624.464-.256.101-.56.152-.912.152zm-.04-1.92c-.403 0-.747-.1-1.032-.3-.286-.203-.504-.476-.656-.82s-.228-.732-.228-1.164c0-.429.074-.816.224-1.16.152-.344.369-.616.652-.816.282-.2.621-.3 1.016-.3.405 0 .746.099 1.024.296.277.197.486.468.628.812.144.341.216.731.216 1.168 0 .429-.071.817-.212 1.164-.142.344-.35.617-.624.82-.275.2-.611.3-1.008.3zm.06-.548c.306 0 .56-.075.76-.224s.349-.355.448-.616c.098-.264.148-.563.148-.896 0-.339-.05-.637-.148-.896-.099-.261-.248-.465-.448-.612-.198-.147-.447-.22-.748-.22-.31 0-.566.076-.768.228-.203.152-.354.359-.452.62-.096.261-.144.555-.144.88 0 .328.049.624.148.888.101.261.252.468.452.62s.45.228.752.228zm4.554.548c-.325 0-.599-.059-.82-.176-.219-.117-.383-.273-.492-.468s-.164-.407-.164-.636c0-.235.047-.435.14-.6.096-.168.225-.305.388-.412.165-.107.356-.188.572-.244.219-.053.46-.1.724-.14.267-.043.527-.079.78-.108.256-.032.48-.063.672-.092l-.208.128c.008-.427-.075-.743-.248-.948s-.475-.308-.904-.308c-.296 0-.547.067-.752.2-.203.133-.345.344-.428.632l-.572-.168c.099-.387.297-.687.596-.9s.687-.32 1.164-.32c.395 0 .729.075 1.004.224.277.147.473.36.588.64.053.125.088.265.104.42s.024.312.024.472v2.684h-.524v-1.084l.152.064c-.147.371-.375.653-.684.848s-.68.292-1.112.292zm.068-.508c.275 0 .515-.049.72-.148s.371-.233.496-.404c.125-.173.207-.368.244-.584.032-.139.049-.291.052-.456.003-.168.004-.293.004-.376l.224.116c-.2.027-.417.053-.652.08-.232.027-.461.057-.688.092-.224.035-.427.076-.608.124-.123.035-.241.084-.356.148-.115.061-.209.144-.284.248-.072.104-.108.233-.108.388 0 .125.031.247.092.364.064.117.165.215.304.292.141.077.328.116.56.116zm8.613.388.004-2.836c0-.333-.093-.595-.28-.784-.184-.192-.418-.288-.704-.288-.162 0-.321.037-.476.112-.154.075-.282.195-.384.36-.098.165-.148.381-.148.648l-.348-.1c-.008-.309.052-.58.18-.812.131-.232.31-.412.536-.54.23-.131.488-.196.776-.196.435 0 .783.135 1.044.404.262.267.392.628.392 1.084l-.004 2.948zm-5.156 0v-4.32h.528v1.064h.064v3.256zm2.584 0 .004-2.796c0-.344-.092-.615-.276-.812-.181-.2-.421-.3-.72-.3-.298 0-.54.103-.724.308-.184.203-.276.473-.276.812l-.352-.192c0-.277.066-.525.196-.744.131-.221.31-.395.536-.52.227-.128.484-.192.772-.192.275 0 .519.059.732.176.216.117.386.288.508.512.123.224.184.496.184.816l-.004 2.932zm6.326.12c-.421 0-.786-.093-1.096-.28-.306-.187-.545-.449-.716-.788-.17-.339-.256-.736-.256-1.192 0-.472.084-.88.252-1.224s.404-.609.708-.796c.307-.187.668-.28 1.084-.28.427 0 .791.099 1.092.296.302.195.53.475.684.84.155.365.226.801.212 1.308h-.6v-.208c-.01-.56-.132-.983-.364-1.268-.229-.285-.565-.428-1.008-.428-.464 0-.82.151-1.068.452-.245.301-.368.731-.368 1.288 0 .544.123.967.368 1.268.248.299.599.448 1.052.448.31 0 .579-.071.808-.212.232-.144.415-.351.548-.62l.548.212c-.17.376-.422.668-.756.876-.33.205-.705.308-1.124.308zm-1.652-2.116v-.492h3.3v.492zm-28.171 13.116c-.398 0-.734-.1-1.008-.3-.275-.203-.483-.476-.624-.82-.142-.347-.212-.735-.212-1.164 0-.437.07-.827.212-1.168.144-.344.354-.615.632-.812.277-.197.618-.296 1.024-.296.394 0 .733.1 1.016.3.282.2.498.472.648.816.152.344.228.731.228 1.16 0 .432-.076.82-.228 1.164s-.371.617-.656.82c-.286.2-.63.3-1.032.3zm-1.944 1.8v-6.24h.528v3.252h.064v2.988zm1.884-2.348c.301 0 .552-.076.752-.228s.349-.359.448-.62c.101-.264.152-.56.152-.888 0-.325-.05-.619-.148-.88-.099-.261-.25-.468-.452-.62-.2-.152-.455-.228-.764-.228-.302 0-.552.073-.752.22-.198.147-.346.351-.444.612-.099.259-.148.557-.148.896 0 .333.049.632.148.896.098.261.248.467.448.616s.453.224.76.224zm4.826.536c-.259 0-.485-.04-.68-.12-.192-.08-.356-.188-.492-.324-.133-.136-.241-.291-.324-.464-.083-.176-.143-.361-.18-.556-.037-.197-.056-.393-.056-.588v-2.376h.592v2.204c0 .237.023.457.068.66s.117.38.216.532c.101.149.231.265.388.348.16.083.353.124.58.124.208 0 .391-.036.548-.108.16-.072.293-.175.4-.308.109-.136.192-.3.248-.492.056-.195.084-.413.084-.656l.416.092c0 .443-.077.815-.232 1.116s-.368.529-.64.684-.584.232-.936.232zm1.452-.108v-1.064h-.06v-3.256h.588v4.32zm1.966 0v-4.32h.528v1.04l-.104-.136c.048-.128.111-.245.188-.352.077-.109.161-.199.252-.268.112-.099.243-.173.392-.224.149-.053.3-.084.452-.092.152-.011.291 0 .416.032v.552c-.157-.04-.329-.049-.516-.028s-.359.096-.516.224c-.144.112-.252.247-.324.404-.072.155-.12.32-.144.496-.024.173-.036.345-.036.516v2.156zm4.917.12c-.435 0-.803-.097-1.104-.292-.302-.195-.531-.463-.688-.804-.155-.344-.235-.739-.24-1.184.005-.453.088-.851.248-1.192.16-.344.39-.611.692-.8.301-.192.666-.288 1.096-.288.437 0 .817.107 1.14.32.325.213.548.505.668.876l-.576.184c-.102-.259-.263-.459-.484-.6-.219-.144-.47-.216-.752-.216-.318 0-.58.073-.788.22-.208.144-.363.345-.464.604-.102.259-.154.556-.156.892.005.517.125.933.36 1.248.234.312.584.468 1.048.468.293 0 .542-.067.748-.2.208-.136.365-.333.472-.592l.592.176c-.16.384-.395.677-.704.88-.31.2-.679.3-1.108.3zm6.077-.12v-2.204c0-.24-.022-.46-.068-.66-.045-.203-.118-.379-.22-.528-.098-.152-.228-.269-.388-.352-.157-.083-.349-.124-.576-.124-.208 0-.392.036-.552.108-.157.072-.29.176-.4.312-.106.133-.188.296-.244.488s-.084.411-.084.656l-.416-.092c0-.443.078-.815.232-1.116.155-.301.368-.529.64-.684s.584-.232.936-.232c.259 0 .484.04.676.12.195.08.359.188.492.324.136.136.246.292.328.468.083.173.143.359.18.556.038.195.056.389.056.584v2.376zm-3.124 0v-5.76h.532v3.252h.06v2.508zm6.31.12c-.325 0-.598-.059-.82-.176-.218-.117-.382-.273-.492-.468-.109-.195-.164-.407-.164-.636 0-.235.047-.435.14-.6.096-.168.226-.305.388-.412.166-.107.356-.188.572-.244.219-.053.46-.1.724-.14.267-.043.527-.079.78-.108.256-.032.48-.063.672-.092l-.208.128c.008-.427-.074-.743-.248-.948-.173-.205-.474-.308-.904-.308-.296 0-.546.067-.752.2-.202.133-.345.344-.428.632l-.572-.168c.099-.387.298-.687.596-.9.299-.213.687-.32 1.164-.32.395 0 .73.075 1.004.224.278.147.474.36.588.64.054.125.088.265.104.42s.024.312.024.472v2.684h-.524v-1.084l.152.064c-.146.371-.374.653-.684.848-.309.195-.68.292-1.112.292zm.068-.508c.275 0 .515-.049.72-.148.206-.099.371-.233.496-.404.126-.173.207-.368.244-.584.032-.139.05-.291.052-.456.003-.168.004-.293.004-.376l.224.116c-.2.027-.417.053-.652.08-.232.027-.461.057-.688.092-.224.035-.426.076-.608.124-.122.035-.241.084-.356.148-.114.061-.209.144-.284.248-.072.104-.108.233-.108.388 0 .125.031.247.092.364.064.117.166.215.304.292.142.077.328.116.56.116zm5.074.504c-.507 0-.924-.109-1.252-.328-.326-.219-.526-.523-.6-.912l.6-.1c.064.245.209.441.436.588.229.144.512.216.848.216.328 0 .586-.068.776-.204.189-.139.284-.327.284-.564 0-.133-.031-.241-.092-.324-.059-.085-.18-.164-.364-.236s-.459-.157-.824-.256c-.392-.107-.699-.213-.92-.32-.222-.107-.379-.229-.472-.368-.094-.141-.14-.313-.14-.516 0-.245.069-.46.208-.644.138-.187.33-.331.576-.432.245-.104.53-.156.856-.156.325 0 .616.053.872.16.258.104.466.251.624.44.157.189.25.409.28.66l-.6.108c-.04-.253-.167-.453-.38-.6-.211-.149-.479-.227-.804-.232-.307-.008-.556.051-.748.176-.192.123-.288.287-.288.492 0 .115.034.213.104.296.069.08.194.156.376.228.184.072.445.151.784.236.397.101.709.208.936.32.226.112.388.244.484.396s.144.34.144.564c0 .408-.152.729-.456.964-.302.232-.718.348-1.248.348zm4.739.004c-.422 0-.787-.093-1.096-.28-.307-.187-.546-.449-.716-.788-.171-.339-.256-.736-.256-1.192 0-.472.084-.88.252-1.224s.404-.609.708-.796c.306-.187.668-.28 1.084-.28.426 0 .79.099 1.092.296.301.195.529.475.684.84.154.365.225.801.212 1.308h-.6v-.208c-.011-.56-.132-.983-.364-1.268-.23-.285-.566-.428-1.008-.428-.464 0-.82.151-1.068.452-.246.301-.368.731-.368 1.288 0 .544.122.967.368 1.268.248.299.598.448 1.052.448.309 0 .578-.071.808-.212.232-.144.414-.351.548-.62l.548.212c-.171.376-.423.668-.756.876-.331.205-.706.308-1.124.308zm-1.652-2.116v-.492h3.3v.492z" fill="#fbfaff"/><path d="m179.511 94.5729c.69-3.8058 4.004-6.5729 7.872-6.5729h61.036c4.99 0 8.762 4.5176 7.872 9.4272l-5.802 31.9998c-.69 3.806-4.004 6.573-7.872 6.573h-61.036c-4.99 0-8.762-4.518-7.872-9.427z" fill="#1f1f1f"/><path d="m190.866 104v-5.76h.54l2.264 4.844 2.252-4.844h.548v5.756h-.56v-4.444l-2.052 4.448h-.38l-2.048-4.448v4.448zm8.283.12c-.325 0-.599-.059-.82-.176-.219-.117-.383-.273-.492-.468s-.164-.407-.164-.636c0-.235.047-.435.14-.6.096-.168.225-.305.388-.412.165-.107.356-.188.572-.244.219-.053.46-.1.724-.14.267-.043.527-.079.78-.108.256-.032.48-.063.672-.092l-.208.128c.008-.427-.075-.743-.248-.948s-.475-.308-.904-.308c-.296 0-.547.067-.752.2-.203.133-.345.344-.428.632l-.572-.168c.099-.387.297-.687.596-.9.299-.2133.687-.32 1.164-.32.395 0 .729.0747 1.004.224.277.1467.473.36.588.64.053.125.088.265.104.42s.024.312.024.472v2.684h-.524v-1.084l.152.064c-.147.371-.375.653-.684.848s-.68.292-1.112.292zm.068-.508c.275 0 .515-.049.72-.148s.371-.233.496-.404c.125-.173.207-.368.244-.584.032-.139.049-.291.052-.456.003-.168.004-.293.004-.376l.224.116c-.2.027-.417.053-.652.08-.232.027-.461.057-.688.092-.224.035-.427.076-.608.124-.123.035-.241.084-.356.148-.115.061-.209.144-.284.248-.072.104-.108.233-.108.388 0 .125.031.247.092.364.064.117.165.215.304.292.141.077.328.116.56.116zm3.461.388v-4.32h.528v1.04l-.104-.136c.048-.128.111-.245.188-.352.078-.109.162-.199.252-.268.112-.0987.243-.1733.392-.224.15-.0533.3-.084.452-.092.152-.0107.291 0 .416.032v.552c-.157-.04-.329-.049-.516-.028-.186.021-.358.096-.516.224-.144.112-.252.247-.324.404-.072.155-.12.32-.144.496-.024.173-.036.345-.036.516v2.156zm3.199 0 .004-5.76h.592v3.52l1.928-2.08h.784l-2.024 2.16 2.288 2.16h-.856l-2.12-2.08v2.08zm6.043.12c-.422 0-.787-.093-1.096-.28-.307-.187-.546-.449-.716-.788-.171-.339-.256-.736-.256-1.192 0-.472.084-.88.252-1.224s.404-.609.708-.796c.306-.1867.668-.28 1.084-.28.426 0 .79.0987 1.092.296.301.195.529.475.684.84.154.365.225.801.212 1.308h-.6v-.208c-.011-.56-.132-.983-.364-1.268-.23-.285-.566-.428-1.008-.428-.464 0-.82.151-1.068.452-.246.301-.368.731-.368 1.288 0 .544.122.967.368 1.268.248.299.598.448 1.052.448.309 0 .578-.071.808-.212.232-.144.414-.351.548-.62l.548.212c-.171.376-.423.668-.756.876-.331.205-.706.308-1.124.308zm-1.652-2.116v-.492h3.3v.492zm7.175 1.996c-.242.051-.482.071-.72.06-.234-.011-.445-.061-.632-.152-.184-.091-.324-.232-.42-.424-.077-.16-.12-.321-.128-.484-.005-.165-.008-.353-.008-.564v-3.956h.584v3.932c0 .181.002.333.004.456.006.12.034.227.084.32.096.179.248.285.456.32.211.035.471.027.78-.024zm-2.832-3.816v-.504h2.832v.504zm5.944 3.936c-.398 0-.734-.1-1.008-.3-.275-.203-.483-.476-.624-.82-.142-.347-.212-.735-.212-1.164 0-.437.07-.827.212-1.168.144-.344.354-.615.632-.812.277-.1973.618-.296 1.024-.296.394 0 .733.1 1.016.3.282.2.498.472.648.816.152.344.228.731.228 1.16 0 .432-.076.82-.228 1.164s-.371.617-.656.82c-.286.2-.63.3-1.032.3zm-1.944 1.8v-6.24h.528v3.252h.064v2.988zm1.884-2.348c.301 0 .552-.076.752-.228s.349-.359.448-.62c.101-.264.152-.56.152-.888 0-.325-.05-.619-.148-.88-.099-.261-.25-.468-.452-.62-.2-.152-.455-.228-.764-.228-.302 0-.552.073-.752.22-.198.147-.346.351-.444.612-.099.259-.148.557-.148.896 0 .333.049.632.148.896.098.261.248.467.448.616s.453.224.76.224zm3.254.428v-5.88h.588v5.88zm3.343.12c-.325 0-.599-.059-.82-.176-.219-.117-.383-.273-.492-.468s-.164-.407-.164-.636c0-.235.047-.435.14-.6.096-.168.225-.305.388-.412.165-.107.356-.188.572-.244.219-.053.46-.1.724-.14.267-.043.527-.079.78-.108.256-.032.48-.063.672-.092l-.208.128c.008-.427-.075-.743-.248-.948s-.475-.308-.904-.308c-.296 0-.547.067-.752.2-.203.133-.345.344-.428.632l-.572-.168c.099-.387.297-.687.596-.9.299-.2133.687-.32 1.164-.32.395 0 .729.0747 1.004.224.277.1467.473.36.588.64.053.125.088.265.104.42s.024.312.024.472v2.684h-.524v-1.084l.152.064c-.147.371-.375.653-.684.848s-.68.292-1.112.292zm.068-.508c.275 0 .515-.049.72-.148s.371-.233.496-.404c.125-.173.207-.368.244-.584.032-.139.049-.291.052-.456.003-.168.004-.293.004-.376l.224.116c-.2.027-.417.053-.652.08-.232.027-.461.057-.688.092-.224.035-.427.076-.608.124-.123.035-.241.084-.356.148-.115.061-.209.144-.284.248-.072.104-.108.233-.108.388 0 .125.031.247.092.364.064.117.165.215.304.292.141.077.328.116.56.116zm5.253.508c-.434 0-.802-.097-1.104-.292-.301-.195-.53-.463-.688-.804-.154-.344-.234-.739-.24-1.184.006-.453.088-.851.248-1.192.16-.344.391-.611.692-.8.302-.192.667-.288 1.096-.288.438 0 .818.1067 1.14.32.326.213.548.505.668.876l-.576.184c-.101-.259-.262-.459-.484-.6-.218-.144-.469-.216-.752-.216-.317 0-.58.073-.788.22-.208.144-.362.345-.464.604-.101.259-.153.556-.156.892.006.517.126.933.36 1.248.235.312.584.468 1.048.468.294 0 .543-.067.748-.2.208-.136.366-.333.472-.592l.592.176c-.16.384-.394.677-.704.88-.309.2-.678.3-1.108.3zm4.669 0c-.421 0-.787-.093-1.096-.28-.307-.187-.545-.449-.716-.788s-.256-.736-.256-1.192c0-.472.084-.88.252-1.224s.404-.609.708-.796c.307-.1867.668-.28 1.084-.28.427 0 .791.0987 1.092.296.301.195.529.475.684.84s.225.801.212 1.308h-.6v-.208c-.011-.56-.132-.983-.364-1.268-.229-.285-.565-.428-1.008-.428-.464 0-.82.151-1.068.452-.245.301-.368.731-.368 1.288 0 .544.123.967.368 1.268.248.299.599.448 1.052.448.309 0 .579-.071.808-.212.232-.144.415-.351.548-.62l.548.212c-.171.376-.423.668-.756.876-.331.205-.705.308-1.124.308zm-1.652-2.116v-.492h3.3v.492zm-52.355 12.996c-.243.051-.483.071-.72.06-.235-.011-.446-.061-.632-.152-.184-.091-.324-.232-.42-.424-.078-.16-.12-.321-.128-.484-.006-.165-.008-.353-.008-.564v-3.956h.584v3.932c0 .181.001.333.004.456.005.12.033.227.084.32.096.179.248.285.456.32.21.035.47.027.78-.024zm-2.832-3.816v-.504h2.832v.504zm4.003 3.816v-4.32h.528v1.04l-.104-.136c.048-.128.111-.245.188-.352.077-.109.161-.199.252-.268.112-.099.243-.173.392-.224.149-.053.3-.084.452-.092.152-.011.291 0 .416.032v.552c-.157-.04-.329-.049-.516-.028s-.359.096-.516.224c-.144.112-.252.247-.324.404-.072.155-.12.32-.144.496-.024.173-.036.345-.036.516v2.156zm4.275.12c-.326 0-.599-.059-.82-.176-.219-.117-.383-.273-.492-.468-.11-.195-.164-.407-.164-.636 0-.235.046-.435.14-.6.096-.168.225-.305.388-.412.165-.107.356-.188.572-.244.218-.053.46-.1.724-.14.266-.043.526-.079.78-.108.256-.032.48-.063.672-.092l-.208.128c.008-.427-.075-.743-.248-.948-.174-.205-.475-.308-.904-.308-.296 0-.547.067-.752.2-.203.133-.346.344-.428.632l-.572-.168c.098-.387.297-.687.596-.9.298-.213.686-.32 1.164-.32.394 0 .729.075 1.004.224.277.147.473.36.588.64.053.125.088.265.104.42s.024.312.024.472v2.684h-.524v-1.084l.152.064c-.147.371-.375.653-.684.848-.31.195-.68.292-1.112.292zm.068-.508c.274 0 .514-.049.72-.148.205-.099.37-.233.496-.404.125-.173.206-.368.244-.584.032-.139.049-.291.052-.456.002-.168.004-.293.004-.376l.224.116c-.2.027-.418.053-.652.08-.232.027-.462.057-.688.092-.224.035-.427.076-.608.124-.123.035-.242.084-.356.148-.115.061-.21.144-.284.248-.072.104-.108.233-.108.388 0 .125.03.247.092.364.064.117.165.215.304.292.141.077.328.116.56.116zm6.581.388v-2.204c0-.24-.023-.46-.068-.66-.045-.203-.119-.379-.22-.528-.099-.152-.228-.269-.388-.352-.157-.083-.349-.124-.576-.124-.208 0-.392.036-.552.108-.157.072-.291.176-.4.312-.107.133-.188.296-.244.488s-.084.411-.084.656l-.416-.092c0-.443.077-.815.232-1.116s.368-.529.64-.684.584-.232.936-.232c.259 0 .484.04.676.12.195.08.359.188.492.324.136.136.245.292.328.468.083.173.143.359.18.556.037.195.056.389.056.584v2.376zm-3.124 0v-4.32h.532v1.064h.06v3.256zm6.686.116c-.507 0-.924-.109-1.252-.328-.325-.219-.525-.523-.6-.912l.6-.1c.064.245.209.441.436.588.229.144.512.216.848.216.328 0 .587-.068.776-.204.189-.139.284-.327.284-.564 0-.133-.031-.241-.092-.324-.059-.085-.18-.164-.364-.236s-.459-.157-.824-.256c-.392-.107-.699-.213-.92-.32s-.379-.229-.472-.368c-.093-.141-.14-.313-.14-.516 0-.245.069-.46.208-.644.139-.187.331-.331.576-.432.245-.104.531-.156.856-.156s.616.053.872.16c.259.104.467.251.624.44s.251.409.28.66l-.6.108c-.04-.253-.167-.453-.38-.6-.211-.149-.479-.227-.804-.232-.307-.008-.556.051-.748.176-.192.123-.288.287-.288.492 0 .115.035.213.104.296.069.08.195.156.376.228.184.072.445.151.784.236.397.101.709.208.936.32s.388.244.484.396.144.34.144.564c0 .408-.152.729-.456.964-.301.232-.717.348-1.248.348zm4.147.004c-.325 0-.599-.059-.82-.176-.219-.117-.383-.273-.492-.468s-.164-.407-.164-.636c0-.235.047-.435.14-.6.096-.168.225-.305.388-.412.165-.107.356-.188.572-.244.219-.053.46-.1.724-.14.267-.043.527-.079.78-.108.256-.032.48-.063.672-.092l-.208.128c.008-.427-.075-.743-.248-.948s-.475-.308-.904-.308c-.296 0-.547.067-.752.2-.203.133-.345.344-.428.632l-.572-.168c.099-.387.297-.687.596-.9s.687-.32 1.164-.32c.395 0 .729.075 1.004.224.277.147.473.36.588.64.053.125.088.265.104.42s.024.312.024.472v2.684h-.524v-1.084l.152.064c-.147.371-.375.653-.684.848s-.68.292-1.112.292zm.068-.508c.275 0 .515-.049.72-.148s.371-.233.496-.404c.125-.173.207-.368.244-.584.032-.139.049-.291.052-.456.003-.168.004-.293.004-.376l.224.116c-.2.027-.417.053-.652.08-.232.027-.461.057-.688.092-.224.035-.427.076-.608.124-.123.035-.241.084-.356.148-.115.061-.209.144-.284.248-.072.104-.108.233-.108.388 0 .125.031.247.092.364.064.117.165.215.304.292.141.077.328.116.56.116zm5.253.508c-.434 0-.802-.097-1.104-.292-.301-.195-.53-.463-.688-.804-.154-.344-.234-.739-.24-1.184.006-.453.088-.851.248-1.192.16-.344.391-.611.692-.8.302-.192.667-.288 1.096-.288.438 0 .818.107 1.14.32.326.213.548.505.668.876l-.576.184c-.101-.259-.262-.459-.484-.6-.218-.144-.469-.216-.752-.216-.317 0-.58.073-.788.22-.208.144-.362.345-.464.604-.101.259-.153.556-.156.892.006.517.126.933.36 1.248.235.312.584.468 1.048.468.294 0 .543-.067.748-.2.208-.136.366-.333.472-.592l.592.176c-.16.384-.394.677-.704.88-.309.2-.678.3-1.108.3zm5.31-.12c-.243.051-.483.071-.72.06-.235-.011-.445-.061-.632-.152-.184-.091-.324-.232-.42-.424-.077-.16-.12-.321-.128-.484-.005-.165-.008-.353-.008-.564v-3.956h.584v3.932c0 .181.001.333.004.456.005.12.033.227.084.32.096.179.248.285.456.32.211.035.471.027.78-.024zm-2.832-3.816v-.504h2.832v.504zm4.083-1.324v-.66h.588v.66zm0 5.14v-4.32h.588v4.32zm3.911.12c-.429 0-.796-.097-1.1-.292s-.537-.464-.7-.808c-.162-.344-.244-.739-.244-1.184 0-.453.083-.851.248-1.192.166-.341.4-.607.704-.796.307-.192.671-.288 1.092-.288.432 0 .8.097 1.104.292.307.192.54.46.7.804.163.341.244.735.244 1.18 0 .453-.081.852-.244 1.196-.162.341-.397.608-.704.8-.306.192-.673.288-1.1.288zm0-.564c.48 0 .838-.159 1.072-.476.235-.32.352-.735.352-1.244 0-.523-.118-.939-.356-1.248-.234-.309-.59-.464-1.068-.464-.322 0-.589.073-.8.22-.208.144-.364.345-.468.604-.101.256-.152.552-.152.888 0 .52.12.937.36 1.252.24.312.594.468 1.06.468zm6.371.444v-2.204c0-.24-.023-.46-.068-.66-.046-.203-.119-.379-.22-.528-.099-.152-.228-.269-.388-.352-.158-.083-.35-.124-.576-.124-.208 0-.392.036-.552.108-.158.072-.291.176-.4.312-.107.133-.188.296-.244.488s-.084.411-.084.656l-.416-.092c0-.443.077-.815.232-1.116.154-.301.368-.529.64-.684s.584-.232.936-.232c.258 0 .484.04.676.12.194.08.358.188.492.324.136.136.245.292.328.468.082.173.142.359.18.556.037.195.056.389.056.584v2.376zm-3.124 0v-4.32h.532v1.064h.06v3.256zm7.423 0v-4.64c0-.112.006-.223.016-.332.014-.109.039-.213.076-.312.038-.101.096-.195.176-.28.088-.096.184-.165.288-.208.104-.045.212-.075.324-.088.115-.013.227-.02.336-.02h.552v.496h-.512c-.224 0-.392.055-.504.164-.109.109-.164.281-.164.516v4.704zm-.748-3.816v-.504h2.516v.504zm5.148 3.936c-.421 0-.787-.093-1.096-.28-.307-.187-.545-.449-.716-.788s-.256-.736-.256-1.192c0-.472.084-.88.252-1.224s.404-.609.708-.796c.307-.187.668-.28 1.084-.28.427 0 .791.099 1.092.296.301.195.529.475.684.84s.225.801.212 1.308h-.6v-.208c-.011-.56-.132-.983-.364-1.268-.229-.285-.565-.428-1.008-.428-.464 0-.82.151-1.068.452-.245.301-.368.731-.368 1.288 0 .544.123.967.368 1.268.248.299.599.448 1.052.448.309 0 .579-.071.808-.212.232-.144.415-.351.548-.62l.548.212c-.171.376-.423.668-.756.876-.331.205-.705.308-1.124.308zm-1.652-2.116v-.492h3.3v.492zm6.652 2.116c-.422 0-.787-.093-1.096-.28-.307-.187-.546-.449-.716-.788-.171-.339-.256-.736-.256-1.192 0-.472.084-.88.252-1.224s.404-.609.708-.796c.306-.187.668-.28 1.084-.28.426 0 .79.099 1.092.296.301.195.529.475.684.84.154.365.225.801.212 1.308h-.6v-.208c-.011-.56-.132-.983-.364-1.268-.23-.285-.566-.428-1.008-.428-.464 0-.82.151-1.068.452-.246.301-.368.731-.368 1.288 0 .544.122.967.368 1.268.248.299.598.448 1.052.448.309 0 .578-.071.808-.212.232-.144.414-.351.548-.62l.548.212c-.171.376-.423.668-.756.876-.331.205-.706.308-1.124.308zm-1.652-2.116v-.492h3.3v.492zm6.665-.272v-.504h5.28v.504z" fill="#fbfaff"/><path d="m205.709 125.996.004-.536 2.604-2.352c.224-.203.372-.395.444-.576.075-.184.112-.376.112-.576 0-.237-.056-.452-.168-.644s-.263-.344-.452-.456c-.189-.115-.401-.172-.636-.172-.245 0-.464.059-.656.176s-.344.272-.456.464c-.109.192-.163.401-.16.628h-.6c0-.349.083-.663.248-.94s.389-.495.672-.652c.283-.16.603-.24.96-.24.349 0 .663.083.94.248.28.163.5.384.66.664.163.277.244.587.244.928 0 .24-.029.452-.088.636-.056.181-.145.351-.268.508-.12.155-.273.315-.46.48l-2.312 2.088-.092-.24h3.22v.564zm5.155.004v-.684h.684v.684zm3.939.12c-.299 0-.575-.061-.828-.184-.254-.123-.47-.292-.648-.508-.179-.216-.307-.464-.384-.744l.564-.152c.05.208.142.388.276.54.133.149.289.265.468.348.181.083.37.124.568.124.256 0 .485-.061.688-.184.205-.125.368-.291.488-.496s.18-.431.18-.676c0-.253-.063-.481-.188-.684-.126-.205-.291-.368-.496-.488-.206-.12-.43-.18-.672-.18-.272 0-.507.06-.704.18-.198.117-.355.265-.472.444l-.536-.224.176-2.996h3.076v.564h-2.816l.292-.276-.156 2.556-.148-.196c.165-.189.365-.337.6-.444.234-.107.481-.16.74-.16.354 0 .674.085.96.256.285.168.512.396.68.684s.252.609.252.964c0 .352-.09.675-.268.968-.179.291-.416.524-.712.7s-.623.264-.98.264zm3.797-.12-.4-.4 5.372-5.36.4.396zm4.172.12c-.264 0-.505-.064-.724-.192-.216-.131-.389-.304-.52-.52-.131-.219-.196-.461-.196-.728 0-.261.067-.501.2-.72s.309-.393.528-.524.456-.196.712-.196c.264 0 .505.065.724.196.219.128.392.301.52.52.131.216.196.457.196.724s-.065.509-.196.728c-.128.216-.301.389-.52.52-.219.128-.46.192-.724.192zm0-.532c.163 0 .313-.041.452-.124s.249-.192.332-.328c.083-.139.124-.291.124-.456s-.041-.316-.124-.452c-.083-.139-.193-.249-.332-.332s-.289-.124-.452-.124c-.165 0-.317.041-.456.124-.136.083-.247.193-.332.332-.083.136-.124.287-.124.452s.041.317.124.456c.085.136.196.245.332.328.139.083.291.124.456.124zm-3.372-2.588c-.264 0-.505-.064-.724-.192-.219-.131-.393-.304-.524-.52-.128-.219-.192-.461-.192-.728 0-.261.067-.501.2-.72s.309-.393.528-.524.456-.196.712-.196c.264 0 .504.065.72.196.219.128.393.301.524.52.131.216.196.457.196.724s-.065.509-.196.728c-.131.216-.305.389-.524.52-.216.128-.456.192-.72.192zm0-.532c.165 0 .316-.041.452-.124.139-.083.249-.192.332-.328.083-.139.124-.291.124-.456s-.041-.316-.124-.452c-.083-.139-.193-.249-.332-.332-.136-.083-.287-.124-.452-.124s-.317.041-.456.124c-.136.083-.245.193-.328.332-.083.136-.124.287-.124.452s.041.317.124.456c.083.136.192.245.328.328.139.083.291.124.456.124z" fill="url(#l)"/><path d="m93.5108 6.57285c.69-3.80575 4.0039-6.57285 7.8722-6.57285h61.036c4.99 0 8.762 4.51758 7.872 9.42715l-5.802 31.99995c-.69 3.8058-4.004 6.5729-7.872 6.5729h-61.0362c-4.9896 0-8.7618-4.5176-7.8716-9.4272z" fill="#1f1f1f"/><path d="m93.5108 6.57285c.69-3.80575 4.0039-6.57285 7.8722-6.57285h61.036c4.99 0 8.762 4.51758 7.872 9.42715l-5.802 31.99995c-.69 3.8058-4.004 6.5729-7.872 6.5729h-61.0362c-4.9896 0-8.7618-4.5176-7.8716-9.4272z" fill="url(#m)"/><path d="m111.447 22.12c-.45 0-.849-.092-1.196-.276-.344-.1867-.613-.4467-.808-.78-.194-.336-.292-.7307-.292-1.184v-3.636l.848-.004v3.596c0 .2453.042.4613.124.648.083.1867.194.3427.332.468.139.1253.294.22.464.284.174.064.35.096.528.096.182 0 .358-.032.528-.096.174-.0667.33-.1627.468-.288.139-.1253.248-.2813.328-.468.083-.1867.124-.4013.124-.644v-3.596h.848v3.64c0 .4507-.097.844-.292 1.18-.194.336-.465.5973-.812.784-.344.184-.741.276-1.192.276zm5.387-.004c-.525 0-.953-.116-1.284-.348-.33-.232-.533-.5587-.608-.98l.856-.132c.054.224.176.4013.368.532.195.128.436.192.724.192.262 0 .466-.0533.612-.16.15-.1067.224-.2533.224-.44 0-.1093-.026-.1973-.08-.264-.05-.0693-.158-.1347-.324-.196-.165-.0613-.417-.1373-.756-.228-.37-.096-.665-.1987-.884-.308-.216-.112-.37-.2413-.464-.388-.09-.1493-.136-.3293-.136-.54 0-.2613.07-.4893.208-.684.139-.1947.334-.3453.584-.452.254-.1067.55-.16.888-.16.331 0 .626.052.884.156.259.104.468.252.628.444.16.1893.256.412.288.668l-.856.156c-.029-.208-.126-.372-.292-.492-.165-.12-.38-.1853-.644-.196-.253-.0107-.458.032-.616.128-.157.0933-.236.2227-.236.388 0 .096.03.1773.088.244.062.0667.179.1307.352.192.174.0613.43.1347.768.22.363.0933.651.1973.864.312.214.112.366.2467.456.404.094.1547.14.3427.14.564 0 .4267-.156.7613-.468 1.004-.309.2427-.737.364-1.284.364zm4.873.004c-.429 0-.806-.0933-1.132-.28-.322-.1893-.574-.452-.756-.788-.178-.3387-.268-.7307-.268-1.176 0-.472.088-.8813.264-1.228.179-.3467.427-.6147.744-.804.318-.1893.687-.284 1.108-.284.44 0 .815.1027 1.124.308.31.2027.54.492.692.868.155.376.216.8227.184 1.34h-.836v-.304c-.005-.5013-.101-.872-.288-1.112-.184-.24-.465-.36-.844-.36-.418 0-.733.132-.944.396-.21.264-.316.6453-.316 1.144 0 .4747.106.8427.316 1.104.211.2587.515.388.912.388.262 0 .487-.0587.676-.176.192-.12.342-.2907.448-.512l.82.26c-.168.3867-.422.6867-.764.9-.341.2107-.721.316-1.14.316zm-1.54-2.044v-.652h3.084v.652zm4.718 1.924v-4.32h.744v1.048l-.104-.136c.053-.1387.122-.2653.208-.38.085-.1173.184-.2133.296-.288.109-.08.23-.1413.364-.184.136-.0453.274-.072.416-.08.141-.0107.277-.004.408.02v.784c-.142-.0373-.299-.048-.472-.032-.171.016-.328.0707-.472.164-.136.088-.244.1947-.324.32-.078.1253-.134.2653-.168.42-.035.152-.052.3133-.052.484v2.18zm7.363.12c-.413 0-.76-.1-1.04-.3-.28-.2027-.492-.476-.636-.82s-.216-.732-.216-1.164.071-.82.212-1.164c.144-.344.355-.6147.632-.812.28-.2.624-.3 1.032-.3.405 0 .755.1 1.048.3.296.1973.524.468.684.812.16.3413.24.7293.24 1.164 0 .432-.08.8213-.24 1.168-.157.344-.383.616-.676.816-.291.2-.637.3-1.04.3zm-2.032-.12v-5.76h.84v2.652h-.096v3.108zm1.916-.636c.267 0 .487-.068.66-.204.176-.136.307-.3187.392-.548.088-.232.132-.4907.132-.776 0-.2827-.044-.5387-.132-.768-.085-.2293-.217-.412-.396-.548s-.407-.204-.684-.204c-.261 0-.477.064-.648.192-.168.128-.293.3067-.376.536-.08.2293-.12.4933-.12.792s.04.5627.12.792.207.4093.38.54.397.196.672.196zm4.903.752c-.298 0-.549-.048-.752-.144-.202-.096-.368-.2213-.496-.376-.125-.1573-.221-.328-.288-.512-.066-.184-.112-.364-.136-.54s-.036-.3307-.036-.464v-2.4h.848v2.124c0 .168.014.3413.04.52.03.176.083.34.16.492.08.152.191.2747.332.368.144.0933.331.14.56.14.15 0 .291-.024.424-.072.134-.0507.25-.1307.348-.24.102-.1093.18-.2533.236-.432.059-.1787.088-.396.088-.652l.52.196c0 .392-.073.7387-.22 1.04-.146.2987-.357.532-.632.7-.274.168-.606.252-.996.252zm1.428-.116v-1.248h-.1v-3.072h.844v4.32zm2.77 1.92.836-2.276.012.672-1.884-4.636h.872l1.408 3.58h-.256l1.344-3.58h.848l-2.384 6.24zm5.779-1.804c-.526 0-.954-.116-1.284-.348-.331-.232-.534-.5587-.608-.98l.856-.132c.053.224.176.4013.368.532.194.128.436.192.724.192.261 0 .465-.0533.612-.16.149-.1067.224-.2533.224-.44 0-.1093-.027-.1973-.08-.264-.051-.0693-.159-.1347-.324-.196-.166-.0613-.418-.1373-.756-.228-.371-.096-.666-.1987-.884-.308-.216-.112-.371-.2413-.464-.388-.091-.1493-.136-.3293-.136-.54 0-.2613.069-.4893.208-.684.138-.1947.333-.3453.584-.452.253-.1067.549-.16.888-.16.33 0 .625.052.884.156.258.104.468.252.628.444.16.1893.256.412.288.668l-.856.156c-.03-.208-.127-.372-.292-.492-.166-.12-.38-.1853-.644-.196-.254-.0107-.459.032-.616.128-.158.0933-.236.2227-.236.388 0 .096.029.1773.088.244.061.0667.178.1307.352.192.173.0613.429.1347.768.22.362.0933.65.1973.864.312.213.112.365.2467.456.404.093.1547.14.3427.14.564 0 .4267-.156.7613-.468 1.004-.31.2427-.738.364-1.284.364zm-36.496 10.884v-5.76h.836v5.76zm4.713.12c-.386 0-.742-.0667-1.068-.2-.325-.136-.608-.3333-.848-.592s-.426-.5733-.56-.944c-.133-.3707-.2-.792-.2-1.264 0-.6213.114-1.1547.34-1.6.227-.448.542-.792.944-1.032.403-.2427.867-.364 1.392-.364.678 0 1.218.1573 1.62.472.406.3147.682.7493.828 1.304l-.848.152c-.117-.344-.306-.6187-.568-.824-.261-.2053-.589-.3093-.984-.312-.408-.0027-.748.088-1.02.272-.269.184-.472.4427-.608.776-.136.3307-.205.716-.208 1.156-.002.44.064.8253.2 1.156.136.328.34.584.612.768.275.184.616.2773 1.024.28.328.0053.61-.0547.844-.18.238-.128.426-.3147.564-.56.139-.2453.228-.5467.268-.904h-1.12v-.672h2.008c.006.048.01.112.012.192.003.0773.004.1267.004.148 0 .5333-.102 1.0093-.308 1.428-.205.4187-.504.748-.896.988-.392.2373-.866.356-1.424.356zm5.025-.12v-4.972h-1.916v-.788h4.668v.788h-1.916v4.972zm7.864 0c-.272.0533-.539.076-.8.068s-.495-.0587-.7-.152-.36-.24-.464-.44c-.093-.1787-.144-.36-.152-.544-.005-.1867-.008-.3973-.008-.632v-3.82h.84v3.78c0 .1733.001.324.004.452.005.128.033.236.084.324.096.1653.248.26.456.284.211.0213.457.012.74-.028zm-2.952-3.648v-.672h2.952v.672zm5.863 3.768c-.432 0-.806-.0973-1.124-.292-.317-.1947-.562-.4627-.736-.804-.17-.344-.256-.74-.256-1.188 0-.4507.088-.8467.264-1.188.176-.344.423-.6107.74-.8.318-.192.688-.288 1.112-.288.432 0 .807.0973 1.124.292.318.1947.563.4627.736.804.174.3413.26.7347.26 1.18 0 .4507-.088.848-.264 1.192-.173.3413-.418.6093-.736.804-.317.192-.69.288-1.12.288zm0-.788c.414 0 .722-.1387.924-.416.206-.28.308-.64.308-1.08 0-.4507-.104-.8107-.312-1.08-.205-.272-.512-.408-.92-.408-.28 0-.51.064-.692.192-.181.1253-.316.3-.404.524-.088.2213-.132.4787-.132.772 0 .4533.104.816.312 1.088s.514.408.916.408zm3.315.668.004-5.76h.848v3.52l1.696-2.08h1.064l-1.792 2.16 1.976 2.16h-1.136l-1.808-2.08v2.08zm6.358.12c-.43 0-.807-.0933-1.132-.28-.323-.1893-.575-.452-.756-.788-.179-.3387-.268-.7307-.268-1.176 0-.472.088-.8813.264-1.228.178-.3467.426-.6147.744-.804.317-.1893.686-.284 1.108-.284.44 0 .814.1027 1.124.308.309.2027.54.492.692.868.154.376.216.8227.184 1.34h-.836v-.304c-.006-.5013-.102-.872-.288-1.112-.184-.24-.466-.36-.844-.36-.419 0-.734.132-.944.396-.211.264-.316.6453-.316 1.144 0 .4747.105.8427.316 1.104.21.2587.514.388.912.388.261 0 .486-.0587.676-.176.192-.12.341-.2907.448-.512l.82.26c-.168.3867-.423.6867-.764.9-.342.2107-.722.316-1.14.316zm-1.54-2.044v-.652h3.084v.652zm7.632 1.924v-2.124c0-.168-.015-.34-.044-.516-.027-.1787-.08-.344-.16-.496-.077-.152-.188-.2747-.332-.368-.141-.0933-.327-.14-.556-.14-.149 0-.291.0253-.424.076-.133.048-.251.1267-.352.236-.099.1093-.177.2533-.236.432-.056.1787-.084.396-.084.652l-.52-.196c0-.392.073-.7373.22-1.036.147-.3013.357-.536.632-.704s.607-.252.996-.252c.299 0 .549.048.752.144s.367.2227.492.38c.128.1547.225.324.292.508s.112.364.136.54.036.3307.036.464v2.4zm-3.036 0v-4.32h.748v1.248h.1v3.072z" fill="#fff"/><g stroke-width=".80614"><path d="m131.783 48.1946-5.567 39.6107" opacity=".5" stroke="url(#n)"/><path d="m41.4072 136.389-5.5669 39.611" opacity=".5" stroke="url(#o)"/><path d="m217.783 224-5.567 39.611" opacity=".5" stroke="url(#p)"/><path d="m217.783 311.611-5.567 39.61" opacity=".5" stroke="url(#q)"/><path d="m131.787 400.231-1.506 10.792c-.678 4.859 3.068 9.198 7.941 9.198h67.026c3.987 0 7.368-2.949 7.937-6.922l2.016-14.078" opacity=".5" stroke="url(#r)"/><path d="m217.567 136.195-5.567 39.61" opacity=".5" stroke="url(#s)"/></g></svg>