<svg fill="none" height="440" viewBox="0 0 1169 440" width="1169" xmlns="http://www.w3.org/2000/svg" xmlns:xlink="http://www.w3.org/1999/xlink"><filter id="a" color-interpolation-filters="sRGB" filterUnits="userSpaceOnUse" height="120" width="205.088" x=".455811" y="72"><feFlood flood-opacity="0" result="BackgroundImageFix"/><feColorMatrix in="SourceAlpha" result="hardAlpha" type="matrix" values="0 0 0 0 0 0 0 0 0 0 0 0 0 0 0 0 0 0 127 0"/><feOffset dy="10"/><feGaussianBlur stdDeviation="15"/><feComposite in2="hardAlpha" operator="out"/><feColorMatrix type="matrix" values="0 0 0 0 0.00784314 0 0 0 0 0.341177 0 0 0 0 0.854902 0 0 0 0.4 0"/><feBlend in2="BackgroundImageFix" mode="normal" result="effect1_dropShadow_19_947"/><feBlend in="SourceGraphic" in2="effect1_dropShadow_19_947" mode="normal" result="shape"/></filter><linearGradient id="b"><stop offset=".09375" stop-color="#fff"/><stop offset=".953125" stop-color="#fff" stop-opacity="0"/></linearGradient><linearGradient id="c" gradientUnits="userSpaceOnUse" x1="781" x2="670.832" xlink:href="#b" y1="215" y2="215"/><linearGradient id="d" gradientUnits="userSpaceOnUse" x1="530" x2="408.336" xlink:href="#b" y1="215" y2="215"/><linearGradient id="e" gradientUnits="userSpaceOnUse" x1="103.499" x2="134.319" y1="389.5" y2="189.174"><stop offset=".0861753" stop-color="#fff"/><stop offset=".868635" stop-color="#fff" stop-opacity="0"/></linearGradient><linearGradient id="f"><stop offset=".0989583" stop-color="#fff"/><stop offset=".868635" stop-color="#fff" stop-opacity="0"/></linearGradient><linearGradient id="g" gradientUnits="userSpaceOnUse" x1="124.451" x2="155.271" xlink:href="#f" y1="389.5" y2="189.174"/><linearGradient id="h" gradientUnits="userSpaceOnUse" x1="869.451" x2="900.271" xlink:href="#f" y1="389.5" y2="189.174"/><linearGradient id="i" gradientUnits="userSpaceOnUse" x1="1027" x2="916.832" xlink:href="#b" y1="215" y2="215"/><linearGradient id="j" gradientUnits="userSpaceOnUse" x1="286" x2="172" y1="122" y2="122"><stop offset=".161458" stop-color="#fff"/><stop offset=".90625" stop-color="#fff" stop-opacity="0"/></linearGradient><linearGradient id="k" gradientUnits="userSpaceOnUse" x1="415" x2="529" y1="214" y2="214"><stop offset=".0625" stop-color="#fff" stop-opacity="0"/><stop offset=".921875" stop-color="#fff"/></linearGradient><linearGradient id="l"><stop offset="0" stop-color="#0055d8"/><stop offset="1" stop-color="#2b7eff"/></linearGradient><linearGradient id="m" gradientUnits="userSpaceOnUse" x1="29" x2="182.819" xlink:href="#l" y1="152" y2="124.231"/><linearGradient id="n" gradientUnits="userSpaceOnUse" x1="58" x2="150.132" xlink:href="#l" y1="421" y2="403.349"/><linearGradient id="o" gradientUnits="userSpaceOnUse" x1="1039" x2="1151.69" xlink:href="#l" y1="421" y2="394.074"/><linearGradient id="p" gradientUnits="userSpaceOnUse" x1="292" x2="414.12" xlink:href="#l" y1="430" y2="409.496"/><linearGradient id="q" gradientUnits="userSpaceOnUse" x1="547" x2="652.359" xlink:href="#l" y1="231" y2="207.64"/><linearGradient id="r" gradientUnits="userSpaceOnUse" x1="794" x2="901.208" xlink:href="#l" y1="231" y2="206.769"/><linearGradient id="s" gradientUnits="userSpaceOnUse" x1="1046" x2="1145.75" xlink:href="#l" y1="231" y2="210.172"/><linearGradient id="t" gradientUnits="userSpaceOnUse" x1="278" x2="286.54" xlink:href="#l" y1="34" y2="33.375"/><linearGradient id="u" gradientUnits="userSpaceOnUse" x1="526" x2="534.54" xlink:href="#l" y1="218" y2="217.375"/><linearGradient id="v" gradientUnits="userSpaceOnUse" x1="774" x2="782.54" xlink:href="#l" y1="218" y2="217.375"/><linearGradient id="w" gradientUnits="userSpaceOnUse" x1="1022" x2="1030.54" xlink:href="#l" y1="218" y2="217.375"/><linearGradient id="x" gradientUnits="userSpaceOnUse" x1="278" x2="286.54" xlink:href="#l" y1="218" y2="217.375"/><linearGradient id="y" gradientUnits="userSpaceOnUse" x1="347" x2="355.54" xlink:href="#l" y1="372" y2="371.375"/><linearGradient id="z" gradientUnits="userSpaceOnUse" x1="1091" x2="1099.54" xlink:href="#l" y1="378" y2="377.375"/><linearGradient id="A" gradientUnits="userSpaceOnUse" x1="99" x2="107.54" xlink:href="#l" y1="378" y2="377.375"/><path d="m666 214h115" opacity=".5" stroke="url(#c)"/><path d="m403 214h127" opacity=".5" stroke="url(#d)"/><path d="m333.902 213.5-9.043 62.577c-1.89 13.076-2.835 19.614-7.344 23.519-4.509 3.904-11.115 3.904-24.327 3.904h-151.82c-13.062 0-19.593 0-24.083 3.841-4.491 3.84-5.504 10.292-7.529 23.197l-9.256 58.962" opacity=".5" stroke="url(#e)"/><path d="m371.853 213.5-21.902 162" opacity=".5" stroke="url(#g)"/><path d="m1116.85 213.5-21.9 162" opacity=".5" stroke="url(#h)"/><path d="m912 214h115" opacity=".5" stroke="url(#i)"/><path d="m167 122h25.729c12.797 0 19.196 0 23.652-3.728s5.586-10.027 7.845-22.623l7.048-39.298c2.259-12.5963 3.389-18.8945 7.845-22.6228 4.456-3.7282 10.855-3.7282 23.652-3.7282h23.229" opacity=".5" stroke="url(#j)"/><path d="m167 122h15.262c17.311 0 25.966 0 30.754 5.572s3.486 14.129.882 31.242l-2.796 18.372c-2.604 17.113-3.906 25.67.882 31.242s13.443 5.572 30.754 5.572h43.262" opacity=".5" stroke="url(#j)"/><path d="m534 214h-22.262c-17.311 0-25.966 0-30.754-5.572s-3.486-14.129-.882-31.242l16.796-110.3718c2.604-17.1135 3.906-25.6702-.882-31.2422s-13.443-5.572-30.754-5.572h-50.262" opacity=".5" stroke="url(#k)"/><path d="m534 214h-32.075c-13.087 0-19.631 0-24.124 3.851-4.494 3.851-5.496 10.318-7.499 23.251l-20.104 129.796c-2.003 12.933-3.005 19.4-7.499 23.251-4.493 3.851-11.037 3.851-24.124 3.851h-3.575" opacity=".5" stroke="url(#k)"/><g filter="url(#a)"><path d="m37.9686 98.6732c.6479-3.8522 3.983-6.6732 7.8892-6.6732h121.6842c4.948 0 8.71 4.4471 7.889 9.327l-7.4 44c-.647 3.852-3.983 6.673-7.889 6.673h-121.6842c-4.9483 0-8.7099-4.447-7.8892-9.327z" fill="url(#m)"/></g><path d="m74.3027 119.21c-.7887 0-1.4863-.161-2.093-.483-.602-.327-1.0733-.782-1.414-1.365-.3407-.588-.511-1.279-.511-2.072v-6.363l1.484-.007v6.293c0 .429.0723.807.217 1.134s.3383.6.581.819.5133.385.812.497c.3033.112.6113.168.924.168.3173 0 .6253-.056.924-.168.3033-.117.5763-.285.819-.504s.434-.492.574-.819c.1447-.327.217-.702.217-1.127v-6.293h1.484v6.37c0 .789-.1703 1.477-.511 2.065s-.8143 1.045-1.421 1.372c-.602.322-1.2973.483-2.086.483zm8.8671-.007c-.9193 0-1.6683-.203-2.247-.609-.5786-.406-.9333-.978-1.064-1.715l1.498-.231c.0934.392.308.702.644.931.3407.224.763.336 1.267.336.4574 0 .8144-.093 1.071-.28.2614-.187.392-.443.392-.77 0-.191-.0466-.345-.14-.462-.0886-.121-.2776-.236-.567-.343-.2893-.107-.7303-.24-1.323-.399-.6486-.168-1.1643-.348-1.547-.539-.378-.196-.6486-.422-.812-.679-.1586-.261-.238-.576-.238-.945 0-.457.1214-.856.364-1.197.2427-.341.5834-.604 1.022-.791.4434-.187.9614-.28 1.554-.28.5787 0 1.0944.091 1.547.273.4527.182.819.441 1.099.777.28.331.448.721.504 1.169l-1.498.273c-.0513-.364-.2216-.651-.511-.861-.2893-.21-.665-.324-1.127-.343-.4433-.019-.8026.056-1.078.224-.2753.163-.413.39-.413.679 0 .168.0514.31.154.427.1074.117.3127.229.616.336.3034.107.7514.236 1.344.385.6347.163 1.1387.345 1.512.546.3734.196.6394.432.798.707.1634.271.245.6.245.987 0 .747-.273 1.332-.819 1.757-.5413.425-1.2903.637-2.247.637zm7.9679.007c-.7513 0-1.4117-.163-1.981-.49-.5647-.331-1.0057-.791-1.323-1.379-.3127-.593-.469-1.279-.469-2.058 0-.826.154-1.542.462-2.149.3127-.607.7467-1.076 1.302-1.407s1.2017-.497 1.939-.497c.77 0 1.4257.18 1.967.539.5413.355.945.861 1.211 1.519.2707.658.378 1.44.322 2.345h-1.463v-.532c-.0093-.877-.1773-1.526-.504-1.946-.322-.42-.8143-.63-1.477-.63-.7327 0-1.2833.231-1.652.693s-.553 1.129-.553 2.002c0 .831.1843 1.475.553 1.932.3687.453.9007.679 1.596.679.4573 0 .8517-.103 1.183-.308.336-.21.5973-.509.784-.896l1.435.455c-.294.677-.7397 1.202-1.337 1.575-.5973.369-1.2623.553-1.995.553zm-2.695-3.577v-1.141h5.397v1.141zm7.6955 3.367v-7.56h1.302v1.834l-.182-.238c.0933-.243.2147-.464.364-.665.1493-.205.322-.373.518-.504.1913-.14.4037-.247.637-.322.238-.079.4807-.126.728-.14.2473-.019.4853-.007.7138.035v1.372c-.2471-.065-.5225-.084-.8258-.056-.2987.028-.574.124-.826.287-.238.154-.427.341-.567.56-.1353.219-.2333.464-.294.735-.0607.266-.091.548-.091.847v3.815zm11.7658.21c-.723 0-1.33-.175-1.82-.525-.49-.355-.861-.833-1.113-1.435s-.378-1.281-.378-2.037.124-1.435.371-2.037c.252-.602.621-1.076 1.106-1.421.49-.35 1.092-.525 1.806-.525.709 0 1.321.175 1.834.525.518.345.917.819 1.197 1.421.28.597.42 1.276.42 2.037 0 .756-.14 1.437-.42 2.044-.275.602-.67 1.078-1.183 1.428-.509.35-1.115.525-1.82.525zm-3.556-.21v-10.08h1.47v4.641h-.168v5.439zm3.353-1.113c.467 0 .852-.119 1.155-.357.308-.238.537-.558.686-.959.154-.406.231-.859.231-1.358 0-.495-.077-.943-.231-1.344-.149-.401-.38-.721-.693-.959s-.712-.357-1.197-.357c-.457 0-.835.112-1.134.336-.294.224-.513.537-.658.938-.14.401-.21.863-.21 1.386s.07.985.21 1.386.362.716.665.945.695.343 1.176.343zm8.021 1.316c-.523 0-.962-.084-1.316-.252-.355-.168-.644-.387-.868-.658-.22-.275-.388-.574-.504-.896-.117-.322-.196-.637-.238-.945s-.063-.579-.063-.812v-4.2h1.484v3.717c0 .294.023.597.07.91.051.308.144.595.28.861.14.266.333.481.581.644.252.163.578.245.98.245.261 0 .508-.042.742-.126.233-.089.436-.229.609-.42.177-.191.315-.443.413-.756.102-.313.154-.693.154-1.141l.91.343c0 .686-.129 1.293-.385 1.82-.257.523-.626.931-1.106 1.225-.481.294-1.062.441-1.743.441zm2.499-.203v-2.184h-.175v-5.376h1.477v7.56zm4.287 3.36 1.463-3.983.021 1.176-3.297-8.113h1.526l2.464 6.265h-.448l2.352-6.265h1.484l-4.172 10.92zm9.552-3.157c-.919 0-1.668-.203-2.247-.609-.578-.406-.933-.978-1.064-1.715l1.498-.231c.094.392.308.702.644.931.341.224.763.336 1.267.336.458 0 .815-.093 1.071-.28.262-.187.392-.443.392-.77 0-.191-.046-.345-.14-.462-.088-.121-.277-.236-.567-.343-.289-.107-.73-.24-1.323-.399-.648-.168-1.164-.348-1.547-.539-.378-.196-.648-.422-.812-.679-.158-.261-.238-.576-.238-.945 0-.457.122-.856.364-1.197.243-.341.584-.604 1.022-.791.444-.187.962-.28 1.554-.28.579 0 1.095.091 1.547.273.453.182.819.441 1.099.777.28.331.448.721.504 1.169l-1.498.273c-.051-.364-.221-.651-.511-.861-.289-.21-.665-.324-1.127-.343-.443-.019-.802.056-1.078.224-.275.163-.413.39-.413.679 0 .168.052.31.154.427.108.117.313.229.616.336.304.107.752.236 1.344.385.635.163 1.139.345 1.512.546.374.196.64.432.798.707.164.271.245.6.245.987 0 .747-.273 1.332-.819 1.757-.541.425-1.29.637-2.247.637zm-59.6666 16.797v-10.08h1.463v10.08zm7.6881.21c-.6767 0-1.2997-.117-1.869-.35-.5693-.238-1.064-.583-1.484-1.036s-.7467-1.003-.98-1.652-.35-1.386-.35-2.212c0-1.087.1983-2.021.595-2.8.3967-.784.9473-1.386 1.652-1.806.7047-.425 1.5167-.637 2.436-.637 1.1853 0 2.1303.275 2.835.826.7093.551 1.1923 1.311 1.449 2.282l-1.484.266c-.2053-.602-.5367-1.083-.994-1.442s-1.0313-.541-1.722-.546c-.714-.005-1.309.154-1.785.476-.4713.322-.826.775-1.064 1.358-.238.579-.3593 1.253-.364 2.023s.112 1.444.35 2.023c.238.574.595 1.022 1.071 1.344.4807.322 1.078.485 1.792.49.574.009 1.0663-.096 1.477-.315.4153-.224.7443-.551.987-.98s.399-.957.469-1.582h-1.96v-1.176h3.514c.0093.084.0163.196.021.336.0047.135.007.222.007.259 0 .933-.1797 1.766-.539 2.499s-.882 1.309-1.568 1.729c-.686.415-1.5167.623-2.492.623zm8.2338-.21v-8.701h-3.353v-1.379h8.169v1.379h-3.353v8.701zm12.6407 0c-.476.093-.942.133-1.3996.119-.4573-.014-.8657-.103-1.225-.266s-.63-.42-.812-.77c-.1633-.313-.252-.63-.266-.952-.0093-.327-.014-.695-.014-1.106v-6.685h1.47v6.615c0 .303.0023.567.007.791.0093.224.0583.413.147.567.168.289.434.455.798.497.3686.037.8006.021 1.2946-.049zm-5.1656-6.384v-1.176h5.1656v1.176zm9.7016 6.594c-.756 0-1.412-.17-1.967-.511-.556-.341-.985-.81-1.288-1.407-.299-.602-.448-1.295-.448-2.079 0-.789.154-1.482.462-2.079.308-.602.739-1.069 1.295-1.4.555-.336 1.204-.504 1.946-.504.756 0 1.411.17 1.967.511.555.341.984.81 1.288 1.407.303.597.455 1.286.455 2.065 0 .789-.154 1.484-.462 2.086-.304.597-.733 1.066-1.288 1.407-.556.336-1.209.504-1.96.504zm0-1.379c.723 0 1.262-.243 1.617-.728.359-.49.539-1.12.539-1.89 0-.789-.182-1.419-.546-1.89-.36-.476-.896-.714-1.61-.714-.49 0-.894.112-1.211.336-.318.219-.553.525-.707.917-.154.387-.231.838-.231 1.351 0 .793.182 1.428.546 1.904s.898.714 1.603.714zm5.241 1.169.007-10.08h1.484v6.16l2.968-3.64h1.862l-3.136 3.78 3.458 3.78h-1.988l-3.164-3.64v3.64zm10.565.21c-.751 0-1.412-.163-1.981-.49-.565-.331-1.006-.791-1.323-1.379-.313-.593-.469-1.279-.469-2.058 0-.826.154-1.542.462-2.149.313-.607.747-1.076 1.302-1.407s1.202-.497 1.939-.497c.77 0 1.426.18 1.967.539.541.355.945.861 1.211 1.519.271.658.378 1.44.322 2.345h-1.463v-.532c-.009-.877-.177-1.526-.504-1.946-.322-.42-.814-.63-1.477-.63-.733 0-1.283.231-1.652.693s-.553 1.129-.553 2.002c0 .831.184 1.475.553 1.932.369.453.901.679 1.596.679.457 0 .852-.103 1.183-.308.336-.21.597-.509.784-.896l1.435.455c-.294.677-.74 1.202-1.337 1.575-.597.369-1.262.553-1.995.553zm-2.695-3.577v-1.141h5.397v1.141zm12.796 3.367v-3.717c0-.294-.025-.595-.077-.903-.046-.313-.14-.602-.28-.868-.135-.266-.329-.481-.581-.644-.247-.163-.571-.245-.973-.245-.261 0-.508.044-.742.133-.233.084-.438.222-.616.413-.172.191-.31.443-.413.756-.098.313-.147.693-.147 1.141l-.91-.343c0-.686.129-1.29.385-1.813.257-.527.626-.938 1.106-1.232.481-.294 1.062-.441 1.743-.441.523 0 .962.084 1.316.252.355.168.642.39.861.665.224.271.395.567.511.889.117.322.196.637.238.945s.063.579.063.812v4.2zm-5.313 0v-7.56h1.309v2.184h.175v5.376z" fill="#fbfaff"/><path d="m285.845 6.69062c.64-3.86018 3.979-6.69062 7.892-6.69062h121.826c4.941 0 8.701 4.43488 7.892 9.30937l-7.3 44.00003c-.64 3.8602-3.979 6.6906-7.892 6.6906h-121.826c-4.941 0-8.701-4.4349-7.892-9.3094z" fill="#1f1f1f"/><path d="m324.413 27v-10.08h1.246v10.08zm8.729 0v-3.787c0-.3593-.032-.7047-.098-1.036-.06-.3313-.17-.6277-.329-.889-.154-.266-.364-.476-.63-.63-.261-.154-.592-.231-.994-.231-.312 0-.597.0537-.854.161-.252.1027-.469.2613-.651.476s-.324.4853-.427.812c-.098.322-.147.7023-.147 1.141l-.819-.252c0-.7327.131-1.3603.392-1.883.266-.5273.637-.931 1.113-1.211.481-.2847 1.046-.427 1.694-.427.49 0 .908.077 1.253.231.346.154.633.3593.861.616.229.252.409.5367.539.854.131.3127.222.6323.273.959.056.322.084.6277.084.917v4.179zm-5.39 0v-7.56h1.12v2.023h.14v5.537zm8.33-3.899v-1.029h4.2v1.029zm9.078 7.469c-.397 0-.784-.0607-1.162-.182s-.726-.3057-1.043-.553c-.313-.2427-.574-.5507-.784-.924l1.141-.602c.187.3687.45.637.791.805.345.168.7.252 1.064.252.481 0 .88-.0887 1.197-.266.317-.1727.551-.4317.7-.777.154-.3453.229-.7747.224-1.288v-2.065h.147v-5.53h1.106v7.609c0 .2053-.007.4037-.021.595-.009.1913-.033.3803-.07.567-.098.5367-.292.9777-.581 1.323-.289.35-.663.609-1.12.777-.457.1727-.987.259-1.589.259zm-.091-3.36c-.705 0-1.309-.175-1.813-.525-.504-.3547-.894-.833-1.169-1.435-.271-.602-.406-1.281-.406-2.037s.135-1.435.406-2.037c.275-.602.665-1.0757 1.169-1.421.504-.35 1.106-.525 1.806-.525.714 0 1.314.1727 1.799.518s.852.819 1.099 1.421c.252.602.378 1.2833.378 2.044 0 .7513-.126 1.4303-.378 2.037-.247.602-.614 1.0803-1.099 1.435-.485.35-1.083.525-1.792.525zm.154-1.141c.509 0 .926-.1213 1.253-.364.327-.2473.567-.5857.721-1.015.159-.434.238-.9263.238-1.477 0-.56-.079-1.0523-.238-1.477-.154-.4293-.392-.763-.714-1.001-.322-.2427-.73-.364-1.225-.364-.513 0-.938.126-1.274.378-.331.252-.579.5927-.742 1.022-.159.4293-.238.91-.238 1.442 0 .5367.082 1.022.245 1.456.163.4293.408.77.735 1.022.331.252.744.378 1.239.378zm7.422 1.141c-.565 0-1.039-.1027-1.421-.308-.378-.21-.665-.4853-.861-.826-.192-.3407-.287-.714-.287-1.12 0-.3967.074-.7397.224-1.029.154-.294.368-.5367.644-.728.275-.196.604-.35.987-.462.359-.098.76-.182 1.204-.252.448-.0747.9-.1423 1.358-.203.457-.0607.884-.119 1.281-.175l-.448.259c.014-.672-.122-1.169-.406-1.491-.28-.322-.766-.483-1.456-.483-.458 0-.859.105-1.204.315-.341.2053-.581.5413-.721 1.008l-1.183-.357c.182-.6627.534-1.183 1.057-1.561.522-.378 1.211-.567 2.065-.567.686 0 1.274.1237 1.764.371.494.2427.849.6113 1.064 1.106.107.2333.175.4877.203.763.028.2707.042.5553.042.854v4.676h-1.106v-1.813l.259.168c-.285.6113-.684 1.0733-1.197 1.386-.509.3127-1.13.469-1.862.469zm.189-1.043c.448 0 .835-.0793 1.162-.238.331-.1633.597-.3757.798-.637.2-.266.331-.5553.392-.868.07-.2333.107-.4923.112-.777.009-.2893.014-.511.014-.665l.434.189c-.406.056-.805.1097-1.197.161s-.763.1073-1.113.168c-.35.056-.665.1237-.945.203-.206.0653-.399.1493-.581.252-.178.1027-.322.2357-.434.399-.108.1587-.161.357-.161.595 0 .2053.051.4013.154.588.107.1867.27.3383.49.455.224.1167.515.175.875.175zm14.574.833.007-4.837c0-.5647-.152-1.0057-.455-1.323-.299-.322-.689-.483-1.169-.483-.28 0-.546.0653-.798.196-.252.126-.458.3267-.616.602-.159.2707-.238.6183-.238 1.043l-.658-.266c-.01-.5367.1-1.0057.329-1.407.233-.406.55-.721.952-.945.401-.224.854-.336 1.358-.336.788 0 1.409.2403 1.862.721.452.476.679 1.1177.679 1.925l-.007 5.11zm-9.044 0v-7.56h1.113v2.023h.14v5.537zm4.529 0 .007-4.788c0-.5787-.15-1.0313-.448-1.358-.299-.3313-.696-.497-1.19-.497-.49 0-.887.168-1.19.504-.304.336-.455.7817-.455 1.337l-.658-.392c0-.49.116-.9287.35-1.316.233-.3873.55-.6907.952-.91.401-.224.856-.336 1.365-.336.508 0 .952.1073 1.33.322s.669.5227.875.924c.205.3967.308.8703.308 1.421l-.007 5.089zm10.799.21c-.742 0-1.391-.1633-1.946-.49-.551-.3313-.98-.791-1.288-1.379-.308-.5927-.462-1.2833-.462-2.072 0-.826.151-1.54.455-2.142.303-.6067.725-1.0733 1.267-1.4.546-.3313 1.185-.497 1.918-.497.76 0 1.407.175 1.939.525.536.35.938.8493 1.204 1.498.27.6487.387 1.421.35 2.317h-1.26v-.448c-.014-.9287-.203-1.6217-.567-2.079-.364-.462-.906-.693-1.624-.693-.77 0-1.356.2473-1.757.742-.402.4947-.602 1.204-.602 2.128 0 .8913.2 1.582.602 2.072.401.49.973.735 1.715.735.499 0 .933-.1143 1.302-.343.368-.2287.658-.5577.868-.987l1.197.413c-.294.6673-.738 1.1853-1.33 1.554-.588.364-1.249.546-1.981.546zm-2.793-3.64v-1.001h5.586v1.001zm-46.859 20.64c-.709 0-1.307-.175-1.792-.525-.485-.3547-.854-.833-1.106-1.435-.247-.6067-.371-1.2857-.371-2.037 0-.7607.124-1.442.371-2.044.252-.602.621-1.0757 1.106-1.421.49-.3453 1.09-.518 1.799-.518.7 0 1.302.175 1.806.525.509.3453.898.819 1.169 1.421s.406 1.281.406 2.037-.135 1.435-.406 2.037-.66 1.0803-1.169 1.435c-.504.35-1.108.525-1.813.525zm-3.479 3.15v-10.92h1.113v5.565h.14v5.355zm3.325-4.291c.499 0 .912-.126 1.239-.378s.572-.5927.735-1.022c.163-.434.245-.9193.245-1.456 0-.532-.082-1.0127-.245-1.442-.159-.4293-.406-.77-.742-1.022-.331-.252-.754-.378-1.267-.378-.49 0-.896.1213-1.218.364-.322.238-.562.5717-.721 1.001-.159.4247-.238.917-.238 1.477 0 .5507.077 1.043.231 1.477.159.4293.401.7677.728 1.015.327.2427.744.364 1.253.364zm7.946 1.127c-.485 0-.903-.077-1.253-.231-.345-.154-.632-.3593-.861-.616-.228-.2567-.408-.5413-.539-.854-.13-.3127-.224-.6323-.28-.959-.051-.3267-.077-.6323-.077-.917v-4.179h1.26v3.787c0 .3547.033.6977.098 1.029.066.3313.175.63.329.896.159.266.369.476.63.63.266.154.598.231.994.231.313 0 .598-.0537.854-.161.257-.1073.476-.266.658-.476.182-.2147.322-.4853.42-.812s.147-.707.147-1.141l.819.252c0 .728-.133 1.3557-.399 1.883-.261.5273-.632.9333-1.113 1.218-.476.28-1.038.42-1.687.42zm2.52-.196v-2.023h-.14v-5.537h1.253v7.56zm3.073 0v-7.56h1.113v1.827l-.182-.238c.089-.2333.203-.448.343-.644.145-.196.306-.357.483-.483.196-.1587.418-.28.665-.364.248-.084.5-.133.756-.147.257-.0187.497-.0023.721.049v1.169c-.261-.07-.548-.0887-.861-.056-.312.0327-.602.147-.868.343-.242.1727-.431.3827-.567.63-.13.2473-.221.5157-.273.805-.051.2847-.077.5763-.077.875v3.794zm8.271.21c-.765 0-1.416-.1703-1.953-.511-.532-.3453-.938-.819-1.218-1.421s-.424-1.288-.434-2.058c.01-.7887.157-1.4817.441-2.079.29-.602.703-1.071 1.239-1.407.537-.336 1.183-.504 1.939-.504.798 0 1.484.196 2.058.588.579.392.966.9287 1.162 1.61l-1.232.371c-.158-.4387-.417-.7793-.777-1.022-.354-.2427-.763-.364-1.225-.364-.518 0-.945.1213-1.281.364-.336.238-.585.5693-.749.994-.163.42-.247.903-.252 1.449.01.84.203 1.519.581 2.037.383.5133.95.77 1.701.77.495 0 .906-.112 1.232-.336.327-.2287.574-.5577.742-.987l1.26.329c-.261.7047-.669 1.2437-1.225 1.617-.555.3733-1.225.56-2.009.56zm10.046-.21v-3.787c0-.3593-.033-.7047-.098-1.036-.061-.3313-.17-.6277-.329-.889-.154-.266-.364-.476-.63-.63-.261-.154-.593-.231-.994-.231-.313 0-.597.0537-.854.161-.252.1027-.469.2613-.651.476s-.324.4853-.427.812c-.098.322-.147.7023-.147 1.141l-.819-.252c0-.7327.131-1.3603.392-1.883.266-.5273.637-.931 1.113-1.211.481-.2847 1.045-.427 1.694-.427.49 0 .908.077 1.253.231s.632.3593.861.616c.229.252.408.5367.539.854.131.3127.222.6323.273.959.056.322.084.6277.084.917v4.179zm-5.39 0v-10.08h1.12v5.565h.14v4.515zm10.619.21c-.565 0-1.039-.1027-1.421-.308-.378-.21-.665-.4853-.861-.826-.192-.3407-.287-.714-.287-1.12 0-.3967.074-.7397.224-1.029.154-.294.368-.5367.644-.728.275-.196.604-.35.987-.462.359-.098.76-.182 1.204-.252.448-.0747.9-.1423 1.358-.203.457-.0607.884-.119 1.281-.175l-.448.259c.014-.672-.122-1.169-.406-1.491-.28-.322-.766-.483-1.456-.483-.458 0-.859.105-1.204.315-.341.2053-.581.5413-.721 1.008l-1.183-.357c.182-.6627.534-1.183 1.057-1.561.522-.378 1.211-.567 2.065-.567.686 0 1.274.1237 1.764.371.494.2427.849.6113 1.064 1.106.107.2333.175.4877.203.763.028.2707.042.5553.042.854v4.676h-1.106v-1.813l.259.168c-.285.6113-.684 1.0733-1.197 1.386-.509.3127-1.13.469-1.862.469zm.189-1.043c.448 0 .835-.0793 1.162-.238.331-.1633.597-.3757.798-.637.2-.266.331-.5553.392-.868.07-.2333.107-.4923.112-.777.009-.2893.014-.511.014-.665l.434.189c-.406.056-.805.1097-1.197.161s-.763.1073-1.113.168c-.35.056-.665.1237-.945.203-.206.0653-.399.1493-.581.252-.178.1027-.322.2357-.434.399-.108.1587-.161.357-.161.595 0 .2053.051.4013.154.588.107.1867.27.3383.49.455.224.1167.515.175.875.175zm8.393 1.036c-.901 0-1.641-.196-2.219-.588-.574-.3967-.927-.9497-1.057-1.659l1.274-.203c.102.4107.338.7373.707.98.368.238.826.357 1.372.357.518 0 .924-.1073 1.218-.322s.441-.5063.441-.875c0-.2147-.049-.3873-.147-.518-.098-.1353-.301-.2613-.609-.378-.304-.1167-.763-.2567-1.379-.42-.668-.1773-1.193-.3617-1.575-.553-.383-.1913-.656-.413-.819-.665-.164-.252-.245-.5577-.245-.917 0-.4433.121-.8307.364-1.162.242-.336.581-.595 1.015-.777.438-.182.947-.273 1.526-.273.574 0 1.087.091 1.54.273.452.182.816.441 1.092.777.28.3313.445.7187.497 1.162l-1.274.231c-.061-.406-.257-.7257-.588-.959-.327-.2333-.749-.357-1.267-.371-.49-.0187-.889.0677-1.197.259-.304.1913-.455.4503-.455.777 0 .182.056.3383.168.469.116.1307.329.2543.637.371.312.1167.765.2497 1.358.399.667.168 1.192.3523 1.575.553.387.196.662.4293.826.7.163.266.245.595.245.987 0 .728-.269 1.302-.805 1.722-.537.4153-1.277.623-2.219.623zm7.844.007c-.742 0-1.391-.1633-1.946-.49-.551-.3313-.98-.791-1.288-1.379-.308-.5927-.462-1.2833-.462-2.072 0-.826.151-1.54.455-2.142.303-.6067.725-1.0733 1.267-1.4.546-.3313 1.185-.497 1.918-.497.76 0 1.407.175 1.939.525.536.35.938.8493 1.204 1.498.27.6487.387 1.421.35 2.317h-1.26v-.448c-.014-.9287-.203-1.6217-.567-2.079-.364-.462-.906-.693-1.624-.693-.77 0-1.356.2473-1.757.742-.402.4947-.602 1.204-.602 2.128 0 .8913.2 1.582.602 2.072.401.49.973.735 1.715.735.499 0 .933-.1143 1.302-.343.368-.2287.658-.5577.868-.987l1.197.413c-.294.6673-.738 1.1853-1.33 1.554-.588.364-1.249.546-1.981.546zm-2.793-3.64v-1.001h5.586v1.001z" fill="#fbfaff"/><path d="m285.845 190.691c.64-3.861 3.979-6.691 7.892-6.691h121.826c4.941 0 8.701 4.435 7.892 9.309l-7.3 44c-.64 3.861-3.979 6.691-7.892 6.691h-121.826c-4.941 0-8.701-4.435-7.892-9.309z" fill="#1f1f1f"/><path d="m328.976 211v-10.08h3.927c.602 0 1.115.124 1.54.371.429.247.756.574.98.98.229.401.343.835.343 1.302 0 .546-.14 1.024-.42 1.435s-.658.693-1.134.847l-.014-.343c.649.173 1.153.49 1.512.952s.539 1.013.539 1.652c0 .588-.121 1.097-.364 1.526-.238.429-.583.763-1.036 1.001-.448.238-.98.357-1.596.357zm1.26-1.19h2.779c.373 0 .707-.068 1.001-.203.294-.14.525-.336.693-.588.173-.252.259-.555.259-.91 0-.341-.077-.646-.231-.917-.149-.271-.362-.485-.637-.644-.271-.163-.586-.245-.945-.245h-2.919zm0-4.683h2.653c.299 0 .567-.063.805-.189.243-.131.434-.313.574-.546.145-.233.217-.506.217-.819 0-.434-.147-.789-.441-1.064s-.679-.413-1.155-.413h-2.653zm10.278 6.069c-.485 0-.903-.077-1.253-.231-.345-.154-.632-.359-.861-.616s-.408-.541-.539-.854-.224-.632-.28-.959c-.051-.327-.077-.632-.077-.917v-4.179h1.26v3.787c0 .355.033.698.098 1.029s.175.63.329.896c.159.266.369.476.63.63.266.154.597.231.994.231.313 0 .597-.054.854-.161s.476-.266.658-.476c.182-.215.322-.485.42-.812s.147-.707.147-1.141l.819.252c0 .728-.133 1.356-.399 1.883-.261.527-.632.933-1.113 1.218-.476.28-1.038.42-1.687.42zm2.52-.196v-2.023h-.14v-5.537h1.253v7.56zm4.123 3.36 1.463-3.976.021 1.176-3.304-8.12h1.309l2.59 6.531h-.448l2.429-6.531h1.267l-4.116 10.92zm6.623-12.257v-1.288h1.246v1.288zm0 8.897v-7.56h1.246v7.56zm8.729 0v-3.787c0-.359-.032-.705-.098-1.036-.06-.331-.17-.628-.329-.889-.154-.266-.364-.476-.63-.63-.261-.154-.592-.231-.994-.231-.312 0-.597.054-.854.161-.252.103-.469.261-.651.476s-.324.485-.427.812c-.098.322-.147.702-.147 1.141l-.819-.252c0-.733.131-1.36.392-1.883.266-.527.637-.931 1.113-1.211.481-.285 1.046-.427 1.694-.427.49 0 .908.077 1.253.231.346.154.633.359.861.616.229.252.409.537.539.854.131.313.222.632.273.959.056.322.084.628.084.917v4.179zm-5.39 0v-7.56h1.12v2.023h.14v5.537zm11.529 3.57c-.396 0-.784-.061-1.162-.182s-.725-.306-1.043-.553c-.312-.243-.574-.551-.784-.924l1.141-.602c.187.369.451.637.791.805.346.168.7.252 1.064.252.481 0 .88-.089 1.197-.266.318-.173.551-.432.7-.777.154-.345.229-.775.224-1.288v-2.065h.147v-5.53h1.106v7.609c0 .205-.007.404-.021.595-.009.191-.032.38-.07.567-.098.537-.291.978-.581 1.323-.289.35-.662.609-1.12.777-.457.173-.987.259-1.589.259zm-.091-3.36c-.704 0-1.309-.175-1.813-.525-.504-.355-.893-.833-1.169-1.435-.27-.602-.406-1.281-.406-2.037s.136-1.435.406-2.037c.276-.602.665-1.076 1.169-1.421.504-.35 1.106-.525 1.806-.525.714 0 1.314.173 1.799.518.486.345.852.819 1.099 1.421.252.602.378 1.283.378 2.044 0 .751-.126 1.43-.378 2.037-.247.602-.613 1.08-1.099 1.435-.485.35-1.082.525-1.792.525zm.154-1.141c.509 0 .927-.121 1.253-.364.327-.247.567-.586.721-1.015.159-.434.238-.926.238-1.477 0-.56-.079-1.052-.238-1.477-.154-.429-.392-.763-.714-1.001-.322-.243-.73-.364-1.225-.364-.513 0-.938.126-1.274.378-.331.252-.578.593-.742 1.022-.158.429-.238.91-.238 1.442 0 .537.082 1.022.245 1.456.164.429.409.77.735 1.022.332.252.745.378 1.239.378zm-29.864 17.931v-10.08h1.26l5.257 7.875v-7.875h1.26v10.08h-1.26l-5.257-7.882v7.882zm9.735 0v-10.08h5.88v1.246h-4.634v3.171h3.794v1.246h-3.794v4.417zm9.733 0v-8.897h-3.437v-1.183h8.12v1.183h-3.437v8.897z" fill="#fbfaff"/><path d="m37.8445 380.691c.6404-3.861 3.9792-6.691 7.8921-6.691h121.8264c4.941 0 8.701 4.435 7.892 9.309l-7.3 44c-.64 3.861-3.979 6.691-7.892 6.691h-121.8264c-4.9411 0-8.7008-4.435-7.8921-9.309z" fill="#1f1f1f"/><path d="m84.4139 401v-8.897h-3.437v-1.183h8.12v1.183h-3.437v8.897zm7.8965.21c-.7514 0-1.4-.17-1.946-.511-.5414-.341-.959-.812-1.253-1.414s-.441-1.293-.441-2.072c0-.793.1493-1.489.448-2.086.2986-.597.721-1.062 1.267-1.393.546-.336 1.1876-.504 1.925-.504.756 0 1.407.17 1.953.511.546.336.9636.805 1.253 1.407.294.597.441 1.286.441 2.065 0 .789-.147 1.484-.441 2.086-.294.597-.714 1.066-1.26 1.407-.546.336-1.1947.504-1.946.504zm0-1.183c.784 0 1.3673-.261 1.75-.784.3826-.523.574-1.199.574-2.03 0-.854-.1937-1.533-.581-2.037-.3874-.509-.9684-.763-1.743-.763-.5274 0-.9614.119-1.302.357-.3407.238-.595.567-.763.987s-.252.905-.252 1.456c0 .849.196 1.531.588 2.044s.9683.77 1.729.77zm7.9906.973v-10.08h1.26l5.257 7.875v-7.875h1.26v10.08h-1.26l-5.257-7.882v7.882zm9.735 0v-10.08h5.88v1.246h-4.634v3.171h3.794v1.246h-3.794v4.417zm9.733 0v-8.897h-3.437v-1.183h8.12v1.183h-3.437v8.897zm-55.7466 17.21c-.7653 0-1.4163-.17-1.953-.511-.532-.345-.938-.819-1.218-1.421s-.4246-1.288-.434-2.058c.0094-.789.1564-1.482.441-2.079.2894-.602.7024-1.071 1.239-1.407.5367-.336 1.183-.504 1.939-.504.798 0 1.484.196 2.058.588.5787.392.966.929 1.162 1.61l-1.232.371c-.1586-.439-.4176-.779-.777-1.022-.3546-.243-.763-.364-1.225-.364-.518 0-.945.121-1.281.364-.336.238-.5856.569-.749.994-.1633.42-.2473.903-.252 1.449.0094.84.203 1.519.581 2.037.3827.513.9497.77 1.701.77.4947 0 .9054-.112 1.232-.336.3267-.229.574-.558.742-.987l1.26.329c-.2613.705-.6696 1.244-1.225 1.617-.5553.373-1.225.56-2.009.56zm4.6627-.21v-7.56h1.113v1.827l-.182-.238c.0886-.233.203-.448.343-.644.1446-.196.3056-.357.483-.483.196-.159.4176-.28.665-.364.2473-.084.4993-.133.756-.147.2566-.019.497-.002.721.049v1.169c-.2614-.07-.5484-.089-.861-.056-.3127.033-.602.147-.868.343-.2427.173-.4317.383-.567.63-.1307.247-.2217.516-.273.805-.0514.285-.077.576-.077.875v3.794zm8.3619.21c-.742 0-1.3907-.163-1.946-.49-.5507-.331-.98-.791-1.288-1.379-.308-.593-.462-1.283-.462-2.072 0-.826.1517-1.54.455-2.142.3033-.607.7257-1.073 1.267-1.4.546-.331 1.1853-.497 1.918-.497.7607 0 1.407.175 1.939.525.5367.35.938.849 1.204 1.498.2707.649.3873 1.421.35 2.317h-1.26v-.448c-.014-.929-.203-1.622-.567-2.079-.364-.462-.9053-.693-1.624-.693-.77 0-1.3557.247-1.757.742s-.602 1.204-.602 2.128c0 .891.2007 1.582.602 2.072s.973.735 1.715.735c.4993 0 .9333-.114 1.302-.343s.658-.558.868-.987l1.197.413c-.294.667-.7373 1.185-1.33 1.554-.588.364-1.2483.546-1.981.546zm-2.793-3.64v-1.001h5.586v1.001zm9.8008 3.64c-.5647 0-1.0384-.103-1.421-.308-.378-.21-.665-.485-.861-.826-.1914-.341-.287-.714-.287-1.12 0-.397.0746-.74.224-1.029.154-.294.3686-.537.644-.728.2753-.196.6043-.35.987-.462.3593-.098.7606-.182 1.204-.252.448-.075.9006-.142 1.358-.203.4573-.061.8843-.119 1.281-.175l-.448.259c.014-.672-.1214-1.169-.406-1.491-.28-.322-.7654-.483-1.456-.483-.4574 0-.8587.105-1.204.315-.3407.205-.581.541-.721 1.008l-1.183-.357c.182-.663.5343-1.183 1.057-1.561.5226-.378 1.211-.567 2.065-.567.686 0 1.274.124 1.764.371.4946.243.8493.611 1.064 1.106.1073.233.175.488.203.763.028.271.042.555.042.854v4.676h-1.106v-1.813l.259.168c-.2847.611-.6837 1.073-1.197 1.386-.5087.313-1.1294.469-1.862.469zm.189-1.043c.448 0 .8353-.079 1.162-.238.3313-.163.5973-.376.798-.637.2006-.266.3313-.555.392-.868.07-.233.1073-.492.112-.777.0093-.289.014-.511.014-.665l.434.189c-.406.056-.805.11-1.197.161s-.763.107-1.113.168c-.35.056-.665.124-.945.203-.2054.065-.399.149-.581.252-.1774.103-.322.236-.434.399-.1074.159-.161.357-.161.595 0 .205.0513.401.154.588.1073.187.2706.338.49.455.224.117.5156.175.875.175zm9.758.833c-.448.089-.8914.124-1.33.105-.434-.014-.8214-.1-1.162-.259-.3407-.163-.5997-.415-.777-.756-.1494-.299-.231-.6-.245-.903-.0094-.308-.014-.656-.014-1.043v-6.804h1.246v6.748c0 .308.0023.572.007.791.0093.219.0583.408.147.567.168.299.434.474.798.525.3686.051.812.037 1.33-.042zm-5.061-6.531v-1.029h5.061v1.029zm9.5014 6.741c-.7513 0-1.4-.17-1.946-.511-.5413-.341-.959-.812-1.253-1.414s-.441-1.293-.441-2.072c0-.793.1493-1.489.448-2.086s.721-1.062 1.267-1.393c.546-.336 1.1877-.504 1.925-.504.756 0 1.407.17 1.9528.511.546.336.964.805 1.253 1.407.294.597.441 1.286.441 2.065 0 .789-.147 1.484-.441 2.086-.294.597-.714 1.066-1.26 1.407-.5458.336-1.1945.504-1.9458.504zm0-1.183c.784 0 1.3673-.261 1.7498-.784.383-.523.574-1.199.574-2.03 0-.854-.193-1.533-.581-2.037-.3871-.509-.9681-.763-1.7428-.763-.5273 0-.9613.119-1.302.357s-.595.567-.763.987-.252.905-.252 1.456c0 .849.196 1.531.588 2.044s.9683.77 1.729.77zm5.1878.973v-7.56h1.113v1.827l-.182-.238c.089-.233.203-.448.343-.644.145-.196.306-.357.483-.483.196-.159.418-.28.665-.364.248-.084.5-.133.756-.147.257-.019.497-.002.721.049v1.169c-.261-.07-.548-.089-.861-.056-.312.033-.602.147-.868.343-.242.173-.431.383-.567.63-.13.247-.221.516-.273.805-.051.285-.077.576-.077.875v3.794zm7.886-3.899v-1.029h9.24v1.029z" fill="#fbfaff"/><path d="m128.364 418.21c-.518 0-1.001-.107-1.449-.322-.443-.215-.823-.509-1.141-.882-.312-.378-.536-.812-.672-1.302l1.197-.322c.084.331.234.618.448.861.215.238.465.425.749.56.29.131.591.196.903.196.411 0 .78-.098 1.106-.294.332-.201.593-.464.784-.791.192-.331.287-.693.287-1.085 0-.406-.1-.772-.301-1.099-.196-.331-.459-.593-.791-.784-.331-.191-.693-.287-1.085-.287-.443 0-.823.093-1.141.28-.312.182-.56.406-.742.672l-1.106-.42.308-5.271h5.411v1.183h-4.809l.553-.518-.259 4.221-.273-.357c.28-.299.614-.53 1.001-.693.392-.163.791-.245 1.197-.245.626 0 1.186.147 1.68.441.495.289.887.686 1.176 1.19.29.499.434 1.062.434 1.687 0 .621-.158 1.188-.476 1.701-.317.509-.739.917-1.267 1.225-.522.303-1.096.455-1.722.455zm6.259-.21-.84-.84 9.254-9.24.84.84zm7.154.21c-.462 0-.884-.112-1.267-.336-.378-.229-.681-.532-.91-.91-.228-.383-.343-.807-.343-1.274 0-.457.117-.877.35-1.26.234-.383.542-.688.924-.917.383-.229.798-.343 1.246-.343.462 0 .885.114 1.267.343.383.224.686.527.91.91.229.378.343.8.343 1.267s-.114.891-.343 1.274c-.224.378-.527.681-.91.91-.382.224-.805.336-1.267.336zm0-1.099c.257 0 .493-.065.707-.196.22-.131.392-.303.518-.518.131-.215.196-.45.196-.707s-.065-.492-.196-.707c-.126-.219-.298-.392-.518-.518-.214-.131-.45-.196-.707-.196-.256 0-.492.065-.707.196-.214.126-.387.299-.518.518-.13.215-.196.45-.196.707s.066.492.196.707c.131.215.304.387.518.518.215.131.451.196.707.196zm-5.894-4.361c-.462 0-.884-.112-1.267-.336-.382-.229-.688-.532-.917-.91-.224-.383-.336-.807-.336-1.274 0-.457.117-.877.35-1.26.234-.383.542-.688.924-.917.383-.229.798-.343 1.246-.343.462 0 .882.114 1.26.343.383.224.689.527.917.91.229.378.343.8.343 1.267s-.114.891-.343 1.274c-.228.378-.534.681-.917.91-.378.224-.798.336-1.26.336zm0-1.099c.257 0 .493-.065.707-.196.22-.131.392-.303.518-.518.131-.215.196-.45.196-.707s-.065-.492-.196-.707c-.126-.219-.298-.392-.518-.518-.214-.131-.45-.196-.707-.196-.256 0-.492.065-.707.196-.214.126-.387.299-.518.518-.13.215-.196.45-.196.707s.066.492.196.707c.131.215.304.387.518.518.215.131.451.196.707.196z" fill="url(#n)"/><path d="m1029.84 380.691c.64-3.861 3.98-6.691 7.9-6.691h121.82c4.94 0 8.7 4.435 7.9 9.309l-7.3 44c-.64 3.861-3.98 6.691-7.9 6.691h-121.82c-4.94 0-8.7-4.435-7.9-9.309z" fill="#1f1f1f"/><path d="m1058.06 401v-8.897h-3.44v-1.183h8.12v1.183h-3.43v8.897zm7.9.21c-.76 0-1.4-.17-1.95-.511-.54-.341-.96-.812-1.25-1.414-.3-.602-.44-1.293-.44-2.072 0-.793.15-1.489.44-2.086.3-.597.72-1.062 1.27-1.393.55-.336 1.19-.504 1.93-.504.75 0 1.4.17 1.95.511.54.336.96.805 1.25 1.407.3.597.44 1.286.44 2.065 0 .789-.14 1.484-.44 2.086-.29.597-.71 1.066-1.26 1.407-.54.336-1.19.504-1.94.504zm0-1.183c.78 0 1.36-.261 1.75-.784.38-.523.57-1.199.57-2.03 0-.854-.19-1.533-.58-2.037-.39-.509-.97-.763-1.74-.763-.53 0-.97.119-1.31.357s-.59.567-.76.987-.25.905-.25 1.456c0 .849.19 1.531.59 2.044.39.513.97.77 1.73.77zm8.05 1.169c-.48 0-.9-.077-1.25-.231-.34-.154-.63-.359-.86-.616s-.41-.541-.54-.854-.22-.632-.28-.959c-.05-.327-.08-.632-.08-.917v-4.179h1.26v3.787c0 .355.04.698.1 1.029.07.331.18.63.33.896.16.266.37.476.63.63.27.154.6.231 1 .231.31 0 .59-.054.85-.161s.48-.266.66-.476c.18-.215.32-.485.42-.812s.14-.707.14-1.141l.82.252c0 .728-.13 1.356-.4 1.883-.26.527-.63.933-1.11 1.218-.47.28-1.04.42-1.69.42zm2.52-.196v-2.023h-.14v-5.537h1.26v7.56zm3.08 0v-7.56h1.11v1.827l-.18-.238c.09-.233.2-.448.34-.644.15-.196.31-.357.48-.483.2-.159.42-.28.67-.364s.5-.133.75-.147c.26-.019.5-.002.73.049v1.169c-.27-.07-.55-.089-.87-.056-.31.033-.6.147-.86.343-.25.173-.43.383-.57.63-.13.247-.22.516-.27.805-.05.285-.08.576-.08.875v3.794zm10.6 0v-3.787c0-.359-.03-.705-.1-1.036-.06-.331-.17-.628-.32-.889-.16-.266-.37-.476-.63-.63-.27-.154-.6-.231-1-.231-.31 0-.6.054-.85.161-.25.103-.47.261-.65.476-.19.215-.33.485-.43.812-.1.322-.15.702-.15 1.141l-.82-.252c0-.733.13-1.36.4-1.883.26-.527.63-.931 1.11-1.211.48-.285 1.04-.427 1.69-.427.49 0 .91.077 1.26.231.34.154.63.359.86.616.23.252.4.537.54.854.13.313.22.632.27.959.05.322.08.628.08.917v4.179zm-5.39 0v-7.56h1.12v2.023h.14v5.537zm10.62.21c-.56 0-1.04-.103-1.42-.308-.38-.21-.66-.485-.86-.826-.19-.341-.29-.714-.29-1.12 0-.397.08-.74.23-1.029.15-.294.37-.537.64-.728.28-.196.6-.35.99-.462.36-.098.76-.182 1.2-.252.45-.075.9-.142 1.36-.203s.88-.119 1.28-.175l-.45.259c.02-.672-.12-1.169-.4-1.491s-.77-.483-1.46-.483c-.46 0-.86.105-1.2.315-.34.205-.58.541-.72 1.008l-1.19-.357c.18-.663.54-1.183 1.06-1.561s1.21-.567 2.06-.567c.69 0 1.28.124 1.77.371.49.243.85.611 1.06 1.106.11.233.18.488.21.763.02.271.04.555.04.854v4.676h-1.11v-1.813l.26.168c-.28.611-.68 1.073-1.2 1.386-.51.313-1.13.469-1.86.469zm.19-1.043c.45 0 .84-.079 1.16-.238.33-.163.6-.376.8-.637.2-.266.33-.555.39-.868.07-.233.11-.492.11-.777.01-.289.02-.511.02-.665l.43.189c-.4.056-.8.11-1.19.161-.4.051-.77.107-1.12.168-.35.056-.66.124-.94.203-.21.065-.4.149-.58.252s-.33.236-.44.399c-.1.159-.16.357-.16.595 0 .205.05.401.16.588.1.187.27.338.49.455s.51.175.87.175zm14.57.833.01-4.837c0-.565-.15-1.006-.45-1.323-.3-.322-.69-.483-1.17-.483-.28 0-.55.065-.8.196-.25.126-.46.327-.62.602-.16.271-.23.618-.23 1.043l-.66-.266c-.01-.537.1-1.006.33-1.407.23-.406.55-.721.95-.945s.85-.336 1.36-.336c.79 0 1.41.24 1.86.721.45.476.68 1.118.68 1.925l-.01 5.11zm-9.04 0v-7.56h1.11v2.023h.14v5.537zm4.53 0 .01-4.788c0-.579-.15-1.031-.45-1.358-.3-.331-.7-.497-1.19-.497s-.89.168-1.19.504-.46.782-.46 1.337l-.65-.392c0-.49.11-.929.35-1.316.23-.387.55-.691.95-.91.4-.224.85-.336 1.36-.336s.95.107 1.33.322.67.523.88.924c.2.397.31.87.31 1.421l-.01 5.089zm10.8.21c-.74 0-1.39-.163-1.95-.49-.55-.331-.98-.791-1.29-1.379-.3-.593-.46-1.283-.46-2.072 0-.826.15-1.54.46-2.142.3-.607.72-1.073 1.26-1.4.55-.331 1.19-.497 1.92-.497.76 0 1.41.175 1.94.525.54.35.94.849 1.21 1.498s.38 1.421.35 2.317h-1.26v-.448c-.02-.929-.21-1.622-.57-2.079-.37-.462-.91-.693-1.63-.693-.77 0-1.35.247-1.75.742s-.6 1.204-.6 2.128c0 .891.2 1.582.6 2.072s.97.735 1.71.735c.5 0 .94-.114 1.3-.343.37-.229.66-.558.87-.987l1.2.413c-.29.667-.74 1.185-1.33 1.554-.59.364-1.25.546-1.98.546zm-2.79-3.64v-1.001h5.58v1.001zm12.96 3.43v-3.787c0-.359-.03-.705-.1-1.036-.06-.331-.17-.628-.33-.889-.15-.266-.36-.476-.63-.63-.26-.154-.59-.231-.99-.231-.31 0-.6.054-.85.161-.26.103-.47.261-.65.476-.19.215-.33.485-.43.812-.1.322-.15.702-.15 1.141l-.82-.252c0-.733.13-1.36.39-1.883.27-.527.64-.931 1.12-1.211.48-.285 1.04-.427 1.69-.427.49 0 .91.077 1.25.231.35.154.64.359.87.616.22.252.4.537.53.854.14.313.23.632.28.959.05.322.08.628.08.917v4.179zm-5.39 0v-7.56h1.12v2.023h.14v5.537zm12.69 0c-.45.089-.89.124-1.33.105-.43-.014-.82-.1-1.16-.259-.34-.163-.6-.415-.78-.756-.15-.299-.23-.6-.24-.903-.01-.308-.02-.656-.02-1.043v-6.804h1.25v6.748c0 .308 0 .572.01.791s.06.408.14.567c.17.299.44.474.8.525.37.051.81.037 1.33-.042zm-5.06-6.531v-1.029h5.06v1.029zm-88.39 23.531v-7.56h1.12v1.827l-.19-.238c.09-.233.21-.448.35-.644s.3-.357.48-.483c.2-.159.42-.28.66-.364.25-.084.5-.133.76-.147.26-.019.5-.002.72.049v1.169c-.26-.07-.55-.089-.86-.056s-.6.147-.87.343c-.24.173-.43.383-.56.63-.14.247-.23.516-.28.805-.05.285-.07.576-.07.875v3.794zm8.36.21c-.74 0-1.39-.163-1.94-.49-.55-.331-.98-.791-1.29-1.379-.31-.593-.46-1.283-.46-2.072 0-.826.15-1.54.45-2.142.31-.607.73-1.073 1.27-1.4.55-.331 1.19-.497 1.92-.497.76 0 1.41.175 1.94.525s.94.849 1.2 1.498c.27.649.39 1.421.35 2.317h-1.26v-.448c-.01-.929-.2-1.622-.57-2.079-.36-.462-.9-.693-1.62-.693-.77 0-1.36.247-1.76.742s-.6 1.204-.6 2.128c0 .891.2 1.582.6 2.072s.98.735 1.72.735c.5 0 .93-.114 1.3-.343s.66-.558.87-.987l1.2.413c-.3.667-.74 1.185-1.33 1.554-.59.364-1.25.546-1.99.546zm-2.79-3.64v-1.001h5.59v1.001zm9.13 3.43-2.31-7.567 1.24.007 1.68 5.53 1.7-5.53h1.1l1.7 5.53 1.69-5.53h1.23l-2.31 7.56h-1.03l-1.83-5.747-1.83 5.747zm11.02.21c-.56 0-1.04-.103-1.42-.308-.38-.21-.66-.485-.86-.826-.19-.341-.29-.714-.29-1.12 0-.397.08-.74.23-1.029.15-.294.37-.537.64-.728.28-.196.6-.35.99-.462.36-.098.76-.182 1.2-.252.45-.075.9-.142 1.36-.203s.88-.119 1.28-.175l-.45.259c.02-.672-.12-1.169-.4-1.491s-.77-.483-1.46-.483c-.46 0-.86.105-1.2.315-.34.205-.58.541-.72 1.008l-1.19-.357c.18-.663.54-1.183 1.06-1.561s1.21-.567 2.06-.567c.69 0 1.28.124 1.77.371.49.243.85.611 1.06 1.106.11.233.18.488.21.763.02.271.04.555.04.854v4.676h-1.11v-1.813l.26.168c-.28.611-.68 1.073-1.2 1.386-.51.313-1.13.469-1.86.469zm.19-1.043c.45 0 .84-.079 1.16-.238.33-.163.6-.376.8-.637.2-.266.33-.555.39-.868.07-.233.11-.492.11-.777.01-.289.02-.511.02-.665l.43.189c-.4.056-.8.11-1.19.161-.4.051-.77.107-1.12.168-.35.056-.66.124-.94.203-.21.065-.4.149-.58.252s-.33.236-.44.399c-.1.159-.16.357-.16.595 0 .205.05.401.16.588.1.187.27.338.49.455s.51.175.87.175zm5.54.833v-7.56h1.11v1.827l-.18-.238c.09-.233.2-.448.34-.644.15-.196.31-.357.48-.483.2-.159.42-.28.67-.364s.5-.133.76-.147c.25-.019.49-.002.72.049v1.169c-.26-.07-.55-.089-.86-.056-.32.033-.61.147-.87.343-.25.173-.43.383-.57.63-.13.247-.22.516-.27.805-.05.285-.08.576-.08.875v3.794zm8.05.21c-.7 0-1.31-.175-1.81-.525-.51-.355-.9-.833-1.17-1.435s-.41-1.281-.41-2.037.14-1.435.41-2.037.66-1.076 1.17-1.421c.5-.35 1.1-.525 1.8-.525.72 0 1.32.173 1.8.518.49.345.86.819 1.1 1.421.25.602.38 1.283.38 2.044 0 .751-.13 1.43-.38 2.037-.24.602-.61 1.08-1.1 1.435-.48.35-1.08.525-1.79.525zm.16-1.141c.5 0 .92-.121 1.25-.364.33-.247.57-.586.72-1.015.16-.434.24-.926.24-1.477 0-.56-.08-1.052-.24-1.477-.15-.429-.39-.763-.71-1.001-.33-.243-.73-.364-1.23-.364-.51 0-.94.126-1.27.378s-.58.593-.75 1.022c-.15.429-.23.91-.23 1.442 0 .537.08 1.022.24 1.456.16.429.41.77.74 1.022s.74.378 1.24.378zm2.21.931v-5.565h-.14v-4.515h1.25v10.08zm5.93.203c-.9 0-1.64-.196-2.22-.588-.58-.397-.93-.95-1.06-1.659l1.28-.203c.1.411.33.737.7.98.37.238.83.357 1.37.357.52 0 .93-.107 1.22-.322.3-.215.44-.506.44-.875 0-.215-.05-.387-.14-.518-.1-.135-.3-.261-.61-.378s-.77-.257-1.38-.42c-.67-.177-1.19-.362-1.58-.553-.38-.191-.65-.413-.82-.665-.16-.252-.24-.558-.24-.917 0-.443.12-.831.36-1.162.25-.336.58-.595 1.02-.777s.95-.273 1.52-.273c.58 0 1.09.091 1.54.273.46.182.82.441 1.1.777.28.331.44.719.49 1.162l-1.27.231c-.06-.406-.26-.726-.59-.959-.32-.233-.75-.357-1.27-.371-.49-.019-.88.068-1.19.259s-.46.45-.46.777c0 .182.06.338.17.469.12.131.33.254.64.371s.76.25 1.36.399c.66.168 1.19.352 1.57.553.39.196.66.429.83.7.16.266.24.595.24.987 0 .728-.27 1.302-.8 1.722-.54.415-1.28.623-2.22.623zm7.23-4.102v-1.029h9.24v1.029z" fill="#fbfaff"/><path d="m1109.12 417.993.01-1.12 4.47-4.025c.38-.336.63-.653.75-.952.13-.303.2-.614.2-.931 0-.387-.09-.737-.27-1.05-.17-.313-.42-.56-.72-.742-.31-.182-.65-.273-1.04-.273-.4 0-.76.096-1.07.287-.31.187-.56.436-.74.749s-.27.653-.26 1.022h-1.28c0-.635.15-1.195.44-1.68.3-.49.7-.873 1.2-1.148.51-.28 1.09-.42 1.73-.42.63 0 1.19.145 1.68.434.5.285.89.674 1.17 1.169.29.49.43 1.045.43 1.666 0 .439-.05.819-.16 1.141s-.28.621-.51.896c-.23.271-.51.56-.86.868l-3.72 3.339-.16-.42h5.41v1.19zm8.24-4.522v-1.029h4.2v1.029zm7.77 4.529v-8.701l-1.89 1.148v-1.393l1.89-1.134h1.27v10.08zm7.34.21c-.66 0-1.24-.147-1.75-.441-.51-.299-.92-.702-1.21-1.211-.3-.513-.45-1.097-.45-1.75v-3.696c0-.653.15-1.237.45-1.75.29-.513.7-.917 1.21-1.211s1.09-.441 1.75-.441c.65 0 1.23.147 1.75.441.51.294.91.698 1.21 1.211.29.513.44 1.097.44 1.75v3.696c0 .653-.15 1.237-.44 1.75-.3.509-.7.912-1.21 1.211-.52.294-1.1.441-1.75.441zm0-1.197c.39 0 .75-.096 1.07-.287.33-.191.58-.448.77-.77.2-.327.29-.686.29-1.078v-3.843c0-.397-.09-.756-.29-1.078-.19-.322-.44-.579-.77-.77-.32-.191-.68-.287-1.07-.287-.4 0-.75.096-1.08.287-.32.191-.58.448-.77.77s-.29.681-.29 1.078v3.843c0 .392.1.751.29 1.078.19.322.45.579.77.77.33.191.68.287 1.08.287zm6.48.987-.84-.84 9.25-9.24.84.84zm7.15.21c-.46 0-.88-.112-1.26-.336-.38-.229-.69-.532-.91-.91-.23-.383-.35-.807-.35-1.274 0-.457.12-.877.35-1.26.24-.383.54-.688.93-.917.38-.229.79-.343 1.24-.343.46 0 .89.114 1.27.343.38.224.69.527.91.91.23.378.34.8.34 1.267s-.11.891-.34 1.274c-.22.378-.53.681-.91.91-.38.224-.81.336-1.27.336zm0-1.099c.26 0 .49-.065.71-.196s.39-.303.52-.518.19-.45.19-.707-.06-.492-.19-.707c-.13-.219-.3-.392-.52-.518-.22-.131-.45-.196-.71-.196-.25 0-.49.065-.7.196-.22.126-.39.299-.52.518-.13.215-.2.45-.2.707s.07.492.2.707.3.387.52.518c.21.131.45.196.7.196zm-5.89-4.361c-.46 0-.89-.112-1.27-.336-.38-.229-.69-.532-.92-.91-.22-.383-.33-.807-.33-1.274 0-.457.12-.877.35-1.26s.54-.688.92-.917c.39-.229.8-.343 1.25-.343.46 0 .88.114 1.26.343.38.224.69.527.92.91.22.378.34.8.34 1.267s-.12.891-.34 1.274c-.23.378-.54.681-.92.91-.38.224-.8.336-1.26.336zm0-1.099c.26 0 .49-.065.71-.196.21-.131.39-.303.51-.518.13-.215.2-.45.2-.707s-.07-.492-.2-.707c-.12-.219-.3-.392-.51-.518-.22-.131-.45-.196-.71-.196s-.49.065-.71.196c-.21.126-.39.299-.52.518-.13.215-.19.45-.19.707s.06.492.19.707.31.387.52.518c.22.131.45.196.71.196z" fill="url(#o)"/><path d="m287.86 374.688c.642-3.859 3.98-6.688 7.892-6.688h119.808c4.942 0 8.702 4.437 7.892 9.312l-9.312 56c-.642 3.859-3.98 6.688-7.892 6.688h-119.808c-4.942 0-8.702-4.437-7.892-9.312z" fill="#1f1f1f"/><path d="m310.663 393v-10.08h1.134l3.808 8.029 3.787-8.029h1.148v10.073h-1.183v-7.336l-3.423 7.343h-.665l-3.423-7.343v7.343zm13.988.21c-.564 0-1.038-.103-1.421-.308-.378-.21-.665-.485-.861-.826-.191-.341-.287-.714-.287-1.12 0-.397.075-.74.224-1.029.154-.294.369-.537.644-.728.276-.196.605-.35.987-.462.36-.098.761-.182 1.204-.252.448-.075.901-.142 1.358-.203.458-.061.885-.119 1.281-.175l-.448.259c.014-.672-.121-1.169-.406-1.491-.28-.322-.765-.483-1.456-.483-.457 0-.858.105-1.204.315-.34.205-.581.541-.721 1.008l-1.183-.357c.182-.663.535-1.183 1.057-1.561.523-.378 1.211-.567 2.065-.567.686 0 1.274.124 1.764.371.495.243.85.611 1.064 1.106.108.233.175.488.203.763.028.271.042.555.042.854v4.676h-1.106v-1.813l.259.168c-.284.611-.683 1.073-1.197 1.386-.508.313-1.129.469-1.862.469zm.189-1.043c.448 0 .836-.079 1.162-.238.332-.163.598-.376.798-.637.201-.266.332-.555.392-.868.07-.233.108-.492.112-.777.01-.289.014-.511.014-.665l.434.189c-.406.056-.805.11-1.197.161s-.763.107-1.113.168c-.35.056-.665.124-.945.203-.205.065-.399.149-.581.252-.177.103-.322.236-.434.399-.107.159-.161.357-.161.595 0 .205.052.401.154.588.108.187.271.338.49.455.224.117.516.175.875.175zm5.537.833v-7.56h1.113v1.827l-.182-.238c.089-.233.203-.448.343-.644.145-.196.306-.357.483-.483.196-.159.418-.28.665-.364.248-.084.5-.133.756-.147.257-.019.497-.002.721.049v1.169c-.261-.07-.548-.089-.861-.056-.312.033-.602.147-.868.343-.242.173-.431.383-.567.63-.13.247-.221.516-.273.805-.051.285-.077.576-.077.875v3.794zm5.216 0 .007-10.08h1.26v6.16l3.171-3.64h1.617l-3.339 3.78 3.731 3.78h-1.743l-3.437-3.64v3.64zm10.283.21c-.742 0-1.391-.163-1.946-.49-.551-.331-.98-.791-1.288-1.379-.308-.593-.462-1.283-.462-2.072 0-.826.152-1.54.455-2.142.303-.607.726-1.073 1.267-1.4.546-.331 1.185-.497 1.918-.497.761 0 1.407.175 1.939.525.537.35.938.849 1.204 1.498.271.649.387 1.421.35 2.317h-1.26v-.448c-.014-.929-.203-1.622-.567-2.079-.364-.462-.905-.693-1.624-.693-.77 0-1.356.247-1.757.742s-.602 1.204-.602 2.128c0 .891.201 1.582.602 2.072s.973.735 1.715.735c.499 0 .933-.114 1.302-.343s.658-.558.868-.987l1.197.413c-.294.667-.737 1.185-1.33 1.554-.588.364-1.248.546-1.981.546zm-2.793-3.64v-1.001h5.586v1.001zm12.01 3.43c-.448.089-.892.124-1.33.105-.434-.014-.822-.1-1.162-.259-.341-.163-.6-.415-.777-.756-.15-.299-.231-.6-.245-.903-.01-.308-.014-.656-.014-1.043v-6.804h1.246v6.748c0 .308.002.572.007.791.009.219.058.408.147.567.168.299.434.474.798.525.368.051.812.037 1.33-.042zm-5.061-6.531v-1.029h5.061v1.029zm10.067 6.741c-.709 0-1.306-.175-1.792-.525-.485-.355-.854-.833-1.106-1.435-.247-.607-.371-1.286-.371-2.037 0-.761.124-1.442.371-2.044.252-.602.621-1.076 1.106-1.421.49-.345 1.09-.518 1.799-.518.7 0 1.302.175 1.806.525.509.345.899.819 1.169 1.421.271.602.406 1.281.406 2.037s-.135 1.435-.406 2.037c-.27.602-.66 1.08-1.169 1.435-.504.35-1.108.525-1.813.525zm-3.479 3.15v-10.92h1.113v5.565h.14v5.355zm3.325-4.291c.5 0 .913-.126 1.239-.378.327-.252.572-.593.735-1.022.164-.434.245-.919.245-1.456 0-.532-.081-1.013-.245-1.442-.158-.429-.406-.77-.742-1.022-.331-.252-.753-.378-1.267-.378-.49 0-.896.121-1.218.364-.322.238-.562.572-.721 1.001-.158.425-.238.917-.238 1.477 0 .551.077 1.043.231 1.477.159.429.402.768.728 1.015.327.243.745.364 1.253.364zm5.217.931v-10.29h1.246v10.29zm5.495.21c-.564 0-1.038-.103-1.421-.308-.378-.21-.665-.485-.861-.826-.191-.341-.287-.714-.287-1.12 0-.397.075-.74.224-1.029.154-.294.369-.537.644-.728.276-.196.605-.35.987-.462.36-.098.761-.182 1.204-.252.448-.075.901-.142 1.358-.203.458-.061.885-.119 1.281-.175l-.448.259c.014-.672-.121-1.169-.406-1.491-.28-.322-.765-.483-1.456-.483-.457 0-.858.105-1.204.315-.34.205-.581.541-.721 1.008l-1.183-.357c.182-.663.535-1.183 1.057-1.561.523-.378 1.211-.567 2.065-.567.686 0 1.274.124 1.764.371.495.243.85.611 1.064 1.106.108.233.175.488.203.763.028.271.042.555.042.854v4.676h-1.106v-1.813l.259.168c-.284.611-.683 1.073-1.197 1.386-.508.313-1.129.469-1.862.469zm.189-1.043c.448 0 .836-.079 1.162-.238.332-.163.598-.376.798-.637.201-.266.332-.555.392-.868.07-.233.108-.492.112-.777.01-.289.014-.511.014-.665l.434.189c-.406.056-.805.11-1.197.161s-.763.107-1.113.168c-.35.056-.665.124-.945.203-.205.065-.399.149-.581.252-.177.103-.322.236-.434.399-.107.159-.161.357-.161.595 0 .205.052.401.154.588.108.187.271.338.49.455.224.117.516.175.875.175zm8.722 1.043c-.765 0-1.416-.17-1.953-.511-.532-.345-.938-.819-1.218-1.421s-.424-1.288-.434-2.058c.01-.789.157-1.482.441-2.079.29-.602.703-1.071 1.239-1.407.537-.336 1.183-.504 1.939-.504.798 0 1.484.196 2.058.588.579.392.966.929 1.162 1.61l-1.232.371c-.158-.439-.417-.779-.777-1.022-.354-.243-.763-.364-1.225-.364-.518 0-.945.121-1.281.364-.336.238-.585.569-.749.994-.163.42-.247.903-.252 1.449.01.84.203 1.519.581 2.037.383.513.95.77 1.701.77.495 0 .906-.112 1.232-.336.327-.229.574-.558.742-.987l1.26.329c-.261.705-.669 1.244-1.225 1.617-.555.373-1.225.56-2.009.56zm7.734 0c-.742 0-1.391-.163-1.946-.49-.551-.331-.98-.791-1.288-1.379-.308-.593-.462-1.283-.462-2.072 0-.826.152-1.54.455-2.142.303-.607.726-1.073 1.267-1.4.546-.331 1.185-.497 1.918-.497.761 0 1.407.175 1.939.525.537.35.938.849 1.204 1.498.271.649.387 1.421.35 2.317h-1.26v-.448c-.014-.929-.203-1.622-.567-2.079-.364-.462-.905-.693-1.624-.693-.77 0-1.356.247-1.757.742s-.602 1.204-.602 2.128c0 .891.201 1.582.602 2.072s.973.735 1.715.735c.499 0 .933-.114 1.302-.343s.658-.558.868-.987l1.197.413c-.294.667-.737 1.185-1.33 1.554-.588.364-1.248.546-1.981.546zm-2.793-3.64v-1.001h5.586v1.001zm-85.909 20.43c-.448.089-.891.124-1.33.105-.434-.014-.821-.1-1.162-.259-.34-.163-.599-.415-.777-.756-.149-.299-.231-.6-.245-.903-.009-.308-.014-.656-.014-1.043v-6.804h1.246v6.748c0 .308.003.572.007.791.01.219.059.408.147.567.168.299.434.474.798.525.369.051.812.037 1.33-.042zm-5.061-6.531v-1.029h5.061v1.029zm6.596 6.531v-7.56h1.113v1.827l-.182-.238c.089-.233.203-.448.343-.644.145-.196.306-.357.483-.483.196-.159.418-.28.665-.364.248-.084.5-.133.756-.147.257-.019.497-.002.721.049v1.169c-.261-.07-.548-.089-.861-.056-.312.033-.602.147-.868.343-.242.173-.431.383-.567.63-.13.247-.221.516-.273.805-.051.285-.077.576-.077.875v3.794zm7.126.21c-.565 0-1.038-.103-1.421-.308-.378-.21-.665-.485-.861-.826-.191-.341-.287-.714-.287-1.12 0-.397.075-.74.224-1.029.154-.294.369-.537.644-.728.275-.196.604-.35.987-.462.359-.098.761-.182 1.204-.252.448-.075.901-.142 1.358-.203s.884-.119 1.281-.175l-.448.259c.014-.672-.121-1.169-.406-1.491-.28-.322-.765-.483-1.456-.483-.457 0-.859.105-1.204.315-.341.205-.581.541-.721 1.008l-1.183-.357c.182-.663.534-1.183 1.057-1.561s1.211-.567 2.065-.567c.686 0 1.274.124 1.764.371.495.243.849.611 1.064 1.106.107.233.175.488.203.763.028.271.042.555.042.854v4.676h-1.106v-1.813l.259.168c-.285.611-.684 1.073-1.197 1.386-.509.313-1.129.469-1.862.469zm.189-1.043c.448 0 .835-.079 1.162-.238.331-.163.597-.376.798-.637.201-.266.331-.555.392-.868.07-.233.107-.492.112-.777.009-.289.014-.511.014-.665l.434.189c-.406.056-.805.11-1.197.161s-.763.107-1.113.168c-.35.056-.665.124-.945.203-.205.065-.399.149-.581.252-.177.103-.322.236-.434.399-.107.159-.161.357-.161.595 0 .205.051.401.154.588.107.187.271.338.49.455.224.117.516.175.875.175zm10.92.833v-3.787c0-.359-.033-.705-.098-1.036-.061-.331-.17-.628-.329-.889-.154-.266-.364-.476-.63-.63-.261-.154-.593-.231-.994-.231-.313 0-.597.054-.854.161-.252.103-.469.261-.651.476s-.324.485-.427.812c-.098.322-.147.702-.147 1.141l-.819-.252c0-.733.131-1.36.392-1.883.266-.527.637-.931 1.113-1.211.481-.285 1.045-.427 1.694-.427.49 0 .908.077 1.253.231s.632.359.861.616c.229.252.408.537.539.854.131.313.222.632.273.959.056.322.084.628.084.917v4.179zm-5.39 0v-7.56h1.12v2.023h.14v5.537zm11.326.203c-.901 0-1.641-.196-2.219-.588-.574-.397-.927-.95-1.057-1.659l1.274-.203c.102.411.338.737.707.98.368.238.826.357 1.372.357.518 0 .924-.107 1.218-.322s.441-.506.441-.875c0-.215-.049-.387-.147-.518-.098-.135-.301-.261-.609-.378-.304-.117-.763-.257-1.379-.42-.668-.177-1.193-.362-1.575-.553-.383-.191-.656-.413-.819-.665-.164-.252-.245-.558-.245-.917 0-.443.121-.831.364-1.162.242-.336.581-.595 1.015-.777.438-.182.947-.273 1.526-.273.574 0 1.087.091 1.54.273.452.182.816.441 1.092.777.28.331.445.719.497 1.162l-1.274.231c-.061-.406-.257-.726-.588-.959-.327-.233-.749-.357-1.267-.371-.49-.019-.889.068-1.197.259-.304.191-.455.45-.455.777 0 .182.056.338.168.469.116.131.329.254.637.371.312.117.765.25 1.358.399.667.168 1.192.352 1.575.553.387.196.662.429.826.7.163.266.245.595.245.987 0 .728-.269 1.302-.805 1.722-.537.415-1.277.623-2.219.623zm6.717.007c-.565 0-1.039-.103-1.421-.308-.378-.21-.665-.485-.861-.826-.192-.341-.287-.714-.287-1.12 0-.397.074-.74.224-1.029.154-.294.368-.537.644-.728.275-.196.604-.35.987-.462.359-.098.76-.182 1.204-.252.448-.075.9-.142 1.358-.203.457-.061.884-.119 1.281-.175l-.448.259c.014-.672-.122-1.169-.406-1.491-.28-.322-.766-.483-1.456-.483-.458 0-.859.105-1.204.315-.341.205-.581.541-.721 1.008l-1.183-.357c.182-.663.534-1.183 1.057-1.561.522-.378 1.211-.567 2.065-.567.686 0 1.274.124 1.764.371.494.243.849.611 1.064 1.106.107.233.175.488.203.763.028.271.042.555.042.854v4.676h-1.106v-1.813l.259.168c-.285.611-.684 1.073-1.197 1.386-.509.313-1.13.469-1.862.469zm.189-1.043c.448 0 .835-.079 1.162-.238.331-.163.597-.376.798-.637.2-.266.331-.555.392-.868.07-.233.107-.492.112-.777.009-.289.014-.511.014-.665l.434.189c-.406.056-.805.11-1.197.161s-.763.107-1.113.168c-.35.056-.665.124-.945.203-.206.065-.399.149-.581.252-.178.103-.322.236-.434.399-.108.159-.161.357-.161.595 0 .205.051.401.154.588.107.187.27.338.49.455.224.117.515.175.875.175zm8.722 1.043c-.766 0-1.417-.17-1.953-.511-.532-.345-.938-.819-1.218-1.421s-.425-1.288-.434-2.058c.009-.789.156-1.482.441-2.079.289-.602.702-1.071 1.239-1.407.536-.336 1.183-.504 1.939-.504.798 0 1.484.196 2.058.588.578.392.966.929 1.162 1.61l-1.232.371c-.159-.439-.418-.779-.777-1.022-.355-.243-.763-.364-1.225-.364-.518 0-.945.121-1.281.364-.336.238-.586.569-.749.994-.164.42-.248.903-.252 1.449.009.84.203 1.519.581 2.037.382.513.949.77 1.701.77.494 0 .905-.112 1.232-.336.326-.229.574-.558.742-.987l1.26.329c-.262.705-.67 1.244-1.225 1.617-.556.373-1.225.56-2.009.56zm8.883-.21c-.448.089-.891.124-1.33.105-.434-.014-.821-.1-1.162-.259-.34-.163-.599-.415-.777-.756-.149-.299-.231-.6-.245-.903-.009-.308-.014-.656-.014-1.043v-6.804h1.246v6.748c0 .308.003.572.007.791.01.219.059.408.147.567.168.299.434.474.798.525.369.051.812.037 1.33-.042zm-5.061-6.531v-1.029h5.061v1.029zm6.736-2.366v-1.288h1.246v1.288zm0 8.897v-7.56h1.246v7.56zm6.566.21c-.751 0-1.4-.17-1.946-.511-.541-.341-.959-.812-1.253-1.414s-.441-1.293-.441-2.072c0-.793.15-1.489.448-2.086.299-.597.721-1.062 1.267-1.393.546-.336 1.188-.504 1.925-.504.756 0 1.407.17 1.953.511.546.336.964.805 1.253 1.407.294.597.441 1.286.441 2.065 0 .789-.147 1.484-.441 2.086-.294.597-.714 1.066-1.26 1.407-.546.336-1.194.504-1.946.504zm0-1.183c.784 0 1.368-.261 1.75-.784.383-.523.574-1.199.574-2.03 0-.854-.193-1.533-.581-2.037-.387-.509-.968-.763-1.743-.763-.527 0-.961.119-1.302.357-.34.238-.595.567-.763.987s-.252.905-.252 1.456c0 .849.196 1.531.588 2.044s.969.77 1.729.77zm10.572.973v-3.787c0-.359-.033-.705-.098-1.036-.061-.331-.171-.628-.329-.889-.154-.266-.364-.476-.63-.63-.262-.154-.593-.231-.994-.231-.313 0-.598.054-.854.161-.252.103-.469.261-.651.476s-.325.485-.427.812c-.098.322-.147.702-.147 1.141l-.819-.252c0-.733.13-1.36.392-1.883.266-.527.637-.931 1.113-1.211.48-.285 1.045-.427 1.694-.427.49 0 .907.077 1.253.231.345.154.632.359.861.616.228.252.408.537.539.854.13.313.221.632.273.959.056.322.084.628.084.917v4.179zm-5.39 0v-7.56h1.12v2.023h.14v5.537zm11.993 0v-7.973c0-.196.01-.394.028-.595.019-.205.061-.404.126-.595.066-.196.173-.376.322-.539.173-.191.362-.327.567-.406.206-.084.413-.135.623-.154.215-.019.418-.028.609-.028h.959v1.036h-.889c-.368 0-.644.091-.826.273-.182.177-.273.448-.273.812v8.169zm-1.281-6.531v-1.029h4.515v1.029zm8.635 6.741c-.742 0-1.391-.163-1.946-.49-.551-.331-.98-.791-1.288-1.379-.308-.593-.462-1.283-.462-2.072 0-.826.152-1.54.455-2.142.303-.607.726-1.073 1.267-1.4.546-.331 1.185-.497 1.918-.497.761 0 1.407.175 1.939.525.537.35.938.849 1.204 1.498.271.649.387 1.421.35 2.317h-1.26v-.448c-.014-.929-.203-1.622-.567-2.079-.364-.462-.905-.693-1.624-.693-.77 0-1.356.247-1.757.742s-.602 1.204-.602 2.128c0 .891.201 1.582.602 2.072s.973.735 1.715.735c.499 0 .933-.114 1.302-.343s.658-.558.868-.987l1.197.413c-.294.667-.737 1.185-1.33 1.554-.588.364-1.248.546-1.981.546zm-2.793-3.64v-1.001h5.586v1.001zm11.065 3.64c-.742 0-1.391-.163-1.946-.49-.551-.331-.98-.791-1.288-1.379-.308-.593-.462-1.283-.462-2.072 0-.826.151-1.54.455-2.142.303-.607.725-1.073 1.267-1.4.546-.331 1.185-.497 1.918-.497.76 0 1.407.175 1.939.525.536.35.938.849 1.204 1.498.27.649.387 1.421.35 2.317h-1.26v-.448c-.014-.929-.203-1.622-.567-2.079-.364-.462-.906-.693-1.624-.693-.77 0-1.356.247-1.757.742-.402.495-.602 1.204-.602 2.128 0 .891.2 1.582.602 2.072.401.49.973.735 1.715.735.499 0 .933-.114 1.302-.343.368-.229.658-.558.868-.987l1.197.413c-.294.667-.738 1.185-1.33 1.554-.588.364-1.249.546-1.981.546zm-2.793-3.64v-1.001h5.586v1.001zm10.451-.469v-1.029h9.24v1.029z" fill="#fbfaff"/><path d="m334.896 426.993.007-1.12 4.473-4.025c.374-.336.623-.653.749-.952.131-.303.196-.614.196-.931 0-.387-.088-.737-.266-1.05-.177-.313-.42-.56-.728-.742-.303-.182-.648-.273-1.036-.273-.401 0-.758.096-1.071.287-.312.187-.56.436-.742.749-.177.313-.263.653-.259 1.022h-1.274c0-.635.147-1.195.441-1.68.294-.49.693-.873 1.197-1.148.509-.28 1.085-.42 1.729-.42.626 0 1.186.145 1.68.434.495.285.885.674 1.169 1.169.29.49.434 1.045.434 1.666 0 .439-.056.819-.168 1.141-.107.322-.275.621-.504.896-.228.271-.515.56-.861.868l-3.717 3.339-.161-.42h5.411v1.19zm8.598.007v-1.372h1.372v1.372zm6.531.21c-.518 0-1.001-.107-1.449-.322-.443-.215-.823-.509-1.141-.882-.312-.378-.536-.812-.672-1.302l1.197-.322c.084.331.234.618.448.861.215.238.465.425.749.56.29.131.591.196.903.196.411 0 .78-.098 1.106-.294.332-.201.593-.464.784-.791.192-.331.287-.693.287-1.085 0-.406-.1-.772-.301-1.099-.196-.331-.459-.593-.791-.784-.331-.191-.693-.287-1.085-.287-.443 0-.823.093-1.141.28-.312.182-.56.406-.742.672l-1.106-.42.308-5.271h5.411v1.183h-4.809l.553-.518-.259 4.221-.273-.357c.28-.299.614-.53 1.001-.693.392-.163.791-.245 1.197-.245.626 0 1.186.147 1.68.441.495.289.887.686 1.176 1.19.29.499.434 1.062.434 1.687 0 .621-.158 1.188-.476 1.701-.317.509-.739.917-1.267 1.225-.522.303-1.096.455-1.722.455zm6.26-.21-.84-.84 9.254-9.24.84.84zm7.154.21c-.462 0-.885-.112-1.267-.336-.378-.229-.682-.532-.91-.91-.229-.383-.343-.807-.343-1.274 0-.457.116-.877.35-1.26.233-.383.541-.688.924-.917.382-.229.798-.343 1.246-.343.462 0 .884.114 1.267.343.382.224.686.527.91.91.228.378.343.8.343 1.267s-.115.891-.343 1.274c-.224.378-.528.681-.91.91-.383.224-.805.336-1.267.336zm0-1.099c.256 0 .492-.065.707-.196.219-.131.392-.303.518-.518.13-.215.196-.45.196-.707s-.066-.492-.196-.707c-.126-.219-.299-.392-.518-.518-.215-.131-.451-.196-.707-.196-.257 0-.493.065-.707.196-.215.126-.388.299-.518.518-.131.215-.196.45-.196.707s.065.492.196.707c.13.215.303.387.518.518.214.131.45.196.707.196zm-5.894-4.361c-.462 0-.885-.112-1.267-.336-.383-.229-.689-.532-.917-.91-.224-.383-.336-.807-.336-1.274 0-.457.116-.877.35-1.26.233-.383.541-.688.924-.917.382-.229.798-.343 1.246-.343.462 0 .882.114 1.26.343.382.224.688.527.917.91.228.378.343.8.343 1.267s-.115.891-.343 1.274c-.229.378-.535.681-.917.91-.378.224-.798.336-1.26.336zm0-1.099c.256 0 .492-.065.707-.196.219-.131.392-.303.518-.518.13-.215.196-.45.196-.707s-.066-.492-.196-.707c-.126-.219-.299-.392-.518-.518-.215-.131-.451-.196-.707-.196-.257 0-.493.065-.707.196-.215.126-.388.299-.518.518-.131.215-.196.45-.196.707s.065.492.196.707c.13.215.303.387.518.518.214.131.45.196.707.196z" fill="url(#p)"/><path d="m533.845 190.691c.64-3.861 3.979-6.691 7.892-6.691h121.826c4.941 0 8.701 4.435 7.892 9.309l-7.3 44c-.64 3.861-3.979 6.691-7.892 6.691h-121.826c-4.941 0-8.701-4.435-7.892-9.309z" fill="#1f1f1f"/><path d="m548.88 211v-10.08h3.108c.103 0 .283.002.539.007.257.005.502.023.735.056.78.103 1.431.387 1.953.854.528.462.924 1.05 1.19 1.764s.399 1.5.399 2.359-.133 1.645-.399 2.359-.662 1.304-1.19 1.771c-.522.462-1.173.744-1.953.847-.233.028-.48.047-.742.056-.256.005-.434.007-.532.007zm1.281-1.19h1.827c.178 0 .376-.005.595-.014.22-.014.411-.035.574-.063.551-.103.997-.334 1.337-.693.341-.359.591-.807.749-1.344.159-.537.238-1.115.238-1.736 0-.635-.081-1.22-.245-1.757-.158-.537-.408-.982-.749-1.337-.34-.355-.784-.581-1.33-.679-.163-.033-.357-.054-.581-.063s-.42-.014-.588-.014h-1.827zm11.525 1.4c-.742 0-1.391-.163-1.946-.49-.551-.331-.98-.791-1.288-1.379-.308-.593-.462-1.283-.462-2.072 0-.826.151-1.54.455-2.142.303-.607.725-1.073 1.267-1.4.546-.331 1.185-.497 1.918-.497.76 0 1.407.175 1.939.525.536.35.938.849 1.204 1.498.27.649.387 1.421.35 2.317h-1.26v-.448c-.014-.929-.203-1.622-.567-2.079-.364-.462-.906-.693-1.624-.693-.77 0-1.356.247-1.757.742-.402.495-.602 1.204-.602 2.128 0 .891.2 1.582.602 2.072.401.49.973.735 1.715.735.499 0 .933-.114 1.302-.343.368-.229.658-.558.868-.987l1.197.413c-.294.667-.738 1.185-1.33 1.554-.588.364-1.249.546-1.981.546zm-2.793-3.64v-1.001h5.586v1.001zm9.559 3.43-2.744-7.56h1.26l2.121 5.971 2.114-5.971h1.267l-2.744 7.56zm8.286.21c-.742 0-1.39-.163-1.946-.49-.55-.331-.98-.791-1.288-1.379-.308-.593-.462-1.283-.462-2.072 0-.826.152-1.54.455-2.142.304-.607.726-1.073 1.267-1.4.546-.331 1.186-.497 1.918-.497.761 0 1.407.175 1.939.525.537.35.938.849 1.204 1.498.271.649.388 1.421.35 2.317h-1.26v-.448c-.014-.929-.203-1.622-.567-2.079-.364-.462-.905-.693-1.624-.693-.77 0-1.355.247-1.757.742-.401.495-.602 1.204-.602 2.128 0 .891.201 1.582.602 2.072.402.49.973.735 1.715.735.5 0 .934-.114 1.302-.343.369-.229.658-.558.868-.987l1.197.413c-.294.667-.737 1.185-1.33 1.554-.588.364-1.248.546-1.981.546zm-2.793-3.64v-1.001h5.586v1.001zm7.929 3.43v-10.29h1.246v10.29zm6.566.21c-.751 0-1.4-.17-1.946-.511-.541-.341-.959-.812-1.253-1.414s-.441-1.293-.441-2.072c0-.793.15-1.489.448-2.086.299-.597.721-1.062 1.267-1.393.546-.336 1.188-.504 1.925-.504.756 0 1.407.17 1.953.511.546.336.964.805 1.253 1.407.294.597.441 1.286.441 2.065 0 .789-.147 1.484-.441 2.086-.294.597-.714 1.066-1.26 1.407-.546.336-1.194.504-1.946.504zm0-1.183c.784 0 1.368-.261 1.75-.784.383-.523.574-1.199.574-2.03 0-.854-.193-1.533-.581-2.037-.387-.509-.968-.763-1.743-.763-.527 0-.961.119-1.302.357-.34.238-.595.567-.763.987s-.252.905-.252 1.456c0 .849.196 1.531.588 2.044s.969.77 1.729.77zm8.66 1.183c-.709 0-1.306-.175-1.792-.525-.485-.355-.854-.833-1.106-1.435-.247-.607-.371-1.286-.371-2.037 0-.761.124-1.442.371-2.044.252-.602.621-1.076 1.106-1.421.49-.345 1.09-.518 1.799-.518.7 0 1.302.175 1.806.525.509.345.899.819 1.169 1.421.271.602.406 1.281.406 2.037s-.135 1.435-.406 2.037c-.27.602-.66 1.08-1.169 1.435-.504.35-1.108.525-1.813.525zm-3.479 3.15v-10.92h1.113v5.565h.14v5.355zm3.325-4.291c.5 0 .913-.126 1.239-.378.327-.252.572-.593.735-1.022.164-.434.245-.919.245-1.456 0-.532-.081-1.013-.245-1.442-.158-.429-.406-.77-.742-1.022-.331-.252-.753-.378-1.267-.378-.49 0-.896.121-1.218.364-.322.238-.562.572-.721 1.001-.158.425-.238.917-.238 1.477 0 .551.077 1.043.231 1.477.159.429.402.768.728 1.015.327.243.745.364 1.253.364zm14.114.931.007-4.837c0-.565-.152-1.006-.455-1.323-.299-.322-.688-.483-1.169-.483-.28 0-.546.065-.798.196-.252.126-.457.327-.616.602-.159.271-.238.618-.238 1.043l-.658-.266c-.009-.537.1-1.006.329-1.407.233-.406.551-.721.952-.945s.854-.336 1.358-.336c.789 0 1.409.24 1.862.721.453.476.679 1.118.679 1.925l-.007 5.11zm-9.044 0v-7.56h1.113v2.023h.14v5.537zm4.529 0 .007-4.788c0-.579-.149-1.031-.448-1.358-.299-.331-.695-.497-1.19-.497-.49 0-.887.168-1.19.504s-.455.782-.455 1.337l-.658-.392c0-.49.117-.929.35-1.316s.551-.691.952-.91c.401-.224.856-.336 1.365-.336s.952.107 1.33.322.67.523.875.924c.205.397.308.87.308 1.421l-.007 5.089zm10.799.21c-.742 0-1.391-.163-1.946-.49-.551-.331-.98-.791-1.288-1.379-.308-.593-.462-1.283-.462-2.072 0-.826.152-1.54.455-2.142.303-.607.726-1.073 1.267-1.4.546-.331 1.185-.497 1.918-.497.761 0 1.407.175 1.939.525.537.35.938.849 1.204 1.498.271.649.387 1.421.35 2.317h-1.26v-.448c-.014-.929-.203-1.622-.567-2.079-.364-.462-.905-.693-1.624-.693-.77 0-1.356.247-1.757.742s-.602 1.204-.602 2.128c0 .891.201 1.582.602 2.072s.973.735 1.715.735c.499 0 .933-.114 1.302-.343s.658-.558.868-.987l1.197.413c-.294.667-.737 1.185-1.33 1.554-.588.364-1.248.546-1.981.546zm-2.793-3.64v-1.001h5.586v1.001zm12.966 3.43v-3.787c0-.359-.032-.705-.098-1.036-.06-.331-.17-.628-.329-.889-.154-.266-.364-.476-.63-.63-.261-.154-.592-.231-.994-.231-.312 0-.597.054-.854.161-.252.103-.469.261-.651.476s-.324.485-.427.812c-.098.322-.147.702-.147 1.141l-.819-.252c0-.733.131-1.36.392-1.883.266-.527.637-.931 1.113-1.211.481-.285 1.046-.427 1.694-.427.49 0 .908.077 1.253.231.346.154.633.359.861.616.229.252.409.537.539.854.131.313.222.632.273.959.056.322.084.628.084.917v4.179zm-5.39 0v-7.56h1.12v2.023h.14v5.537zm12.691 0c-.448.089-.891.124-1.33.105-.434-.014-.821-.1-1.162-.259-.34-.163-.599-.415-.777-.756-.149-.299-.231-.6-.245-.903-.009-.308-.014-.656-.014-1.043v-6.804h1.246v6.748c0 .308.003.572.007.791.01.219.059.408.147.567.168.299.434.474.798.525.369.051.812.037 1.33-.042zm-5.061-6.531v-1.029h5.061v1.029zm9.259 2.632v-1.029h9.24v1.029z" fill="#fbfaff"/><path d="m587.702 228v-8.701l-1.897 1.148v-1.393l1.897-1.134h1.267v10.08zm7.332.21c-.653 0-1.236-.147-1.75-.441-.508-.299-.912-.702-1.211-1.211-.294-.513-.441-1.097-.441-1.75v-3.696c0-.653.147-1.237.441-1.75.299-.513.703-.917 1.211-1.211.514-.294 1.097-.441 1.75-.441.654 0 1.237.147 1.75.441.514.294.917.698 1.211 1.211s.441 1.097.441 1.75v3.696c0 .653-.147 1.237-.441 1.75-.294.509-.697.912-1.211 1.211-.513.294-1.096.441-1.75.441zm0-1.197c.397 0 .756-.096 1.078-.287s.579-.448.77-.77c.192-.327.287-.686.287-1.078v-3.843c0-.397-.095-.756-.287-1.078-.191-.322-.448-.579-.77-.77s-.681-.287-1.078-.287c-.392 0-.751.096-1.078.287-.322.191-.578.448-.77.77-.191.322-.287.681-.287 1.078v3.843c0 .392.096.751.287 1.078.192.322.448.579.77.77.327.191.686.287 1.078.287zm6.482.987-.84-.84 9.254-9.24.84.84zm7.154.21c-.462 0-.884-.112-1.267-.336-.378-.229-.681-.532-.91-.91-.229-.383-.343-.807-.343-1.274 0-.457.117-.877.35-1.26s.541-.688.924-.917.798-.343 1.246-.343c.462 0 .884.114 1.267.343.383.224.686.527.91.91.229.378.343.8.343 1.267s-.114.891-.343 1.274c-.224.378-.527.681-.91.91-.383.224-.805.336-1.267.336zm0-1.099c.257 0 .492-.065.707-.196.219-.131.392-.303.518-.518.131-.215.196-.45.196-.707s-.065-.492-.196-.707c-.126-.219-.299-.392-.518-.518-.215-.131-.45-.196-.707-.196s-.492.065-.707.196c-.215.126-.387.299-.518.518-.131.215-.196.45-.196.707s.065.492.196.707.303.387.518.518.45.196.707.196zm-5.894-4.361c-.462 0-.884-.112-1.267-.336-.383-.229-.688-.532-.917-.91-.224-.383-.336-.807-.336-1.274 0-.457.117-.877.35-1.26s.541-.688.924-.917.798-.343 1.246-.343c.462 0 .882.114 1.26.343.383.224.688.527.917.91.229.378.343.8.343 1.267s-.114.891-.343 1.274c-.229.378-.534.681-.917.91-.378.224-.798.336-1.26.336zm0-1.099c.257 0 .492-.065.707-.196.219-.131.392-.303.518-.518.131-.215.196-.45.196-.707s-.065-.492-.196-.707c-.126-.219-.299-.392-.518-.518-.215-.131-.45-.196-.707-.196s-.492.065-.707.196c-.215.126-.387.299-.518.518-.131.215-.196.45-.196.707s.065.492.196.707.303.387.518.518.45.196.707.196z" fill="url(#q)"/><path d="m781.845 190.691c.64-3.861 3.979-6.691 7.892-6.691h121.826c4.941 0 8.701 4.435 7.892 9.309l-7.3 44c-.64 3.861-3.979 6.691-7.892 6.691h-121.826c-4.941 0-8.701-4.435-7.892-9.309z" fill="#1f1f1f"/><path d="m796.973 211v-10.08h1.246v8.897h4.676v1.183zm7.246-8.897v-1.288h1.246v1.288zm0 8.897v-7.56h1.246v7.56zm6.314.21c-.705 0-1.309-.175-1.813-.525-.504-.355-.894-.833-1.169-1.435-.271-.602-.406-1.281-.406-2.037s.135-1.435.406-2.037c.275-.602.665-1.076 1.169-1.421.504-.35 1.106-.525 1.806-.525.714 0 1.314.173 1.799.518s.852.819 1.099 1.421c.252.602.378 1.283.378 2.044 0 .751-.126 1.43-.378 2.037-.247.602-.614 1.08-1.099 1.435-.485.35-1.083.525-1.792.525zm.154-1.141c.509 0 .926-.121 1.253-.364.327-.247.567-.586.721-1.015.159-.434.238-.926.238-1.477 0-.56-.079-1.052-.238-1.477-.154-.429-.392-.763-.714-1.001-.322-.243-.73-.364-1.225-.364-.513 0-.938.126-1.274.378-.331.252-.579.593-.742 1.022-.159.429-.238.91-.238 1.442 0 .537.082 1.022.245 1.456.163.429.408.77.735 1.022.331.252.744.378 1.239.378zm2.072 4.291v-5.355h.14v-5.565h1.113v10.92zm6.084-3.164c-.485 0-.903-.077-1.253-.231-.345-.154-.632-.359-.861-.616s-.408-.541-.539-.854-.224-.632-.28-.959c-.051-.327-.077-.632-.077-.917v-4.179h1.26v3.787c0 .355.033.698.098 1.029s.175.63.329.896c.159.266.369.476.63.63.266.154.597.231.994.231.313 0 .597-.054.854-.161s.476-.266.658-.476c.182-.215.322-.485.42-.812s.147-.707.147-1.141l.819.252c0 .728-.133 1.356-.399 1.883-.261.527-.632.933-1.113 1.218-.476.28-1.038.42-1.687.42zm2.52-.196v-2.023h-.14v-5.537h1.253v7.56zm3.213-8.897v-1.288h1.246v1.288zm0 8.897v-7.56h1.246v7.56zm6.314.21c-.704 0-1.309-.175-1.813-.525-.504-.355-.893-.833-1.169-1.435-.27-.602-.406-1.281-.406-2.037s.136-1.435.406-2.037c.276-.602.665-1.076 1.169-1.421.504-.35 1.106-.525 1.806-.525.714 0 1.314.173 1.799.518.486.345.852.819 1.099 1.421.252.602.378 1.283.378 2.044 0 .751-.126 1.43-.378 2.037-.247.602-.613 1.08-1.099 1.435-.485.35-1.082.525-1.792.525zm.154-1.141c.509 0 .927-.121 1.253-.364.327-.247.567-.586.721-1.015.159-.434.238-.926.238-1.477 0-.56-.079-1.052-.238-1.477-.154-.429-.392-.763-.714-1.001-.322-.243-.73-.364-1.225-.364-.513 0-.938.126-1.274.378-.331.252-.578.593-.742 1.022-.158.429-.238.91-.238 1.442 0 .537.082 1.022.245 1.456.164.429.409.77.735 1.022.332.252.745.378 1.239.378zm2.212.931v-5.565h-.14v-4.515h1.253v10.08zm3.215-8.897v-1.288h1.246v1.288zm0 8.897v-7.56h1.246v7.56zm7.567 0c-.448.089-.891.124-1.33.105-.434-.014-.821-.1-1.162-.259-.341-.163-.6-.415-.777-.756-.149-.299-.231-.6-.245-.903-.009-.308-.014-.656-.014-1.043v-6.804h1.246v6.748c0 .308.002.572.007.791.009.219.058.408.147.567.168.299.434.474.798.525.369.051.812.037 1.33-.042zm-5.061-6.531v-1.029h5.061v1.029zm7.441 9.891 1.463-3.976.021 1.176-3.304-8.12h1.309l2.59 6.531h-.448l2.429-6.531h1.267l-4.116 10.92zm12.758-3.15c-.71 0-1.307-.175-1.792-.525-.486-.355-.854-.833-1.106-1.435-.248-.607-.371-1.286-.371-2.037 0-.761.123-1.442.371-2.044.252-.602.62-1.076 1.106-1.421.49-.345 1.089-.518 1.799-.518.7 0 1.302.175 1.806.525.508.345.898.819 1.169 1.421.27.602.406 1.281.406 2.037s-.136 1.435-.406 2.037c-.271.602-.661 1.08-1.169 1.435-.504.35-1.109.525-1.813.525zm-3.479 3.15v-10.92h1.113v5.565h.14v5.355zm3.325-4.291c.499 0 .912-.126 1.239-.378.326-.252.571-.593.735-1.022.163-.434.245-.919.245-1.456 0-.532-.082-1.013-.245-1.442-.159-.429-.406-.77-.742-1.022-.332-.252-.754-.378-1.267-.378-.49 0-.896.121-1.218.364-.322.238-.563.572-.721 1.001-.159.425-.238.917-.238 1.477 0 .551.077 1.043.231 1.477.158.429.401.768.728 1.015.326.243.744.364 1.253.364zm8.296 1.141c-.751 0-1.4-.17-1.946-.511-.541-.341-.959-.812-1.253-1.414s-.441-1.293-.441-2.072c0-.793.149-1.489.448-2.086s.721-1.062 1.267-1.393c.546-.336 1.188-.504 1.925-.504.756 0 1.407.17 1.953.511.546.336.964.805 1.253 1.407.294.597.441 1.286.441 2.065 0 .789-.147 1.484-.441 2.086-.294.597-.714 1.066-1.26 1.407-.546.336-1.195.504-1.946.504zm0-1.183c.784 0 1.367-.261 1.75-.784s.574-1.199.574-2.03c0-.854-.194-1.533-.581-2.037-.387-.509-.968-.763-1.743-.763-.527 0-.961.119-1.302.357s-.595.567-.763.987-.252.905-.252 1.456c0 .849.196 1.531.588 2.044s.968.77 1.729.77zm8.408 1.183c-.751 0-1.4-.17-1.946-.511-.541-.341-.959-.812-1.253-1.414s-.441-1.293-.441-2.072c0-.793.15-1.489.448-2.086.299-.597.721-1.062 1.267-1.393.546-.336 1.188-.504 1.925-.504.756 0 1.407.17 1.953.511.546.336.964.805 1.253 1.407.294.597.441 1.286.441 2.065 0 .789-.147 1.484-.441 2.086-.294.597-.714 1.066-1.26 1.407-.546.336-1.194.504-1.946.504zm0-1.183c.784 0 1.368-.261 1.75-.784.383-.523.574-1.199.574-2.03 0-.854-.193-1.533-.581-2.037-.387-.509-.968-.763-1.743-.763-.527 0-.961.119-1.302.357-.34.238-.595.567-.763.987s-.252.905-.252 1.456c0 .849.196 1.531.588 2.044s.969.77 1.729.77zm5.329.973v-10.29h1.246v10.29zm6.009-3.899v-1.029h9.24v1.029z" fill="#fbfaff"/><path d="m837.294 228v-1.855h-4.634v-1.183l3.325-7.042h1.414l-3.325 7.042h3.22v-2.835h1.26v2.835h1.05v1.183h-1.05v1.855zm6.968.21c-.518 0-1.001-.107-1.449-.322-.444-.215-.824-.509-1.141-.882-.313-.378-.537-.812-.672-1.302l1.197-.322c.084.331.233.618.448.861.214.238.464.425.749.56.289.131.59.196.903.196.41 0 .779-.098 1.106-.294.331-.201.592-.464.784-.791.191-.331.287-.693.287-1.085 0-.406-.101-.772-.301-1.099-.196-.331-.46-.593-.791-.784-.332-.191-.693-.287-1.085-.287-.444 0-.824.093-1.141.28-.313.182-.56.406-.742.672l-1.106-.42.308-5.271h5.411v1.183h-4.809l.553-.518-.259 4.221-.273-.357c.28-.299.613-.53 1.001-.693.392-.163.791-.245 1.197-.245.625 0 1.185.147 1.68.441.494.289.886.686 1.176 1.19.289.499.434 1.062.434 1.687 0 .621-.159 1.188-.476 1.701-.318.509-.74.917-1.267 1.225-.523.303-1.097.455-1.722.455zm6.259-.21-.84-.84 9.254-9.24.84.84zm7.154.21c-.462 0-.884-.112-1.267-.336-.378-.229-.681-.532-.91-.91-.229-.383-.343-.807-.343-1.274 0-.457.117-.877.35-1.26s.541-.688.924-.917.798-.343 1.246-.343c.462 0 .884.114 1.267.343.383.224.686.527.91.91.229.378.343.8.343 1.267s-.114.891-.343 1.274c-.224.378-.527.681-.91.91-.383.224-.805.336-1.267.336zm0-1.099c.257 0 .492-.065.707-.196.219-.131.392-.303.518-.518.131-.215.196-.45.196-.707s-.065-.492-.196-.707c-.126-.219-.299-.392-.518-.518-.215-.131-.45-.196-.707-.196s-.492.065-.707.196c-.215.126-.387.299-.518.518-.131.215-.196.45-.196.707s.065.492.196.707.303.387.518.518.45.196.707.196zm-5.894-4.361c-.462 0-.884-.112-1.267-.336-.383-.229-.688-.532-.917-.91-.224-.383-.336-.807-.336-1.274 0-.457.117-.877.35-1.26s.541-.688.924-.917.798-.343 1.246-.343c.462 0 .882.114 1.26.343.383.224.688.527.917.91.229.378.343.8.343 1.267s-.114.891-.343 1.274c-.229.378-.534.681-.917.91-.378.224-.798.336-1.26.336zm0-1.099c.257 0 .492-.065.707-.196.219-.131.392-.303.518-.518.131-.215.196-.45.196-.707s-.065-.492-.196-.707c-.126-.219-.299-.392-.518-.518-.215-.131-.45-.196-.707-.196s-.492.065-.707.196c-.215.126-.387.299-.518.518-.131.215-.196.45-.196.707s.065.492.196.707.303.387.518.518.45.196.707.196z" fill="url(#r)"/><path d="m1029.84 190.691c.64-3.861 3.98-6.691 7.9-6.691h121.82c4.94 0 8.7 4.435 7.9 9.309l-7.3 44c-.64 3.861-3.98 6.691-7.9 6.691h-121.82c-4.94 0-8.7-4.435-7.9-9.309z" fill="#1f1f1f"/><path d="m1058.06 211v-8.897h-3.44v-1.183h8.12v1.183h-3.43v8.897zm7.9.21c-.76 0-1.4-.17-1.95-.511-.54-.341-.96-.812-1.25-1.414-.3-.602-.44-1.293-.44-2.072 0-.793.15-1.489.44-2.086.3-.597.72-1.062 1.27-1.393.55-.336 1.19-.504 1.93-.504.75 0 1.4.17 1.95.511.54.336.96.805 1.25 1.407.3.597.44 1.286.44 2.065 0 .789-.14 1.484-.44 2.086-.29.597-.71 1.066-1.26 1.407-.54.336-1.19.504-1.94.504zm0-1.183c.78 0 1.36-.261 1.75-.784.38-.523.57-1.199.57-2.03 0-.854-.19-1.533-.58-2.037-.39-.509-.97-.763-1.74-.763-.53 0-.97.119-1.31.357s-.59.567-.76.987-.25.905-.25 1.456c0 .849.19 1.531.59 2.044.39.513.97.77 1.73.77zm8.05 1.169c-.48 0-.9-.077-1.25-.231-.34-.154-.63-.359-.86-.616s-.41-.541-.54-.854-.22-.632-.28-.959c-.05-.327-.08-.632-.08-.917v-4.179h1.26v3.787c0 .355.04.698.1 1.029.07.331.18.63.33.896.16.266.37.476.63.63.27.154.6.231 1 .231.31 0 .59-.054.85-.161s.48-.266.66-.476c.18-.215.32-.485.42-.812s.14-.707.14-1.141l.82.252c0 .728-.13 1.356-.4 1.883-.26.527-.63.933-1.11 1.218-.47.28-1.04.42-1.69.42zm2.52-.196v-2.023h-.14v-5.537h1.26v7.56zm3.08 0v-7.56h1.11v1.827l-.18-.238c.09-.233.2-.448.34-.644.15-.196.31-.357.48-.483.2-.159.42-.28.67-.364s.5-.133.75-.147c.26-.019.5-.002.73.049v1.169c-.27-.07-.55-.089-.87-.056-.31.033-.6.147-.86.343-.25.173-.43.383-.57.63-.13.247-.22.516-.27.805-.05.285-.08.576-.08.875v3.794zm10.6 0v-3.787c0-.359-.03-.705-.1-1.036-.06-.331-.17-.628-.32-.889-.16-.266-.37-.476-.63-.63-.27-.154-.6-.231-1-.231-.31 0-.6.054-.85.161-.25.103-.47.261-.65.476-.19.215-.33.485-.43.812-.1.322-.15.702-.15 1.141l-.82-.252c0-.733.13-1.36.4-1.883.26-.527.63-.931 1.11-1.211.48-.285 1.04-.427 1.69-.427.49 0 .91.077 1.26.231.34.154.63.359.86.616.23.252.4.537.54.854.13.313.22.632.27.959.05.322.08.628.08.917v4.179zm-5.39 0v-7.56h1.12v2.023h.14v5.537zm10.62.21c-.56 0-1.04-.103-1.42-.308-.38-.21-.66-.485-.86-.826-.19-.341-.29-.714-.29-1.12 0-.397.08-.74.23-1.029.15-.294.37-.537.64-.728.28-.196.6-.35.99-.462.36-.098.76-.182 1.2-.252.45-.075.9-.142 1.36-.203s.88-.119 1.28-.175l-.45.259c.02-.672-.12-1.169-.4-1.491s-.77-.483-1.46-.483c-.46 0-.86.105-1.2.315-.34.205-.58.541-.72 1.008l-1.19-.357c.18-.663.54-1.183 1.06-1.561s1.21-.567 2.06-.567c.69 0 1.28.124 1.77.371.49.243.85.611 1.06 1.106.11.233.18.488.21.763.02.271.04.555.04.854v4.676h-1.11v-1.813l.26.168c-.28.611-.68 1.073-1.2 1.386-.51.313-1.13.469-1.86.469zm.19-1.043c.45 0 .84-.079 1.16-.238.33-.163.6-.376.8-.637.2-.266.33-.555.39-.868.07-.233.11-.492.11-.777.01-.289.02-.511.02-.665l.43.189c-.4.056-.8.11-1.19.161-.4.051-.77.107-1.12.168-.35.056-.66.124-.94.203-.21.065-.4.149-.58.252s-.33.236-.44.399c-.1.159-.16.357-.16.595 0 .205.05.401.16.588.1.187.27.338.49.455s.51.175.87.175zm14.57.833.01-4.837c0-.565-.15-1.006-.45-1.323-.3-.322-.69-.483-1.17-.483-.28 0-.55.065-.8.196-.25.126-.46.327-.62.602-.16.271-.23.618-.23 1.043l-.66-.266c-.01-.537.1-1.006.33-1.407.23-.406.55-.721.95-.945s.85-.336 1.36-.336c.79 0 1.41.24 1.86.721.45.476.68 1.118.68 1.925l-.01 5.11zm-9.04 0v-7.56h1.11v2.023h.14v5.537zm4.53 0 .01-4.788c0-.579-.15-1.031-.45-1.358-.3-.331-.7-.497-1.19-.497s-.89.168-1.19.504-.46.782-.46 1.337l-.65-.392c0-.49.11-.929.35-1.316.23-.387.55-.691.95-.91.4-.224.85-.336 1.36-.336s.95.107 1.33.322.67.523.88.924c.2.397.31.87.31 1.421l-.01 5.089zm10.8.21c-.74 0-1.39-.163-1.95-.49-.55-.331-.98-.791-1.29-1.379-.3-.593-.46-1.283-.46-2.072 0-.826.15-1.54.46-2.142.3-.607.72-1.073 1.26-1.4.55-.331 1.19-.497 1.92-.497.76 0 1.41.175 1.94.525.54.35.94.849 1.21 1.498s.38 1.421.35 2.317h-1.26v-.448c-.02-.929-.21-1.622-.57-2.079-.37-.462-.91-.693-1.63-.693-.77 0-1.35.247-1.75.742s-.6 1.204-.6 2.128c0 .891.2 1.582.6 2.072s.97.735 1.71.735c.5 0 .94-.114 1.3-.343.37-.229.66-.558.87-.987l1.2.413c-.29.667-.74 1.185-1.33 1.554-.59.364-1.25.546-1.98.546zm-2.79-3.64v-1.001h5.58v1.001zm12.96 3.43v-3.787c0-.359-.03-.705-.1-1.036-.06-.331-.17-.628-.33-.889-.15-.266-.36-.476-.63-.63-.26-.154-.59-.231-.99-.231-.31 0-.6.054-.85.161-.26.103-.47.261-.65.476-.19.215-.33.485-.43.812-.1.322-.15.702-.15 1.141l-.82-.252c0-.733.13-1.36.39-1.883.27-.527.64-.931 1.12-1.211.48-.285 1.04-.427 1.69-.427.49 0 .91.077 1.25.231.35.154.64.359.87.616.22.252.4.537.53.854.14.313.23.632.28.959.05.322.08.628.08.917v4.179zm-5.39 0v-7.56h1.12v2.023h.14v5.537zm12.69 0c-.45.089-.89.124-1.33.105-.43-.014-.82-.1-1.16-.259-.34-.163-.6-.415-.78-.756-.15-.299-.23-.6-.24-.903-.01-.308-.02-.656-.02-1.043v-6.804h1.25v6.748c0 .308 0 .572.01.791s.06.408.14.567c.17.299.44.474.8.525.37.051.81.037 1.33-.042zm-5.06-6.531v-1.029h5.06v1.029zm-67.1 23.741c-.71 0-1.31-.175-1.79-.525-.49-.355-.86-.833-1.11-1.435-.25-.607-.37-1.286-.37-2.037 0-.761.12-1.442.37-2.044s.62-1.076 1.11-1.421 1.09-.518 1.8-.518c.7 0 1.3.175 1.8.525.51.345.9.819 1.17 1.421s.41 1.281.41 2.037-.14 1.435-.41 2.037-.66 1.08-1.17 1.435c-.5.35-1.11.525-1.81.525zm-3.48 3.15v-10.92h1.11v5.565h.14v5.355zm3.32-4.291c.5 0 .92-.126 1.24-.378.33-.252.58-.593.74-1.022.16-.434.24-.919.24-1.456 0-.532-.08-1.013-.24-1.442s-.41-.77-.74-1.022-.76-.378-1.27-.378c-.49 0-.9.121-1.22.364-.32.238-.56.572-.72 1.001-.16.425-.24.917-.24 1.477 0 .551.08 1.043.23 1.477.16.429.41.768.73 1.015.33.243.75.364 1.25.364zm8.3 1.141c-.75 0-1.4-.17-1.94-.511-.55-.341-.96-.812-1.26-1.414-.29-.602-.44-1.293-.44-2.072 0-.793.15-1.489.45-2.086s.72-1.062 1.27-1.393c.54-.336 1.18-.504 1.92-.504.76 0 1.41.17 1.95.511.55.336.97.805 1.26 1.407.29.597.44 1.286.44 2.065 0 .789-.15 1.484-.44 2.086-.3.597-.72 1.066-1.26 1.407-.55.336-1.2.504-1.95.504zm0-1.183c.79 0 1.37-.261 1.75-.784s.58-1.199.58-2.03c0-.854-.2-1.533-.59-2.037-.38-.509-.96-.763-1.74-.763-.53 0-.96.119-1.3.357s-.6.567-.76.987c-.17.42-.26.905-.26 1.456 0 .849.2 1.531.59 2.044s.97.77 1.73.77zm8.41 1.183c-.75 0-1.4-.17-1.95-.511-.54-.341-.96-.812-1.25-1.414s-.44-1.293-.44-2.072c0-.793.15-1.489.45-2.086s.72-1.062 1.26-1.393c.55-.336 1.19-.504 1.93-.504.76 0 1.41.17 1.95.511.55.336.97.805 1.26 1.407.29.597.44 1.286.44 2.065 0 .789-.15 1.484-.44 2.086-.3.597-.72 1.066-1.26 1.407-.55.336-1.2.504-1.95.504zm0-1.183c.78 0 1.37-.261 1.75-.784s.57-1.199.57-2.03c0-.854-.19-1.533-.58-2.037-.38-.509-.97-.763-1.74-.763-.53 0-.96.119-1.3.357s-.6.567-.77.987c-.16.42-.25.905-.25 1.456 0 .849.2 1.531.59 2.044s.97.77 1.73.77zm5.33.973v-10.29h1.24v10.29zm6.01-3.899v-1.029h9.24v1.029z" fill="#fbfaff"/><path d="m1107.91 228v-1.855h-4.64v-1.183l3.33-7.042h1.41l-3.32 7.042h3.22v-2.835h1.26v2.835h1.05v1.183h-1.05v1.855zm6.97.21c-.52 0-1.01-.107-1.45-.322-.45-.215-.83-.509-1.14-.882-.32-.378-.54-.812-.68-1.302l1.2-.322c.08.331.23.618.45.861.21.238.46.425.75.56.29.131.59.196.9.196.41 0 .78-.098 1.11-.294.33-.201.59-.464.78-.791.19-.331.29-.693.29-1.085 0-.406-.1-.772-.3-1.099-.2-.331-.46-.593-.79-.784-.34-.191-.7-.287-1.09-.287-.44 0-.82.093-1.14.28-.31.182-.56.406-.74.672l-1.11-.42.31-5.271h5.41v1.183h-4.81l.55-.518-.25 4.221-.28-.357c.28-.299.62-.53 1-.693.4-.163.79-.245 1.2-.245.63 0 1.19.147 1.68.441.49.289.89.686 1.18 1.19.29.499.43 1.062.43 1.687 0 .621-.16 1.188-.48 1.701-.31.509-.74.917-1.26 1.225-.53.303-1.1.455-1.72.455zm6.25-.21-.84-.84 9.26-9.24.84.84zm7.16.21c-.46 0-.89-.112-1.27-.336-.38-.229-.68-.532-.91-.91-.23-.383-.34-.807-.34-1.274 0-.457.11-.877.35-1.26.23-.383.54-.688.92-.917s.8-.343 1.25-.343c.46 0 .88.114 1.27.343.38.224.68.527.91.91.22.378.34.8.34 1.267s-.12.891-.34 1.274c-.23.378-.53.681-.91.91-.39.224-.81.336-1.27.336zm0-1.099c.25 0 .49-.065.71-.196.21-.131.39-.303.51-.518.13-.215.2-.45.2-.707s-.07-.492-.2-.707c-.12-.219-.3-.392-.51-.518-.22-.131-.46-.196-.71-.196-.26 0-.49.065-.71.196-.21.126-.39.299-.52.518-.13.215-.19.45-.19.707s.06.492.19.707.31.387.52.518c.22.131.45.196.71.196zm-5.9-4.361c-.46 0-.88-.112-1.26-.336-.39-.229-.69-.532-.92-.91-.22-.383-.34-.807-.34-1.274 0-.457.12-.877.35-1.26.24-.383.55-.688.93-.917s.8-.343 1.24-.343c.47 0 .89.114 1.26.343.39.224.69.527.92.91.23.378.34.8.34 1.267s-.11.891-.34 1.274c-.23.378-.53.681-.92.91-.37.224-.79.336-1.26.336zm0-1.099c.26 0 .5-.065.71-.196.22-.131.39-.303.52-.518s.2-.45.2-.707-.07-.492-.2-.707c-.13-.219-.3-.392-.52-.518-.21-.131-.45-.196-.71-.196-.25 0-.49.065-.7.196-.22.126-.39.299-.52.518-.13.215-.2.45-.2.707s.07.492.2.707.3.387.52.518c.21.131.45.196.7.196z" fill="url(#s)"/><circle cx="282" cy="30" fill="url(#t)" r="4"/><circle cx="530" cy="214" fill="url(#u)" r="4"/><circle cx="778" cy="214" fill="url(#v)" r="4"/><circle cx="1026" cy="214" fill="url(#w)" r="4"/><circle cx="282" cy="214" fill="url(#x)" r="4"/><circle cx="351" cy="368" fill="url(#y)" r="4"/><circle cx="1095" cy="374" fill="url(#z)" r="4"/><circle cx="103" cy="374" fill="url(#A)" r="4"/></svg>