<svg fill="none" height="44" viewBox="0 0 44 44" width="44" xmlns="http://www.w3.org/2000/svg" xmlns:xlink="http://www.w3.org/1999/xlink"><linearGradient id="a" gradientUnits="userSpaceOnUse" x1="0" x2="46.9687" y1="44" y2="40.5625"><stop offset="0" stop-color="#0055d8"/><stop offset="1" stop-color="#2b7eff"/></linearGradient><circle cx="22" cy="22" fill="url(#a)" r="22"/><path d="m27.8064 16.1059s1.2951-.5194 1.1872.7421c-.036.5194-.3597 2.3374-.6116 4.3038l-.8634 5.8251s-.0719.8533-.7195 1.0017c-.6475.1484-1.6188-.5194-1.7987-.6678-.1439-.1113-2.6981-1.7809-3.5975-2.5972-.2519-.2226-.5397-.6678.0359-1.1872l3.7774-3.7102c.4317-.4453.8634-1.4841-.9353-.2226l-5.0365 3.5247s-.5756.371-1.6549.0371l-2.3384-.7421s-.8634-.5565.6116-1.1131c3.5975-1.7438 8.0225-3.5247 11.9437-5.1943z" fill="#fbfaff"/></svg>