<svg width="14" height="12" viewBox="0 0 14 12" fill="none" xmlns="http://www.w3.org/2000/svg">
<path d="M12.8064 0.105939C12.8064 0.105939 14.1015 -0.413489 13.9936 0.847981C13.9576 1.36742 13.6339 3.18541 13.382 5.15184L12.5186 10.9769C12.5186 10.9769 12.4467 11.8302 11.7991 11.9786C11.1516 12.127 10.1803 11.4592 10.0004 11.3108C9.85647 11.1995 7.30227 9.52988 6.40287 8.71364C6.15104 8.49102 5.86324 8.04579 6.43884 7.52636L10.2162 3.81617C10.6479 3.37094 11.0796 2.33208 9.28087 3.59355L4.24437 7.11826C4.24437 7.11826 3.66877 7.48926 2.58954 7.15536L0.25114 6.41331C0.25114 6.41331 -0.612264 5.85678 0.862717 5.30022C4.46024 3.55642 8.88517 1.77552 12.8064 0.105939Z" fill="#666666"/>
</svg>
