<svg width="320" height="155" viewBox="0 0 320 155" fill="none" xmlns="http://www.w3.org/2000/svg">
<g clip-path="url(#clip0_2_342)">
<path d="M69.0349 79.5203C68.6185 85.6281 69.7836 91.771 72.5024 97.437C75.7354 104.179 80.8824 109.653 87.3872 113.268L89.3502 114.358C92.5238 113.432 95.5363 112.107 98.3216 110.421C92.6078 109.73 86.9988 107.559 82.0932 103.808C74.1433 97.735 69.6787 88.7836 69.0349 79.5203Z" fill="#404040"/>
<path d="M65.7833 81.8136C65.7833 63.413 78.4882 47.9856 95.5878 43.8552C85.4897 38.8519 73.2782 38.382 62.3333 43.6484C43.456 52.733 35.5062 75.4252 44.5722 94.3378C52.0286 109.891 68.6734 118.036 84.8528 115.389C73.4355 108.58 65.7833 96.091 65.7833 81.8136Z" fill="#404040"/>
<path d="M98.9047 45.6956L97.4421 45.9971C95.9585 46.3021 94.4924 46.7018 93.0543 47.1927C95.2516 53.3637 92.5399 58.6299 94.5239 63.5002C96.5917 68.5806 101.753 69.5027 101.095 72.1815C100.318 75.3372 96.4413 74.65 96.6198 76.894C96.6933 77.7915 99.125 78.4331 98.4358 79.8601C98.0194 80.7262 97.2565 80.6806 96.9348 81.6624C96.5358 82.8755 98.3343 83.7311 97.8865 84.9267C97.3126 86.4695 95.0488 86.0451 95.4476 87.8053C95.843 89.5654 97.778 91.5289 96.3678 93.7693C95.3951 95.3121 91.2803 96.4656 86.0002 95.9082C84.6987 95.7714 83.4704 96.3009 82.6867 97.2336C82.5327 97.4614 81.385 99.2741 82.8721 100.505C82.9107 100.536 82.9456 100.568 82.9806 100.599C83.0156 100.628 83.0505 100.656 83.082 100.68C83.3655 100.915 83.6525 101.146 83.9463 101.371C88.2396 104.653 93.3376 106.728 98.6842 107.377L101.963 107.773C103.607 106.514 105.164 105.143 106.61 103.653C112.852 96.8794 116.666 87.8299 116.666 77.8827C116.666 64.3207 109.573 52.4205 98.9047 45.6956Z" fill="#404040"/>
<path d="M149.46 97.6436C144.641 97.6436 141.001 96.411 138.541 93.9457C136.081 91.4467 134.851 88.019 134.851 83.6627V61.4756H140.007V83.8653C140.007 86.8708 140.849 89.1504 142.534 90.7038C144.219 92.2234 146.528 92.9833 149.46 92.9833C152.358 92.9833 154.65 92.2234 156.335 90.7038C158.02 89.1504 158.862 86.8708 158.862 83.8653V61.4756H164.019V83.6627C164.019 87.9853 162.789 91.396 160.329 93.8952C157.868 96.3942 154.245 97.6436 149.46 97.6436Z" fill="#404040"/>
<path d="M173.889 61.4756H179.046L191.633 89.0828L204.22 61.4756H209.377V96.8838H204.372V71.708L192.897 96.8838H190.369L178.844 71.708V96.8838H173.889V61.4756Z" fill="#404040"/>
<path d="M230.559 61.4756H235.513L249.617 96.8838H244.359L240.822 88.0698H225.201L221.764 96.8838H216.456L230.559 61.4756ZM239.405 83.764L233.036 67.1997L226.667 83.764H239.405Z" fill="#404040"/>
<path d="M261.957 83.4601L249.117 61.4756H254.627L264.484 78.5464L274.493 61.4756H279.953L266.961 83.4601V96.8838H261.957V83.4601Z" fill="#404040"/>
</g>
<defs>
<clipPath id="clip0_2_342">
<rect width="240.777" height="77.6699" fill="white" transform="translate(40.0005 39.0706)"/>
</clipPath>
</defs>
</svg>
