<svg width="448" height="120" viewBox="0 0 448 120" fill="none" xmlns="http://www.w3.org/2000/svg">
<path d="M11.3555 51H3.19922C2.96484 51 2.84766 50.8828 2.84766 50.6484L2.91797 1.18359C2.91797 0.996094 3.01172 0.902344 3.19922 0.902344H11.2852C11.4727 0.902344 11.5664 0.996094 11.5664 1.18359L11.6367 50.6484C11.6367 50.8828 11.543 51 11.3555 51ZM31.8881 51H23.767C23.5561 51 23.4506 50.8828 23.4506 50.6484V9.58594H14.0991C13.8647 9.58594 13.7475 9.46875 13.7475 9.23438L13.8178 1.18359C13.8178 0.996094 13.9116 0.902344 14.0991 0.902344H41.4506C41.7084 0.902344 41.8373 0.996094 41.8373 1.18359V9.23438C41.8373 9.46875 41.7436 9.58594 41.5561 9.58594H32.0991L32.1694 50.6484C32.1694 50.8828 32.0756 51 31.8881 51ZM51.5067 17.8125H44.4403C44.2528 17.8125 44.1591 17.6953 44.1591 17.4609L45.3192 1.18359C45.3661 0.996094 45.4833 0.902344 45.6708 0.902344H52.8075C53.0419 0.902344 53.1356 0.996094 53.0887 1.18359L51.7177 17.6016C51.7177 17.7422 51.6473 17.8125 51.5067 17.8125ZM69.9652 51.7031C67.4105 51.7031 65.055 51.0469 62.8988 49.7344C60.7659 48.4219 59.055 46.6758 57.7659 44.4961C56.5003 42.293 55.8675 39.8789 55.8675 37.2539V33.9492C55.8675 33.6914 55.9847 33.5625 56.2191 33.5625H64.305C64.4925 33.5625 64.5863 33.6914 64.5863 33.9492V37.2539C64.5863 38.8242 65.1136 40.1836 66.1683 41.332C67.223 42.457 68.4886 43.0195 69.9652 43.0195C71.4652 43.0195 72.7425 42.4453 73.7972 41.2969C74.8519 40.125 75.3792 38.7773 75.3792 37.2539C75.3792 35.4961 74.2308 33.9609 71.9339 32.6484C71.5589 32.4141 71.0667 32.1328 70.4573 31.8047C69.8714 31.4531 69.1683 31.0547 68.348 30.6094C67.5277 30.1641 66.7308 29.7305 65.9573 29.3086C65.1839 28.8633 64.4339 28.4414 63.7073 28.043C61.0823 26.4961 59.1253 24.5625 57.8363 22.2422C56.5706 19.8984 55.9378 17.2734 55.9378 14.3672C55.9378 11.6953 56.5941 9.28125 57.9066 7.125C59.2191 4.99219 60.93 3.30469 63.0394 2.0625C65.1722 0.796875 67.4808 0.164062 69.9652 0.164062C72.5198 0.164062 74.8636 0.796875 76.9964 2.0625C79.1292 3.35156 80.8284 5.0625 82.0941 7.19531C83.3831 9.32813 84.0277 11.7188 84.0277 14.3672V20.2734C84.0277 20.4609 83.9339 20.5547 83.7464 20.5547H75.6605C75.473 20.5547 75.3792 20.4609 75.3792 20.2734L75.3089 14.3672C75.3089 12.6797 74.7816 11.3086 73.7269 10.2539C72.6722 9.19922 71.4183 8.67188 69.9652 8.67188C68.4886 8.67188 67.223 9.23438 66.1683 10.3594C65.1136 11.4844 64.5863 12.8203 64.5863 14.3672C64.5863 15.9375 64.9144 17.25 65.5706 18.3047C66.2503 19.3594 67.4808 20.3672 69.262 21.3281C69.4495 21.4219 69.8831 21.6562 70.5628 22.0312C71.2425 22.4062 71.9925 22.8281 72.8128 23.2969C73.6566 23.7422 74.4183 24.1523 75.098 24.5273C75.7777 24.8789 76.1878 25.0898 76.3284 25.1602C78.7191 26.4961 80.6058 28.1367 81.9886 30.082C83.3948 32.0273 84.098 34.418 84.098 37.2539C84.098 39.9961 83.4652 42.457 82.1995 44.6367C80.9105 46.8164 79.1995 48.5391 77.0667 49.8047C74.9339 51.0703 72.5667 51.7031 69.9652 51.7031ZM128.468 51H105.195C105.007 51 104.913 50.8828 104.913 50.6484L104.984 1.18359C104.984 0.996094 105.077 0.902344 105.265 0.902344H128.398C128.585 0.902344 128.679 1.01953 128.679 1.25391V9.30469C128.679 9.49219 128.585 9.58594 128.398 9.58594H113.632V20.8359H128.398C128.585 20.8359 128.679 20.9297 128.679 21.1172L128.749 29.2734C128.749 29.4609 128.655 29.5547 128.468 29.5547H113.632V42.1406H128.468C128.655 42.1406 128.749 42.2578 128.749 42.4922V50.7188C128.749 50.9062 128.655 51 128.468 51ZM131.282 50.6484L140.212 1.18359C140.258 0.996094 140.376 0.902344 140.563 0.902344H151.005C151.192 0.902344 151.309 0.996094 151.356 1.18359L159.934 50.6484C159.958 50.8828 159.864 51 159.653 51H151.673C151.438 51 151.309 50.8828 151.286 50.6484L150.512 45.375H140.704L139.93 50.6484C139.907 50.8828 139.79 51 139.579 51H131.563C131.376 51 131.282 50.8828 131.282 50.6484ZM146.118 17.4609L145.696 14.7891L145.38 17.4609L142.145 37.6758H149.071L146.118 17.4609ZM175.229 51.7031C172.674 51.7031 170.318 51.0469 168.162 49.7344C166.029 48.4219 164.318 46.6758 163.029 44.4961C161.764 42.293 161.131 39.8789 161.131 37.2539V33.9492C161.131 33.6914 161.248 33.5625 161.482 33.5625H169.568C169.756 33.5625 169.85 33.6914 169.85 33.9492V37.2539C169.85 38.8242 170.377 40.1836 171.432 41.332C172.486 42.457 173.752 43.0195 175.229 43.0195C176.729 43.0195 178.006 42.4453 179.061 41.2969C180.115 40.125 180.643 38.7773 180.643 37.2539C180.643 35.4961 179.494 33.9609 177.197 32.6484C176.822 32.4141 176.33 32.1328 175.721 31.8047C175.135 31.4531 174.432 31.0547 173.611 30.6094C172.791 30.1641 171.994 29.7305 171.221 29.3086C170.447 28.8633 169.697 28.4414 168.971 28.043C166.346 26.4961 164.389 24.5625 163.1 22.2422C161.834 19.8984 161.201 17.2734 161.201 14.3672C161.201 11.6953 161.857 9.28125 163.17 7.125C164.482 4.99219 166.193 3.30469 168.303 2.0625C170.436 0.796875 172.744 0.164062 175.229 0.164062C177.783 0.164062 180.127 0.796875 182.26 2.0625C184.393 3.35156 186.092 5.0625 187.357 7.19531C188.647 9.32813 189.291 11.7188 189.291 14.3672V20.2734C189.291 20.4609 189.197 20.5547 189.01 20.5547H180.924C180.736 20.5547 180.643 20.4609 180.643 20.2734L180.572 14.3672C180.572 12.6797 180.045 11.3086 178.99 10.2539C177.936 9.19922 176.682 8.67188 175.229 8.67188C173.752 8.67188 172.486 9.23438 171.432 10.3594C170.377 11.4844 169.85 12.8203 169.85 14.3672C169.85 15.9375 170.178 17.25 170.834 18.3047C171.514 19.3594 172.744 20.3672 174.525 21.3281C174.713 21.4219 175.147 21.6562 175.826 22.0312C176.506 22.4062 177.256 22.8281 178.076 23.2969C178.92 23.7422 179.682 24.1523 180.361 24.5273C181.041 24.8789 181.451 25.0898 181.592 25.1602C183.982 26.4961 185.869 28.1367 187.252 30.082C188.658 32.0273 189.361 34.418 189.361 37.2539C189.361 39.9961 188.729 42.457 187.463 44.6367C186.174 46.8164 184.463 48.5391 182.33 49.8047C180.197 51.0703 177.83 51.7031 175.229 51.7031ZM207.925 51H199.664C199.5 51 199.417 50.9062 199.417 50.7188L199.488 30.2578L189.855 1.18359C189.808 0.996094 189.878 0.902344 190.066 0.902344H198.082C198.316 0.902344 198.457 0.996094 198.503 1.18359L203.812 20.5547L209.226 1.18359C209.273 0.996094 209.39 0.902344 209.578 0.902344H217.664C217.851 0.902344 217.921 0.996094 217.875 1.18359L208.136 29.9766L208.207 50.7188C208.207 50.9062 208.113 51 207.925 51ZM252.998 51H244.877C244.666 51 244.561 50.8828 244.561 50.6484V9.58594H235.209C234.975 9.58594 234.858 9.46875 234.858 9.23438L234.928 1.18359C234.928 0.996094 235.022 0.902344 235.209 0.902344H262.561C262.819 0.902344 262.948 0.996094 262.948 1.18359V9.23438C262.948 9.46875 262.854 9.58594 262.666 9.58594H253.209L253.28 50.6484C253.28 50.8828 253.186 51 252.998 51ZM278.348 51.7031C275.793 51.7031 273.437 51.0469 271.281 49.7344C269.148 48.4219 267.426 46.6758 266.113 44.4961C264.824 42.293 264.18 39.8789 264.18 37.2539L264.25 14.4375C264.25 11.7656 264.894 9.36328 266.183 7.23047C267.449 5.07422 269.16 3.35156 271.316 2.0625C273.473 0.75 275.816 0.09375 278.348 0.09375C280.973 0.09375 283.328 0.738281 285.414 2.02734C287.523 3.31641 289.211 5.05078 290.476 7.23047C291.765 9.38672 292.41 11.7891 292.41 14.4375L292.48 37.2539C292.48 39.8789 291.848 42.2812 290.582 44.4609C289.293 46.6641 287.582 48.4219 285.449 49.7344C283.316 51.0469 280.949 51.7031 278.348 51.7031ZM278.348 43.0195C279.801 43.0195 281.066 42.4336 282.144 41.2617C283.223 40.0664 283.762 38.7305 283.762 37.2539L283.691 14.4375C283.691 12.8438 283.187 11.4961 282.18 10.3945C281.172 9.29297 279.894 8.74219 278.348 8.74219C276.871 8.74219 275.605 9.28125 274.551 10.3594C273.496 11.4375 272.969 12.7969 272.969 14.4375V37.2539C272.969 38.8242 273.496 40.1836 274.551 41.332C275.605 42.457 276.871 43.0195 278.348 43.0195Z" fill="#FBFAFF"/>
<path d="M322.19 51H314.104C313.87 51 313.753 50.8828 313.753 50.6484L313.893 1.18359C313.893 0.996094 313.987 0.902344 314.175 0.902344H328.026C332.432 0.902344 335.913 2.25 338.467 4.94531C341.046 7.61719 342.335 11.2617 342.335 15.8789C342.335 19.2539 341.667 22.1953 340.331 24.7031C338.971 27.1875 337.214 29.1094 335.057 30.4688C332.901 31.8281 330.557 32.5078 328.026 32.5078H322.542V50.6484C322.542 50.8828 322.425 51 322.19 51ZM328.026 9.44531L322.542 9.51562V23.7891H328.026C329.55 23.7891 330.874 23.0625 331.999 21.6094C333.124 20.1328 333.686 18.2227 333.686 15.8789C333.686 14.0039 333.182 12.4688 332.175 11.2734C331.167 10.0547 329.784 9.44531 328.026 9.44531ZM369.336 51H346.063C345.875 51 345.781 50.8828 345.781 50.6484L345.852 1.25391C345.852 1.01953 345.969 0.902344 346.203 0.902344H354.219C354.453 0.902344 354.57 1.01953 354.57 1.25391L354.5 42.1406H369.336C369.57 42.1406 369.688 42.2578 369.688 42.4922V50.6484C369.688 50.8828 369.57 51 369.336 51ZM370.533 50.6484L379.462 1.18359C379.509 0.996094 379.627 0.902344 379.814 0.902344H390.255C390.443 0.902344 390.56 0.996094 390.607 1.18359L399.185 50.6484C399.209 50.8828 399.115 51 398.904 51H390.923C390.689 51 390.56 50.8828 390.537 50.6484L389.763 45.375H379.955L379.181 50.6484C379.158 50.8828 379.041 51 378.83 51H370.814C370.627 51 370.533 50.8828 370.533 50.6484ZM385.369 17.4609L384.947 14.7891L384.63 17.4609L381.396 37.6758H388.322L385.369 17.4609ZM415.78 51H407.519C407.355 51 407.272 50.9062 407.272 50.7188L407.343 30.2578L397.71 1.18359C397.663 0.996094 397.733 0.902344 397.921 0.902344H405.937C406.171 0.902344 406.312 0.996094 406.358 1.18359L411.667 20.5547L417.081 1.18359C417.128 0.996094 417.245 0.902344 417.433 0.902344H425.519C425.706 0.902344 425.776 0.996094 425.73 1.18359L415.991 29.9766L416.062 50.7188C416.062 50.9062 415.968 51 415.78 51ZM0.421875 118.648L9.35156 69.1836C9.39844 68.9961 9.51562 68.9023 9.70312 68.9023H20.1445C20.332 68.9023 20.4492 68.9961 20.4961 69.1836L29.0742 118.648C29.0977 118.883 29.0039 119 28.793 119H20.8125C20.5781 119 20.4492 118.883 20.4258 118.648L19.6523 113.375H9.84375L9.07031 118.648C9.04688 118.883 8.92969 119 8.71875 119H0.703125C0.515625 119 0.421875 118.883 0.421875 118.648ZM15.2578 85.4609L14.8359 82.7891L14.5195 85.4609L11.2852 105.676H18.2109L15.2578 85.4609ZM39.9741 119H32.767C32.392 119 32.2045 118.836 32.2045 118.508L32.1342 69.4648C32.1342 69.0898 32.3217 68.9023 32.6967 68.9023H39.2006L51.3647 97.2734L51.0131 69.4648C51.0131 69.0898 51.2241 68.9023 51.6459 68.9023H58.7827C59.0639 68.9023 59.2045 69.0898 59.2045 69.4648L59.2748 118.578C59.2748 118.859 59.1577 119 58.9233 119H52.5952L40.1147 92.4922L40.642 118.438C40.642 118.812 40.4194 119 39.9741 119ZM77.3466 118.93L64.4442 119C64.2098 119 64.0927 118.883 64.0927 118.648L64.2333 69.1836C64.2333 68.9961 64.327 68.9023 64.5145 68.9023L77.9794 68.832C80.6512 68.7617 83.0653 69.3711 85.2216 70.6602C87.4012 71.9492 89.1356 73.6953 90.4247 75.8984C91.7372 78.0781 92.3934 80.4922 92.3934 83.1406V103.812C92.3934 106.578 91.7255 109.109 90.3895 111.406C89.0302 113.68 87.2255 115.496 84.9755 116.855C82.7255 118.191 80.1825 118.883 77.3466 118.93ZM77.9794 77.4453L72.952 77.5156L72.8817 110.141H77.3466C79.1278 110.141 80.6278 109.52 81.8466 108.277C83.0653 107.035 83.6747 105.547 83.6747 103.812V83.0703C83.6747 81.5469 83.1122 80.2227 81.9872 79.0977C80.8622 77.9492 79.5262 77.3984 77.9794 77.4453ZM137.431 119H114.158C113.97 119 113.877 118.883 113.877 118.648L113.947 69.1836C113.947 68.9961 114.041 68.9023 114.228 68.9023H137.361C137.549 68.9023 137.642 69.0195 137.642 69.2539V77.3047C137.642 77.4922 137.549 77.5859 137.361 77.5859H122.595V88.8359H137.361C137.549 88.8359 137.642 88.9297 137.642 89.1172L137.713 97.2734C137.713 97.4609 137.619 97.5547 137.431 97.5547H122.595V110.141H137.431C137.619 110.141 137.713 110.258 137.713 110.492V118.719C137.713 118.906 137.619 119 137.431 119ZM140.245 118.648L149.175 69.1836C149.222 68.9961 149.339 68.9023 149.527 68.9023H159.968C160.155 68.9023 160.273 68.9961 160.32 69.1836L168.898 118.648C168.921 118.883 168.827 119 168.616 119H160.636C160.402 119 160.273 118.883 160.249 118.648L159.476 113.375H149.667L148.894 118.648C148.87 118.883 148.753 119 148.542 119H140.527C140.339 119 140.245 118.883 140.245 118.648ZM155.081 85.4609L154.659 82.7891L154.343 85.4609L151.109 105.676H158.034L155.081 85.4609ZM180.395 119H172.239C172.051 119 171.958 118.883 171.958 118.648L172.098 69.1836C172.098 68.9961 172.192 68.9023 172.38 68.9023H186.934C189.536 68.9023 191.926 69.5352 194.106 70.8008C196.286 72.0664 198.02 73.7656 199.309 75.8984C200.622 78.0312 201.278 80.4453 201.278 83.1406C201.278 84.8984 201.008 86.4922 200.469 87.9219C199.93 89.3516 199.298 90.5586 198.571 91.543C197.868 92.5273 197.223 93.2539 196.637 93.7227C199.239 96.6055 200.54 99.9922 200.54 103.883L200.61 118.648C200.61 118.883 200.493 119 200.258 119H192.102C191.915 119 191.821 118.93 191.821 118.789V103.883C191.821 102.148 191.212 100.648 189.993 99.3828C188.774 98.1172 187.274 97.4844 185.493 97.4844H180.747L180.676 118.648C180.676 118.883 180.583 119 180.395 119ZM186.934 77.5156H180.747V88.8359H186.934C188.411 88.8359 189.723 88.2852 190.872 87.1836C192.044 86.082 192.63 84.7344 192.63 83.1406C192.63 81.6172 192.067 80.3047 190.942 79.2031C189.817 78.0781 188.481 77.5156 186.934 77.5156ZM213.092 119H205.885C205.51 119 205.322 118.836 205.322 118.508L205.252 69.4648C205.252 69.0898 205.44 68.9023 205.815 68.9023H212.318L224.482 97.2734L224.131 69.4648C224.131 69.0898 224.342 68.9023 224.764 68.9023H231.9C232.182 68.9023 232.322 69.0898 232.322 69.4648L232.393 118.578C232.393 118.859 232.275 119 232.041 119H225.713L213.232 92.4922L213.76 118.438C213.76 118.812 213.537 119 213.092 119ZM269.837 119H261.118C260.907 119 260.79 118.883 260.767 118.648L252.259 69.1836C252.212 68.9961 252.282 68.9023 252.47 68.9023H260.556C260.743 68.9023 260.86 68.9961 260.907 69.1836L265.513 101.703L270.259 69.1836C270.306 68.9961 270.446 68.9023 270.681 68.9023H277.185C277.372 68.9023 277.489 68.9961 277.536 69.1836L282.212 101.703L286.888 69.1836C286.935 68.9961 287.052 68.9023 287.239 68.9023H295.255C295.489 68.9023 295.583 68.9961 295.536 69.1836L286.958 118.648C286.935 118.742 286.864 118.824 286.747 118.895L286.606 119H277.888C277.747 119 277.63 118.883 277.536 118.648L273.845 92.8086L270.188 118.648C270.165 118.883 270.048 119 269.837 119ZM306.823 119H298.666C298.432 119 298.315 118.883 298.315 118.648L298.385 69.1836C298.385 68.9961 298.479 68.9023 298.666 68.9023H306.752C306.94 68.9023 307.034 68.9961 307.034 69.1836L307.104 118.648C307.104 118.883 307.01 119 306.823 119ZM327.355 119H319.234C319.023 119 318.918 118.883 318.918 118.648V77.5859H309.566C309.332 77.5859 309.215 77.4688 309.215 77.2344L309.285 69.1836C309.285 68.9961 309.379 68.9023 309.566 68.9023H336.918C337.176 68.9023 337.305 68.9961 337.305 69.1836V77.2344C337.305 77.4688 337.211 77.5859 337.023 77.5859H327.566L327.637 118.648C327.637 118.883 327.543 119 327.355 119ZM347.818 119H339.661C339.474 119 339.38 118.883 339.38 118.648L339.45 69.1836C339.45 68.9961 339.568 68.9023 339.802 68.9023H347.818C348.052 68.9023 348.169 68.9961 348.169 69.1836L348.099 88.7656H358.892V69.1836C358.892 68.9961 358.986 68.9023 359.173 68.9023H367.189C367.423 68.9023 367.54 68.9961 367.54 69.1836L367.681 118.648C367.681 118.883 367.564 119 367.329 119H359.243C359.009 119 358.892 118.883 358.892 118.648V97.4844H348.099V118.648C348.099 118.883 348.005 119 347.818 119ZM402.629 119.703C400.098 119.703 397.754 119.047 395.598 117.734C393.442 116.422 391.719 114.664 390.43 112.461C389.164 110.234 388.531 107.809 388.531 105.184L388.672 69.1836C388.672 68.9961 388.766 68.9023 388.953 68.9023H397.039C397.227 68.9023 397.32 68.9961 397.32 69.1836V105.184C397.32 106.801 397.836 108.184 398.867 109.332C399.899 110.457 401.152 111.02 402.629 111.02C404.176 111.02 405.465 110.457 406.496 109.332C407.527 108.184 408.043 106.801 408.043 105.184V69.1836C408.043 68.9961 408.137 68.9023 408.324 68.9023H416.41C416.598 68.9023 416.692 68.9961 416.692 69.1836L416.832 105.184C416.832 107.832 416.199 110.27 414.934 112.496C413.645 114.699 411.934 116.457 409.801 117.77C407.668 119.059 405.277 119.703 402.629 119.703ZM433.287 119.703C430.732 119.703 428.377 119.047 426.22 117.734C424.087 116.422 422.377 114.676 421.087 112.496C419.822 110.293 419.189 107.879 419.189 105.254V101.949C419.189 101.691 419.306 101.562 419.541 101.562H427.627C427.814 101.562 427.908 101.691 427.908 101.949V105.254C427.908 106.824 428.435 108.184 429.49 109.332C430.545 110.457 431.81 111.02 433.287 111.02C434.787 111.02 436.064 110.445 437.119 109.297C438.173 108.125 438.701 106.777 438.701 105.254C438.701 103.496 437.552 101.961 435.255 100.648C434.88 100.414 434.388 100.133 433.779 99.8047C433.193 99.4531 432.49 99.0547 431.67 98.6094C430.849 98.1641 430.052 97.7305 429.279 97.3086C428.505 96.8633 427.755 96.4414 427.029 96.043C424.404 94.4961 422.447 92.5625 421.158 90.2422C419.892 87.8984 419.259 85.2734 419.259 82.3672C419.259 79.6953 419.916 77.2812 421.228 75.125C422.541 72.9922 424.252 71.3047 426.361 70.0625C428.494 68.7969 430.802 68.1641 433.287 68.1641C435.841 68.1641 438.185 68.7969 440.318 70.0625C442.451 71.3516 444.15 73.0625 445.416 75.1953C446.705 77.3281 447.349 79.7188 447.349 82.3672V88.2734C447.349 88.4609 447.255 88.5547 447.068 88.5547H438.982C438.795 88.5547 438.701 88.4609 438.701 88.2734L438.63 82.3672C438.63 80.6797 438.103 79.3086 437.048 78.2539C435.994 77.1992 434.74 76.6719 433.287 76.6719C431.81 76.6719 430.545 77.2344 429.49 78.3594C428.435 79.4844 427.908 80.8203 427.908 82.3672C427.908 83.9375 428.236 85.25 428.892 86.3047C429.572 87.3594 430.802 88.3672 432.584 89.3281C432.771 89.4219 433.205 89.6562 433.884 90.0312C434.564 90.4062 435.314 90.8281 436.134 91.2969C436.978 91.7422 437.74 92.1523 438.42 92.5273C439.099 92.8789 439.509 93.0898 439.65 93.1602C442.041 94.4961 443.927 96.1367 445.31 98.082C446.716 100.027 447.42 102.418 447.42 105.254C447.42 107.996 446.787 110.457 445.521 112.637C444.232 114.816 442.521 116.539 440.388 117.805C438.255 119.07 435.888 119.703 433.287 119.703Z" fill="url(#paint0_linear_2_249)"/>
<defs>
<linearGradient id="paint0_linear_2_249" x1="-3.85195e-06" y1="130" x2="514.976" y2="-13.2761" gradientUnits="userSpaceOnUse">
<stop stop-color="#0055D8"/>
<stop offset="1" stop-color="#2B7EFF"/>
</linearGradient>
</defs>
</svg>
